<svg width="13" height="14" viewBox="0 0 13 14" fill="none" xmlns="http://www.w3.org/2000/svg">
<g clip-path="url(#clip0_372_4211)">
<path fill-rule="evenodd" clip-rule="evenodd" d="M12.188 1.58603C12.3298 1.72783 12.3778 1.93834 12.3116 2.12763L8.65719 12.5687C8.58648 12.7707 8.3996 12.9091 8.18573 12.9178C7.97185 12.9266 7.77432 12.8038 7.68739 12.6082L5.68073 8.09325L1.16574 6.08659C0.970139 5.99966 0.847424 5.80213 0.856149 5.58826C0.864875 5.37438 1.00327 5.18751 1.20531 5.11679L11.6463 1.46243C11.8356 1.39618 12.0461 1.44422 12.188 1.58603ZM6.69891 7.81336L8.1067 10.9809L10.5703 3.94194L6.69891 7.81336ZM9.83204 3.20364L2.79309 5.66728L5.96062 7.07507L9.83204 3.20364Z" fill="white"/>
</g>
<defs>
<clipPath id="clip0_372_4211">
<rect width="12.5293" height="12.5293" fill="white" transform="translate(0.33374 0.911011)"/>
</clipPath>
</defs>
</svg>
