<svg width="11" height="11" viewBox="0 0 11 11" fill="none" xmlns="http://www.w3.org/2000/svg">
<path d="M10.005 4.4167e-05H0.995039C0.4455 4.4167e-05 0 0.445544 0 0.995083V10.005C0 10.5545 0.4455 11 0.995039 11H10.0049C10.5545 11 11 10.5545 11 10.005V0.995083C11 0.445544 10.5545 4.4167e-05 10.005 4.4167e-05ZM3.40387 9.49817C3.40387 9.6581 3.27423 9.78774 3.1143 9.78774H1.88166C1.72173 9.78774 1.59209 9.6581 1.59209 9.49817V4.33102C1.59209 4.17109 1.72173 4.04145 1.88166 4.04145H3.1143C3.27423 4.04145 3.40387 4.17109 3.40387 4.33102V9.49817ZM2.49798 3.55437C1.85125 3.55437 1.32697 3.03008 1.32697 2.38336C1.32697 1.73663 1.85125 1.21235 2.49798 1.21235C3.1447 1.21235 3.66899 1.73663 3.66899 2.38336C3.66899 3.03008 3.14473 3.55437 2.49798 3.55437ZM9.84558 9.52149C9.84558 9.66853 9.72636 9.78774 9.57933 9.78774H8.25662C8.10959 9.78774 7.99038 9.66853 7.99038 9.52149V7.09781C7.99038 6.73625 8.09643 5.51343 7.0455 5.51343C6.23032 5.51343 6.06497 6.35041 6.03177 6.72603V9.52149C6.03177 9.66853 5.91259 9.78774 5.76553 9.78774H4.48624C4.33921 9.78774 4.22 9.66853 4.22 9.52149V4.3077C4.22 4.16067 4.33921 4.04145 4.48624 4.04145H5.76553C5.91256 4.04145 6.03177 4.16067 6.03177 4.3077V4.75849C6.33404 4.30487 6.78326 3.95475 7.73971 3.95475C9.8577 3.95475 9.84558 5.93348 9.84558 7.02069V9.52149Z" fill="white"/>
</svg>
