<svg width="116" height="35" viewBox="0 0 116 35" fill="none" xmlns="http://www.w3.org/2000/svg">
<path d="M42.5606 22.4427C41.4288 22.4427 40.4426 22.2136 39.6017 21.7554C38.761 21.2866 38.1142 20.6206 37.6615 19.7576C37.2088 18.8946 36.9824 17.8876 36.9824 16.7369C36.9824 15.6182 37.2088 14.6273 37.6615 13.7642C38.125 12.9012 38.7718 12.2299 39.6017 11.7504C40.4426 11.271 41.4019 11.0312 42.4799 11.0312C43.7518 11.0312 44.8135 11.3722 45.6651 12.0541C46.5274 12.7254 47.1095 13.6523 47.4113 14.835L45.18 15.3305C44.9752 14.574 44.6411 13.9827 44.1776 13.5565C43.714 13.1196 43.132 12.9012 42.4313 12.9012C41.8169 12.9012 41.2725 13.0557 40.7983 13.3647C40.3239 13.6737 39.9574 14.1105 39.6987 14.6752C39.44 15.2399 39.3107 15.8899 39.3107 16.6251C39.3107 17.829 39.6017 18.788 40.1839 19.5019C40.7767 20.2157 41.5797 20.5727 42.593 20.5727C43.2721 20.5727 43.8541 20.3756 44.3392 19.9813C44.8243 19.5764 45.1423 19.0011 45.2932 18.2553L47.4921 18.7827C47.2011 19.8695 46.6137 20.7539 45.7298 21.4357C44.8566 22.107 43.8003 22.4427 42.5606 22.4427ZM52.1896 22.4266C51.3596 22.4266 50.6266 22.2562 49.9906 21.9152C49.3654 21.5743 48.8804 21.1001 48.5355 20.4928C48.1905 19.8855 48.0181 19.1876 48.0181 18.3991C48.0181 17.6106 48.1851 16.8915 48.5193 16.2415C48.8535 15.5809 49.3331 15.0588 49.9583 14.6752C50.5942 14.2916 51.3326 14.0999 52.1734 14.0999C52.9387 14.0999 53.6125 14.265 54.1945 14.5953C54.7874 14.9256 55.2455 15.3838 55.5689 15.9698C55.8923 16.5558 56.054 17.2164 56.054 17.9516C56.054 18.2287 56.0378 18.4631 56.0055 18.6548H50.2493C50.3033 19.3474 50.5135 19.8801 50.8799 20.2531C51.2464 20.626 51.7153 20.8125 52.2866 20.8125C52.7501 20.8125 53.1167 20.6899 53.3861 20.4448C53.6556 20.1891 53.8712 19.8589 54.0328 19.454L56.054 19.9014C55.8168 20.6473 55.3641 21.2547 54.6958 21.7234C54.0383 22.1922 53.2029 22.4266 52.1896 22.4266ZM53.8227 17.3283C53.758 16.8488 53.5747 16.4652 53.2729 16.1775C52.9819 15.8792 52.5992 15.7301 52.1249 15.7301C51.683 15.7301 51.3057 15.8739 50.9931 16.1616C50.6805 16.4386 50.4649 16.8275 50.3463 17.3283H53.8227ZM57.2827 14.2117H59.4978V16.705C59.7457 15.9059 60.1069 15.2719 60.5811 14.8031C61.0554 14.3343 61.6375 14.0999 62.3273 14.0999H62.3597V16.2415C61.368 16.2415 60.6404 16.4706 60.1769 16.9287C59.7242 17.3869 59.4978 18.1913 59.4978 19.342V22.3308H57.2827V14.2117ZM66.9224 22.4427C66.1247 22.4427 65.4025 22.2722 64.7557 21.9312C64.1198 21.5796 63.6185 21.0894 63.252 20.4608C62.8963 19.8322 62.7185 19.1024 62.7185 18.2712C62.7185 17.4508 62.8963 16.7263 63.252 16.0977C63.6185 15.4584 64.1198 14.9682 64.7557 14.6273C65.4025 14.2757 66.1247 14.0999 66.9224 14.0999C67.7308 14.0999 68.453 14.2757 69.089 14.6273C69.725 14.9682 70.2262 15.4584 70.5927 16.0977C70.9591 16.7263 71.1424 17.4508 71.1424 18.2712C71.1424 19.1024 70.9591 19.8322 70.5927 20.4608C70.237 21.0894 69.7357 21.5796 69.089 21.9312C68.453 22.2722 67.7308 22.4427 66.9224 22.4427ZM64.9982 18.2712C64.9982 19.081 65.1653 19.699 65.4995 20.1252C65.8336 20.5407 66.3079 20.7485 66.9224 20.7485C67.5368 20.7485 68.0111 20.5407 68.3452 20.1252C68.6902 19.699 68.8626 19.081 68.8626 18.2712C68.8626 17.4722 68.6902 16.8595 68.3452 16.4333C68.0111 16.0071 67.5368 15.794 66.9224 15.794C66.3079 15.794 65.8336 16.0071 65.4995 16.4333C65.1653 16.8595 64.9982 17.4722 64.9982 18.2712ZM78.7737 12.9012H75.3781V11.1431H84.4326V12.9012H81.037V22.3308H78.7737V12.9012ZM84.031 14.2117H86.2457V16.705C86.4937 15.9059 86.8551 15.2719 87.329 14.8031C87.8037 14.3343 88.3856 14.0999 89.0752 14.0999H89.1075V16.2415C88.1163 16.2415 87.3888 16.4706 86.9251 16.9287C86.4724 17.3869 86.2457 18.1913 86.2457 19.342V22.3308H84.031V14.2117ZM94.6745 16.9607C94.6745 16.5985 94.5556 16.3161 94.3186 16.1136C94.0926 15.9006 93.7691 15.794 93.3487 15.794C92.5614 15.794 91.9906 16.1775 91.6347 16.9447L89.646 16.4972C89.894 15.8046 90.3522 15.2346 91.0206 14.7871C91.6993 14.3289 92.5244 14.0999 93.4943 14.0999C94.5508 14.0999 95.3751 14.3502 95.968 14.851C96.5718 15.3518 96.8734 16.0764 96.8734 17.0246V22.3308H94.6745V20.8923C94.3729 21.3825 93.9682 21.766 93.462 22.0431C92.966 22.3094 92.411 22.4427 91.7961 22.4427C91.1064 22.4427 90.5246 22.2615 90.0499 21.8992C89.5759 21.5263 89.339 21.0149 89.339 20.3649C89.339 19.6191 89.6027 19.0597 90.131 18.6868C90.6703 18.3139 91.5111 18.0741 92.6535 17.9676C93.4187 17.9037 93.947 17.8077 94.2375 17.6799C94.5288 17.5414 94.6745 17.3017 94.6745 16.9607ZM91.667 20.0772C91.667 20.3543 91.7693 20.5674 91.974 20.7165C92.1898 20.8657 92.459 20.9403 92.7826 20.9403C93.2896 20.9403 93.7313 20.7539 94.1084 20.3809C94.4855 19.9974 94.6745 19.4273 94.6745 18.6708V18.5589C94.3942 18.8253 93.9202 18.9957 93.2518 19.0704C92.7015 19.1236 92.2976 19.2248 92.0386 19.374C91.7914 19.5125 91.667 19.7469 91.667 20.0772ZM104.17 20.6526C103.932 21.2066 103.593 21.6435 103.151 21.9631C102.709 22.2828 102.17 22.4427 101.534 22.4427C100.855 22.4427 100.246 22.2722 99.7068 21.9312C99.1786 21.5902 98.7581 21.1001 98.4456 20.4608C98.1441 19.8215 97.9929 19.0757 97.9929 18.2233C97.9929 17.3922 98.1441 16.6676 98.4456 16.0497C98.7581 15.421 99.173 14.9416 99.6911 14.6113C100.219 14.2703 100.796 14.0999 101.421 14.0999C102.068 14.0999 102.623 14.265 103.087 14.5953C103.55 14.9256 103.911 15.3891 104.17 15.9858V11.1431H106.369V22.3308H104.17V20.6526ZM100.273 18.2233C100.273 19.0118 100.44 19.635 100.774 20.0933C101.119 20.5514 101.577 20.7805 102.148 20.7805C102.763 20.7805 103.254 20.5568 103.62 20.1092C103.987 19.6617 104.17 19.0704 104.17 18.3352C104.17 17.568 103.981 16.9501 103.604 16.4812C103.237 16.0017 102.752 15.762 102.148 15.762C101.577 15.762 101.119 15.9858 100.774 16.4333C100.44 16.8808 100.273 17.4775 100.273 18.2233ZM111.718 22.4266C110.888 22.4266 110.154 22.2562 109.519 21.9152C108.894 21.5743 108.408 21.1001 108.063 20.4928C107.718 19.8855 107.546 19.1876 107.546 18.3991C107.546 17.6106 107.713 16.8915 108.047 16.2415C108.381 15.5809 108.861 15.0588 109.487 14.6752C110.122 14.2916 110.86 14.0999 111.701 14.0999C112.466 14.0999 113.14 14.265 113.722 14.5953C114.315 14.9256 114.773 15.3838 115.097 15.9698C115.42 16.5558 115.582 17.2164 115.582 17.9516C115.582 18.2287 115.566 18.4631 115.534 18.6548H109.777C109.831 19.3474 110.042 19.8801 110.408 20.2531C110.775 20.626 111.243 20.8125 111.815 20.8125C112.278 20.8125 112.644 20.6899 112.914 20.4448C113.184 20.1891 113.399 19.8589 113.561 19.454L115.582 19.9014C115.345 20.6473 114.892 21.2547 114.224 21.7234C113.566 22.1922 112.731 22.4266 111.718 22.4266ZM113.351 17.3283C113.286 16.8488 113.103 16.4652 112.801 16.1775C112.51 15.8792 112.127 15.7301 111.653 15.7301C111.211 15.7301 110.834 15.8739 110.521 16.1616C110.209 16.4386 109.993 16.8275 109.875 17.3283H113.351Z" fill="#C6F221"/>
<g clip-path="url(#clip0_513_241)">
<g filter="url(#filter0_d_513_241)">
<path d="M23.9726 4.11902H11.027C7.32894 4.11902 4.33105 7.12442 4.33105 10.8318V23.7538C4.33105 27.4612 7.32894 30.4666 11.027 30.4666H23.9726C27.6707 30.4666 30.6686 27.4612 30.6686 23.7538V10.8318C30.6686 7.12442 27.6707 4.11902 23.9726 4.11902Z" fill="#C6F221"/>
<path d="M22.5225 13.489H14.9656L13.7462 11.854H12.4768C11.095 11.854 9.97461 12.9855 9.97461 14.3812V18.5691C9.97461 19.9647 11.095 21.0962 12.4768 21.0962H20.0336L21.253 22.7312H22.5225C23.9043 22.7312 25.0246 21.5997 25.0246 20.2041V16.0162C25.0246 14.6205 23.9043 13.489 22.5225 13.489ZM23.031 19.9057C23.031 20.3585 22.6675 20.7255 22.2194 20.7255H20.37L19.1455 19.0905H12.7799C12.3315 19.0905 11.9682 18.7233 11.9682 18.2707V14.6797C11.9682 14.2269 12.3315 13.86 12.7799 13.86H14.6293L15.8537 15.495H22.2194C22.6677 15.495 23.031 15.8621 23.031 16.3147V19.9057Z" fill="#0C1319"/>
</g>
</g>
<defs>
<filter id="filter0_d_513_241" x="-44.7727" y="-42.4339" width="124.545" height="124.555" filterUnits="userSpaceOnUse" color-interpolation-filters="sRGB">
<feFlood flood-opacity="0" result="BackgroundImageFix"/>
<feColorMatrix in="SourceAlpha" type="matrix" values="0 0 0 0 0 0 0 0 0 0 0 0 0 0 0 0 0 0 127 0" result="hardAlpha"/>
<feOffset dy="2.55085"/>
<feGaussianBlur stdDeviation="24.5519"/>
<feComposite in2="hardAlpha" operator="out"/>
<feColorMatrix type="matrix" values="0 0 0 0 0 0 0 0 0 0 0 0 0 0 0 0 0 0 0.46 0"/>
<feBlend mode="normal" in2="BackgroundImageFix" result="effect1_dropShadow_513_241"/>
<feBlend mode="normal" in="SourceGraphic" in2="effect1_dropShadow_513_241" result="shape"/>
</filter>
<clipPath id="clip0_513_241">
<rect width="35" height="35" fill="white"/>
</clipPath>
</defs>
</svg>
