<svg width="117" height="36" viewBox="0 0 117 36" fill="none" xmlns="http://www.w3.org/2000/svg">
<path d="M42.9122 22.9911C41.7804 22.9911 40.7941 22.762 39.9533 22.3039C39.1126 21.835 38.4658 21.1691 38.013 20.3061C37.5603 19.443 37.334 18.4361 37.334 17.2854C37.334 16.1666 37.5603 15.1757 38.013 14.3127C38.4766 13.4496 39.1233 12.7784 39.9533 12.2989C40.7941 11.8194 41.7535 11.5797 42.8314 11.5797C44.1034 11.5797 45.1651 11.9207 46.0166 12.6026C46.879 13.2738 47.4611 14.2008 47.7629 15.3835L45.5316 15.879C45.3267 15.1225 44.9926 14.5311 44.5291 14.1049C44.0656 13.6681 43.4835 13.4496 42.7828 13.4496C42.1684 13.4496 41.6241 13.6041 41.1498 13.9131C40.6755 14.2221 40.309 14.659 40.0503 15.2237C39.7916 15.7884 39.6622 16.4384 39.6622 17.1735C39.6622 18.3775 39.9533 19.3365 40.5354 20.0504C41.1283 20.7642 41.9313 21.1212 42.9445 21.1212C43.6237 21.1212 44.2057 20.924 44.6908 20.5298C45.1759 20.1249 45.4939 19.5496 45.6447 18.8037L47.8437 19.3311C47.5526 20.418 46.9653 21.3023 46.0814 21.9842C45.2082 22.6555 44.1519 22.9911 42.9122 22.9911ZM52.5412 22.9751C51.7111 22.9751 50.9782 22.8047 50.3422 22.4637C49.717 22.1227 49.2319 21.6486 48.887 21.0412C48.542 20.4339 48.3696 19.736 48.3696 18.9475C48.3696 18.1591 48.5367 17.4399 48.8708 16.79C49.205 16.1293 49.6846 15.6072 50.3098 15.2237C50.9458 14.8401 51.6842 14.6483 52.525 14.6483C53.2903 14.6483 53.964 14.8135 54.5461 15.1438C55.1389 15.4741 55.5971 15.9322 55.9205 16.5183C56.2438 17.1043 56.4055 17.7649 56.4055 18.5001C56.4055 18.7771 56.3894 19.0115 56.357 19.2033H50.6009C50.6548 19.8959 50.865 20.4286 51.2315 20.8016C51.598 21.1745 52.0669 21.3609 52.6382 21.3609C53.1016 21.3609 53.4682 21.2384 53.7376 20.9933C54.0071 20.7376 54.2228 20.4073 54.3844 20.0024L56.4055 20.4499C56.1684 21.1957 55.7156 21.8031 55.0474 22.2719C54.3898 22.7407 53.5544 22.9751 52.5412 22.9751ZM54.1743 17.8767C54.1095 17.3973 53.9263 17.0137 53.6245 16.726C53.3334 16.4277 52.9508 16.2785 52.4765 16.2785C52.0346 16.2785 51.6573 16.4223 51.3446 16.71C51.0321 16.9871 50.8165 17.376 50.6979 17.8767H54.1743ZM57.6343 14.7602H59.8494V17.2535C60.0973 16.4543 60.4584 15.8204 60.9327 15.3515C61.407 14.8827 61.9891 14.6483 62.6789 14.6483H62.7113V16.79C61.7196 16.79 60.992 17.0191 60.5285 17.4772C60.0757 17.9353 59.8494 18.7398 59.8494 19.8905V22.8792H57.6343V14.7602ZM67.2739 22.9911C66.4763 22.9911 65.7541 22.8206 65.1073 22.4797C64.4713 22.128 63.9701 21.6379 63.6036 21.0093C63.2479 20.3806 63.07 19.6508 63.07 18.8197C63.07 17.9993 63.2479 17.2748 63.6036 16.6461C63.9701 16.0068 64.4713 15.5167 65.1073 15.1757C65.7541 14.8241 66.4763 14.6483 67.2739 14.6483C68.0823 14.6483 68.8046 14.8241 69.4406 15.1757C70.0765 15.5167 70.5777 16.0068 70.9442 16.6461C71.3107 17.2748 71.494 17.9993 71.494 18.8197C71.494 19.6508 71.3107 20.3806 70.9442 21.0093C70.5885 21.6379 70.0873 22.128 69.4406 22.4797C68.8046 22.8206 68.0823 22.9911 67.2739 22.9911ZM65.3498 18.8197C65.3498 19.6295 65.5169 20.2475 65.8511 20.6737C66.1852 21.0892 66.6595 21.297 67.2739 21.297C67.8883 21.297 68.3626 21.0892 68.6967 20.6737C69.0417 20.2475 69.2141 19.6295 69.2141 18.8197C69.2141 18.0206 69.0417 17.4079 68.6967 16.9817C68.3626 16.5556 67.8883 16.3424 67.2739 16.3424C66.6595 16.3424 66.1852 16.5556 65.8511 16.9817C65.5169 17.4079 65.3498 18.0206 65.3498 18.8197ZM79.1252 13.4496H75.7297V11.6916H84.7841V13.4496H81.3885V22.8792H79.1252V13.4496ZM84.3826 14.7602H86.5973V17.2535C86.8453 16.4543 87.2066 15.8204 87.6806 15.3515C88.1553 14.8827 88.7371 14.6483 89.4268 14.6483H89.4591V16.79C88.4679 16.79 87.7404 17.0191 87.2767 17.4772C86.824 17.9353 86.5973 18.7398 86.5973 19.8905V22.8792H84.3826V14.7602ZM95.026 17.5092C95.026 17.1469 94.9071 16.8645 94.6702 16.6621C94.4442 16.449 94.1206 16.3424 93.7002 16.3424C92.9129 16.3424 92.3421 16.726 91.9863 17.4932L89.9976 17.0457C90.2456 16.3531 90.7038 15.783 91.3722 15.3356C92.0508 14.8774 92.8759 14.6483 93.8459 14.6483C94.9024 14.6483 95.7267 14.8987 96.3195 15.3995C96.9234 15.9002 97.2249 16.6248 97.2249 17.5731V22.8792H95.026V21.4408C94.7245 21.931 94.3198 22.3145 93.8136 22.5915C93.3176 22.8579 92.7625 22.9911 92.1477 22.9911C91.458 22.9911 90.8762 22.81 90.4015 22.4477C89.9275 22.0748 89.6905 21.5633 89.6905 20.9134C89.6905 20.1675 89.9543 19.6082 90.4826 19.2353C91.0218 18.8623 91.8627 18.6226 93.005 18.516C93.7703 18.4521 94.2986 18.3562 94.5891 18.2283C94.8804 18.0899 95.026 17.8501 95.026 17.5092ZM92.0186 20.6257C92.0186 20.9027 92.1209 21.1159 92.3256 21.265C92.5413 21.4142 92.8106 21.4888 93.1341 21.4888C93.6412 21.4888 94.0828 21.3023 94.4599 20.9293C94.8371 20.5458 95.026 19.9758 95.026 19.2193V19.1074C94.7457 19.3738 94.2718 19.5442 93.6034 19.6188C93.0531 19.6721 92.6492 19.7733 92.3902 19.9225C92.143 20.061 92.0186 20.2954 92.0186 20.6257ZM104.522 21.2011C104.284 21.7551 103.944 22.192 103.503 22.5116C103.06 22.8313 102.522 22.9911 101.886 22.9911C101.206 22.9911 100.598 22.8206 100.058 22.4797C99.5301 22.1387 99.1097 21.6486 98.7971 21.0093C98.4956 20.37 98.3445 19.6241 98.3445 18.7718C98.3445 17.9407 98.4956 17.2161 98.7971 16.5981C99.1097 15.9695 99.5246 15.49 100.043 15.1598C100.571 14.8188 101.147 14.6483 101.772 14.6483C102.419 14.6483 102.975 14.8135 103.438 15.1438C103.901 15.4741 104.263 15.9376 104.522 16.5342V11.6916H106.72V22.8792H104.522V21.2011ZM100.624 18.7718C100.624 19.5602 100.791 20.1835 101.126 20.6417C101.471 21.0998 101.929 21.3289 102.5 21.3289C103.115 21.3289 103.605 21.1052 103.971 20.6577C104.338 20.2102 104.522 19.6188 104.522 18.8837C104.522 18.1165 104.333 17.4985 103.955 17.0297C103.589 16.5502 103.104 16.3105 102.5 16.3105C101.929 16.3105 101.471 16.5342 101.126 16.9817C100.791 17.4293 100.624 18.0259 100.624 18.7718ZM112.069 22.9751C111.24 22.9751 110.506 22.8047 109.87 22.4637C109.245 22.1227 108.76 21.6486 108.415 21.0412C108.07 20.4339 107.897 19.736 107.897 18.9475C107.897 18.1591 108.064 17.4399 108.399 16.79C108.733 16.1293 109.212 15.6072 109.838 15.2237C110.473 14.8401 111.212 14.6483 112.053 14.6483C112.818 14.6483 113.492 14.8135 114.074 15.1438C114.667 15.4741 115.125 15.9322 115.448 16.5183C115.772 17.1043 115.933 17.7649 115.933 18.5001C115.933 18.7771 115.918 19.0115 115.885 19.2033H110.129C110.183 19.8959 110.393 20.4286 110.759 20.8016C111.126 21.1745 111.595 21.3609 112.166 21.3609C112.63 21.3609 112.996 21.2384 113.266 20.9933C113.535 20.7376 113.751 20.4073 113.912 20.0024L115.933 20.4499C115.696 21.1957 115.244 21.8031 114.575 22.2719C113.918 22.7407 113.083 22.9751 112.069 22.9751ZM113.702 17.8767C113.638 17.3973 113.454 17.0137 113.153 16.726C112.861 16.4277 112.479 16.2785 112.005 16.2785C111.562 16.2785 111.185 16.4223 110.873 16.71C110.56 16.9871 110.344 17.376 110.226 17.8767H113.702Z" fill="#C6F221"/>
<g clip-path="url(#clip0_513_277)">
<g filter="url(#filter0_d_513_277)">
<path d="M24.3241 4.66748H11.3786C7.68051 4.66748 4.68262 7.67288 4.68262 11.3802V24.3023C4.68262 28.0096 7.68051 31.015 11.3786 31.015H24.3241C28.0222 31.015 31.0201 28.0096 31.0201 24.3023V11.3802C31.0201 7.67288 28.0222 4.66748 24.3241 4.66748Z" fill="#C6F221"/>
<path d="M22.874 14.0375H15.3172L14.0978 12.4025H12.8283C11.4465 12.4025 10.3262 13.534 10.3262 14.9297V19.1176C10.3262 20.5132 11.4465 21.6447 12.8283 21.6447H20.3852L21.6046 23.2797H22.874C24.2558 23.2797 25.3762 22.1482 25.3762 20.7526V16.5647C25.3762 15.169 24.2558 14.0375 22.874 14.0375ZM23.3826 20.4541C23.3826 20.9069 23.0191 21.274 22.5709 21.274H20.7215L19.497 19.639H13.1314C12.6831 19.639 12.3198 19.2718 12.3198 18.8191V15.2282C12.3198 14.7754 12.6831 14.4084 13.1314 14.4084H14.9808L16.2053 16.0434H22.5709C23.0193 16.0434 23.3826 16.4105 23.3826 16.8632V20.4541Z" fill="#0C1319"/>
</g>
</g>
<defs>
<filter id="filter0_d_513_277" x="-44.4212" y="-41.8855" width="124.545" height="124.555" filterUnits="userSpaceOnUse" color-interpolation-filters="sRGB">
<feFlood flood-opacity="0" result="BackgroundImageFix"/>
<feColorMatrix in="SourceAlpha" type="matrix" values="0 0 0 0 0 0 0 0 0 0 0 0 0 0 0 0 0 0 127 0" result="hardAlpha"/>
<feOffset dy="2.55085"/>
<feGaussianBlur stdDeviation="24.5519"/>
<feComposite in2="hardAlpha" operator="out"/>
<feColorMatrix type="matrix" values="0 0 0 0 0 0 0 0 0 0 0 0 0 0 0 0 0 0 0.46 0"/>
<feBlend mode="normal" in2="BackgroundImageFix" result="effect1_dropShadow_513_277"/>
<feBlend mode="normal" in="SourceGraphic" in2="effect1_dropShadow_513_277" result="shape"/>
</filter>
<clipPath id="clip0_513_277">
<rect width="35" height="35" fill="white" transform="translate(0.351562 0.548462)"/>
</clipPath>
</defs>
</svg>
