<svg width="300" height="300" viewBox="0 0 300 300" fill="none" xmlns="http://www.w3.org/2000/svg">
<path d="M269.941 239.096H250.067V239.246H269.941V239.096Z" fill="#EBEBEB"/>
<path d="M198.732 240.725H193.516V240.875H198.732V240.725Z" fill="#EBEBEB"/>
<path d="M249.467 233.525H237.952V233.675H249.467V233.525Z" fill="#EBEBEB"/>
<path d="M57.3914 234.533H31.4756V234.683H57.3914V234.533Z" fill="#EBEBEB"/>
<path d="M66.5332 234.533H62.7334V234.683H66.5332V234.533Z" fill="#EBEBEB"/>
<path d="M135.088 237.067H78.8828V237.217H135.088V237.067Z" fill="#EBEBEB"/>
<path d="M142.209 202.68H26.3491C24.4609 202.68 22.9243 201.143 22.9243 199.255V36.396C22.9243 34.5078 24.4609 32.9712 26.3491 32.9712H142.209C144.096 32.9712 145.633 34.5078 145.633 36.396V199.255C145.633 201.143 144.096 202.68 142.209 202.68ZM26.3491 33.1218C24.5431 33.1218 23.0743 34.5906 23.0743 36.3966V199.256C23.0743 201.062 24.5431 202.531 26.3491 202.531H142.209C144.014 202.531 145.483 201.062 145.483 199.256V36.396C145.483 34.5906 144.014 33.1212 142.209 33.1212L26.3491 33.1218Z" fill="#EBEBEB"/>
<path d="M271.986 202.68H156.127C154.239 202.68 152.703 201.143 152.703 199.255V36.396C152.703 34.5078 154.24 32.9712 156.127 32.9712H271.986C273.875 32.9712 275.411 34.5078 275.411 36.396V199.255C275.412 201.143 273.875 202.68 271.986 202.68ZM156.127 33.1218C154.322 33.1218 152.853 34.5906 152.853 36.3966V199.256C152.853 201.062 154.322 202.531 156.127 202.531H271.986C273.792 202.531 275.261 201.062 275.261 199.256V36.396C275.261 34.5906 273.792 33.1212 271.986 33.1212L156.127 33.1218Z" fill="#EBEBEB"/>
<path d="M300 229.439H0V229.589H300V229.439Z" fill="#EBEBEB"/>
<path d="M98.5131 230.138H96.2013C95.8083 230.138 95.4897 229.819 95.4897 229.426V175.206H99.2247V229.426C99.2247 229.819 98.9061 230.138 98.5131 230.138Z" fill="#F0F0F0"/>
<path d="M211.112 170.322H178.738V175.206H211.112V170.322Z" fill="#E6E6E6"/>
<path d="M121.653 230.138H119.341C118.948 230.138 118.63 229.819 118.63 229.426V175.206H122.365V229.426C122.364 229.819 122.046 230.138 121.653 230.138Z" fill="#E6E6E6"/>
<path d="M208.241 230.138H205.929C205.536 230.138 205.218 229.819 205.218 229.426V175.206H208.953V229.426C208.953 229.819 208.634 230.138 208.241 230.138Z" fill="#E6E6E6"/>
<path d="M187.972 170.322H93.3311V175.206H187.972V170.322Z" fill="#F5F5F5"/>
<path d="M185.102 230.138H182.79C182.397 230.138 182.078 229.819 182.078 229.426V175.206H185.813V229.426C185.813 229.819 185.495 230.138 185.102 230.138Z" fill="#F0F0F0"/>
<path d="M243.76 229.382H245.342V130.216H243.76V229.382Z" fill="#EBEBEB"/>
<path d="M262.311 119.954C262.311 125.015 258.718 129.43 253.386 131.783H235.716C230.385 129.43 226.792 125.015 226.792 119.954C226.792 114.892 230.385 110.478 235.716 108.124H253.387C258.718 110.477 262.311 114.892 262.311 119.954Z" fill="#F0F0F0"/>
<path d="M235.943 131.395C231.378 129.25 227.242 125.348 227.242 119.953C227.242 114.569 231.382 110.655 235.943 108.512C236.467 108.266 236.011 107.489 235.489 107.735C230.638 110.014 226.342 114.256 226.342 119.953C226.342 125.653 230.637 129.892 235.489 132.172C236.01 132.417 236.468 131.641 235.943 131.395Z" fill="#E0E0E0"/>
<path d="M239.816 107.806C233.555 113.785 233.554 126.122 239.816 132.101C240.235 132.502 240.872 131.866 240.452 131.465C234.545 125.823 234.543 114.085 240.452 108.442C240.872 108.041 240.235 107.405 239.816 107.806Z" fill="#E0E0E0"/>
<path d="M244.101 108.124C244.101 116.01 244.101 123.896 244.101 131.783C244.101 132.362 245.001 132.363 245.001 131.783C245.001 123.896 245.001 116.01 245.001 108.124C245.001 107.545 244.101 107.544 244.101 108.124Z" fill="#E0E0E0"/>
<path d="M248.651 108.442C254.559 114.084 254.56 125.822 248.651 131.465C248.231 131.866 248.868 132.502 249.288 132.102C255.549 126.123 255.549 113.786 249.288 107.806C248.868 107.405 248.231 108.041 248.651 108.442Z" fill="#E0E0E0"/>
<path d="M253.159 108.512C257.725 110.657 261.861 114.559 261.861 119.954C261.861 125.338 257.721 129.252 253.159 131.395C252.636 131.641 253.092 132.418 253.614 132.172C258.465 129.893 262.761 125.651 262.761 119.954C262.761 114.254 258.466 110.015 253.614 107.735C253.093 107.491 252.635 108.266 253.159 108.512Z" fill="#E0E0E0"/>
<path d="M233.422 230.138H255.682C255.682 228.637 254.465 227.42 252.964 227.42H236.139C234.638 227.42 233.422 228.637 233.422 230.138Z" fill="#EBEBEB"/>
<path d="M68.5099 186.059C68.5603 186.131 68.1823 186.541 69.5179 186.506C72.8083 186.421 78.5959 185.81 80.5741 182.681C83.3989 178.213 76.2505 179.085 76.7905 176.689C77.3305 174.293 85.1677 175.694 86.4469 172.24C87.7267 168.785 82.1641 169.816 82.3081 168.073C82.4521 166.33 88.4845 168.171 90.1843 164.484C91.8841 160.797 86.8735 163.045 87.6073 161.515C88.3405 159.986 94.4521 153.413 91.7179 152.222C88.9837 151.032 83.2837 157.849 81.3085 158.669C79.3333 159.49 78.4441 153.24 75.9283 155.521C73.4125 157.801 75.7927 167.167 72.7729 168.552C70.5235 169.584 71.5549 166.101 68.7151 166.423C64.8577 166.86 64.4779 180.241 68.5099 186.059Z" fill="#EBEBEB"/>
<path d="M80.8835 167.917C79.5995 167.866 78.6293 168.008 78.0209 168.144C79.3661 166.618 80.2907 165.864 80.3237 165.838C80.4281 165.755 80.4455 165.604 80.3633 165.499C80.2811 165.395 80.1293 165.377 80.0249 165.46C79.9991 165.48 77.8697 167.191 75.3305 170.739C75.0743 164.492 78.3011 159.459 78.3347 159.407C78.3893 159.324 78.3653 159.212 78.2819 159.157C78.1991 159.102 78.0863 159.126 78.0317 159.209C77.9963 159.263 74.5517 164.634 74.9957 171.212C74.5871 171.801 74.1707 172.433 73.7525 173.116C72.5435 175.089 71.2175 177.646 70.0313 180.778C69.6083 179.725 68.6855 176.932 69.0305 173.236C69.0401 173.136 68.9669 173.048 68.8673 173.039C68.7659 173.033 68.6795 173.103 68.6705 173.202C68.2715 177.48 69.5429 180.597 69.8447 181.265C68.2493 185.618 66.9419 191.056 66.5843 197.609C66.5771 197.742 66.6791 197.855 66.8117 197.863C66.8219 197.864 66.8321 197.864 66.8417 197.863C66.9611 197.855 67.0589 197.759 67.0655 197.636C67.5395 188.959 69.6839 182.204 72.1133 177.188C72.6299 176.722 74.1317 175.546 76.2035 175.483C76.2983 175.472 76.3817 175.396 76.3781 175.296C76.3751 175.196 76.2917 175.118 76.1915 175.121C74.5529 175.177 73.2719 175.864 72.4931 176.42C74.2577 172.946 76.1297 170.369 77.6027 168.63C78.0245 168.5 79.1675 168.211 80.8697 168.279C80.9687 168.278 81.0539 168.206 81.0575 168.105C81.0611 168.005 80.9837 167.921 80.8835 167.917Z" fill="#E0E0E0"/>
<path d="M59.5511 188.267C55.8383 188.338 49.4957 184.889 47.0057 181.535C44.4791 178.13 51.5867 180.242 50.8565 177.569C50.1269 174.896 41.3639 176.872 39.7469 173.043C38.1299 169.214 44.4521 170.094 44.2013 168.137C43.9505 166.18 37.4003 166.578 35.2979 162.508C33.1955 158.438 38.9567 160.718 38.0525 159.031C37.1483 157.345 29.9267 150.245 32.9489 148.765C35.9711 147.284 42.7403 154.679 45.0089 155.504C47.2769 156.33 47.8073 151.222 50.7581 153.665C53.7095 156.109 51.5003 166.786 54.9743 168.194C57.5621 169.244 56.4611 164.355 59.4401 165.589C64.6547 167.748 61.0589 188.239 59.5511 188.267Z" fill="#E6E6E6"/>
<g opacity="0.3">
<path d="M59.5511 188.267C55.8383 188.338 49.4957 184.889 47.0057 181.535C44.4791 178.13 51.5867 180.242 50.8565 177.569C50.1269 174.896 41.3639 176.872 39.7469 173.043C38.1299 169.214 44.4521 170.094 44.2013 168.137C43.9505 166.18 37.4003 166.578 35.2979 162.508C33.1955 158.438 38.9567 160.718 38.0525 159.031C37.1483 157.345 29.9267 150.245 32.9489 148.765C35.9711 147.284 42.7403 154.679 45.0089 155.504C47.2769 156.33 47.8073 151.222 50.7581 153.665C53.7095 156.109 51.5003 166.786 54.9743 168.194C57.5621 169.244 56.4611 164.355 59.4401 165.589C64.6547 167.748 61.0589 188.239 59.5511 188.267Z" fill="#E6E6E6"/>
</g>
<path d="M58.3248 183.811C58.3782 183.79 58.4274 183.757 58.4562 183.702C58.5432 183.537 60.5778 179.6 60.1218 173.747C60.111 173.611 59.9958 173.51 59.8548 173.519C59.718 173.53 59.616 173.65 59.6268 173.786C60.012 178.727 58.5372 182.344 58.1238 183.247C56.4612 178.735 54.4692 174.721 52.4694 171.285C53.1264 163.312 49.0404 156.782 48.999 156.718C48.9252 156.602 48.7722 156.568 48.6564 156.641C48.5406 156.715 48.5064 156.868 48.5802 156.984C48.6198 157.046 52.3722 163.049 52.0224 170.516C47.2632 162.545 42.618 157.914 42.525 157.823C42.3948 157.696 42.1848 157.696 42.057 157.828C41.9292 157.958 41.931 158.168 42.0618 158.296C42.1398 158.372 45.4428 161.672 49.3092 167.459C47.0436 166.617 44.586 166.179 42.2892 166.223C42.1518 166.225 42.0432 166.339 42.0456 166.477C42.048 166.612 42.159 166.72 42.294 166.72C42.2958 166.72 42.297 166.72 42.2988 166.72C44.7582 166.676 47.4048 167.19 49.7868 168.178C51.1164 170.216 52.497 172.545 53.8272 175.126C52.551 174.263 50.0712 173.068 46.9002 173.906C46.7676 173.941 46.6884 174.077 46.7232 174.209C46.7586 174.342 46.8942 174.424 47.0268 174.386C51.0492 173.325 53.8848 175.729 54.3486 176.156C57.9894 183.488 61.1304 192.758 61.5462 203.38C61.5528 203.559 61.6998 203.698 61.8768 203.698C61.8816 203.698 61.8858 203.698 61.89 203.698C62.0724 203.691 62.2146 203.537 62.208 203.354C61.9242 196.167 60.402 189.596 58.3248 183.811Z" fill="#F5F5F5"/>
<path d="M70.5917 230.138C73.4687 221.94 75.3593 210.095 75.3593 204.903C75.3593 200.515 74.0015 196.576 71.8463 193.819H57.1121C54.9569 196.576 53.5991 200.515 53.5991 204.903C53.5991 210.095 55.4891 221.94 58.3661 230.138H70.5917Z" fill="#E6E6E6"/>
<path d="M63.1705 186.44C63.2173 186.482 63.0235 186.829 63.9433 186.583C66.2089 185.977 70.1173 184.59 70.9669 182.092C72.1807 178.526 67.3729 180.32 67.3483 178.571C67.3237 176.821 72.9865 176.487 73.2985 173.881C73.6099 171.274 69.9277 172.914 69.7375 171.683C69.5473 170.452 74.0329 170.723 74.5969 167.885C75.1609 165.048 72.0637 167.439 72.3175 166.258C72.5713 165.076 75.7117 159.505 73.6189 159.135C71.5261 158.765 68.7115 164.437 67.4797 165.334C66.2479 166.232 64.5913 162.049 63.2275 164.048C61.8637 166.046 65.0719 172.139 63.2101 173.602C61.8235 174.691 61.9579 172.106 60.0445 172.802C57.4441 173.746 59.4079 183.08 63.1705 186.44Z" fill="#F5F5F5"/>
<path d="M68.7243 171.811C67.8261 171.989 67.1775 172.249 66.7785 172.445C67.4565 171.163 67.9719 170.488 67.9905 170.464C68.0487 170.389 68.0361 170.281 67.9611 170.222C67.8867 170.164 67.7787 170.177 67.7199 170.251C67.7055 170.27 66.5145 171.809 65.3457 174.69C64.1283 170.404 65.5263 166.38 65.5413 166.339C65.5653 166.271 65.5299 166.198 65.4633 166.174C65.3967 166.149 65.3223 166.184 65.2989 166.252C65.2833 166.295 63.7905 170.59 65.1927 175.073C65.0079 175.549 64.8249 176.057 64.6485 176.599C64.1391 178.167 63.6459 180.16 63.3453 182.527C62.8767 181.868 61.7727 180.086 61.3965 177.467C61.3863 177.397 61.3209 177.348 61.2507 177.358C61.1793 177.371 61.1313 177.434 61.1415 177.504C61.5771 180.535 62.9769 182.482 63.2973 182.896C62.9163 186.176 62.9157 190.162 63.7587 194.762C63.7761 194.856 63.8655 194.918 63.9591 194.9C63.9663 194.899 63.9729 194.897 63.9801 194.895C64.0617 194.869 64.1133 194.786 64.0971 194.701C62.9817 188.61 63.3429 183.572 64.1913 179.693C64.4715 179.284 65.3163 178.219 66.7413 177.83C66.8055 177.807 66.8505 177.74 66.8313 177.672C66.8127 177.604 66.7419 177.563 66.6729 177.582C65.5467 177.893 64.7739 178.582 64.3263 179.098C64.9707 176.396 65.8389 174.3 66.5703 172.85C66.8409 172.689 67.5849 172.299 68.7753 172.063C68.8437 172.046 68.8905 171.982 68.8767 171.911C68.8623 171.842 68.7945 171.797 68.7243 171.811Z" fill="#E0E0E0"/>
<path d="M142.314 178.351H103.395V230.138H142.314V178.351Z" fill="#F5F5F5"/>
<path d="M149.738 178.351H142.314V230.138H149.738V178.351Z" fill="#E6E6E6"/>
<path d="M139.787 182.193H106.12V194.77H139.787V182.193Z" fill="#FAFAFA"/>
<path d="M118.564 182.193L118.711 183.869C118.76 184.423 119.223 184.847 119.778 184.847H126.131C126.686 184.847 127.149 184.423 127.198 183.869L127.345 182.193H118.564Z" fill="#EBEBEB"/>
<path d="M139.787 196.144H106.12V208.72H139.787V196.144Z" fill="#FAFAFA"/>
<path d="M118.564 196.143L118.711 197.819C118.76 198.373 119.223 198.797 119.778 198.797H126.131C126.686 198.797 127.149 198.373 127.198 197.819L127.345 196.143H118.564Z" fill="#EBEBEB"/>
<path d="M139.787 210.094H106.12V222.67H139.787V210.094Z" fill="#FAFAFA"/>
<path d="M118.564 210.094L118.711 211.77C118.76 212.323 119.223 212.747 119.778 212.747H126.131C126.686 212.747 127.149 212.323 127.198 211.77L127.345 210.094H118.564Z" fill="#EBEBEB"/>
<path d="M147.107 254.228C211.356 254.228 263.44 251.187 263.44 247.435C263.44 243.682 211.356 240.641 147.107 240.641C82.8577 240.641 30.7734 243.682 30.7734 247.435C30.7734 251.187 82.8577 254.228 147.107 254.228Z" fill="#F5F5F5"/>
<path d="M228.404 168.916H74.4608C73.175 168.916 72.1328 167.873 72.1328 166.588V54.2064C72.1328 52.9206 73.175 51.8784 74.4608 51.8784H228.405C229.69 51.8784 230.732 52.9206 230.732 54.2064V166.588C230.732 167.873 229.69 168.916 228.404 168.916Z" fill="#A3CD0C"/>
<path opacity="0.6" d="M228.404 168.916H74.4608C73.175 168.916 72.1328 167.873 72.1328 166.588V54.2064C72.1328 52.9206 73.175 51.8784 74.4608 51.8784H228.405C229.69 51.8784 230.732 52.9206 230.732 54.2064V166.588C230.732 167.873 229.69 168.916 228.404 168.916Z" fill="white"/>
<path opacity="0.3" d="M103.037 51.8784H75.1004C73.4612 51.8784 72.1328 53.2068 72.1328 54.846V165.948C72.1328 167.587 73.4612 168.916 75.1004 168.916H103.037V51.8784Z" fill="white"/>
<path d="M227.764 51.8784H75.1004C73.4612 51.8784 72.1328 53.2068 72.1328 54.846V62.5878H230.732V54.846C230.732 53.2068 229.403 51.8784 227.764 51.8784Z" fill="#263238"/>
<path d="M77.3143 55.677C77.0281 55.677 76.7959 55.4448 76.7959 55.1586C76.7959 54.8724 77.0281 54.6402 77.3143 54.6402H81.4021C81.6883 54.6402 81.9205 54.8724 81.9205 55.1586C81.9205 55.4448 81.6883 55.677 81.4021 55.677H77.3143Z" fill="white"/>
<path d="M77.3143 57.7518C77.0281 57.7518 76.7959 57.5196 76.7959 57.2334C76.7959 56.9472 77.0281 56.715 77.3143 56.715H81.4021C81.6883 56.715 81.9205 56.9472 81.9205 57.2334C81.9205 57.5196 81.6883 57.7518 81.4021 57.7518H77.3143Z" fill="white"/>
<path d="M77.3143 59.826C77.0281 59.826 76.7959 59.5938 76.7959 59.3076C76.7959 59.0214 77.0281 58.7892 77.3143 58.7892H81.4021C81.6883 58.7892 81.9205 59.0214 81.9205 59.3076C81.9205 59.5938 81.6883 59.826 81.4021 59.826H77.3143Z" fill="white"/>
<path opacity="0.7" d="M108.497 70.7874V105.199C108.497 105.926 109.086 106.514 109.812 106.514H120.55C121.276 106.514 121.866 105.926 121.866 105.199V70.7874C121.866 70.0614 121.277 69.4722 120.55 69.4722H109.812C109.086 69.4722 108.497 70.0608 108.497 70.7874Z" fill="white"/>
<path opacity="0.4" d="M125.208 70.7874V105.199C125.208 105.926 125.796 106.514 126.523 106.514H137.261C137.988 106.514 138.576 105.926 138.576 105.199V70.7874C138.576 70.0614 137.988 69.4722 137.261 69.4722H126.523C125.797 69.4722 125.208 70.0608 125.208 70.7874Z" fill="white"/>
<path opacity="0.7" d="M141.918 70.7874V105.199C141.918 105.926 142.507 106.514 143.233 106.514H153.971C154.698 106.514 155.287 105.926 155.287 105.199V70.7874C155.287 70.0614 154.698 69.4722 153.971 69.4722H143.233C142.507 69.4722 141.918 70.0608 141.918 70.7874Z" fill="white"/>
<path opacity="0.4" d="M158.629 70.7874V105.199C158.629 105.926 159.217 106.514 159.944 106.514H170.682C171.409 106.514 171.997 105.926 171.997 105.199V70.7874C171.997 70.0614 171.409 69.4722 170.682 69.4722H159.944C159.218 69.4722 158.629 70.0608 158.629 70.7874Z" fill="white"/>
<path opacity="0.7" d="M175.339 70.7874V105.199C175.339 105.926 175.928 106.514 176.655 106.514H187.393C188.119 106.514 188.708 105.926 188.708 105.199V70.7874C188.708 70.0614 188.119 69.4722 187.393 69.4722H176.655C175.929 69.4722 175.339 70.0608 175.339 70.7874Z" fill="white"/>
<path opacity="0.4" d="M192.05 70.7874V105.199C192.05 105.926 192.639 106.514 193.365 106.514H204.103C204.829 106.514 205.419 105.926 205.419 105.199V70.7874C205.419 70.0614 204.83 69.4722 204.103 69.4722H193.365C192.639 69.4722 192.05 70.0608 192.05 70.7874Z" fill="white"/>
<path opacity="0.7" d="M208.76 70.7874V105.199C208.76 105.926 209.349 106.514 210.076 106.514H220.814C221.541 106.514 222.129 105.926 222.129 105.199V70.7874C222.129 70.0614 221.541 69.4722 220.814 69.4722H210.076C209.349 69.4722 208.76 70.0608 208.76 70.7874Z" fill="white"/>
<path d="M143.363 129.227H142.887V129.841H142.226V129.227H140.652V128.771L142.031 126.917H142.74L141.462 128.675H142.248V128.128H142.887V128.675H143.364L143.363 129.227Z" fill="black"/>
<path d="M145.47 128.261C145.667 128.426 145.765 128.646 145.765 128.921C145.765 129.1 145.721 129.262 145.631 129.408C145.542 129.554 145.406 129.671 145.224 129.759C145.042 129.847 144.817 129.89 144.549 129.89C144.343 129.89 144.141 129.863 143.942 129.809C143.742 129.755 143.573 129.677 143.434 129.577L143.702 129.059C143.813 129.142 143.941 129.207 144.086 129.253C144.231 129.299 144.38 129.322 144.533 129.322C144.702 129.322 144.836 129.289 144.934 129.222C145.031 129.155 145.08 129.062 145.08 128.942C145.08 128.816 145.029 128.722 144.927 128.658C144.826 128.594 144.65 128.561 144.399 128.561H143.651L143.802 126.916H145.586V127.459H144.366L144.32 128.014H144.558C144.97 128.015 145.274 128.097 145.47 128.261Z" fill="black"/>
<path d="M146.151 128.276C146.016 128.13 145.949 127.934 145.949 127.689C145.949 127.444 146.017 127.248 146.151 127.102C146.286 126.956 146.462 126.883 146.676 126.883C146.89 126.883 147.064 126.956 147.198 127.102C147.332 127.248 147.398 127.444 147.398 127.689C147.398 127.934 147.331 128.129 147.198 128.276C147.064 128.422 146.89 128.495 146.676 128.495C146.462 128.495 146.286 128.423 146.151 128.276ZM146.9 128.036C146.954 127.958 146.981 127.842 146.981 127.689C146.981 127.536 146.954 127.42 146.9 127.342C146.845 127.264 146.771 127.225 146.676 127.225C146.584 127.225 146.51 127.265 146.454 127.345C146.399 127.424 146.371 127.539 146.371 127.69C146.371 127.84 146.399 127.955 146.454 128.035C146.51 128.114 146.584 128.153 146.676 128.153C146.771 128.153 146.845 128.114 146.9 128.036ZM148.418 126.916H148.915L146.918 129.841H146.421L148.418 126.916ZM148.286 129.776C148.176 129.711 148.091 129.617 148.029 129.494C147.968 129.372 147.938 129.23 147.938 129.068C147.938 128.906 147.968 128.765 148.029 128.642C148.091 128.52 148.176 128.426 148.286 128.36C148.396 128.295 148.521 128.262 148.66 128.262C148.874 128.262 149.049 128.335 149.184 128.481C149.319 128.627 149.387 128.823 149.387 129.068C149.387 129.313 149.319 129.509 149.184 129.655C149.049 129.802 148.874 129.874 148.66 129.874C148.521 129.874 148.396 129.841 148.286 129.776ZM148.884 129.413C148.938 129.333 148.965 129.218 148.965 129.068C148.965 128.917 148.938 128.803 148.884 128.723C148.83 128.644 148.755 128.603 148.661 128.603C148.569 128.603 148.495 128.642 148.439 128.72C148.383 128.798 148.356 128.914 148.356 129.067C148.356 129.22 148.384 129.336 148.439 129.414C148.495 129.492 148.569 129.531 148.661 129.531C148.755 129.532 148.829 129.492 148.884 129.413Z" fill="black"/>
<path d="M188.704 128.12C188.857 128.195 188.978 128.302 189.067 128.439C189.156 128.577 189.201 128.737 189.201 128.917C189.201 129.112 189.152 129.284 189.055 129.431C188.957 129.579 188.824 129.692 188.655 129.772C188.487 129.851 188.299 129.891 188.094 129.891C187.684 129.891 187.364 129.766 187.133 129.515C186.902 129.265 186.786 128.906 186.786 128.441C186.786 128.11 186.849 127.826 186.975 127.589C187.099 127.352 187.274 127.173 187.498 127.05C187.723 126.928 187.983 126.866 188.278 126.866C188.434 126.866 188.583 126.883 188.728 126.918C188.871 126.953 188.993 127.003 189.093 127.066L188.842 127.564C188.697 127.466 188.515 127.418 188.296 127.418C188.048 127.418 187.851 127.49 187.707 127.635C187.561 127.78 187.484 127.99 187.473 128.266C187.645 128.093 187.887 128.007 188.195 128.007C188.38 128.007 188.551 128.045 188.704 128.12ZM188.41 129.268C188.5 129.19 188.545 129.085 188.545 128.951C188.545 128.817 188.5 128.711 188.41 128.631C188.319 128.551 188.199 128.512 188.048 128.512C187.9 128.512 187.779 128.552 187.684 128.635C187.59 128.717 187.543 128.822 187.543 128.95C187.543 129.079 187.589 129.182 187.681 129.263C187.773 129.344 187.897 129.385 188.056 129.385C188.201 129.385 188.319 129.347 188.41 129.268Z" fill="black"/>
<path d="M191.363 128.261C191.559 128.426 191.658 128.646 191.658 128.921C191.658 129.1 191.613 129.262 191.524 129.408C191.435 129.554 191.299 129.671 191.117 129.759C190.934 129.847 190.709 129.89 190.442 129.89C190.236 129.89 190.033 129.863 189.835 129.809C189.636 129.755 189.466 129.677 189.327 129.577L189.594 129.059C189.706 129.142 189.834 129.207 189.979 129.253C190.123 129.299 190.272 129.322 190.426 129.322C190.596 129.322 190.729 129.289 190.827 129.222C190.924 129.155 190.974 129.062 190.974 128.942C190.974 128.816 190.923 128.722 190.821 128.658C190.719 128.594 190.543 128.561 190.293 128.561H189.545L189.695 126.916H191.479V127.459H190.259L190.213 128.014H190.452C190.862 128.015 191.167 128.097 191.363 128.261Z" fill="black"/>
<path d="M192.044 128.276C191.909 128.13 191.842 127.934 191.842 127.689C191.842 127.444 191.909 127.248 192.044 127.102C192.179 126.956 192.354 126.883 192.568 126.883C192.783 126.883 192.957 126.956 193.09 127.102C193.224 127.248 193.291 127.444 193.291 127.689C193.291 127.934 193.224 128.129 193.09 128.276C192.957 128.422 192.783 128.495 192.568 128.495C192.354 128.495 192.179 128.423 192.044 128.276ZM192.792 128.036C192.846 127.958 192.873 127.842 192.873 127.689C192.873 127.536 192.846 127.42 192.792 127.342C192.737 127.264 192.663 127.225 192.568 127.225C192.477 127.225 192.403 127.265 192.346 127.345C192.291 127.424 192.264 127.539 192.264 127.69C192.264 127.84 192.291 127.955 192.346 128.035C192.402 128.114 192.477 128.153 192.568 128.153C192.663 128.153 192.737 128.114 192.792 128.036ZM194.31 126.916H194.807L192.81 129.841H192.313L194.31 126.916ZM194.179 129.776C194.068 129.711 193.983 129.617 193.922 129.494C193.861 129.372 193.83 129.23 193.83 129.068C193.83 128.906 193.861 128.765 193.922 128.642C193.983 128.52 194.068 128.426 194.179 128.36C194.289 128.295 194.413 128.262 194.552 128.262C194.766 128.262 194.941 128.335 195.076 128.481C195.211 128.627 195.279 128.823 195.279 129.068C195.279 129.313 195.211 129.509 195.076 129.655C194.941 129.802 194.766 129.874 194.552 129.874C194.413 129.874 194.289 129.841 194.179 129.776ZM194.776 129.413C194.83 129.333 194.857 129.218 194.857 129.068C194.857 128.917 194.83 128.803 194.776 128.723C194.722 128.644 194.647 128.603 194.553 128.603C194.461 128.603 194.387 128.642 194.332 128.72C194.276 128.798 194.248 128.914 194.248 129.067C194.248 129.22 194.276 129.336 194.332 129.414C194.387 129.492 194.461 129.531 194.553 129.531C194.647 129.532 194.722 129.492 194.776 129.413Z" fill="black"/>
<path d="M197.621 58.7802C197.454 58.9428 197.213 59.0442 196.898 59.0826V59.5506H196.48V59.0952C196.273 59.0838 196.078 59.0478 195.891 58.9866C195.704 58.9254 195.554 58.8504 195.439 58.761L195.669 58.2516C195.775 58.3296 195.9 58.395 196.041 58.4478C196.183 58.5006 196.33 58.5342 196.48 58.548V57.8502C196.282 57.8028 196.115 57.75 195.979 57.6912C195.843 57.6324 195.728 57.5472 195.636 57.4344C195.544 57.3216 195.498 57.1716 195.498 56.9856C195.498 56.7546 195.582 56.556 195.751 56.3904C195.919 56.2248 196.162 56.1234 196.48 56.0874V55.6236H196.898V56.079C197.241 56.1066 197.523 56.1918 197.746 56.334L197.537 56.8482C197.328 56.7282 197.115 56.6556 196.898 56.631V57.3408C197.093 57.3858 197.258 57.4362 197.393 57.4938C197.528 57.5508 197.642 57.6354 197.734 57.7482C197.826 57.861 197.872 58.0092 197.872 58.1928C197.871 58.4214 197.788 58.617 197.621 58.7802ZM196.251 57.1236C196.303 57.168 196.38 57.2058 196.48 57.2364V56.643C196.375 56.6682 196.297 56.7078 196.246 56.7618C196.197 56.8164 196.171 56.8794 196.171 56.952C196.171 57.0222 196.197 57.0792 196.251 57.1236ZM197.124 58.4226C197.173 58.3728 197.199 58.3128 197.199 58.2432C197.199 58.1736 197.173 58.1166 197.121 58.0722C197.07 58.0278 196.995 57.9888 196.898 57.9552V58.5318C196.998 58.509 197.073 58.4724 197.124 58.4226Z" fill="white"/>
<path d="M199.237 56.1252V59.0496H198.561V56.6682H197.976V56.1252H199.237Z" fill="white"/>
<path d="M201.932 58.4982V59.0496H199.722V58.611L200.85 57.5454C200.97 57.4314 201.051 57.333 201.093 57.2508C201.135 57.1686 201.155 57.087 201.155 57.0066C201.155 56.8896 201.116 56.7996 201.036 56.7372C200.957 56.6742 200.841 56.6436 200.688 56.6436C200.559 56.6436 200.444 56.6676 200.341 56.7162C200.238 56.7654 200.151 56.8386 200.082 56.9352L199.589 56.6178C199.703 56.448 199.861 56.3154 200.061 56.2188C200.262 56.1228 200.492 56.0748 200.751 56.0748C200.968 56.0748 201.158 56.1102 201.321 56.1816C201.484 56.2524 201.611 56.3526 201.701 56.4822C201.792 56.6118 201.837 56.7642 201.837 56.94C201.837 57.099 201.804 57.2478 201.737 57.387C201.671 57.5262 201.541 57.6852 201.349 57.8634L200.676 58.4982H201.932Z" fill="white"/>
<path d="M202.35 58.9656C202.272 58.8882 202.233 58.7904 202.233 58.6734C202.233 58.554 202.272 58.4574 202.35 58.383C202.428 58.3092 202.524 58.2726 202.638 58.2726C202.752 58.2726 202.848 58.3098 202.926 58.383C203.004 58.4568 203.043 58.554 203.043 58.6734C203.043 58.7904 203.004 58.8882 202.926 58.9656C202.848 59.0436 202.752 59.0826 202.638 59.0826C202.524 59.0826 202.428 59.0436 202.35 58.9656Z" fill="white"/>
<path d="M203.899 58.92C203.71 58.8006 203.562 58.6272 203.455 58.3998C203.347 58.1724 203.294 57.9018 203.294 57.5868C203.294 57.2724 203.348 57.0012 203.455 56.7744C203.562 56.547 203.71 56.3742 203.899 56.2542C204.089 56.1348 204.304 56.0748 204.547 56.0748C204.789 56.0748 205.005 56.1348 205.194 56.2542C205.384 56.3742 205.532 56.5476 205.639 56.7744C205.746 57.0012 205.8 57.2724 205.8 57.5868C205.8 57.9018 205.746 58.1724 205.639 58.3998C205.532 58.6272 205.383 58.8 205.194 58.92C205.005 59.04 204.789 59.0994 204.547 59.0994C204.305 59.0994 204.089 59.0394 203.899 58.92ZM204.967 58.2978C205.068 58.1448 205.119 57.9078 205.119 57.5874C205.119 57.267 205.068 57.0306 204.967 56.8776C204.865 56.7246 204.725 56.6478 204.547 56.6478C204.371 56.6478 204.232 56.7246 204.131 56.8776C204.029 57.0306 203.979 57.2676 203.979 57.5874C203.979 57.9078 204.029 58.1448 204.131 58.2978C204.232 58.4508 204.371 58.5276 204.547 58.5276C204.726 58.527 204.865 58.4508 204.967 58.2978Z" fill="white"/>
<path d="M208.119 56.4486C208.35 56.6982 208.465 57.0564 208.465 57.525C208.465 57.8562 208.404 58.1406 208.279 58.377C208.155 58.614 207.981 58.7934 207.755 58.9158C207.529 59.0382 207.269 59.0994 206.974 59.0994C206.818 59.0994 206.668 59.082 206.527 59.0472C206.385 59.0124 206.263 58.9632 206.163 58.899L206.414 58.4016C206.556 58.4994 206.738 58.548 206.961 58.548C207.209 58.548 207.405 58.4748 207.55 58.3284C207.696 58.182 207.774 57.9708 207.784 57.6954C207.609 57.8712 207.367 57.9588 207.058 57.9588C206.871 57.9588 206.701 57.921 206.548 57.846C206.395 57.7704 206.274 57.6642 206.185 57.5262C206.095 57.3882 206.051 57.2292 206.051 57.0474C206.051 56.853 206.1 56.6814 206.197 56.5338C206.295 56.3862 206.427 56.2728 206.596 56.193C206.764 56.1138 206.952 56.0736 207.158 56.0736C207.567 56.0748 207.888 56.1996 208.119 56.4486ZM207.569 57.33C207.663 57.2484 207.709 57.1428 207.709 57.015C207.709 56.8866 207.664 56.7822 207.573 56.7018C207.483 56.6214 207.358 56.5806 207.199 56.5806C207.054 56.5806 206.937 56.6196 206.846 56.6976C206.755 56.7756 206.71 56.8812 206.71 57.015C206.71 57.1488 206.755 57.255 206.846 57.3348C206.937 57.414 207.057 57.4536 207.208 57.4536C207.355 57.4536 207.476 57.4122 207.569 57.33Z" fill="white"/>
<path d="M211.125 57.7962C211.202 57.9132 211.24 58.0482 211.24 58.2012C211.24 58.3824 211.188 58.5402 211.085 58.6758C210.982 58.8108 210.837 58.9152 210.65 58.989C210.464 59.0628 210.248 59.0994 210.003 59.0994C209.758 59.0994 209.543 59.0622 209.357 58.989C209.172 58.9152 209.028 58.8108 208.927 58.6758C208.825 58.5408 208.774 58.3824 208.774 58.2012C208.774 58.0482 208.812 57.9132 208.889 57.7962C208.966 57.6792 209.075 57.5844 209.217 57.5118C209.109 57.4452 209.025 57.3606 208.967 57.2592C208.908 57.1578 208.879 57.0414 208.879 56.9106C208.879 56.7408 208.926 56.5932 209.021 56.4678C209.116 56.3424 209.249 56.2458 209.418 56.1774C209.588 56.1096 209.783 56.0748 210.003 56.0748C210.226 56.0748 210.423 56.109 210.594 56.1774C210.766 56.2458 210.899 56.3424 210.993 56.4678C211.088 56.5932 211.136 56.7408 211.136 56.9106C211.136 57.0414 211.106 57.1578 211.048 57.2592C210.989 57.3612 210.905 57.4452 210.793 57.5118C210.938 57.5844 211.048 57.6792 211.125 57.7962ZM210.406 58.4874C210.505 58.4106 210.554 58.3086 210.554 58.1802C210.554 58.0524 210.505 57.9504 210.406 57.8748C210.307 57.7998 210.173 57.762 210.003 57.762C209.835 57.762 209.703 57.7998 209.606 57.8748C209.508 57.9498 209.46 58.0518 209.46 58.1802C209.46 58.311 209.508 58.4142 209.606 58.4892C209.703 58.5648 209.835 58.602 210.003 58.602C210.173 58.6026 210.308 58.5642 210.406 58.4874ZM209.675 56.67C209.593 56.7354 209.552 56.8254 209.552 56.9394C209.552 57.051 209.592 57.1386 209.673 57.2022C209.753 57.2664 209.864 57.2988 210.003 57.2988C210.142 57.2988 210.254 57.2664 210.337 57.2022C210.42 57.1386 210.462 57.0504 210.462 56.9394C210.462 56.8254 210.42 56.7354 210.337 56.67C210.254 56.6046 210.142 56.5716 210.003 56.5716C209.867 56.5716 209.757 56.6046 209.675 56.67Z" fill="white"/>
<path d="M211.686 58.9656C211.609 58.8882 211.569 58.7904 211.569 58.6734C211.569 58.554 211.608 58.4574 211.686 58.383C211.764 58.3092 211.86 58.2726 211.975 58.2726C212.09 58.2726 212.186 58.3098 212.264 58.383C212.342 58.4568 212.381 58.554 212.381 58.6734C212.381 58.7904 212.342 58.8882 212.264 58.9656C212.186 59.0436 212.09 59.0826 211.975 59.0826C211.86 59.0826 211.764 59.0436 211.686 58.9656Z" fill="white"/>
<path d="M214.6 57.4704C214.797 57.6348 214.895 57.855 214.895 58.1304C214.895 58.3092 214.851 58.4712 214.761 58.617C214.672 58.7634 214.536 58.8804 214.354 58.968C214.171 59.0556 213.946 59.0994 213.679 59.0994C213.472 59.0994 213.27 59.0724 213.071 59.0178C212.872 58.9638 212.703 58.8864 212.563 58.7856L212.831 58.2678C212.942 58.3512 213.07 58.416 213.216 58.4622C213.36 58.5084 213.509 58.5312 213.662 58.5312C213.832 58.5312 213.966 58.4982 214.063 58.431C214.161 58.3644 214.21 58.2708 214.21 58.1508C214.21 58.0254 214.159 57.9306 214.057 57.867C213.955 57.8028 213.78 57.7704 213.529 57.7704H212.781L212.931 56.1246H214.715V56.6676H213.495L213.449 57.2232H213.687C214.099 57.2238 214.404 57.306 214.6 57.4704Z" fill="white"/>
<path d="M215.777 58.92C215.587 58.8006 215.439 58.6272 215.332 58.3998C215.225 58.1724 215.171 57.9018 215.171 57.5868C215.171 57.2724 215.225 57.0012 215.332 56.7744C215.439 56.547 215.588 56.3742 215.777 56.2542C215.966 56.1348 216.182 56.0748 216.424 56.0748C216.666 56.0748 216.882 56.1348 217.071 56.2542C217.261 56.3742 217.409 56.5476 217.517 56.7744C217.624 57.0012 217.677 57.2724 217.677 57.5868C217.677 57.9018 217.623 58.1724 217.517 58.3998C217.409 58.6272 217.261 58.8 217.071 58.92C216.882 59.04 216.666 59.0994 216.424 59.0994C216.182 59.0994 215.966 59.0394 215.777 58.92ZM216.844 58.2978C216.945 58.1448 216.996 57.9078 216.996 57.5874C216.996 57.267 216.945 57.0306 216.844 56.8776C216.742 56.7246 216.602 56.6478 216.424 56.6478C216.248 56.6478 216.11 56.7246 216.008 56.8776C215.906 57.0306 215.856 57.2676 215.856 57.5874C215.856 57.9078 215.906 58.1448 216.008 58.2978C216.11 58.4508 216.248 58.5276 216.424 58.5276C216.602 58.527 216.742 58.4508 216.844 58.2978Z" fill="white"/>
<path d="M219.109 56.1252V59.0496H218.433V56.6682H217.848V56.1252H219.109Z" fill="white"/>
<path d="M219.715 58.9656C219.637 58.8882 219.598 58.7904 219.598 58.6734C219.598 58.554 219.637 58.4574 219.715 58.383C219.793 58.3092 219.889 58.2726 220.003 58.2726C220.118 58.2726 220.214 58.3098 220.292 58.383C220.37 58.4568 220.409 58.554 220.409 58.6734C220.409 58.7904 220.37 58.8882 220.292 58.9656C220.214 59.0436 220.118 59.0826 220.003 59.0826C219.889 59.0826 219.794 59.0436 219.715 58.9656Z" fill="white"/>
<path d="M221.265 58.92C221.076 58.8006 220.927 58.6272 220.82 58.3998C220.713 58.1724 220.659 57.9018 220.659 57.5868C220.659 57.2724 220.713 57.0012 220.82 56.7744C220.927 56.547 221.076 56.3742 221.265 56.2542C221.455 56.1348 221.67 56.0748 221.913 56.0748C222.154 56.0748 222.37 56.1348 222.56 56.2542C222.75 56.3742 222.898 56.5476 223.005 56.7744C223.112 57.0012 223.165 57.2724 223.165 57.5868C223.165 57.9018 223.111 58.1724 223.005 58.3998C222.897 58.6272 222.749 58.8 222.56 58.92C222.37 59.04 222.155 59.0994 221.913 59.0994C221.67 59.0994 221.455 59.0394 221.265 58.92ZM222.333 58.2978C222.434 58.1448 222.485 57.9078 222.485 57.5874C222.485 57.267 222.434 57.0306 222.333 56.8776C222.231 56.7246 222.091 56.6478 221.913 56.6478C221.737 56.6478 221.599 56.7246 221.497 56.8776C221.395 57.0306 221.344 57.2676 221.344 57.5874C221.344 57.9078 221.395 58.1448 221.497 58.2978C221.598 58.4508 221.737 58.5276 221.913 58.5276C222.091 58.527 222.231 58.4508 222.333 58.2978Z" fill="white"/>
<path d="M224.101 58.92C223.912 58.8006 223.764 58.6272 223.657 58.3998C223.549 58.1724 223.496 57.9018 223.496 57.5868C223.496 57.2724 223.55 57.0012 223.657 56.7744C223.764 56.547 223.912 56.3742 224.101 56.2542C224.291 56.1348 224.507 56.0748 224.749 56.0748C224.991 56.0748 225.207 56.1348 225.396 56.2542C225.586 56.3742 225.734 56.5476 225.841 56.7744C225.948 57.0012 226.002 57.2724 226.002 57.5868C226.002 57.9018 225.948 58.1724 225.841 58.3998C225.733 58.6272 225.585 58.8 225.396 58.92C225.207 59.04 224.991 59.0994 224.749 59.0994C224.507 59.0994 224.291 59.0394 224.101 58.92ZM225.169 58.2978C225.27 58.1448 225.321 57.9078 225.321 57.5874C225.321 57.267 225.27 57.0306 225.169 56.8776C225.067 56.7246 224.927 56.6478 224.749 56.6478C224.573 56.6478 224.434 56.7246 224.333 56.8776C224.231 57.0306 224.181 57.2676 224.181 57.5874C224.181 57.9078 224.231 58.1448 224.333 58.2978C224.434 58.4508 224.573 58.5276 224.749 58.5276C224.928 58.527 225.067 58.4508 225.169 58.2978Z" fill="white"/>
<path d="M113.928 111.146V114.07H113.252V111.689H112.667V111.146H113.928Z" fill="black"/>
<path d="M114.621 111.146H115.949C116.267 111.146 116.548 111.206 116.791 111.328C117.035 111.449 117.224 111.619 117.359 111.839C117.494 112.06 117.562 112.316 117.562 112.608C117.562 112.9 117.494 113.156 117.359 113.377C117.224 113.597 117.035 113.767 116.791 113.888C116.548 114.01 116.267 114.07 115.949 114.07H114.621V111.146ZM115.916 113.514C116.209 113.514 116.442 113.432 116.616 113.27C116.79 113.107 116.877 112.886 116.877 112.607C116.877 112.329 116.79 112.108 116.616 111.946C116.442 111.782 116.209 111.701 115.916 111.701H115.298V113.514H115.916Z" fill="black"/>
<path d="M129.935 111.146V114.07H129.258V111.689H128.673V111.146H129.935Z" fill="black"/>
<path d="M135.048 111.146L134.092 114.07H133.365L132.721 112.09L132.057 114.07H131.334L130.373 111.146H131.075L131.735 113.201L132.424 111.146H133.051L133.72 113.218L134.401 111.146H135.048Z" fill="black"/>
<path d="M147.08 111.146V114.07H146.403V111.689H145.818V111.146H147.08Z" fill="black"/>
<path d="M150.435 114.07L150.431 112.315L149.57 113.761H149.265L148.409 112.353V114.07H147.774V111.146H148.334L149.429 112.963L150.506 111.146H151.062L151.07 114.07H150.435Z" fill="black"/>
<path d="M168.344 116.029H162.282C160.957 116.029 159.882 114.955 159.882 113.629V111.745C159.882 110.42 160.957 109.345 162.282 109.345H168.344C169.67 109.345 170.744 110.42 170.744 111.745V113.629C170.744 114.955 169.67 116.029 168.344 116.029Z" fill="#A3CD0C"/>
<path d="M164.2 112.622C164.336 112.771 164.404 112.956 164.404 113.176C164.404 113.346 164.359 113.503 164.271 113.647C164.181 113.79 164.046 113.905 163.863 113.991C163.681 114.077 163.457 114.121 163.193 114.121C162.987 114.121 162.784 114.094 162.585 114.039C162.386 113.985 162.217 113.908 162.078 113.807L162.34 113.289C162.452 113.372 162.581 113.437 162.727 113.483C162.873 113.53 163.023 113.552 163.176 113.552C163.345 113.552 163.479 113.52 163.577 113.454C163.674 113.389 163.723 113.296 163.723 113.176C163.723 112.937 163.541 112.817 163.176 112.817H162.867V112.37L163.468 111.689H162.223V111.146H164.27V111.585L163.61 112.337C163.867 112.378 164.063 112.474 164.2 112.622Z" fill="white"/>
<path d="M167.563 114.07L167.559 112.315L166.698 113.761H166.393L165.537 112.353V114.07H164.902V111.146H165.462L166.556 112.963L167.634 111.146H168.189L168.198 114.07H167.563Z" fill="white"/>
<path d="M180.779 112.349C180.932 112.424 181.053 112.531 181.143 112.668C181.232 112.806 181.277 112.966 181.277 113.146C181.277 113.341 181.227 113.513 181.131 113.66C181.033 113.808 180.9 113.921 180.732 114.001C180.563 114.08 180.376 114.12 180.17 114.12C179.761 114.12 179.441 113.995 179.21 113.744C178.979 113.494 178.863 113.135 178.863 112.67C178.863 112.339 178.926 112.055 179.051 111.818C179.177 111.581 179.351 111.402 179.575 111.279C179.799 111.157 180.059 111.095 180.354 111.095C180.51 111.095 180.659 111.112 180.803 111.147C180.947 111.182 181.068 111.232 181.169 111.295L180.918 111.793C180.773 111.695 180.591 111.647 180.371 111.647C180.123 111.647 179.926 111.719 179.781 111.864C179.636 112.009 179.558 112.219 179.547 112.495C179.72 112.322 179.961 112.236 180.27 112.236C180.456 112.236 180.626 112.274 180.779 112.349ZM180.485 113.498C180.575 113.42 180.62 113.314 180.62 113.18C180.62 113.047 180.575 112.94 180.485 112.861C180.394 112.781 180.273 112.741 180.123 112.741C179.975 112.741 179.854 112.782 179.759 112.864C179.664 112.946 179.617 113.052 179.617 113.18C179.617 113.308 179.663 113.412 179.755 113.493C179.847 113.574 179.972 113.614 180.131 113.614C180.276 113.615 180.394 113.576 180.485 113.498Z" fill="black"/>
<path d="M184.368 114.07L184.364 112.315L183.503 113.761H183.199L182.342 112.353V114.07H181.707V111.146H182.267L183.362 112.963L184.439 111.146H184.995L185.003 114.07H184.368Z" fill="black"/>
<path d="M197.795 111.146V114.07H197.118V111.689H196.533V111.146H197.795Z" fill="black"/>
<path d="M199.892 113.034V114.07H199.215V113.026L198.083 111.146H198.801L199.583 112.445L200.364 111.146H201.028L199.892 113.034Z" fill="black"/>
<path d="M214.935 112.622C215.071 112.771 215.14 112.956 215.14 113.176C215.14 113.346 215.095 113.503 215.006 113.647C214.917 113.79 214.781 113.905 214.599 113.991C214.416 114.077 214.192 114.121 213.928 114.121C213.722 114.121 213.52 114.094 213.321 114.039C213.121 113.985 212.952 113.908 212.813 113.807L213.076 113.289C213.187 113.372 213.316 113.437 213.462 113.483C213.609 113.53 213.758 113.552 213.911 113.552C214.081 113.552 214.215 113.52 214.312 113.454C214.41 113.389 214.458 113.296 214.458 113.176C214.458 112.937 214.276 112.817 213.91 112.817H213.601V112.37L214.203 111.689H212.958V111.146H215.005V111.585L214.345 112.337C214.602 112.378 214.798 112.474 214.935 112.622Z" fill="black"/>
<path d="M216.999 113.034V114.07H216.322V113.026L215.19 111.146H215.908L216.69 112.445L217.471 111.146H218.135L216.999 113.034Z" fill="black"/>
<path d="M106.826 95.6526C106.758 95.1966 107.072 94.7712 107.528 94.7022L123.311 92.3346L140.136 85.3548L157.045 83.1006L173.636 88.9074L190.205 81.7272H206.954L222.743 76.464C223.18 76.3182 223.653 76.5546 223.799 76.992C223.945 77.43 223.709 77.9034 223.271 78.0492L207.224 83.3976H190.551L173.699 90.7002L156.869 84.8094L140.465 86.9964L123.659 93.972L107.775 96.3546C107.32 96.423 106.895 96.1086 106.826 95.6526Z" fill="#A3CD0C"/>
<path d="M123.301 99.3234L106.945 85.9662C106.587 85.6746 106.534 85.1484 106.826 84.7908C107.118 84.4332 107.644 84.3804 108.001 84.672L123.772 97.551L140.033 94.8408L156.67 88.7406L173.453 80.6412L190.324 76.1424L207.002 78.366L222.736 72.8592C223.171 72.7068 223.648 72.936 223.8 73.3716C223.953 73.8072 223.723 74.2842 223.288 74.4366L207.177 80.0754L190.434 77.8428L173.961 82.236L157.321 90.2778L140.385 96.477L123.301 99.3234Z" fill="#263238"/>
<path d="M92.0152 73.0986C92.5921 70.6554 91.0792 68.2072 88.636 67.6303C86.1928 67.0534 83.7445 68.5663 83.1676 71.0095C82.5907 73.4527 84.1036 75.9009 86.5468 76.4778C88.99 77.0547 91.4383 75.5418 92.0152 73.0986Z" fill="#A3CD0C"/>
<path opacity="0.5" d="M98.5723 86.2626H76.6099C76.0999 86.2626 75.6865 85.8492 75.6865 85.3398V80.7222C75.6865 80.2122 76.0999 79.7988 76.6099 79.7988H98.5723C99.0823 79.7988 99.4957 80.2122 99.4957 80.7222V85.3398C99.4957 85.8498 99.0823 86.2626 98.5723 86.2626Z" fill="white"/>
<path d="M78.7755 83.9922L77.8269 84.4908L78.0081 83.4342L77.2407 82.686L78.3009 82.5318L78.7755 81.5712L79.2501 82.5318L80.3103 82.686L79.5429 83.4342L79.7241 84.4908L78.7755 83.9922Z" fill="#A3CD0C"/>
<path d="M83.1827 83.9922L82.2342 84.4908L82.4153 83.4342L81.6479 82.686L82.7088 82.5318L83.1827 81.5712L83.6573 82.5318L84.7182 82.686L83.9507 83.4342L84.1319 84.4908L83.1827 83.9922Z" fill="#A3CD0C"/>
<path d="M87.5911 83.9922L86.6425 84.4908L86.8237 83.4342L86.0557 82.686L87.1165 82.5318L87.5911 81.5712L88.0651 82.5318L89.1259 82.686L88.3585 83.4342L88.5397 84.4908L87.5911 83.9922Z" fill="#A3CD0C"/>
<path opacity="0.9" d="M91.9987 83.9922L91.0501 84.4908L91.2313 83.4342L90.4639 82.686L91.5247 82.5318L91.9987 81.5712L92.4733 82.5318L93.5341 82.686L92.7667 83.4342L92.9479 84.4908L91.9987 83.9922Z" fill="white"/>
<path opacity="0.9" d="M96.407 83.9922L95.4578 84.4908L95.639 83.4342L94.8716 82.686L95.9324 82.5318L96.407 81.5712L96.881 82.5318L97.9418 82.686L97.1744 83.4342L97.3556 84.4908L96.407 83.9922Z" fill="white"/>
<path d="M92.0147 98.1183C92.5916 95.6751 91.0787 93.2269 88.6355 92.65C86.1923 92.0731 83.744 93.586 83.1671 96.0292C82.5902 98.4724 84.1031 100.921 86.5463 101.498C88.9895 102.074 91.4378 100.562 92.0147 98.1183Z" fill="#263238"/>
<path opacity="0.7" d="M92.0147 98.1183C92.5916 95.6751 91.0787 93.2269 88.6355 92.65C86.1923 92.0731 83.744 93.586 83.1671 96.0292C82.5902 98.4724 84.1031 100.921 86.5463 101.498C88.9895 102.074 91.4378 100.562 92.0147 98.1183Z" fill="white"/>
<path opacity="0.5" d="M98.5723 111.281H76.6099C76.0999 111.281 75.6865 110.868 75.6865 110.359V105.741C75.6865 105.231 76.0999 104.818 76.6099 104.818H98.5723C99.0823 104.818 99.4957 105.231 99.4957 105.741V110.359C99.4957 110.868 99.0823 111.281 98.5723 111.281Z" fill="white"/>
<path d="M78.7755 109.01L77.8269 109.509L78.0081 108.453L77.2407 107.705L78.3009 107.551L78.7755 106.589L79.2501 107.551L80.3103 107.705L79.5429 108.453L79.7241 109.509L78.7755 109.01Z" fill="#A3CD0C"/>
<path d="M83.1827 109.01L82.2342 109.509L82.4153 108.453L81.6479 107.705L82.7088 107.551L83.1827 106.589L83.6573 107.551L84.7182 107.705L83.9507 108.453L84.1319 109.509L83.1827 109.01Z" fill="#A3CD0C"/>
<path opacity="0.9" d="M87.5911 109.01L86.6425 109.509L86.8237 108.453L86.0557 107.705L87.1165 107.551L87.5911 106.589L88.0651 107.551L89.1259 107.705L88.3585 108.453L88.5397 109.509L87.5911 109.01Z" fill="white"/>
<path opacity="0.9" d="M91.9987 109.01L91.0501 109.509L91.2313 108.453L90.4639 107.705L91.5247 107.551L91.9987 106.589L92.4733 107.551L93.5341 107.705L92.7667 108.453L92.9479 109.509L91.9987 109.01Z" fill="white"/>
<path opacity="0.9" d="M96.407 109.01L95.4578 109.509L95.639 108.453L94.8716 107.705L95.9324 107.551L96.407 106.589L96.881 107.551L97.9418 107.705L97.1744 108.453L97.3556 109.509L96.407 109.01Z" fill="white"/>
<path d="M90.8037 125.297C92.5789 123.522 92.5789 120.644 90.8037 118.869C89.0286 117.094 86.1505 117.094 84.3753 118.869C82.6002 120.644 82.6002 123.522 84.3753 125.297C86.1505 127.072 89.0286 127.072 90.8037 125.297Z" fill="#A3CD0C"/>
<path opacity="0.3" d="M90.8037 125.297C92.5789 123.522 92.5789 120.644 90.8037 118.869C89.0286 117.094 86.1505 117.094 84.3753 118.869C82.6002 120.644 82.6002 123.522 84.3753 125.297C86.1505 127.072 89.0286 127.072 90.8037 125.297Z" fill="white"/>
<path opacity="0.5" d="M98.5723 136.3H76.6099C76.0999 136.3 75.6865 135.886 75.6865 135.377V130.759C75.6865 130.249 76.0999 129.836 76.6099 129.836H98.5723C99.0823 129.836 99.4957 130.249 99.4957 130.759V135.377C99.4957 135.886 99.0823 136.3 98.5723 136.3Z" fill="white"/>
<path d="M78.7755 134.029L77.8269 134.528L78.0081 133.471L77.2407 132.723L78.3009 132.569L78.7755 131.608L79.2501 132.569L80.3103 132.723L79.5429 133.471L79.7241 134.528L78.7755 134.029Z" fill="#A3CD0C"/>
<path d="M83.1827 134.029L82.2342 134.528L82.4153 133.471L81.6479 132.723L82.7088 132.569L83.1827 131.608L83.6573 132.569L84.7182 132.723L83.9507 133.471L84.1319 134.528L83.1827 134.029Z" fill="#A3CD0C"/>
<path d="M87.5911 134.029L86.6425 134.528L86.8237 133.471L86.0557 132.723L87.1165 132.569L87.5911 131.608L88.0651 132.569L89.1259 132.723L88.3585 133.471L88.5397 134.528L87.5911 134.029Z" fill="#A3CD0C"/>
<path d="M91.9987 134.029L91.0501 134.528L91.2313 133.471L90.4639 132.723L91.5247 132.569L91.9987 131.608L92.4733 132.569L93.5341 132.723L92.7667 133.471L92.9479 134.528L91.9987 134.029Z" fill="#A3CD0C"/>
<path opacity="0.9" d="M96.407 134.029L95.4578 134.528L95.639 133.471L94.8716 132.723L95.9324 132.569L96.407 131.608L96.881 132.569L97.9418 132.723L97.1744 133.471L97.3556 134.528L96.407 134.029Z" fill="white"/>
<path d="M90.8037 150.315C92.5789 148.54 92.5789 145.662 90.8037 143.887C89.0286 142.112 86.1505 142.112 84.3753 143.887C82.6002 145.662 82.6002 148.54 84.3753 150.315C86.1505 152.09 89.0286 152.09 90.8037 150.315Z" fill="#263238"/>
<path opacity="0.5" d="M90.8037 150.315C92.5789 148.54 92.5789 145.662 90.8037 143.887C89.0286 142.112 86.1505 142.112 84.3753 143.887C82.6002 145.662 82.6002 148.54 84.3753 150.315C86.1505 152.09 89.0286 152.09 90.8037 150.315Z" fill="white"/>
<path opacity="0.5" d="M98.5723 161.318H76.6099C76.0999 161.318 75.6865 160.904 75.6865 160.394V155.777C75.6865 155.267 76.0999 154.853 76.6099 154.853H98.5723C99.0823 154.853 99.4957 155.267 99.4957 155.777V160.394C99.4957 160.904 99.0823 161.318 98.5723 161.318Z" fill="white"/>
<path d="M78.7755 159.047L77.8269 159.546L78.0081 158.489L77.2407 157.741L78.3009 157.587L78.7755 156.626L79.2501 157.587L80.3103 157.741L79.5429 158.489L79.7241 159.546L78.7755 159.047Z" fill="#A3CD0C"/>
<path d="M83.1827 159.047L82.2342 159.546L82.4153 158.489L81.6479 157.741L82.7088 157.587L83.1827 156.626L83.6573 157.587L84.7182 157.741L83.9507 158.489L84.1319 159.546L83.1827 159.047Z" fill="#A3CD0C"/>
<path opacity="0.9" d="M87.5911 159.047L86.6425 159.546L86.8237 158.489L86.0557 157.741L87.1165 157.587L87.5911 156.626L88.0651 157.587L89.1259 157.741L88.3585 158.489L88.5397 159.546L87.5911 159.047Z" fill="white"/>
<path d="M87.5911 159.047L86.6425 159.546L86.8237 158.489L86.0557 157.741L87.1165 157.587L87.5911 156.626V159.047Z" fill="#A3CD0C"/>
<path opacity="0.9" d="M91.9987 159.047L91.0501 159.546L91.2313 158.489L90.4639 157.741L91.5247 157.587L91.9987 156.626L92.4733 157.587L93.5341 157.741L92.7667 158.489L92.9479 159.546L91.9987 159.047Z" fill="white"/>
<path opacity="0.9" d="M96.407 159.047L95.4578 159.546L95.639 158.489L94.8716 157.741L95.9324 157.587L96.407 156.626L96.881 157.587L97.9418 157.741L97.1744 158.489L97.3556 159.546L96.407 159.047Z" fill="white"/>
<path d="M113.364 151.172H108.497V160.381H113.364V151.172Z" fill="#A3CD0C"/>
<path d="M125.11 147.653H120.244V160.381H125.11V147.653Z" fill="#A3CD0C"/>
<path d="M136.857 141.19H131.99V160.381H136.857V141.19Z" fill="#A3CD0C"/>
<path d="M119.237 145.882H114.371V160.381H119.237V145.882Z" fill="#263238"/>
<path d="M130.983 144.422H126.117V160.381H130.983V144.422Z" fill="#263238"/>
<path d="M142.73 144.799H137.864V160.381H142.73V144.799Z" fill="#263238"/>
<g opacity="0.6">
<path d="M119.237 145.882H114.371V160.381H119.237V145.882Z" fill="white"/>
<path d="M130.983 144.422H126.117V160.381H130.983V144.422Z" fill="white"/>
<path d="M142.73 144.799H137.864V160.381H142.73V144.799Z" fill="white"/>
</g>
<path d="M148.603 139.345H143.736V160.381H148.603V139.345Z" fill="#A3CD0C"/>
<path d="M195.392 160.381H155.287L158.003 151.172L163.593 145.882L169.466 154.017L175.339 144.422L181.213 150.785L187.086 144.799L192.959 139.345H195.392V160.381Z" fill="#A3CD0C"/>
<path opacity="0.8" d="M195.392 160.381H155.287L158.003 154.232L163.593 149.707L169.466 154.017L175.339 149.011L181.213 150.785L187.086 149.389L192.959 146.994L195.392 139.345V160.381Z" fill="white"/>
<path d="M212.073 130.05H221.85C221.85 124.651 217.473 120.274 212.073 120.274C206.674 120.274 202.297 124.651 202.297 130.05H212.073Z" fill="#A3CD0C"/>
<path opacity="0.5" d="M212.073 130.05H221.85C221.85 124.651 217.473 120.274 212.073 120.274C206.674 120.274 202.297 124.651 202.297 130.05H212.073Z" fill="white"/>
<path opacity="0.7" d="M218.986 123.137C217.217 121.367 214.773 120.274 212.074 120.274C206.674 120.274 202.297 124.651 202.297 130.05H212.074L218.986 123.137Z" fill="white"/>
<path opacity="0.2" d="M205.161 123.124L212.073 130.036V120.26C209.374 120.26 206.93 121.354 205.161 123.124Z" fill="black"/>
<path d="M205.161 123.124L212.073 130.036V120.26C209.374 120.26 206.93 121.354 205.161 123.124Z" fill="#A3CD0C"/>
<path opacity="0.5" d="M205.161 123.124L212.073 130.036V120.26C209.374 120.26 206.93 121.354 205.161 123.124Z" fill="white"/>
<path d="M217.465 125.361L216.763 124.657L212.34 129.068C212.253 129.044 212.168 129.014 212.073 129.014C211.509 129.014 211.052 129.472 211.052 130.036C211.052 130.6 211.509 131.058 212.073 131.058C212.637 131.058 213.095 130.601 213.095 130.036C213.095 129.943 213.065 129.859 213.041 129.773L217.465 125.361Z" fill="black"/>
<path d="M212.073 145.414H221.85C221.85 140.014 217.473 135.637 212.073 135.637C206.674 135.637 202.297 140.014 202.297 145.414H212.073Z" fill="#A3CD0C"/>
<path opacity="0.5" d="M212.073 145.414H221.85C221.85 140.014 217.473 135.637 212.073 135.637C206.674 135.637 202.297 140.014 202.297 145.414H212.073Z" fill="white"/>
<path opacity="0.7" d="M218.986 138.501C217.217 136.732 214.773 135.638 212.074 135.638C206.674 135.638 202.297 140.015 202.297 145.414H212.074L218.986 138.501Z" fill="white"/>
<path d="M205.161 138.487L212.073 145.4V135.624C209.374 135.624 206.93 136.718 205.161 138.487Z" fill="#A3CD0C"/>
<path opacity="0.5" d="M205.161 138.487L212.073 145.4V135.624C209.374 135.624 206.93 136.718 205.161 138.487Z" fill="white"/>
<path d="M212.571 144.526V138.843H211.576V144.526C211.269 144.701 211.052 145.02 211.052 145.4C211.052 145.964 211.509 146.422 212.074 146.422C212.638 146.422 213.095 145.964 213.095 145.4C213.095 145.02 212.878 144.702 212.571 144.526Z" fill="black"/>
<path d="M212.073 160.777H221.85C221.85 155.378 217.473 151.001 212.073 151.001C206.674 151.001 202.297 155.378 202.297 160.777H212.073Z" fill="#A3CD0C"/>
<path opacity="0.5" d="M212.073 160.777H221.85C221.85 155.378 217.473 151.001 212.073 151.001C206.674 151.001 202.297 155.378 202.297 160.777H212.073Z" fill="white"/>
<path opacity="0.7" d="M218.986 153.865C217.217 152.095 214.773 151.001 212.074 151.001C206.674 151.001 202.297 155.378 202.297 160.778H212.074L218.986 153.865Z" fill="white"/>
<path d="M205.161 153.851L212.073 160.763V150.987C209.374 150.988 206.93 152.082 205.161 153.851Z" fill="#A3CD0C"/>
<path opacity="0.5" d="M205.161 153.851L212.073 160.763V150.987C209.374 150.988 206.93 152.082 205.161 153.851Z" fill="white"/>
<path d="M217.465 156.089L216.763 155.384L212.34 159.796C212.253 159.772 212.168 159.742 212.073 159.742C211.509 159.742 211.052 160.199 211.052 160.764C211.052 161.328 211.509 161.786 212.073 161.786C212.637 161.786 213.095 161.329 213.095 160.764C213.095 160.67 213.065 160.586 213.041 160.501L217.465 156.089Z" fill="black"/>
<path d="M225.367 61.716L218.797 61.7874C217.894 61.797 217.17 62.5374 217.18 63.4404L217.24 68.937C217.249 69.8382 217.986 70.5612 218.887 70.5546L220.788 70.5402L221.609 71.811C221.887 72.2418 222.521 72.2316 222.785 71.7912L223.567 70.4868L225.457 70.4724C226.362 70.4658 227.089 69.7248 227.079 68.8194L227.02 63.3336C227.009 62.43 226.27 61.7058 225.367 61.716Z" fill="#A3CD0C"/>
<path d="M220.315 66.165C220.428 66.2196 220.516 66.2982 220.581 66.399C220.646 66.4998 220.679 66.6168 220.679 66.7494C220.679 66.8922 220.643 67.0176 220.572 67.1256C220.5 67.2342 220.404 67.317 220.279 67.3752C220.156 67.4334 220.02 67.4622 219.868 67.4622C219.568 67.4622 219.333 67.3704 219.164 67.1868C218.995 67.0032 218.91 66.741 218.91 66.4008C218.91 66.1578 218.956 65.9502 219.048 65.7768C219.14 65.6034 219.268 65.4714 219.432 65.382C219.597 65.292 219.786 65.247 220.003 65.247C220.117 65.247 220.226 65.2596 220.332 65.2854C220.437 65.3106 220.526 65.3472 220.599 65.394L220.416 65.7576C220.31 65.6862 220.176 65.6508 220.015 65.6508C219.834 65.6508 219.69 65.7036 219.584 65.8098C219.478 65.916 219.42 66.0696 219.412 66.2718C219.54 66.1452 219.715 66.0822 219.942 66.0822C220.079 66.0828 220.203 66.1098 220.315 66.165ZM220.1 67.0068C220.166 66.9498 220.2 66.8718 220.2 66.774C220.2 66.6762 220.166 66.5982 220.1 66.54C220.033 66.4824 219.945 66.453 219.835 66.453C219.727 66.453 219.639 66.483 219.569 66.5436C219.499 66.6036 219.465 66.681 219.465 66.7746C219.465 66.8682 219.499 66.945 219.566 67.0044C219.633 67.0632 219.725 67.0926 219.841 67.0926C219.948 67.092 220.033 67.0638 220.1 67.0068Z" fill="white"/>
<path d="M221.303 67.3308C221.165 67.2432 221.056 67.116 220.977 66.9498C220.898 66.7836 220.859 66.5856 220.859 66.3546C220.859 66.1236 220.898 65.9256 220.977 65.7594C221.056 65.5932 221.165 65.466 221.303 65.379C221.442 65.2914 221.6 65.247 221.777 65.247C221.955 65.247 222.113 65.2908 222.252 65.379C222.391 65.4666 222.499 65.5932 222.578 65.7594C222.656 65.9262 222.696 66.1242 222.696 66.3546C222.696 66.585 222.656 66.7836 222.578 66.9498C222.499 67.116 222.391 67.2432 222.252 67.3308C222.113 67.4184 221.956 67.4622 221.777 67.4622C221.6 67.4622 221.442 67.4184 221.303 67.3308ZM222.085 66.8748C222.16 66.7626 222.196 66.5892 222.196 66.3546C222.196 66.12 222.16 65.9466 222.085 65.8344C222.01 65.7222 221.908 65.6664 221.777 65.6664C221.649 65.6664 221.548 65.7222 221.473 65.8344C221.399 65.9466 221.361 66.12 221.361 66.3546C221.361 66.5892 221.398 66.7626 221.473 66.8748C221.547 66.987 221.649 67.0434 221.777 67.0434C221.908 67.0434 222.01 66.987 222.085 66.8748Z" fill="white"/>
<path d="M223.049 66.2796C222.951 66.1722 222.9 66.0294 222.9 65.85C222.9 65.6706 222.95 65.5272 223.049 65.4204C223.147 65.313 223.276 65.2596 223.433 65.2596C223.59 65.2596 223.717 65.313 223.815 65.4204C223.913 65.5278 223.962 65.6712 223.962 65.85C223.962 66.0294 223.913 66.1728 223.815 66.2796C223.717 66.387 223.59 66.4404 223.433 66.4404C223.276 66.4404 223.147 66.387 223.049 66.2796ZM223.597 66.1038C223.636 66.0468 223.657 65.9622 223.657 65.85C223.657 65.7378 223.636 65.6532 223.597 65.5962C223.557 65.5392 223.503 65.5104 223.433 65.5104C223.366 65.5104 223.312 65.5398 223.271 65.5974C223.23 65.6556 223.21 65.7396 223.21 65.85C223.21 65.9604 223.23 66.0444 223.271 66.1026C223.312 66.1608 223.366 66.1896 223.433 66.1896C223.503 66.1896 223.557 66.1608 223.597 66.1038ZM224.709 65.2842H225.073L223.611 67.4256H223.246L224.709 65.2842ZM224.613 67.3782C224.532 67.3302 224.469 67.2612 224.424 67.1718C224.379 67.0824 224.357 66.978 224.357 66.8598C224.357 66.7416 224.379 66.6378 224.424 66.5478C224.469 66.4584 224.532 66.3888 224.613 66.3414C224.694 66.2934 224.784 66.2694 224.887 66.2694C225.043 66.2694 225.171 66.3234 225.271 66.4302C225.369 66.537 225.418 66.6804 225.418 66.8598C225.418 67.0392 225.369 67.1826 225.271 67.2894C225.171 67.3968 225.043 67.4502 224.887 67.4502C224.784 67.4502 224.693 67.4262 224.613 67.3782ZM225.05 67.1118C225.09 67.0536 225.11 66.9696 225.11 66.8592C225.11 66.7494 225.09 66.6648 225.05 66.6072C225.01 66.549 224.955 66.5196 224.886 66.5196C224.819 66.5196 224.764 66.5484 224.724 66.6054C224.683 66.6624 224.663 66.747 224.663 66.8592C224.663 66.9714 224.683 67.0566 224.724 67.113C224.764 67.17 224.819 67.1988 224.886 67.1988C224.955 67.1994 225.01 67.17 225.05 67.1118Z" fill="white"/>
<path d="M218.91 90.4614L225.479 90.39C226.382 90.3804 227.106 89.64 227.096 88.737L227.037 83.2404C227.027 82.3392 226.29 81.6162 225.389 81.6228L223.488 81.6372L222.667 80.3664C222.389 79.9356 221.755 79.9458 221.491 80.3862L220.71 81.69L218.82 81.7044C217.915 81.711 217.187 82.452 217.197 83.3574L217.257 88.8432C217.266 89.7468 218.007 90.471 218.91 90.4614Z" fill="#263238"/>
<path d="M220.378 86.3694C220.522 86.49 220.594 86.6508 220.594 86.853C220.594 86.9832 220.561 87.102 220.496 87.2094C220.431 87.3168 220.332 87.402 220.198 87.4662C220.064 87.5304 219.899 87.5628 219.703 87.5628C219.553 87.5628 219.405 87.543 219.258 87.5034C219.112 87.4632 218.989 87.4068 218.887 87.3336L219.082 86.9544C219.164 87.0156 219.258 87.063 219.364 87.0966C219.469 87.1302 219.579 87.147 219.691 87.147C219.815 87.147 219.913 87.1224 219.984 87.0738C220.056 87.0246 220.092 86.9568 220.092 86.8686C220.092 86.7768 220.054 86.7072 219.979 86.6604C219.905 86.6136 219.776 86.5896 219.592 86.5896H219.045L219.154 85.3842H220.461V85.782H219.567L219.534 86.1888H219.708C220.012 86.1888 220.234 86.2494 220.378 86.3694Z" fill="white"/>
<path d="M221.239 87.4314C221.101 87.3438 220.991 87.2166 220.913 87.0504C220.834 86.8842 220.795 86.6862 220.795 86.4552C220.795 86.2248 220.834 86.0262 220.913 85.86C220.991 85.6938 221.101 85.5666 221.239 85.4796C221.378 85.392 221.536 85.3476 221.713 85.3476C221.891 85.3476 222.049 85.392 222.188 85.4796C222.327 85.5672 222.435 85.6938 222.514 85.86C222.592 86.0268 222.632 86.2248 222.632 86.4552C222.632 86.6856 222.592 86.8842 222.514 87.0504C222.435 87.2166 222.327 87.3438 222.188 87.4314C222.049 87.519 221.891 87.5628 221.713 87.5628C221.536 87.5628 221.378 87.519 221.239 87.4314ZM222.021 86.9754C222.096 86.8632 222.133 86.6898 222.133 86.4552C222.133 86.2206 222.096 86.0472 222.021 85.935C221.947 85.8228 221.844 85.767 221.713 85.767C221.585 85.767 221.483 85.8228 221.409 85.935C221.334 86.0472 221.297 86.2206 221.297 86.4552C221.297 86.6898 221.334 86.8632 221.409 86.9754C221.483 87.0876 221.585 87.144 221.713 87.144C221.844 87.144 221.946 87.0876 222.021 86.9754Z" fill="white"/>
<path d="M222.985 86.3802C222.886 86.2728 222.836 86.13 222.836 85.95C222.836 85.7706 222.886 85.6272 222.985 85.5198C223.083 85.4124 223.212 85.359 223.369 85.359C223.525 85.359 223.653 85.4124 223.751 85.5198C223.849 85.6272 223.898 85.7706 223.898 85.95C223.898 86.1294 223.849 86.2728 223.751 86.3802C223.653 86.4876 223.525 86.541 223.369 86.541C223.212 86.541 223.083 86.4876 222.985 86.3802ZM223.532 86.2044C223.572 86.1474 223.592 86.0628 223.592 85.9506C223.592 85.8384 223.572 85.7538 223.532 85.6968C223.492 85.6398 223.438 85.611 223.368 85.611C223.301 85.611 223.247 85.6404 223.206 85.698C223.165 85.7562 223.145 85.8402 223.145 85.9506C223.145 86.061 223.165 86.145 223.206 86.2032C223.247 86.2614 223.301 86.2902 223.368 86.2902C223.438 86.2896 223.492 86.2614 223.532 86.2044ZM224.644 85.3842H225.009L223.546 87.5262H223.182L224.644 85.3842ZM224.548 87.4788C224.468 87.4308 224.405 87.3618 224.36 87.2724C224.315 87.183 224.293 87.0786 224.293 86.9604C224.293 86.8422 224.315 86.7384 224.36 86.6484C224.405 86.559 224.467 86.4894 224.548 86.442C224.629 86.394 224.72 86.37 224.823 86.37C224.98 86.37 225.107 86.424 225.207 86.5308C225.305 86.6376 225.355 86.781 225.355 86.9604C225.355 87.1398 225.306 87.2832 225.207 87.3906C225.108 87.498 224.98 87.5514 224.823 87.5514C224.72 87.5508 224.629 87.5268 224.548 87.4788ZM224.986 87.2124C225.025 87.1548 225.046 87.0702 225.046 86.9598C225.046 86.85 225.025 86.7654 224.986 86.7078C224.946 86.6496 224.891 86.6202 224.822 86.6202C224.755 86.6202 224.7 86.649 224.66 86.706C224.619 86.763 224.599 86.8476 224.599 86.9598C224.599 87.072 224.619 87.1572 224.66 87.2136C224.7 87.2706 224.755 87.2994 224.822 87.2994C224.891 87.3 224.946 87.2706 224.986 87.2124Z" fill="white"/>
<path d="M156.452 128.213C156.016 128.213 155.663 127.86 155.663 127.424C155.663 126.989 156.016 126.635 156.452 126.635H180.859C181.294 126.635 181.648 126.989 181.648 127.424C181.648 127.86 181.294 128.213 180.859 128.213H156.452Z" fill="#263238"/>
<path d="M156.452 133.903C156.016 133.903 155.663 133.549 155.663 133.114C155.663 132.678 156.016 132.325 156.452 132.325H176.101C176.537 132.325 176.89 132.678 176.89 133.114C176.89 133.549 176.537 133.903 176.101 133.903H156.452Z" fill="#263238"/>
<path d="M156.452 131.058C156.016 131.058 155.663 130.705 155.663 130.269C155.663 129.833 156.016 129.48 156.452 129.48H174.094C174.529 129.48 174.883 129.833 174.883 130.269C174.883 130.705 174.529 131.058 174.094 131.058H156.452Z" fill="#263238"/>
<g opacity="0.5">
<path d="M156.452 128.213C156.016 128.213 155.663 127.86 155.663 127.424C155.663 126.989 156.016 126.635 156.452 126.635H180.859C181.294 126.635 181.648 126.989 181.648 127.424C181.648 127.86 181.294 128.213 180.859 128.213H156.452Z" fill="white"/>
<path d="M156.452 133.903C156.016 133.903 155.663 133.549 155.663 133.114C155.663 132.678 156.016 132.325 156.452 132.325H176.101C176.537 132.325 176.89 132.678 176.89 133.114C176.89 133.549 176.537 133.903 176.101 133.903H156.452Z" fill="white"/>
<path d="M156.452 131.058C156.016 131.058 155.663 130.705 155.663 130.269C155.663 129.833 156.016 129.48 156.452 129.48H174.094C174.529 129.48 174.883 129.833 174.883 130.269C174.883 130.705 174.529 131.058 174.094 131.058H156.452Z" fill="white"/>
</g>
<path d="M109.286 128.213C108.85 128.213 108.497 127.86 108.497 127.424C108.497 126.989 108.85 126.635 109.286 126.635H133.693C134.128 126.635 134.482 126.989 134.482 127.424C134.482 127.86 134.128 128.213 133.693 128.213H109.286Z" fill="#263238"/>
<path d="M109.286 133.903C108.85 133.903 108.497 133.549 108.497 133.114C108.497 132.678 108.85 132.325 109.286 132.325H123.581C124.017 132.325 124.37 132.678 124.37 133.114C124.37 133.549 124.017 133.903 123.581 133.903H109.286Z" fill="#263238"/>
<path d="M109.286 131.058C108.85 131.058 108.497 130.705 108.497 130.269C108.497 129.833 108.85 129.48 109.286 129.48H129.987C130.423 129.48 130.776 129.833 130.776 130.269C130.776 130.705 130.423 131.058 129.987 131.058H109.286Z" fill="#263238"/>
<g opacity="0.5">
<path d="M109.286 128.213C108.85 128.213 108.497 127.86 108.497 127.424C108.497 126.989 108.85 126.635 109.286 126.635H133.693C134.128 126.635 134.482 126.989 134.482 127.424C134.482 127.86 134.128 128.213 133.693 128.213H109.286Z" fill="white"/>
<path d="M109.286 133.903C108.85 133.903 108.497 133.549 108.497 133.114C108.497 132.678 108.85 132.325 109.286 132.325H123.581C124.017 132.325 124.37 132.678 124.37 133.114C124.37 133.549 124.017 133.903 123.581 133.903H109.286Z" fill="white"/>
<path d="M109.286 131.058C108.85 131.058 108.497 130.705 108.497 130.269C108.497 129.833 108.85 129.48 109.286 129.48H129.987C130.423 129.48 130.776 129.833 130.776 130.269C130.776 130.705 130.423 131.058 129.987 131.058H109.286Z" fill="white"/>
</g>
<path d="M213.193 134.324H202.762C202.246 134.324 201.791 133.906 201.746 133.39L200.387 117.859C200.342 117.343 200.723 116.924 201.239 116.924H211.67C212.186 116.924 212.641 117.343 212.687 117.859L214.046 133.39C214.091 133.906 213.709 134.324 213.193 134.324Z" fill="#A3CD0C"/>
<path d="M213.793 134.324H203.362C202.846 134.324 202.391 133.906 202.346 133.39L200.987 117.859C200.942 117.343 201.323 116.924 201.839 116.924H212.27C212.786 116.924 213.241 117.343 213.287 117.859L214.646 133.39C214.691 133.906 214.309 134.324 213.793 134.324Z" fill="#A3CD0C"/>
<path opacity="0.5" d="M213.793 134.324H203.362C202.846 134.324 202.391 133.906 202.346 133.39L200.987 117.859C200.942 117.343 201.323 116.924 201.839 116.924H212.27C212.786 116.924 213.241 117.343 213.287 117.859L214.646 133.39C214.691 133.906 214.309 134.324 213.793 134.324Z" fill="black"/>
<path opacity="0.6" d="M212.323 117.524H201.892C201.708 117.524 201.571 117.674 201.587 117.859L202.946 133.39C202.962 133.574 203.126 133.724 203.31 133.724H213.741C213.926 133.724 214.062 133.574 214.046 133.39L212.687 117.859C212.671 117.674 212.508 117.524 212.323 117.524Z" fill="white"/>
<path opacity="0.3" d="M214.046 133.39L212.705 118.069L203.076 133.634C203.141 133.689 203.222 133.724 203.309 133.724H213.74C213.925 133.724 214.062 133.574 214.046 133.39Z" fill="white"/>
<path opacity="0.9" d="M210.681 125.624H205.278C204.934 125.624 204.63 125.345 204.6 125L204.321 121.811C204.291 121.467 204.546 121.187 204.89 121.187H210.293C210.637 121.187 210.941 121.467 210.971 121.811L211.25 125C211.281 125.345 211.026 125.624 210.681 125.624Z" fill="white"/>
<path opacity="0.9" d="M211.167 131.174H205.764C205.42 131.174 205.116 130.895 205.086 130.55L204.807 127.361C204.777 127.017 205.032 126.737 205.376 126.737H210.779C211.123 126.737 211.427 127.017 211.457 127.361L211.736 130.55C211.766 130.895 211.511 131.174 211.167 131.174Z" fill="white"/>
<path d="M205.371 122.469C205.266 122.469 205.174 122.384 205.165 122.279C205.156 122.174 205.233 122.09 205.338 122.09H209.677C209.782 122.09 209.875 122.175 209.884 122.279C209.893 122.384 209.815 122.469 209.71 122.469H205.371Z" fill="#263238"/>
<path d="M205.491 123.838C205.386 123.838 205.293 123.753 205.284 123.649C205.275 123.544 205.353 123.459 205.458 123.459H209.06C209.165 123.459 209.258 123.544 209.267 123.649C209.276 123.754 209.198 123.838 209.093 123.838H205.491Z" fill="#263238"/>
<path d="M205.431 123.154C205.326 123.154 205.234 123.068 205.225 122.964C205.216 122.859 205.293 122.774 205.398 122.774H208.264C208.369 122.774 208.461 122.86 208.47 122.964C208.479 123.069 208.402 123.154 208.297 123.154H205.431Z" fill="#263238"/>
<g opacity="0.5">
<path d="M205.371 122.469C205.266 122.469 205.174 122.384 205.165 122.279C205.156 122.174 205.233 122.09 205.338 122.09H209.677C209.782 122.09 209.875 122.175 209.884 122.279C209.893 122.384 209.815 122.469 209.71 122.469H205.371Z" fill="white"/>
<path d="M205.491 123.838C205.386 123.838 205.293 123.753 205.284 123.649C205.275 123.544 205.353 123.459 205.458 123.459H209.06C209.165 123.459 209.258 123.544 209.267 123.649C209.276 123.754 209.198 123.838 209.093 123.838H205.491Z" fill="white"/>
<path d="M205.431 123.154C205.326 123.154 205.234 123.068 205.225 122.964C205.216 122.859 205.293 122.774 205.398 122.774H208.264C208.369 122.774 208.461 122.86 208.47 122.964C208.479 123.069 208.402 123.154 208.297 123.154H205.431Z" fill="white"/>
</g>
<path d="M205.863 128.099C205.758 128.099 205.666 128.014 205.657 127.909C205.648 127.804 205.725 127.72 205.83 127.72H210.17C210.275 127.72 210.367 127.805 210.376 127.909C210.385 128.014 210.308 128.099 210.203 128.099H205.863Z" fill="#263238"/>
<path d="M205.923 128.783C205.818 128.783 205.726 128.698 205.717 128.594C205.708 128.489 205.785 128.404 205.89 128.404H208.756C208.861 128.404 208.953 128.489 208.962 128.594C208.971 128.699 208.894 128.783 208.789 128.783H205.923Z" fill="#263238"/>
<g opacity="0.5">
<path d="M205.863 128.099C205.758 128.099 205.666 128.014 205.657 127.909C205.648 127.804 205.725 127.72 205.83 127.72H210.17C210.275 127.72 210.367 127.805 210.376 127.909C210.385 128.014 210.308 128.099 210.203 128.099H205.863Z" fill="white"/>
<path d="M205.923 128.783C205.818 128.783 205.726 128.698 205.717 128.594C205.708 128.489 205.785 128.404 205.89 128.404H208.756C208.861 128.404 208.953 128.489 208.962 128.594C208.971 128.699 208.894 128.783 208.789 128.783H205.923Z" fill="white"/>
</g>
<path d="M222.52 107.548C222.619 107.201 222.516 106.867 222.289 106.802C222.062 106.738 221.798 106.966 221.699 107.314C221.6 107.66 221.703 107.995 221.93 108.059C222.157 108.124 222.421 107.895 222.52 107.548Z" fill="#263238"/>
<path d="M222.065 108.074L219.415 109.773C219.415 109.773 219.941 110.733 221.245 110.849L222.065 108.074Z" fill="#DE5753"/>
<path d="M234.388 111.317C232.61 115.513 231.947 117.331 229.003 118.768C224.901 119.84 219.802 117.827 220.292 113.181C220.732 109.001 223.559 102.856 228.373 102.609C231.804 102.434 234.727 105.074 234.902 108.506C234.951 109.471 234.775 110.433 234.388 111.317Z" fill="#E4897B"/>
<path d="M223.362 106.904C223.295 106.883 223.241 106.832 223.218 106.765C223.076 106.246 222.692 105.827 222.188 105.641C222.078 105.608 222.014 105.493 222.046 105.382C222.079 105.271 222.194 105.206 222.307 105.235C222.947 105.461 223.439 105.984 223.624 106.638C223.664 106.745 223.609 106.863 223.503 106.903C223.499 106.904 223.496 106.905 223.493 106.906C223.451 106.921 223.404 106.921 223.362 106.904Z" fill="#263238"/>
<path opacity="0.2" d="M224.609 116.795C224.609 116.795 221.558 117.416 220.352 114.751C220.762 116.889 222.54 118.253 224.681 118.787L225.416 118.274L225.019 117.189L224.609 116.795Z" fill="black"/>
<path d="M230.156 123.757C230.156 123.757 227.519 122.466 229.42 117.439C229.42 117.439 227.315 115.35 225.126 116.236C222.937 117.122 224.774 121.753 222.198 122.467C222.198 122.467 223.543 124.329 230.156 123.757Z" fill="#E4897B"/>
<path d="M222.409 106.874C222.409 106.874 222.029 106.809 221.767 106.384C221.767 106.384 221.806 106.859 222.311 107.04L222.409 106.874Z" fill="#263238"/>
<path d="M220.942 122.674C220.942 122.674 222.517 120.221 226.754 120.709C230.992 121.196 230.157 123.757 230.157 123.757L220.942 122.674Z" fill="#A3CD0C"/>
<path opacity="0.3" d="M220.942 122.674C220.942 122.674 222.517 120.221 226.754 120.709C230.992 121.196 230.157 123.757 230.157 123.757L220.942 122.674Z" fill="white"/>
<path d="M224.355 110.177C224.355 110.177 224.369 108.515 225.582 106.712C226.795 104.909 226.109 103.742 226.177 102.601C226.246 101.459 232.096 100.309 234.346 104.209C234.346 104.209 238.396 107.708 235.546 111.908C232.696 116.108 231.545 119.315 228.095 118.787C224.645 118.259 226.605 112.553 224.355 110.177Z" fill="#263238"/>
<path opacity="0.4" d="M234.346 104.209C233.319 102.43 231.544 101.708 229.91 101.551C229.016 103.544 231.379 105.752 231.379 105.752C231.379 105.752 227.908 106.608 228.461 109.45C229.015 112.292 233.056 110.796 233.056 110.796C233.056 110.796 230.507 113.266 232.375 114.728C232.783 115.048 233.174 115.109 233.539 115.025C234.137 114.092 234.78 113.039 235.546 111.909C238.396 107.709 234.346 104.209 234.346 104.209Z" fill="black"/>
<path d="M234.346 104.209C234.089 103.765 233.782 103.394 233.446 103.073C231.863 103.886 230.779 105.53 230.779 107.431C230.779 111.472 234.359 112.237 235.278 112.311C235.367 112.177 235.453 112.045 235.545 111.909C238.396 107.709 234.346 104.209 234.346 104.209Z" fill="#A3CD0C"/>
<path d="M224.647 108.859C223.889 109.399 223.378 110.219 223.226 111.138C223.034 112.358 224.162 112.835 225.24 112.387C226.216 111.98 227.48 110.856 227.18 109.681C226.879 108.506 225.582 108.208 224.647 108.859Z" fill="#E4897B"/>
<path d="M232.851 106.073C232.851 106.073 229.741 102.614 232.346 100.609C234.446 98.9922 236.063 103.084 236.063 103.084C236.063 103.084 235.721 98.5092 238.946 99.0342C242.2 99.564 240.221 103.534 240.221 103.534C240.221 103.534 243.071 101.734 244.271 103.684C245.471 105.634 241.978 106.918 241.978 106.918C241.978 106.918 245.921 109.242 244.046 110.851C242.171 112.459 240.371 110.537 240.371 110.537C240.371 110.537 241.496 113.659 239.396 114.151C237.494 114.596 236.921 111.709 236.921 111.709C236.921 111.709 235.496 115.159 233.771 113.809C232.046 112.459 233.846 110.177 233.846 110.177C233.846 110.177 230.668 111.559 230.156 108.934C229.646 106.309 232.851 106.073 232.851 106.073Z" fill="#263238"/>
<path d="M238.271 133.66C238.271 133.66 243.977 145.923 241.229 147.034C238.481 148.145 230.098 150.034 230.098 150.034L226.063 151.493L223.724 149.973L224.318 146.04L230.222 147.329L237.305 144.156L233.959 136.704L238.271 133.66Z" fill="#E4897B"/>
<path d="M235.548 127.079C235.737 126.866 236.087 126.928 236.2 127.189C237.509 130.217 243.657 144.766 241.941 146.884C240.665 148.459 234.493 149.284 234.493 149.284L233.18 145.759L236.922 144.034L232.711 134.437C232.711 134.437 232.265 130.766 235.548 127.079Z" fill="#A3CD0C"/>
<path opacity="0.2" d="M232.711 134.437L234.956 139.554C236.816 128.491 235.548 127.079 235.548 127.079C232.265 130.766 232.711 134.437 232.711 134.437Z" fill="black"/>
<path d="M233.584 232.109L236.802 243.047L240.068 242.858L239.376 230.983L233.584 232.109Z" fill="#E4897B"/>
<path d="M216.656 151.124C216.656 151.124 212.687 159.105 216.503 173.78C220.319 188.455 235.589 239.58 235.589 239.58L239.889 239.063C239.889 239.063 240.16 220.718 234.11 205.913C234.11 205.913 231.208 180.745 232.621 174.828C233.609 170.692 234.211 167.235 232.505 160.971C231.541 157.432 230.61 154.891 229.75 153.178C228.626 150.94 228.958 150.08 228.958 150.08L216.656 151.124Z" fill="#263238"/>
<path opacity="0.5" d="M235.589 239.58L239.89 239.063C239.89 239.063 239.899 238.354 239.871 237.115L235.049 237.77C235.396 238.933 235.589 239.58 235.589 239.58Z" fill="black"/>
<path opacity="0.4" d="M221.737 192.482C227.254 177.149 225.735 166.024 225.735 166.024L222.285 165.574L219.585 170.374L217.703 178.24C218.772 182.123 220.179 187.075 221.737 192.482Z" fill="black"/>
<path d="M236.718 242.733L240.599 242.191C240.768 242.171 240.929 242.27 240.986 242.43L242.837 245.978C242.95 246.292 242.788 246.638 242.474 246.751C242.434 246.766 242.392 246.776 242.35 246.782C240.731 246.949 239.284 247.034 237.273 247.28C234.899 247.568 235.536 247.779 232.751 248.156C231.072 248.382 230.533 246.508 231.235 246.328C234.448 245.523 234.667 244.496 235.784 243.176C236.03 242.92 236.363 242.762 236.718 242.733Z" fill="#263238"/>
<path d="M234.644 238.785L240.604 238.037L240.512 239.813L235.255 240.463L234.644 238.785Z" fill="#263238"/>
<path d="M217.104 232.849L218.51 243.749H221.81L222.66 233.049L217.104 232.849Z" fill="#E4897B"/>
<path d="M211.408 149.899C211.408 149.899 211.359 150.847 210.608 152.758C209.267 156.172 207.001 162.66 208.124 172.316C209.875 187.378 217.931 240.123 217.931 240.123H222.268C222.268 240.123 225.238 222.199 221.732 206.41C221.732 206.41 220.49 184.183 222.34 178.388C223.628 174.353 227.272 170.449 226.338 161.925C225.404 153.402 223.142 150.483 223.142 150.483L211.408 149.899Z" fill="#263238"/>
<path opacity="0.5" d="M217.633 238.163C217.824 239.419 217.931 240.124 217.931 240.124H222.268C222.268 240.124 222.385 239.412 222.544 238.163H217.633Z" fill="black"/>
<path d="M218.438 243.408L222.299 243.49C222.467 243.493 222.611 243.612 222.644 243.776L223.384 247.42C223.452 247.743 223.245 248.06 222.923 248.128C222.881 248.136 222.839 248.141 222.797 248.14C221.189 248.083 219.761 247.969 217.758 247.935C215.396 247.892 215.99 248.186 213.212 248.175C211.538 248.167 211.266 246.259 211.977 246.178C215.233 245.828 216.188 244.853 217.462 243.714C217.739 243.496 218.086 243.387 218.438 243.408Z" fill="#263238"/>
<path d="M217.104 239.205H223.117L222.781 240.952H217.478L217.104 239.205Z" fill="#263238"/>
<path d="M232.642 157.459C226.489 148.984 237.217 130.159 235.96 126.638C234.704 123.117 215.167 117.259 212.6 127.238C210.033 137.218 211.396 144.047 211.01 148.384C210.442 154.759 207.817 157.309 207.817 157.309C207.817 157.309 221.392 162.409 232.642 157.459Z" fill="#A3CD0C"/>
<path opacity="0.2" d="M211.24 134.99C210.91 138.415 210.974 141.333 211.037 143.782C218.305 135.357 216.696 127.384 216.696 127.384L216.105 127.759L213.48 129.934C213.48 129.934 212.438 132.171 211.24 134.99Z" fill="black"/>
<path d="M199.908 133.73C199.908 133.73 201.943 144.347 204.265 146.19C206.587 148.032 214.613 134.904 214.613 134.904L210.646 132.532L205.145 139.928L201.898 132.314L202.541 128.253L201.483 125.764C201.134 125.141 200.226 125.18 199.932 125.831L198.732 128.488C198.481 129.043 198.455 129.674 198.661 130.249L199.908 133.73Z" fill="#E4897B"/>
<path d="M205.141 139.253L203.241 134.653L200.707 138.406C200.707 138.406 201.966 147.362 205.191 146.528C208.271 145.731 215.234 135.254 216.741 131.215C218.248 127.175 216.209 123.238 216.209 123.238C216.209 123.238 213.741 122.598 210.568 130.042C207.841 136.439 205.141 139.253 205.141 139.253Z" fill="#A3CD0C"/>
<path d="M74.7607 118.908C74.0779 118.331 73.0339 118.539 72.6001 119.32C70.1641 123.709 63.1675 136.968 65.3959 140.658C68.0791 145.102 80.8213 144.745 80.8213 144.745L81.4363 140.975L73.2589 136.744C73.2589 136.744 75.7789 131.717 76.5457 130.007C77.7265 127.379 79.4833 122.896 74.7607 118.908Z" fill="#263238"/>
<path opacity="0.4" d="M73.2595 136.744C73.2595 136.744 75.7789 131.717 76.5469 130.007C77.3989 128.108 78.5515 125.241 77.3455 122.293L75.2581 120.077L73.2595 120.71C73.2595 120.71 69.2083 140.239 73.2727 144.245C74.6641 144.463 76.0387 144.59 77.2261 144.662C78.6541 143.833 79.6957 142.043 80.3851 140.431L73.2595 136.744Z" fill="black"/>
<path d="M86.7323 100.431C86.6195 100.035 86.7371 99.6546 86.9957 99.5802C87.2543 99.5064 87.5555 99.7674 87.6689 100.163C87.7817 100.559 87.6641 100.939 87.4049 101.013C87.1469 101.087 86.8457 100.826 86.7323 100.431Z" fill="#263238"/>
<path d="M87.2529 101.032L90.2751 102.97C90.2751 102.97 89.6751 104.065 88.1871 104.198L87.2529 101.032Z" fill="#A24E3F"/>
<path d="M73.1947 104.731C75.2227 109.518 75.9793 111.592 79.3369 113.23C84.0163 114.454 89.8339 112.157 89.2747 106.857C88.7737 102.088 85.5487 95.0778 80.0569 94.7958C76.1425 94.5966 72.8071 97.6086 72.6079 101.523C72.5515 102.624 72.7525 103.722 73.1947 104.731Z" fill="#B97964"/>
<path d="M85.7727 99.6966C85.8495 99.6726 85.9107 99.6138 85.9365 99.5376C86.0985 98.9454 86.5359 98.4678 87.1119 98.2554C87.2373 98.2176 87.3093 98.0862 87.2745 97.9602C87.2361 97.8336 87.1047 97.7592 86.9763 97.7928C86.2455 98.0508 85.6851 98.6472 85.4727 99.393C85.4277 99.5142 85.4895 99.6498 85.6113 99.6948C85.6149 99.696 85.6191 99.6978 85.6227 99.699C85.6713 99.7158 85.7247 99.7152 85.7727 99.6966Z" fill="#263238"/>
<path opacity="0.2" d="M84.3497 110.98C84.3497 110.98 87.8309 111.688 89.2067 108.648C88.7393 111.088 86.7101 112.643 84.2675 113.253L83.4287 112.667L83.8823 111.429L84.3497 110.98Z" fill="black"/>
<path d="M77.6064 119.938C77.6064 119.938 80.9652 118.294 78.5442 111.89C78.5442 111.89 81.2256 109.23 84.0138 110.359C86.8014 111.487 84.4615 117.385 87.7429 118.294C87.7429 118.294 86.0292 120.667 77.6064 119.938Z" fill="#B97964"/>
<path d="M78.2418 116.713C78.2418 116.713 77.634 114.533 81.363 113.62C85.0914 112.706 88.1916 113.828 88.6884 115.462C89.1852 117.096 78.2418 116.713 78.2418 116.713Z" fill="#263238"/>
<path opacity="0.2" d="M78.2418 116.713C78.2418 116.713 77.634 114.533 81.363 113.62C85.0914 112.706 88.1916 113.828 88.6884 115.462C89.1852 117.096 78.2418 116.713 78.2418 116.713Z" fill="white"/>
<path d="M85.7738 103.555C85.7738 103.555 86.9978 102.538 85.7738 101.414C84.5498 100.291 82.76 99.3336 83.2868 97.7844C83.8136 96.2352 81.4166 95.1642 81.4166 95.1642C81.4166 95.1642 83.7626 93.6342 82.3856 92.4102C80.969 91.1508 80.3852 93.4812 77.081 94.7868C73.2764 96.2904 69.0224 99.9078 71.6234 104.651C74.2244 109.394 76.52 113.372 79.631 112.607C82.742 111.842 84.2216 105.824 84.2216 105.824L85.7738 103.555Z" fill="#263238"/>
<path d="M84.9179 101.926C85.7825 102.542 86.3663 103.478 86.5397 104.526C86.7593 105.918 85.4711 106.463 84.2423 105.95C83.1287 105.487 81.6863 104.204 82.0289 102.864C82.3715 101.524 83.8523 101.184 84.9179 101.926Z" fill="#B97964"/>
<path d="M92.2388 235.48L93.419 243.483L98.234 243.307L98.5958 235.024L92.2388 235.48Z" fill="#B97964"/>
<path d="M97.9682 242.736L93.2228 242.836C93.0164 242.84 92.8394 242.986 92.798 243.189L91.8884 247.667C91.805 248.064 92.0588 248.453 92.4554 248.537C92.5064 248.548 92.5586 248.553 92.6102 248.552C94.586 248.482 96.3416 248.342 98.8022 248.3C101.706 248.248 100.975 248.608 104.39 248.595C106.447 248.585 106.781 246.239 105.907 246.14C101.906 245.711 100.732 244.513 99.1664 243.112C98.8268 242.845 98.4002 242.711 97.9682 242.736Z" fill="#263238"/>
<path d="M68.7676 235.48L68.4556 242.572L73.4542 243.227L75.124 235.024L68.7676 235.48Z" fill="#B97964"/>
<path d="M73.1634 241.943L68.4264 241.645C68.22 241.631 68.0322 241.763 67.9734 241.961L66.6918 246.347C66.5754 246.736 66.7956 247.145 67.1838 247.261C67.2336 247.276 67.2852 247.286 67.3368 247.29C69.3114 247.385 71.0724 247.393 73.5282 247.557C76.4262 247.748 75.6678 248.047 79.0716 248.319C81.1224 248.481 81.6516 246.172 80.7888 246C76.8378 245.237 75.7686 243.945 74.3256 242.418C74.01 242.123 73.596 241.954 73.1634 241.943Z" fill="#263238"/>
<path d="M80.2271 141.172L83.1695 141.879L88.1507 140.62L88.9553 142.82L89.5745 145.903L85.6127 146.581L82.3577 144.619L78.2051 144.535L80.2271 141.172Z" fill="#B97964"/>
<path d="M73.1873 119.71L75.6179 153.87L101.732 154.074C101.732 154.074 104.918 144.64 100.981 131.275L97.1345 118.384C96.8111 117.299 95.9423 116.464 94.8431 116.193C90.9713 115.238 81.5579 114.095 74.2121 117.889C73.5383 118.237 73.1339 118.952 73.1873 119.71Z" fill="#263238"/>
<path d="M75.0305 154.139C73.5677 160.91 73.1843 165.653 73.2047 168.822C73.2119 169.943 73.2695 170.867 73.3475 171.613C73.5827 173.859 73.6649 176.12 73.5251 178.375L73.4891 178.955C73.0865 185.457 73.0169 192.101 73.0277 196.48C73.0277 196.511 73.0277 196.542 73.0277 196.573C73.0355 199.447 72.5855 202.297 71.6927 205.013C71.5535 205.436 71.4197 205.87 71.2907 206.313C67.6013 218.968 67.9169 239.166 67.9169 239.166L75.0761 239.569L94.7783 152.902H76.4939C75.7913 152.901 75.1871 153.416 75.0305 154.139Z" fill="#A3CD0C"/>
<path opacity="0.2" d="M85.7347 167.269L83.2825 166.705L81.7681 164.869C81.7681 164.869 81.9217 178.589 85.8991 191.957L89.7757 174.905L85.7347 167.269Z" fill="black"/>
<path d="M67.2837 237.773L67.3887 239.881L75.5373 240.215L75.8991 238.076L67.2837 237.773Z" fill="#A3CD0C"/>
<path opacity="0.3" d="M67.2837 237.773L67.3887 239.881L75.5373 240.215L75.8991 238.076L67.2837 237.773Z" fill="black"/>
<path d="M82.2227 152.9C80.5517 162.918 81.5807 168.629 82.6919 171.616C82.8005 171.908 82.9097 172.174 83.0177 172.415C83.8259 174.225 84.3983 176.138 84.6563 178.12C84.6683 178.214 84.6809 178.307 84.6935 178.402C85.7261 186.173 87.7043 194.327 88.8923 198.842C88.8983 198.865 88.9037 198.886 88.9097 198.908C89.4323 200.892 89.5859 202.964 89.3051 205.001C89.2133 205.667 89.1431 206.38 89.0921 207.134C88.3031 218.798 92.1377 240.06 92.1377 240.06L99.1451 239.414L102.208 153.911C102.228 153.359 101.808 152.9 101.285 152.9H82.2227Z" fill="#A3CD0C"/>
<path d="M91.2319 238.987L91.8307 241.045L99.7045 240.361L99.8197 238.19L91.2319 238.987Z" fill="#A3CD0C"/>
<path opacity="0.3" d="M91.2319 238.987L91.8307 241.045L99.7045 240.361L99.8197 238.19L91.2319 238.987Z" fill="black"/>
<g opacity="0.7">
<path d="M95.5931 154.355H82.3643V156.191H95.5931V154.355Z" fill="white"/>
<path d="M80.6153 154.355H75.5339L75.2573 156.191H80.6153V154.355Z" fill="white"/>
<path d="M101.41 154.355H97.3789V156.191H101.41V154.355Z" fill="white"/>
</g>
<path opacity="0.4" d="M100.981 131.275L98.9039 124.314L97.4831 122.332L95.6471 120.921L94.7783 123.063C94.7783 123.063 95.3141 129.797 101.837 134.609C101.599 133.528 101.317 132.417 100.981 131.275Z" fill="black"/>
<path d="M113.438 119.697L114.702 116.947L114.478 112.67C114.449 112.123 114.633 111.585 114.991 111.17L115.722 110.324C116.573 109.339 118.101 109.344 118.945 110.334L119.364 110.825C119.704 111.224 119.884 111.734 119.871 112.258L119.809 114.673C119.796 115.181 119.6 115.669 119.258 116.045L117.233 118.274L116.346 122.332L113.438 119.697Z" fill="#B97964"/>
<path d="M97.0147 116.839L109.336 126.758L113.642 118.425L117.34 119.972C117.34 119.972 114.707 134.767 111.337 135.004C107.968 135.241 99.5365 131.25 96.0649 126.506C93.5407 123.057 94.6873 119.108 95.5009 117.211C95.7565 116.614 96.5095 116.432 97.0147 116.839Z" fill="#263238"/>
</svg>
