<svg width="277" height="292" viewBox="0 0 277 292" fill="none" xmlns="http://www.w3.org/2000/svg">
<path d="M116.875 286.047L21.8997 228.439L166.605 140.728L261.581 198.336L116.875 286.047Z" fill="#E0E0E0"/>
<path d="M16.3607 75.4546L17.7092 76.2723L51.4234 55.8237L50.0749 55.0054L16.3607 75.4546Z" fill="#F0F0F0"/>
<path d="M50.075 55.0054L17.7092 74.6363L17.7098 45.1661L50.075 25.5358V55.0054Z" fill="#FAFAFA"/>
<path d="M52.7724 22.2639L16.3607 44.3484L16.3613 78.726L52.7724 56.6414V22.2639ZM51.4234 55.8237L17.7092 76.2723V45.1661L51.4228 24.7176L51.4234 55.8237Z" fill="#EBEBEB"/>
<path d="M51.4234 55.8237L50.075 55.0055V25.5359L51.4234 24.7176V55.8237Z" fill="#E0E0E0"/>
<path d="M52.7724 22.2638L51.4234 21.4456L15.0123 43.5307L16.3608 44.3484L52.7724 22.2638Z" fill="#F5F5F5"/>
<path d="M15.0123 43.5307L16.3608 44.3484V78.726L15.0123 77.9083V43.5307Z" fill="#E0E0E0"/>
<path d="M43.7273 50.0509C44.9843 49.2884 46.0037 49.9065 46.0037 51.4314C46.0037 52.9568 44.9843 54.811 43.7273 55.5735C42.4703 56.3359 41.4509 55.7178 41.4509 54.193C41.4509 52.6681 42.4703 50.8133 43.7273 50.0509Z" fill="#E0E0E0"/>
<path d="M25.3333 43.8246L42.4719 33.4208C42.9483 33.1315 43.3345 33.3661 43.3345 33.944V33.9958C43.3345 34.5737 42.9483 35.2774 42.4719 35.5666L25.3328 45.9792C24.8564 46.2684 24.4702 46.0345 24.4702 45.4565V45.3954C24.4702 44.8169 24.8564 44.1139 25.3333 43.8246Z" fill="#E0E0E0"/>
<path d="M22.6201 52.0174L45.1784 38.3346C45.6549 38.0454 46.0415 38.1775 46.0415 38.6297C46.0415 39.0819 45.6549 39.6825 45.179 39.9712L22.6035 53.6639C22.127 53.9526 21.7442 53.8187 21.7492 53.3642C21.7531 52.9097 22.1436 52.3067 22.6201 52.0174Z" fill="#F0F0F0"/>
<path d="M22.6199 55.2859L45.1782 41.6031C45.6547 41.3139 46.0414 41.446 46.0414 41.8982C46.0414 42.3504 45.6547 42.951 45.1788 43.2397L22.6027 56.9324C22.1263 57.2217 21.7435 57.0872 21.7485 56.6327C21.7529 56.1781 22.1435 55.5752 22.6199 55.2859Z" fill="#F0F0F0"/>
<path d="M22.62 58.5545L45.1783 44.8717C45.6547 44.5824 46.0414 44.7145 46.0414 45.1668C46.0414 45.6184 45.6547 46.2196 45.1788 46.5083L22.6033 60.2004C22.1269 60.4896 21.7441 60.3552 21.7491 59.9007C21.7529 59.4467 22.1435 58.8438 22.62 58.5545Z" fill="#F0F0F0"/>
<path d="M39.6781 57.0471C39.4991 57.1419 39.3169 57.2001 39.1147 57.203C38.6327 57.2106 38.677 56.6868 38.6925 56.3318C38.6992 56.1706 38.4859 55.925 38.3745 56.1362C38.0831 56.6903 37.7114 57.2036 37.3962 57.7443C37.2045 58.0737 36.8383 58.8198 36.3746 58.7133C36.1823 58.6691 36.1186 58.4526 36.1181 58.1814C36.3369 57.721 36.4726 57.2321 36.4195 56.7037C36.4039 56.55 36.1546 56.3609 36.0776 56.5698C35.9613 56.8841 35.8078 57.4236 35.784 57.9294C35.5807 58.3408 35.3037 58.7238 35.0566 59.0689C34.8993 59.2883 34.7619 59.5316 34.5885 59.7376C34.5475 59.7865 34.4672 59.9117 34.4001 59.9245C34.2422 59.953 34.2572 59.854 34.2361 59.7429C34.209 59.5997 34.2744 59.3978 34.3132 59.2569V59.2552C34.3159 59.2418 34.3215 59.2296 34.3242 59.2156C34.3215 59.2138 34.3187 59.2127 34.3159 59.2109C34.3143 59.0491 34.1215 58.8123 34.0406 59.0125C33.7248 59.7929 33.3093 60.7299 32.7171 61.33C32.6894 61.3585 32.6589 61.3812 32.629 61.4051C32.6235 61.3114 32.6052 61.2153 32.5963 61.1216C32.5764 60.9028 32.5636 60.684 32.4894 60.4768C32.4528 60.3749 32.2794 60.2149 32.1886 60.3528C31.711 61.0797 31.3276 61.9423 30.6878 62.5336C30.6418 62.5761 30.3836 62.7704 30.372 62.7635C30.2695 62.7023 30.4285 62.1279 30.4496 62.0406C30.5111 61.7834 30.5919 61.5314 30.6717 61.2794C30.7515 61.0786 30.8185 60.8725 30.8523 60.6514C30.8822 60.457 30.562 60.1573 30.5038 60.4197C30.48 60.5257 30.3919 60.787 30.2972 61.1059C29.9903 61.8183 29.4468 62.7198 29.0308 63.3577C28.5482 64.0986 28.0474 64.7038 27.2696 65.1415C27.0685 65.255 26.694 65.4203 26.4735 65.2533C26.2923 65.1165 26.2774 64.7958 26.268 64.5828C26.2441 64.0351 26.35 63.4735 26.4785 62.9421C27.1776 62.5726 27.8275 62.0557 28.4341 61.4924C28.9737 60.9913 29.5576 60.4401 29.9127 59.7714C30.1138 59.3919 30.2335 58.7657 29.7471 58.5492C29.4119 58.4002 28.9776 58.647 28.6934 58.8146C28.2989 59.0474 27.93 59.3494 27.6186 59.6928C26.9738 60.404 26.5444 61.344 26.2741 62.2775C26.232 62.4236 26.176 62.6185 26.12 62.8409C25.3705 63.2227 24.5533 63.4182 23.637 63.2774C23.5905 63.2704 23.5716 63.3798 23.6176 63.3903C24.4979 63.5899 25.3012 63.4595 26.048 63.1464C25.8298 64.1376 25.7073 65.4471 26.5871 65.702C27.5233 65.9732 28.5255 64.8022 28.9959 64.1387C29.3587 63.626 29.6607 63.1208 29.9399 62.54C29.9604 62.4969 29.9936 62.4608 30.0208 62.4212C29.9947 62.8804 30.1066 63.2157 30.5343 63.14C30.9842 63.0603 31.3637 62.416 31.603 62.0662C31.8301 61.7351 32.0345 61.3888 32.244 61.046C32.2827 61.4592 32.3537 61.9295 32.7293 61.8503C33.091 61.7741 33.4157 61.0844 33.5935 60.805C33.7459 60.5647 33.8943 60.3196 34.0212 60.0636C34.0434 60.1113 34.0699 60.1567 34.1065 60.198C34.4195 60.5513 34.7901 60.1741 34.9918 59.8948C35.2788 59.4984 35.6018 59.08 35.8716 58.6353C35.943 58.8274 36.0594 58.9851 36.2444 59.0771C36.7258 59.3145 37.179 58.8961 37.4571 58.5224C37.8067 58.0527 38.0914 57.5208 38.364 56.9906C38.4033 57.178 38.4936 57.3468 38.6958 57.4754C39.0482 57.6989 39.498 57.6128 39.8315 57.3974C39.9811 57.3031 39.8365 56.9632 39.6781 57.0471ZM29.1222 59.027C29.3465 58.9077 29.813 58.7069 29.8374 59.1038C29.8518 59.3343 29.6501 59.6189 29.5321 59.797C29.1693 60.3464 28.6923 60.8178 28.2208 61.2631C27.7034 61.7514 27.1593 62.2123 26.5771 62.5766C26.9893 61.1042 27.782 59.7388 29.1222 59.027Z" fill="#E0E0E0"/>
<path d="M61.3805 71.8736L62.7289 72.6918L96.4426 52.2433L95.0947 51.425L61.3805 71.8736Z" fill="#F0F0F0"/>
<path d="M95.0947 51.425L62.7289 71.0558L62.7294 41.5857L95.0941 21.9554L95.0947 51.425Z" fill="#FAFAFA"/>
<path d="M97.7915 18.6834L61.3799 40.768L61.3804 75.1456L97.7921 53.061L97.7915 18.6834ZM96.4425 52.2433L62.7289 72.6918V41.5857L96.4425 21.1377V52.2433Z" fill="#EBEBEB"/>
<path d="M96.4426 52.2433L95.0947 51.425L95.0941 21.9554L96.4426 21.1371V52.2433Z" fill="#E0E0E0"/>
<path d="M97.7916 18.6834L96.4431 17.8651L60.0315 39.9497L61.3799 40.768L97.7916 18.6834Z" fill="#F5F5F5"/>
<path d="M60.0315 39.9497L61.3799 40.768L61.3805 75.1456L60.032 74.3279L60.0315 39.9497Z" fill="#E0E0E0"/>
<path d="M88.747 46.4704C90.004 45.708 91.0234 46.3261 91.0234 47.8509C91.0234 49.3758 90.004 51.2306 88.747 51.993C87.4899 52.7554 86.4706 52.1374 86.4706 50.6125C86.4706 49.0871 87.4894 47.2328 88.747 46.4704Z" fill="#E0E0E0"/>
<path d="M70.3526 40.2442L87.4911 29.8404C87.9676 29.5511 88.3537 29.7851 88.3537 30.3636V30.4154C88.3537 30.9933 87.9676 31.6969 87.4911 31.9862L70.3526 42.3988C69.8761 42.688 69.49 42.4541 69.49 41.8761V41.815C69.49 41.2365 69.8761 40.5335 70.3526 40.2442Z" fill="#E0E0E0"/>
<path d="M67.639 48.437L90.1973 34.7542C90.6738 34.4649 91.0605 34.597 91.0605 35.0493C91.0605 35.5015 90.6738 36.1021 90.1979 36.3908L67.6224 50.0835C67.1459 50.3722 66.7631 50.2383 66.7681 49.7838C66.7725 49.3292 67.1626 48.7263 67.639 48.437Z" fill="#F0F0F0"/>
<path d="M67.639 51.7055L90.1973 38.0227C90.6738 37.7334 91.0605 37.8655 91.0605 38.3178C91.0605 38.77 90.6738 39.3706 90.1979 39.6598L67.6224 53.352C67.1459 53.6412 66.7631 53.5068 66.7681 53.0522C66.7725 52.5971 67.1626 51.9948 67.639 51.7055Z" fill="#F0F0F0"/>
<path d="M67.639 54.9741L90.1973 41.2912C90.6738 41.002 91.0605 41.1341 91.0605 41.5863C91.0605 42.0379 90.6738 42.6391 90.1979 42.9278L67.6224 56.62C67.1459 56.9092 66.7631 56.7748 66.7681 56.3202C66.7725 55.8657 67.1626 55.2633 67.639 54.9741Z" fill="#F0F0F0"/>
<path d="M84.6973 53.4666C84.5183 53.5615 84.336 53.6197 84.1338 53.6232C83.6519 53.6308 83.6962 53.107 83.7117 52.7519C83.7183 52.5907 83.505 52.3451 83.3937 52.5564C83.1023 53.1105 82.73 53.6238 82.4153 54.1645C82.2236 54.4939 81.8574 55.24 81.3938 55.1335C81.2015 55.0893 81.1378 54.8727 81.1373 54.6015C81.3561 54.1412 81.4913 53.6523 81.4386 53.1238C81.4231 52.9702 81.1738 52.781 81.0968 52.99C80.9805 53.3043 80.8276 53.8438 80.8037 54.3495C80.6004 54.761 80.3234 55.144 80.0763 55.4891C79.919 55.7085 79.7816 55.9518 79.6082 56.1578C79.5672 56.2067 79.4869 56.3318 79.4198 56.344C79.262 56.3726 79.2769 56.2736 79.2564 56.1625C79.2293 56.0193 79.2946 55.8173 79.3334 55.6765V55.6747C79.3362 55.6614 79.3417 55.6491 79.3445 55.6352C79.3417 55.6334 79.339 55.6323 79.3362 55.6305C79.3345 55.4687 79.1417 55.2318 79.0609 55.4321C78.7451 56.2125 78.3296 57.1495 77.7374 57.7496C77.7097 57.7781 77.6792 57.8008 77.6493 57.8247C77.6437 57.731 77.6249 57.6349 77.6166 57.5412C77.5966 57.3224 77.5839 57.1036 77.5097 56.8964C77.4731 56.7945 77.2997 56.6345 77.2088 56.7724C76.7313 57.4987 76.3479 58.3618 75.7075 58.9531C75.6615 58.9956 75.4033 59.19 75.3917 59.183C75.2892 59.1219 75.4482 58.5475 75.4693 58.4602C75.5308 58.203 75.6111 57.9509 75.6914 57.6989C75.7712 57.4981 75.8382 57.2921 75.872 57.071C75.902 56.8766 75.5817 56.5768 75.5236 56.8393C75.4997 56.9453 75.4117 57.2066 75.3164 57.5255C75.0095 58.2379 74.4654 59.1394 74.0499 59.7773C73.5668 60.5181 73.0666 61.1234 72.2888 61.5611C72.0877 61.6746 71.7132 61.8399 71.4927 61.6734C71.3115 61.5366 71.2965 61.216 71.2871 61.003C71.2633 60.4553 71.3691 59.8942 71.4977 59.3623C72.1968 58.9927 72.8466 58.4759 73.4533 57.9125C73.9929 57.4114 74.5773 56.8603 74.9319 56.1916C75.1335 55.8121 75.2527 55.1859 74.7663 54.9694C74.4311 54.8204 73.9967 55.0671 73.7125 55.2348C73.3181 55.467 72.9491 55.7696 72.6378 56.113C71.9929 56.8242 71.5636 57.7641 71.2932 58.6977C71.2506 58.8437 71.1952 59.0387 71.1392 59.261C70.3897 59.6428 69.5725 59.8384 68.6562 59.6975C68.6096 59.6905 68.5908 59.8 68.6368 59.8104C69.5171 60.0101 70.3204 59.8797 71.0672 59.5666C70.8489 60.5583 70.7265 61.8672 71.6062 62.1221C72.5425 62.3934 73.5447 61.2224 74.015 60.5589C74.3779 60.0461 74.6798 59.541 74.959 58.9601C74.9801 58.9171 75.0128 58.881 75.0399 58.842C75.0139 59.3012 75.1258 59.6364 75.5535 59.5608C76.0033 59.481 76.3828 58.8368 76.6222 58.487C76.8493 58.1558 77.0537 57.8095 77.2626 57.4667C77.3014 57.8799 77.3728 58.3502 77.7479 58.271C78.1091 58.1948 78.4348 57.5051 78.6121 57.2258C78.7645 56.9854 78.9129 56.7404 79.0393 56.4843C79.0614 56.532 79.088 56.5774 79.1246 56.6188C79.4376 56.972 79.8082 56.5949 80.0104 56.3161C80.2974 55.9198 80.6204 55.5013 80.8902 55.0567C80.9616 55.2487 81.078 55.4064 81.263 55.4984C81.7444 55.7364 82.1976 55.3174 82.4757 54.9438C82.8253 54.4741 83.11 53.9421 83.3826 53.4119C83.4219 53.5993 83.5122 53.7681 83.7145 53.8967C84.0668 54.1202 84.5167 54.0341 84.8507 53.8187C85.0008 53.7221 84.8563 53.3828 84.6973 53.4666ZM74.1413 55.4466C74.3657 55.3273 74.8322 55.1265 74.8565 55.5234C74.871 55.7539 74.6693 56.0385 74.5513 56.2166C74.1884 56.766 73.7114 57.2374 73.24 57.6826C72.7225 58.1709 72.1785 58.6319 71.5963 58.9962C72.0084 57.5238 72.8018 56.1584 74.1413 55.4466Z" fill="#E0E0E0"/>
<path d="M183.478 102.774L254.611 145.916L254.61 66.4033L183.477 23.2731L183.478 102.774Z" fill="white"/>
<path d="M256.006 146.765L254.611 147.639L182.084 103.648L183.478 102.774L256.006 146.765Z" fill="#FAFAFA"/>
<path d="M179.451 105.244L257.242 152.426V64.8069L179.451 17.6241L179.451 105.244ZM182.083 22.4134L254.61 66.4039L254.611 147.639L182.084 103.649L182.083 22.4134Z" fill="#F0F0F0"/>
<path d="M182.084 103.648L183.478 102.774L183.477 23.2731L182.083 22.4135L182.084 103.648Z" fill="#E0E0E0"/>
<path d="M179.451 17.6248L180.867 16.7733L258.658 63.9561L257.242 64.8075L179.451 17.6248Z" fill="#FAFAFA"/>
<path d="M258.658 63.9561L257.242 64.8075V152.427L258.658 151.575V63.9561Z" fill="#E0E0E0"/>
<path d="M253.451 82.4439V84.1631L182.083 40.8204L183.477 39.9457L253.451 82.4439Z" fill="#FAFAFA"/>
<path d="M220.59 45.7773L219.174 44.9183V126.158L220.59 125.307V45.7773Z" fill="#E0E0E0"/>
<path d="M216.542 43.3294L219.174 44.9183V126.158L216.542 124.557L216.542 43.3294Z" fill="#F0F0F0"/>
<path d="M182.083 40.8204V44.0086L254.638 88.1789V84.9907L182.083 40.8204Z" fill="#F0F0F0"/>
<path d="M219.174 63.4003L220.59 62.4865L254.611 83.1452V84.9907L219.174 63.4003Z" fill="#FAFAFA"/>
<path d="M161.734 172.814V148.534L131.711 130.324V154.604L161.734 172.814Z" fill="#F0F0F0"/>
<path d="M161.734 148.534L203.266 123.378V147.658L161.734 172.814V148.534Z" fill="#E6E6E6"/>
<path d="M161.734 148.534L130.822 129.776L173.243 104.074L204.156 122.833L161.734 148.534Z" fill="#FAFAFA"/>
<path d="M161.734 148.534V154.604L130.822 135.854V129.776L161.734 148.534Z" fill="#F0F0F0"/>
<path d="M204.156 122.833L161.734 148.534V154.604L204.156 128.908V122.833Z" fill="#E6E6E6"/>
<path opacity="0.1" d="M131.711 136.393V137.728L161.734 155.938V154.604L131.711 136.393ZM203.266 129.447L161.734 154.604L161.734 155.938L203.265 130.781L203.266 129.447Z" fill="black"/>
<path d="M151.85 152.224L141.594 146.004C141.152 145.736 140.794 145.953 140.794 146.489V152.859C140.794 153.395 141.153 154.047 141.594 154.315L151.85 160.535C152.292 160.804 152.65 160.586 152.65 160.05V153.68C152.651 153.143 152.292 152.492 151.85 152.224Z" fill="#E0E0E0"/>
<path opacity="0.1" d="M151.85 152.224L141.594 146.004C141.152 145.736 140.794 145.953 140.794 146.489V152.859C140.794 153.395 141.153 154.047 141.594 154.315L151.85 160.535C152.292 160.804 152.65 160.586 152.65 160.05V153.68C152.651 153.143 152.292 152.492 151.85 152.224Z" fill="black"/>
<path d="M151.193 152.947L142.252 147.523C141.957 147.344 141.718 147.489 141.718 147.847V152.623C141.718 152.98 141.957 153.415 142.252 153.593L151.193 159.016C151.488 159.195 151.727 159.05 151.727 158.693V153.918C151.727 153.56 151.488 153.125 151.193 152.947Z" fill="#F5F5F5"/>
<g opacity="0.2">
<path d="M150.944 154.208C150.989 154.208 151.032 154.184 151.056 154.14C151.092 154.075 151.071 153.991 151.009 153.953L142.566 148.833C142.505 148.795 142.425 148.817 142.388 148.883C142.353 148.948 142.374 149.032 142.436 149.069L150.879 154.189C150.9 154.202 150.922 154.208 150.944 154.208Z" fill="black"/>
<path d="M150.944 155.38C150.989 155.38 151.032 155.356 151.056 155.312C151.092 155.247 151.071 155.163 151.009 155.126L142.566 150.005C142.505 149.967 142.425 149.99 142.388 150.055C142.353 150.121 142.374 150.204 142.436 150.242L150.879 155.362C150.9 155.374 150.922 155.38 150.944 155.38Z" fill="black"/>
<path d="M150.944 156.553C150.989 156.553 151.032 156.528 151.056 156.485C151.092 156.42 151.071 156.336 151.009 156.298L142.566 151.178C142.505 151.141 142.425 151.162 142.388 151.228C142.353 151.293 142.374 151.377 142.436 151.415L150.879 156.535C150.9 156.547 150.922 156.553 150.944 156.553Z" fill="black"/>
<path d="M150.944 157.726C150.989 157.726 151.032 157.701 151.056 157.657C151.092 157.592 151.071 157.508 151.009 157.471L142.566 152.35C142.505 152.313 142.425 152.335 142.388 152.4C142.353 152.465 142.374 152.549 142.436 152.587L150.879 157.707C150.9 157.72 150.922 157.726 150.944 157.726Z" fill="black"/>
</g>
<path opacity="0.1" d="M201.69 121.337L160.006 146.591L131.559 129.329L173.242 104.074L201.69 121.337Z" fill="black"/>
<path d="M159.752 144.674V120.393L129.729 102.184V126.463L159.752 144.674Z" fill="#F0F0F0"/>
<path d="M159.752 120.393L201.284 95.2368V119.517L159.752 144.674V120.393Z" fill="#E6E6E6"/>
<path d="M159.752 120.393L128.839 101.635L171.26 75.9342L202.173 94.6921L159.752 120.393Z" fill="#FAFAFA"/>
<path d="M159.752 120.393V126.464L128.839 107.714V101.635L159.752 120.393Z" fill="#F0F0F0"/>
<path d="M202.173 94.6921L159.752 120.393V126.464L202.173 100.768V94.6921Z" fill="#E6E6E6"/>
<path opacity="0.1" d="M129.729 108.253V109.588L159.752 127.798V126.463L129.729 108.253ZM201.284 101.307L159.752 126.464L159.753 127.799L201.284 102.642V101.307Z" fill="black"/>
<path d="M149.868 124.084L139.612 117.863C139.17 117.595 138.812 117.813 138.812 118.348V124.719C138.812 125.255 139.17 125.906 139.612 126.174L149.868 132.395C150.31 132.663 150.668 132.445 150.668 131.909V125.539C150.668 125.003 150.31 124.351 149.868 124.084Z" fill="#E0E0E0"/>
<path opacity="0.1" d="M149.868 124.084L139.612 117.863C139.17 117.595 138.812 117.813 138.812 118.348V124.719C138.812 125.255 139.17 125.906 139.612 126.174L149.868 132.395C150.31 132.663 150.668 132.445 150.668 131.909V125.539C150.668 125.003 150.31 124.351 149.868 124.084Z" fill="black"/>
<path d="M149.211 124.806L140.27 119.382C139.975 119.204 139.736 119.348 139.736 119.706V124.482C139.736 124.839 139.975 125.274 140.27 125.452L149.211 130.876C149.506 131.054 149.745 130.909 149.745 130.552V125.776C149.744 125.419 149.505 124.985 149.211 124.806Z" fill="#F5F5F5"/>
<g opacity="0.2">
<path d="M148.962 126.067C149.007 126.067 149.05 126.043 149.074 125.999C149.11 125.934 149.089 125.85 149.027 125.812L140.584 120.692C140.523 120.654 140.442 120.676 140.406 120.742C140.37 120.807 140.391 120.891 140.454 120.928L148.896 126.048C148.917 126.061 148.94 126.067 148.962 126.067Z" fill="black"/>
<path d="M148.962 127.24C149.007 127.24 149.05 127.215 149.074 127.172C149.11 127.107 149.089 127.023 149.027 126.985L140.584 121.865C140.523 121.827 140.442 121.849 140.406 121.915C140.37 121.98 140.391 122.064 140.454 122.101L148.896 127.222C148.917 127.234 148.94 127.24 148.962 127.24Z" fill="black"/>
<path d="M148.962 128.413C149.007 128.413 149.05 128.388 149.074 128.344C149.11 128.279 149.089 128.195 149.027 128.158L140.584 123.037C140.523 123 140.442 123.021 140.406 123.087C140.37 123.153 140.391 123.236 140.454 123.274L148.896 128.394C148.917 128.407 148.94 128.413 148.962 128.413Z" fill="black"/>
<path d="M148.962 129.585C149.007 129.585 149.05 129.561 149.074 129.517C149.11 129.452 149.089 129.368 149.027 129.33L140.584 124.209C140.523 124.172 140.442 124.194 140.406 124.259C140.37 124.325 140.391 124.408 140.454 124.446L148.896 129.566C148.917 129.579 148.94 129.585 148.962 129.585Z" fill="black"/>
</g>
<path opacity="0.1" d="M133.209 98.9872L161.421 115.916C161.511 115.981 161.631 116.004 161.743 116.005C161.864 116.008 161.977 115.989 162.073 115.929L197.08 94.6979C197.263 94.5867 197.272 94.3999 197.1 94.2823L168.871 77.3525L133.209 98.9872Z" fill="black"/>
<path d="M194.993 94.227C194.985 94.4074 194.843 94.635 194.677 94.7351L161.994 114.545C161.828 114.646 161.567 114.641 161.411 114.534L135.908 99.2334L135.939 98.5833L169.211 78.4019L194.726 93.7067C194.883 93.8144 195.002 94.0472 194.993 94.227Z" fill="#E6E6E6"/>
<path opacity="0.1" d="M161.73 113.967L161.699 114.614C161.808 114.616 161.91 114.59 161.997 114.545L194.675 94.7375C194.839 94.6374 194.985 94.4051 194.995 94.227C195.003 94.049 194.88 93.8115 194.725 93.7056C194.88 93.8115 194.872 93.9809 194.707 94.081L162.028 113.897C161.942 113.952 161.84 113.969 161.73 113.967Z" fill="black"/>
<path opacity="0.25" d="M135.939 98.5839L161.439 113.886C161.521 113.944 161.629 113.964 161.73 113.967C161.839 113.969 161.941 113.952 162.028 113.897L194.707 94.0809C194.872 93.9802 194.88 93.8115 194.725 93.7055L169.209 78.403L135.939 98.5839Z" fill="black"/>
<path opacity="0.15" d="M135.939 98.5839L135.908 99.234L161.408 114.534C161.489 114.592 161.598 114.613 161.699 114.614L161.73 113.967C161.629 113.966 161.521 113.945 161.439 113.886L135.939 98.5839Z" fill="black"/>
<path d="M136.325 98.851L169.61 78.6766L170.024 70.1188L136.737 90.3928L136.325 98.851Z" fill="#E6E6E6"/>
<path opacity="0.3" d="M136.325 98.851L169.61 78.6766L170.024 70.1188L136.737 90.3928L136.325 98.851Z" fill="black"/>
<path d="M194.855 89.6176C195.05 89.7509 195.197 90.0692 195.185 90.3282L195.101 92.0597C195.088 92.3187 194.91 92.6306 194.703 92.7563L162.17 112.475C161.962 112.601 161.637 112.594 161.442 112.461L139.865 98.6217L139.994 95.9515L173.267 75.7712L194.855 89.6176Z" fill="#EBEBEB"/>
<path d="M173.267 75.7719L194.855 89.6176C195.05 89.7509 195.04 89.961 194.832 90.0867L162.3 109.805C162.093 109.931 161.766 109.925 161.571 109.792L139.995 95.9521L173.267 75.7719Z" fill="#FAFAFA"/>
<path d="M142.816 96.2221C142.736 96.264 142.658 96.2972 142.564 96.3124C142.431 96.3444 142.284 96.3415 142.17 96.2961C142.124 96.2867 142.087 96.2687 142.049 96.2419C141.854 96.1174 141.888 95.8933 142.127 95.7513C142.231 95.6931 142.356 95.6524 142.48 95.646C142.636 95.632 142.789 95.6605 142.894 95.7315C142.909 95.7402 142.924 95.749 142.931 95.767C143.079 95.8986 143.039 96.0883 142.816 96.2221Z" fill="#E0E0E0"/>
<path d="M161.929 109.889L161.799 112.564C161.934 112.566 162.069 112.54 162.173 112.477L194.705 92.761C194.913 92.6335 195.088 92.3175 195.1 92.0637L195.185 90.3276C195.195 90.1117 195.09 89.8469 194.938 89.6938C195.041 89.8178 195.008 89.9767 194.835 90.0867L162.304 109.803C162.199 109.865 162.063 109.9 161.929 109.889Z" fill="#E6E6E6"/>
<path d="M139.103 92.445C139.547 92.1691 140.079 92.2122 140.605 92.5718C141.487 93.1754 142.206 94.5396 142.499 96.0126C142.319 96.0382 142.098 96.0697 141.998 96.0854C141.724 94.7782 141.091 93.5624 140.335 93.0444C140.167 92.9303 139.948 92.8209 139.719 92.8163C139.592 92.8139 139.461 92.8436 139.334 92.9234C138.923 93.1806 138.666 93.886 138.646 94.8085C138.607 96.5818 139.42 98.6037 140.458 99.3137C140.655 99.4493 140.924 99.5762 141.197 99.5343L141.723 99.8911C141.711 99.8986 141.7 99.9062 141.689 99.9132C141.49 100.038 141.274 100.097 141.048 100.093C140.77 100.088 140.478 99.9859 140.188 99.7869C139.003 98.9756 138.109 96.7919 138.152 94.816C138.176 93.673 138.523 92.8087 139.103 92.445Z" fill="#E0E0E0"/>
<g opacity="0.35">
<path d="M139.103 92.445C139.547 92.1691 140.079 92.2122 140.605 92.5718C141.487 93.1754 142.206 94.5396 142.499 96.0126C142.319 96.0382 142.098 96.0697 141.998 96.0854C141.724 94.7782 141.091 93.5624 140.335 93.0444C140.167 92.9303 139.948 92.8209 139.719 92.8163C139.592 92.8139 139.461 92.8436 139.334 92.9234C138.923 93.1806 138.666 93.886 138.646 94.8085C138.607 96.5818 139.42 98.6037 140.458 99.3137C140.655 99.4493 140.924 99.5762 141.197 99.5343L141.723 99.8911C141.711 99.8986 141.7 99.9062 141.689 99.9132C141.49 100.038 141.274 100.097 141.048 100.093C140.77 100.088 140.478 99.9859 140.188 99.7869C139.003 98.9756 138.109 96.7919 138.152 94.816C138.176 93.673 138.523 92.8087 139.103 92.445Z" fill="black"/>
</g>
<path d="M195.257 88.7935C195.248 88.9739 195.107 89.2015 194.94 89.3021L162.257 109.112C162.091 109.213 161.831 109.208 161.674 109.101L136.32 90.7187L136.352 90.0686L169.624 69.8872L194.99 88.2743C195.146 88.3808 195.266 88.6136 195.257 88.7935Z" fill="#E6E6E6"/>
<path opacity="0.1" d="M161.994 108.533L161.962 109.181C162.072 109.183 162.174 109.156 162.26 109.111L194.939 89.3044C195.104 89.2038 195.25 88.9721 195.258 88.7934C195.267 88.6154 195.144 88.3779 194.989 88.272C195.144 88.3779 195.136 88.5473 194.971 88.6474L162.292 108.464C162.205 108.519 162.103 108.535 161.994 108.533Z" fill="black"/>
<path d="M136.352 90.0687L161.703 108.453C161.785 108.511 161.893 108.531 161.993 108.533C162.103 108.536 162.204 108.519 162.291 108.464L194.97 88.6474C195.135 88.5473 195.143 88.3785 194.989 88.272L169.621 69.8878L136.352 90.0687Z" fill="#E6E6E6"/>
<path opacity="0.15" d="M136.352 90.0687L136.321 90.7188L161.672 109.101C161.753 109.158 161.862 109.179 161.962 109.182L161.994 108.534C161.893 108.532 161.785 108.511 161.704 108.453L136.352 90.0687Z" fill="black"/>
<path d="M135.939 98.5839L136.351 90.0832L136.737 90.3928L136.325 98.851L135.939 98.5839Z" fill="#E6E6E6"/>
<path opacity="0.15" d="M135.939 98.5839L136.351 90.0832L136.737 90.3928L136.325 98.851L135.939 98.5839Z" fill="black"/>
<path d="M137.305 89.9575C137.126 89.8352 137.041 89.6775 137.049 89.5216C137.056 89.365 137.081 88.8575 137.081 88.8575L169.239 69.7516C169.62 69.5205 170.22 69.5316 170.578 69.7772L195.625 86.9276L162.341 107.101L137.305 89.9575Z" fill="#E6E6E6"/>
<path opacity="0.15" d="M137.305 89.9575C137.126 89.8352 137.041 89.6775 137.049 89.5216C137.056 89.365 137.081 88.8575 137.081 88.8575L169.239 69.7516C169.62 69.5205 170.22 69.5316 170.578 69.7772L195.625 86.9276L162.341 107.101L137.305 89.9575Z" fill="black"/>
<path d="M137.336 89.3097C136.978 89.0647 136.996 88.6782 137.378 88.4472L169.27 69.1038C169.651 68.8728 170.25 68.8838 170.609 69.1294L195.656 86.2798L162.372 106.454L137.336 89.3097Z" fill="#E6E6E6"/>
<path opacity="0.25" d="M137.336 89.3097C136.978 89.0647 136.996 88.6782 137.378 88.4472L169.27 69.1038C169.651 68.8728 170.25 68.8838 170.609 69.1294L195.656 86.2798L162.372 106.454L137.336 89.3097Z" fill="black"/>
<path d="M189.916 81.813L171.372 69.1219C171.014 68.8769 170.414 68.8652 170.033 69.0963L140.421 87.0557L138.01 85.39L137.851 88.6806L137.896 88.7126C137.803 88.914 137.859 89.1386 138.098 89.3022L159.335 103.837L192.619 83.6632L192.794 80.0682L189.916 81.813Z" fill="#EBEBEB"/>
<path d="M138.273 85.7077C137.915 85.4621 137.934 85.0763 138.315 84.8452L170.207 65.5025C170.588 65.2714 171.188 65.2825 171.546 65.5275L192.794 80.0693L159.51 100.244L138.273 85.7077Z" fill="#FAFAFA"/>
<path d="M159.51 100.243L159.336 103.838L192.62 83.6637L192.794 80.0687L159.51 100.243Z" fill="#E6E6E6"/>
<path d="M159.933 98.8458C159.853 98.8877 159.774 98.9203 159.681 98.936C159.548 98.968 159.401 98.9651 159.287 98.9197C159.241 98.9104 159.203 98.8924 159.165 98.8656C158.97 98.741 159.004 98.517 159.243 98.375C159.346 98.3162 159.473 98.276 159.597 98.2696C159.752 98.2551 159.905 98.2842 160.01 98.3552C160.025 98.3639 160.04 98.3727 160.047 98.3901C160.196 98.5228 160.156 98.712 159.933 98.8458Z" fill="#E0E0E0"/>
<path d="M161.5 98.1154C161.186 97.9018 160.882 97.793 160.58 97.7872C160.186 97.7796 159.845 97.9548 159.597 98.2696C159.457 98.4396 159.354 98.6625 159.287 98.9203C159.401 98.9657 159.548 98.9686 159.681 98.9366C159.763 98.6881 159.888 98.5001 160.048 98.3907C160.362 98.1375 160.81 98.1544 161.289 98.4832C162.173 99.0873 162.846 100.542 162.789 101.716C162.731 102.889 161.981 103.358 161.097 102.771L160.706 103.006C160.758 103.05 160.818 103.086 160.871 103.121C161.177 103.335 161.489 103.444 161.783 103.449C161.783 103.449 161.783 103.449 161.791 103.449C162.177 103.457 162.526 103.282 162.774 102.959C163.013 102.652 163.15 102.232 163.175 101.723C163.239 100.385 162.504 98.7993 161.5 98.1154Z" fill="#E0E0E0"/>
<path opacity="0.35" d="M161.5 98.1154C161.186 97.9018 160.882 97.793 160.58 97.7872C160.186 97.7796 159.845 97.9548 159.597 98.2696C159.457 98.4396 159.354 98.6625 159.287 98.9203C159.401 98.9657 159.548 98.9686 159.681 98.9366C159.763 98.6881 159.888 98.5001 160.048 98.3907C160.362 98.1375 160.81 98.1544 161.289 98.4832C162.173 99.0873 162.846 100.542 162.789 101.716C162.731 102.889 161.981 103.358 161.097 102.771L160.706 103.006C160.758 103.05 160.818 103.086 160.871 103.121C161.177 103.335 161.489 103.444 161.783 103.449C161.783 103.449 161.783 103.449 161.791 103.449C162.177 103.457 162.526 103.282 162.774 102.959C163.013 102.652 163.15 102.232 163.175 101.723C163.239 100.385 162.504 98.7993 161.5 98.1154Z" fill="black"/>
<path d="M162.379 98.3074L137.326 83.7836L137.303 84.2527C137.292 84.4908 137.427 84.7835 137.607 84.9063L162.347 98.9587L162.379 98.3074Z" fill="#E6E6E6"/>
<path opacity="0.15" d="M162.379 98.3074L137.326 83.7836L137.303 84.2527C137.292 84.4908 137.427 84.7835 137.607 84.9063L162.347 98.9587L162.379 98.3074Z" fill="black"/>
<path d="M137.583 84.2166C137.225 83.971 137.243 83.5852 137.625 83.3541L169.517 64.0113C169.898 63.7797 170.498 63.7913 170.856 64.037L196.039 78.3815L162.755 98.5554L137.583 84.2166Z" fill="#E6E6E6"/>
<path d="M162.341 107.101L195.625 86.927L196.04 78.3693L162.756 98.5577L162.341 107.101Z" fill="#E6E6E6"/>
<path opacity="0.1" d="M162.341 107.101L195.625 86.927L196.04 78.3693L162.756 98.5577L162.341 107.101Z" fill="black"/>
<path d="M168.494 101.724C168.107 101.716 167.773 101.529 167.555 101.197C167.348 100.883 167.252 100.45 167.276 99.9475C167.341 98.6112 168.231 97.0549 169.3 96.4054C169.63 96.2058 169.949 96.1074 170.249 96.1127C171.029 96.1272 171.519 96.8414 171.468 97.8895C171.403 99.227 170.513 100.783 169.443 101.432C169.113 101.631 168.794 101.73 168.495 101.724H168.494Z" fill="#E0E0E0"/>
<path d="M167.662 99.9544C167.604 101.134 168.323 101.625 169.267 101.054C170.211 100.482 171.024 99.0617 171.081 97.8814C171.138 96.7016 170.419 96.2093 169.476 96.782C168.532 97.3552 167.72 98.7753 167.662 99.9544Z" fill="#F5F5F5"/>
<path d="M173.885 95.774L173.853 96.4206C173.791 97.7161 174.58 98.2574 175.617 97.6282L191.464 88.0154C192.501 87.3868 193.392 85.8264 193.455 84.5303L193.487 83.8831C193.549 82.5876 192.76 82.0469 191.723 82.6755L175.876 92.2884C174.839 92.9175 173.948 94.4779 173.885 95.774Z" fill="#F5F5F5"/>
<path d="M161.954 106.841L162.366 98.333L162.756 98.5577L162.341 107.101L161.954 106.841Z" fill="#E6E6E6"/>
<path opacity="0.15" d="M161.954 106.841L162.366 98.333L162.756 98.5577L162.341 107.101L161.954 106.841Z" fill="black"/>
<path d="M130.911 204.419C131.065 202.281 129.454 199.84 125.865 196.947C119.245 191.602 95.1816 174.024 85.835 167.515C85.8262 167.437 85.7608 167.423 85.7608 167.423C78.6009 161.995 76.9943 124.815 73.1008 107.024C73.0648 106.856 72.7983 105.493 72.2521 103.74C72.2271 103.658 72.2 103.582 72.1751 103.501C72.0986 103.262 72.0172 103.019 71.9307 102.769C71.8898 102.65 71.8515 102.521 71.8089 102.404L71.8022 102.405C71.1008 100.466 70.0959 98.3244 68.7253 96.8368C68.6095 96.7116 68.0677 96.0569 67.1165 95.4347C66.3082 94.862 64.3365 93.8273 63.9133 93.517C59.0458 89.8755 46.6949 99.1136 37.9755 103.22C32.553 105.778 27.8501 108.963 24.648 115.365H24.6468C23.1101 118.432 21.9217 122.248 21.1572 127.083C19.7229 136.171 20.0099 166.669 20.7755 180.065L20.7688 180.057C21.6497 202.409 24.7865 202.71 29.0728 206.799C36.4421 213.832 58.0807 228.219 65.3049 231.928C78.3992 238.65 90.1058 230.957 98.6718 227.372C107.23 223.795 123.452 215.439 127.122 213.085C129.299 211.681 130.489 210.179 130.593 208.5C130.636 207.839 130.858 205.119 130.911 204.419Z" fill="#263238"/>
<path d="M98.9803 223.258C107.541 219.674 123.766 211.319 127.433 208.965C132.39 205.783 132.237 202.089 125.868 196.948C117.02 189.807 80.705 163.945 80.705 163.945C80.705 163.945 38.4879 185.317 28.4827 194.652C26.9703 196.063 26.9082 199.05 27.4367 199.744C32.918 206.941 57.3311 223.559 65.6151 227.809C78.7139 234.532 90.4193 226.841 98.9803 223.258Z" fill="#455A64"/>
<path d="M67.1176 95.4347C67.0739 95.4086 67.0301 95.3754 66.9803 95.3492C65.9554 94.6729 64.7554 94.2399 63.3621 94.1607C58.9378 93.7865 51.9513 97.0364 41.4902 104.14C38.5091 106.162 35.241 108.538 32.5226 111.335C32.4661 111.387 32.4101 111.447 32.3602 111.499C31.5481 112.313 30.7791 113.206 30.0667 114.197C29.9481 114.355 29.8357 114.512 29.7232 114.676C29.6606 114.768 29.5919 114.86 29.5359 114.952C29.3919 115.169 29.2484 115.386 29.111 115.609C28.8362 116.055 28.5676 116.521 28.305 117C28.2739 117.053 28.249 117.099 28.2235 117.151C28.1232 117.348 28.0235 117.546 27.9233 117.742L27.8983 117.729L24.6486 115.365C27.8479 108.964 32.7663 105.669 37.8282 102.406C46.5521 96.7861 56.2692 89.4861 62.4563 92.6371C62.9244 92.8745 66.3055 94.8638 67.1176 95.4347Z" fill="#455A64"/>
<path d="M73.1002 107.024C72.5368 104.68 70.5795 94.5641 63.3598 94.159C58.9388 93.7882 51.9485 97.0399 41.4906 104.137C36.6215 107.442 31.0062 111.678 28.2234 117.151C24.1205 123.954 23.4812 142.823 23.7216 160.971C23.9621 179.12 25.0822 196.55 27.419 199.758C31.5275 187.654 80.0762 163.824 85.7607 167.423C78.6003 161.995 76.9937 124.815 73.1002 107.024Z" fill="#37474F"/>
<path d="M39.8553 160.677C36.964 172.73 37.2083 184.204 38.4077 189.361C39.8747 195.671 43.5222 203.399 54.9811 210.482C71.276 220.556 82.6086 227.239 82.6086 227.239L136.574 190.297L97.3538 166.304L39.8553 160.677Z" fill="#A3CD0C"/>
<path opacity="0.1" d="M39.8553 160.677C36.964 172.73 37.2083 184.204 38.4077 189.361C39.8747 195.671 43.5222 203.399 54.9811 210.482C71.276 220.556 82.6086 227.239 82.6086 227.239L136.574 190.297L97.3538 166.304L39.8553 160.677Z" fill="black"/>
<path opacity="0.35" d="M56.3767 199.017C55.9352 198.516 55.5152 198.017 55.1058 197.518C59.1716 196.383 61.5649 191.08 61.058 185.09C60.7671 181.654 60.4381 177.76 60.8802 174.072L60.1683 173.978C59.7162 177.746 60.0497 181.684 60.3433 185.156C60.8547 191.197 58.4271 196.082 54.5812 196.872C46.7925 187.075 48.0058 177.56 51.7968 164.931L51.1126 164.704C46.9559 178.549 46.3233 188.711 55.8493 199.53C62.1095 206.64 79.1832 216.35 89.1735 222.82L89.8427 222.369C79.8768 215.927 62.6485 206.14 56.3767 199.017Z" fill="black"/>
<path opacity="0.35" d="M99.9415 178.725C97.7693 186.071 93.2476 189.574 93.2476 189.574C101.704 196.046 108.637 202.05 113.477 206.46L119.392 202.478L98.6175 187.83C101.042 182.624 99.9415 178.725 99.9415 178.725Z" fill="black"/>
<path d="M116.841 275.263L25.4895 219.856L169.677 132.442L261.029 187.849L116.841 275.263Z" fill="#A3CD0C"/>
<path opacity="0.8" d="M116.841 275.263L25.4895 219.856L169.677 132.442L261.029 187.849L116.841 275.263Z" fill="white"/>
<path d="M25.4895 219.856V226.782L116.841 282.19V275.263L25.4895 219.856Z" fill="#A3CD0C"/>
<path opacity="0.5" d="M25.4895 219.856V226.782L116.841 282.19V275.263L25.4895 219.856Z" fill="white"/>
<path d="M116.841 282.19L261.029 194.775L261.029 187.849L116.841 275.263V282.19Z" fill="#A3CD0C"/>
<path opacity="0.65" d="M116.841 275.263L261.029 187.849L261.029 194.775L116.841 282.19V275.263Z" fill="white"/>
<path d="M107.971 101.895C99.2668 97.1842 89.1009 98.6072 73.9629 104.519C53.8078 112.389 51.209 121.8 45.4324 137.824C41.391 149.034 37.4011 167.208 37.4066 175.72C44.4685 182.341 53.2427 182.555 64.1017 181.163C83.8639 178.629 98.976 168.527 100.01 163.871C99.8413 160.024 103.504 150.921 106.957 141.992C110.959 131.644 112.173 128.968 113.632 121.374C114.915 114.694 115.01 105.705 107.971 101.895Z" fill="#F0F0F0"/>
<path d="M63.2745 111.71C70.3458 112.103 74.2482 122.779 77.6065 133.97C81.4485 146.772 89.4693 173.075 89.4693 173.075L73.8404 183.731C73.8404 183.731 70.6461 179.872 65.9432 167.572C61.8452 156.854 60.0331 151.769 57.1822 141.725C54.4321 132.036 50.5835 118.581 63.2745 111.71Z" fill="#B16668"/>
<path d="M79.1528 173.97L87.9614 170.051C87.6013 168.535 87.3232 166.511 86.7958 164.297L86.0817 161.95C78.6177 166.07 73.6234 171.872 73.2184 177.984L79.1528 173.97Z" fill="#9A4A4D"/>
<path d="M140.181 156.093C142.188 155.481 143.931 154.849 146.194 154.053C147.039 153.756 147.77 153.394 148.124 153.113C148.803 152.576 149.094 151.415 148.523 151.1C148.196 150.918 147.369 150.852 146.664 150.856C145.28 150.864 143.896 150.994 142.533 151.242C143.818 150.825 144.957 150.434 146.075 149.949C147.25 149.44 147.176 148.52 147.073 148.017C146.93 147.315 146.074 147.019 144.271 147.146C144.004 146.585 143.08 145.824 141.25 146.033C141.034 145.482 139.969 145.04 138.65 145.172C137.353 145.301 136.505 145.465 135.209 145.669C133.572 145.928 132.543 146.265 130.927 146.647C127.871 147.367 124.946 148.424 121.947 149.352C116.783 150.951 114.951 151.677 112.559 152.762C110.167 153.848 101.107 158.151 94.2969 161.026C83.2667 165.682 77.6204 168.154 74.523 174.733C72.3707 179.305 71.6133 182.756 75.8171 185.488C80.0209 188.219 88.3851 187.11 93.8947 183.135C101.533 177.625 109.449 171.036 117.557 165.495C119.003 164.507 120.296 163.855 122.057 163.975C123.422 164.068 124.815 164.174 126.139 163.813C126.951 163.593 128.149 163.231 128.902 162.845C130.57 161.988 131.81 161.097 133.303 159.937C133.832 159.526 134.336 159.079 134.878 158.687C136.424 157.572 138.373 156.616 140.181 156.093Z" fill="#B16668"/>
<path d="M144.271 147.147C143.381 147.37 142.497 147.592 141.616 147.828C140.738 148.072 139.856 148.302 138.985 148.564L136.373 149.375L133.755 150.206C134.567 149.759 135.413 149.391 136.266 149.046C137.119 148.697 137.988 148.401 138.868 148.13C139.753 147.875 140.644 147.654 141.546 147.489C142.447 147.322 143.356 147.185 144.271 147.147Z" fill="#9A4A4D"/>
<path d="M141.25 146.033C140.344 146.186 139.457 146.398 138.57 146.615L135.916 147.298L133.259 147.984C132.371 148.208 131.483 148.434 130.583 148.628C131.43 148.255 132.297 147.945 133.169 147.649C134.04 147.35 134.925 147.097 135.813 146.86C136.703 146.632 137.599 146.421 138.507 146.275C139.413 146.128 140.33 145.999 141.25 146.033Z" fill="#9A4A4D"/>
<path d="M122.057 163.975C123.001 164.039 123.957 164.106 124.896 164.025C124.143 163.934 123.387 163.73 122.629 163.357C120.657 162.386 120 159.972 119.086 161.24C118.171 162.509 118.229 163.586 112.81 167.794C109.044 170.717 99.7537 178.77 99.7172 178.801C100.614 178.118 101.515 177.427 102.419 176.733C103.199 176.133 103.982 175.532 104.766 174.929C105.083 174.686 105.398 174.444 105.715 174.201C106.647 173.486 107.582 172.771 108.521 172.059L108.521 172.059C109.407 171.388 110.296 170.721 111.187 170.059C111.446 169.866 111.706 169.676 111.967 169.484C112.639 168.988 113.312 168.498 113.986 168.011C114.259 167.814 114.532 167.617 114.806 167.422C115.721 166.769 116.637 166.123 117.558 165.495C118.893 164.582 119.648 164.218 120.276 164.135C120.827 163.993 121.41 163.931 122.057 163.975Z" fill="#9A4A4D"/>
<path d="M146.075 149.949C147.161 149.479 147.178 148.662 147.094 148.143C147.092 148.169 147.017 149.046 146.109 149.37C145.187 149.7 142.733 150.246 140.826 150.832C139.207 151.331 138.071 152.126 137.762 152.356C138.224 152.239 141.538 151.402 142.533 151.241C143.817 150.825 144.956 150.434 146.075 149.949Z" fill="#9A4A4D"/>
<path d="M63.2064 109.886C55.4056 113.974 49.7614 119.413 55.7191 140.986C61.6763 162.559 70.5641 181.581 72.7829 184.833C75.0017 188.086 80.6453 188.623 85.1919 187.778C89.7381 186.933 94.5784 184.179 102.552 177.511C102.552 177.511 93.0537 168.188 98.458 159.25L87.4157 163.521C87.4157 163.521 81.7749 144.904 78.5456 134.548C76.052 126.555 73.2189 112.22 63.2064 109.886Z" fill="#E0E0E0"/>
<path opacity="0.1" d="M87.4145 163.521C84.7648 164.542 79.0624 168.267 76.4985 173.351C77.529 167.663 81.8136 163.47 86.7752 161.413L87.4145 163.521Z" fill="black"/>
<path d="M100.165 158.461L98.9339 159.011C98.9339 159.011 97.104 163.491 98.2436 168.434C99.3832 173.377 102.654 176.552 102.654 176.552L104.276 175.415C104.276 175.415 104.576 176.556 103.748 177.762C102.919 178.969 100.631 179.782 98.9333 181.365C97.2353 182.949 94.6426 181.559 92.6443 178.802C89.7425 174.799 88.7375 166.589 90.9729 162.611C92.4665 159.954 93.5202 160.789 95.5922 159.549C97.6641 158.308 99.5427 157.046 100.165 158.461Z" fill="#FAFAFA"/>
<path d="M154.754 138.961L142.53 151.241C142.53 151.241 138.065 149.913 126.798 142.237C121.713 138.773 115.141 134.134 111.026 131.305C112.138 128.112 112.85 125.456 113.634 121.376C114.916 114.697 115.008 105.705 107.968 101.893C104.96 100.265 101.781 99.3708 98.2856 99.1409C107.586 98.9302 114.418 102.832 122.483 110.495C130.921 118.502 154.754 138.961 154.754 138.961Z" fill="#E0E0E0"/>
<path d="M119.266 99.0245C119.266 99.0245 118.702 98.801 118.436 97.6259C118.171 96.4509 118.199 95.6145 117.925 94.3016C117.652 92.9886 116.905 90.8282 115.691 90.7095C114.478 90.5907 114.139 93.4495 114.304 95.7234C114.469 97.9973 114.562 99.3382 113.323 102.04C112.085 104.743 111.144 108.15 112.915 110.877L119.266 99.0245Z" fill="#9A4A4D"/>
<path d="M126.798 93.7766C125.945 91.6249 125.765 88.8244 125.378 87.0818C124.992 85.3399 124.324 83.889 123.455 82.2053C122.587 80.5215 121.83 78.2756 121.198 78.108C120.566 77.9404 119.596 78.7453 119.772 80.1328C119.772 80.1328 118.876 79.1905 118.093 78.1935C117.31 77.1966 116.72 75.915 115.732 75.7782C114.744 75.6409 114.43 77.2676 114.875 78.3338C115.32 79.4006 115.644 80.003 115.644 80.003C115.644 80.003 114.74 80.5431 115.758 82.4387C116.309 83.4653 116.816 83.9635 117.298 84.5257C117.759 86.0133 117.889 86.7571 118.729 87.9333C119.279 89.3289 119.625 90.5215 120.368 91.6331C120.128 92.7121 119.427 94.0367 119.613 95.8468C119.8 97.6568 120.119 98.0514 118.303 100.429C117.079 102.031 114.907 103.944 113.816 106.091C112.725 108.238 112.055 110.456 113.967 112.9C115.879 115.344 117.355 117.098 119.181 119.688C120.56 121.644 121.997 124.274 127.845 133.617C132.388 140.874 132.791 141.8 134.908 144.379C137.031 146.964 138.469 149.188 141.624 150.64C144.63 152.023 148.003 152.507 151.264 152.275C152.225 152.206 153.21 152.075 154.058 151.595C156.195 150.387 156.772 147.445 156.705 144.897C156.609 141.207 155.322 137.974 152.672 134.541C150.24 131.391 148.643 129.792 144.577 126.072C141.273 123.047 139.308 120.868 134.734 116.33C130.586 112.215 128.518 109.624 127.694 107.422C126.817 105.083 126.649 101.824 127.003 99.9109C127.541 96.9962 127.982 97.0498 126.798 93.7766Z" fill="#B16668"/>
<path d="M112.915 110.878C113.361 112.214 114.396 113.153 115.208 114.273C116.04 115.372 116.875 116.469 117.678 117.59C118.477 118.714 119.293 119.825 120.068 120.967C120.853 122.102 121.737 123.786 122.486 124.947C121.631 123.867 120.69 122.226 119.864 121.122C119.028 120.027 118.23 118.903 117.406 117.8L114.968 114.464L113.745 112.795C113.347 112.22 113.044 111.564 112.915 110.878Z" fill="#9A4A4D"/>
<path d="M119.773 80.1334C119.944 80.752 120.19 81.3259 120.454 81.891C120.722 82.4515 121.016 83.0079 121.323 83.5299L121.369 83.6091L121.362 83.7342C121.346 84.0461 121.361 84.4012 121.39 84.7346C121.419 85.0734 121.487 85.4063 121.561 85.7351C121.714 86.3934 121.976 87.0184 122.321 87.5934L122.407 87.736L122.361 87.867C122.281 88.0899 122.21 88.3576 122.161 88.6137C122.113 88.8733 122.067 89.1369 122.047 89.404C122.027 89.67 122.003 89.9406 122.013 90.213C122.017 90.4854 122.049 90.7566 122.078 91.0354C121.845 90.5314 121.714 89.9703 121.664 89.4023C121.644 89.1183 121.635 88.8296 121.661 88.5433C121.685 88.2534 121.718 87.9781 121.794 87.6738L121.833 87.9467C121.392 87.3414 121.062 86.6448 120.886 85.9103C120.789 85.5454 120.739 85.17 120.71 84.7952C120.681 84.4157 120.685 84.052 120.738 83.6516L120.777 83.8558C120.479 83.2692 120.248 82.6715 120.063 82.0487C119.882 81.4271 119.761 80.7771 119.773 80.1334Z" fill="#9A4A4D"/>
<path d="M115.644 80.0035C115.871 80.2876 116.111 80.5471 116.379 80.7741C116.646 80.9964 116.933 81.2106 117.215 81.3794L117.271 81.4131L117.307 81.5138C117.56 82.2082 117.915 82.8932 118.338 83.4926C118.756 84.1026 119.277 84.6176 119.863 85.0192L120.048 85.1461L120.022 85.3737C119.978 85.7473 119.98 86.1943 120.009 86.6104C120.045 87.0335 120.1 87.4584 120.187 87.8803C120.28 88.2999 120.383 88.7219 120.519 89.1374C120.641 89.5594 120.816 89.961 120.973 90.3806C120.697 90.0337 120.458 89.6566 120.24 89.2632C120.017 88.8715 119.849 88.4495 119.699 88.0194C119.558 87.5858 119.446 87.1394 119.385 86.6814C119.321 86.2181 119.288 85.7729 119.344 85.2654L119.502 85.6193C119.16 85.3911 118.823 85.1467 118.548 84.8405C118.267 84.5414 118.004 84.2242 117.792 83.8756C117.579 83.5287 117.389 83.169 117.236 82.7937C117.089 82.4136 116.958 82.0394 116.878 81.6262L116.971 81.76C116.672 81.5162 116.421 81.2537 116.196 80.9557C115.973 80.6624 115.775 80.3458 115.644 80.0035Z" fill="#9A4A4D"/>
<path d="M121.113 94.0076C121.191 94.8172 121.026 95.6413 120.745 96.3985C120.453 97.1568 120.042 97.8535 119.539 98.4751C119.667 98.0904 119.829 97.7266 119.979 97.3605C120.126 96.9933 120.283 96.6342 120.418 96.267C120.702 95.5371 120.917 94.7933 121.113 94.0076Z" fill="#9A4A4D"/>
<path d="M115.271 103.779C114.977 105.255 114.875 106.691 115.184 108.068C115.325 108.755 115.57 109.418 115.891 110.052C116.213 110.687 116.613 111.287 117.039 111.908C116.414 111.508 115.862 110.976 115.423 110.347C114.977 109.721 114.668 108.987 114.499 108.223C114.169 106.691 114.456 105.041 115.271 103.779Z" fill="#9A4A4D"/>
<path d="M130.938 138.598C135.345 141.146 143.83 142.308 149.787 139.666C153.319 138.098 153.222 135.28 153.222 135.28C153.222 135.28 160.205 143.058 155.98 150.427C154.52 152.975 150.303 152.742 147.559 152.519C140.709 151.961 135.645 147.526 130.938 138.598Z" fill="#EBEBEB"/>
<path d="M128.882 135.28L129.723 136.634C129.723 136.634 137.15 139.867 144.137 138.443C151.125 137.019 152.016 133.707 152.016 133.707L150.759 132.19C150.759 132.19 152.093 132.001 153.255 133.763C154.417 135.527 154.632 136.476 155.654 137.629C156.677 138.782 157.501 142.999 153.732 145.502C149.963 148.006 140.7 148.773 136.44 146.601C133.113 144.905 132.919 142.648 131.37 140.884C129.821 139.121 127.578 137.654 128.882 135.28Z" fill="#FAFAFA"/>
<path d="M84.0739 96.3834C84.711 91.441 81.7222 85.0844 80.9366 80.3347C80.1787 75.7556 79.94 72.3171 81.2618 68.6796C82.0446 66.525 84.2479 63.9794 85.9846 63.8636C86.619 55.1091 93.5789 53.2333 96.9068 53.4754C98.1832 53.5686 100.281 53.7525 101.566 53.6262C103.47 53.4388 104.274 52.1409 105.992 51.375C108.95 50.0568 112.901 51.3017 113.462 54.9502C115.646 53.3468 117.74 54.0941 119.985 55.5456C122.125 56.9296 122.613 59.3624 121.707 61.5356C125.536 60.6887 127.808 64.0882 127.509 66.2009C127.288 67.7583 126.615 68.913 127.144 70.5472C127.741 72.3881 129.719 73.0091 130.676 71.9947C130.386 74.2156 129.124 75.5664 126.98 74.7347C127.391 76.124 127.141 77.6866 126.35 78.9478C125.277 80.6577 123.149 81.1722 121.689 80.7293C121.114 81.8113 120.751 82.8571 119.763 83.6283C118.811 84.3697 117.664 85.0379 116.476 85.2165C112.687 85.7857 108.88 85.1258 105.098 84.7323C103.602 84.5769 102.105 84.4215 100.609 84.2661C100.348 84.2394 99.0502 83.9024 98.8308 84.0822C98.8297 84.0822 84.0739 96.3834 84.0739 96.3834Z" fill="#263238"/>
<path d="M80.4663 88.5369C83.0213 91.5382 85.7836 90.1036 85.7836 90.1036L80.9549 105.51C83.1172 110.878 92.0659 119.289 97.7256 121.936C99.1566 118.446 99.7167 113.26 99.6186 109.26L100.642 106.82C100.642 106.82 103.839 107.936 106.03 108.316C109.683 108.96 113.205 106.841 115.39 103.184C117.673 99.3626 119.894 92.807 120.517 87.5323C120.677 86.185 120.967 84.8522 121.477 83.605C122.833 80.2928 122.838 78.1086 122.852 74.957C119.968 70.4291 111.383 66.3935 101.491 68.9741C100.906 74.485 97.7583 77.973 93.5711 78.7721C93.3218 80.2306 92.4338 83.8302 90.2577 83.0439C88.6904 82.4777 89.2045 80.358 88.1275 77.9899C87.0284 75.5722 83.4058 73.8833 81.1333 76.1088C77.955 79.2219 77.668 85.2486 80.4663 88.5369Z" fill="#B16668"/>
<path d="M106.031 108.315C107.662 108.529 109.323 108.217 110.761 107.446C112.215 106.705 113.444 105.541 114.42 104.202C115.379 102.851 116.126 101.315 116.806 99.7671C117.474 98.2074 118.051 96.6034 118.552 94.9755C119.07 93.3529 119.503 91.7 119.839 90.0274C120.012 89.1922 120.141 88.3483 120.255 87.5038C120.359 86.6378 120.527 85.7764 120.775 84.9384C121.01 84.0904 121.392 83.3041 121.681 82.5184C121.974 81.724 122.215 80.9086 122.382 80.0746C122.747 78.4083 122.774 76.6757 122.852 74.9565C122.912 76.6757 122.946 78.4118 122.675 80.1345C122.538 80.9936 122.314 81.8363 122.042 82.6581C121.766 83.4892 121.422 84.2568 121.225 85.0763C121.015 85.8928 120.876 86.7292 120.778 87.5719C120.67 88.4339 120.549 89.2941 120.381 90.1438C120.058 91.8455 119.639 93.5252 119.129 95.1746C118.604 96.8181 118.003 98.4349 117.309 100.01C116.591 101.57 115.849 103.136 114.786 104.505C113.728 105.857 112.418 107.021 110.887 107.728C109.362 108.428 107.642 108.672 106.031 108.315Z" fill="#9A4A4D"/>
<path d="M114.419 92.6446L108.724 93.2348L110.052 81.2397C111.937 82.892 113.425 87.5806 114.419 92.6446Z" fill="#9A4A4D"/>
<path d="M105.301 96.5487C105.277 96.4922 105.251 96.4369 105.223 96.3822C105.065 96.0673 104.868 95.7851 104.617 95.5395C104.392 95.3195 104.14 95.1134 103.872 94.9796C103.418 94.7532 102.972 94.6141 102.471 94.5518C102.065 94.5012 101.704 94.5134 101.315 94.6601C101.242 94.6874 101.17 94.7188 101.114 94.7747C101.058 94.8306 101.023 94.915 101.043 94.993C101.073 95.1111 101.206 95.1588 101.319 95.1903C101.93 95.3579 102.52 95.5971 103.093 95.8753C103.635 96.1384 104.148 96.4299 104.542 96.9136C104.742 97.1598 104.918 97.4257 105.113 97.676C105.18 97.7621 105.276 97.9489 105.403 97.91C105.523 97.8727 105.528 97.6585 105.529 97.5561C105.53 97.2081 105.439 96.8658 105.301 96.5487Z" fill="#9A4A4D"/>
<path d="M100.642 106.819C95.2913 104.307 91.2582 102.286 89.6217 97.1062C88.5951 93.8575 88.3309 89.088 88.3309 89.088C88.3309 89.088 87.3614 94.4442 88.1342 98.5414C88.7292 101.699 91.328 105.17 99.8048 108.817L100.642 106.819Z" fill="#9A4A4D"/>
<path d="M101.918 82.814C102.01 82.0237 102.721 83.3879 103.776 83.5247C104.833 83.662 105.833 82.5207 105.742 83.3105C105.65 84.1008 104.72 84.6299 103.664 84.4925C102.609 84.3552 101.827 83.6038 101.918 82.814Z" fill="#263238"/>
<path d="M114.476 85.0786C114.716 84.3238 115.062 85.7764 115.956 86.0919C116.851 86.4073 117.956 85.4662 117.716 86.2217C117.476 86.9765 116.557 87.3327 115.662 87.0173C114.768 86.7012 114.237 85.8335 114.476 85.0786Z" fill="#263238"/>
<path d="M105.051 77.4137L101.173 78.4566C100.926 77.2967 101.593 76.1228 102.664 75.8347C103.735 75.5466 104.803 76.2532 105.051 77.4137Z" fill="#263238"/>
<path d="M119.642 83.3041L116.479 80.6746C117.142 79.7225 118.389 79.5386 119.262 80.2649C120.135 80.9912 120.306 82.3519 119.642 83.3041Z" fill="#263238"/>
<path d="M97.7255 121.935C95.719 120.842 90.8122 119.794 90.8122 119.794C88.9768 122.742 88.2959 124.886 86.3087 127.492C84.3221 125.454 76.211 114.691 75.3999 103.964C79.3832 100.612 82.5249 95.3899 83.8789 96.1785L82.9033 99.291C82.9033 99.291 84.3736 106.687 87.9613 111.271C92.7778 117.426 96.9189 117.612 97.7255 121.935Z" fill="#E0E0E0"/>
<path d="M97.7256 121.936C99.4424 120.894 102.123 117.645 102.811 117.912C103.5 118.179 105.049 122.52 105.049 122.52C105.049 122.52 105.932 119.152 104.329 113.873C102.725 108.594 100.642 106.819 100.642 106.819L99.8042 108.818C99.8042 108.818 99.5261 116.017 97.7256 121.936Z" fill="#E0E0E0"/>
<g opacity="0.2">
<path d="M245.907 181.315C250.686 184.213 250.686 188.913 245.907 191.81C241.128 194.708 233.381 194.708 228.603 191.81C223.824 188.912 223.824 184.213 228.603 181.315C233.382 178.417 241.128 178.417 245.907 181.315Z" fill="#A3CD0C"/>
</g>
<path d="M229.645 187.21C225.483 182.749 223.039 171.611 227.097 168.072H247.75C251.808 171.61 249.366 182.742 245.207 187.206C245.172 187.247 245.131 187.288 245.093 187.329C245.045 187.378 244.998 187.428 244.95 187.476C244.833 187.595 244.708 187.713 244.574 187.827C244.541 187.856 244.507 187.881 244.474 187.909C244.372 187.994 244.272 188.078 244.16 188.158C243.983 188.291 243.804 188.414 243.622 188.52C240.199 190.596 234.649 190.596 231.226 188.52H231.225C231.042 188.413 230.862 188.289 230.683 188.156C230.58 188.08 230.487 188.002 230.391 187.924C230.35 187.89 230.309 187.858 230.268 187.823C230.139 187.712 230.019 187.599 229.906 187.483C229.85 187.429 229.795 187.371 229.74 187.313C229.709 187.279 229.675 187.245 229.645 187.21Z" fill="#F0F0F0"/>
<path d="M245.957 166.648C250.669 169.506 250.669 174.14 245.957 176.998C241.244 179.856 233.604 179.856 228.892 176.998C224.18 174.14 224.18 169.506 228.892 166.648C233.605 163.789 241.245 163.789 245.957 166.648Z" fill="#FAFAFA"/>
<path d="M242.615 168.674C245.482 170.413 245.482 173.232 242.615 174.971C239.748 176.71 235.1 176.71 232.233 174.971C229.367 173.232 229.367 170.413 232.233 168.674C235.1 166.935 239.748 166.935 242.615 168.674Z" fill="#E0E0E0"/>
<path d="M232.233 171.663C235.1 169.924 239.748 169.924 242.615 171.663C243.412 172.146 243.979 172.714 244.333 173.317C243.979 173.92 243.412 174.488 242.615 174.971C239.748 176.71 235.1 176.71 232.233 174.971C231.437 174.488 230.87 173.92 230.516 173.317C230.87 172.713 231.437 172.146 232.233 171.663Z" fill="#455A64"/>
<path d="M241.983 173.317C241.983 173.317 244.004 171.294 245.738 168.072C247.472 164.851 248.954 160.757 248.058 160.224C247.161 159.692 242.351 163.775 242.351 163.775C242.351 163.775 242.888 161.145 242.734 158.276C242.581 155.407 241.916 152.8 241.134 152.273C240.352 151.747 238.602 155.367 237.851 157.99C237.1 160.613 236.8 162.243 236.8 162.243C236.8 162.243 236.14 159.224 235.307 156.733C234.397 154.01 233.571 153.394 232.931 153.664C232.29 153.933 231.868 155.203 231.681 158.831C231.55 161.371 231.835 164.022 231.835 164.022C231.835 164.022 230.549 162.536 229.12 161.094C227.552 159.511 226.443 159.513 225.995 159.816C225.547 160.117 225.86 162.359 228.289 166.976C230.433 171.049 232.875 173.317 232.875 173.317C232.875 173.317 236.238 175.595 241.983 173.317Z" fill="#A3CD0C"/>
<g opacity="0.2">
<path d="M241.983 173.317C241.983 173.317 244.004 171.294 245.738 168.072C247.472 164.851 248.954 160.757 248.058 160.224C247.161 159.692 242.351 163.775 242.351 163.775C242.351 163.775 242.888 161.145 242.734 158.276C242.581 155.407 241.916 152.8 241.134 152.273C240.352 151.747 238.602 155.367 237.851 157.99C237.1 160.613 236.8 162.243 236.8 162.243C236.8 162.243 236.14 159.224 235.307 156.733C234.397 154.01 233.571 153.394 232.931 153.664C232.29 153.933 231.868 155.203 231.681 158.831C231.55 161.371 231.835 164.022 231.835 164.022C231.835 164.022 230.549 162.536 229.12 161.094C227.552 159.511 226.443 159.513 225.995 159.816C225.547 160.117 225.86 162.359 228.289 166.976C230.433 171.049 232.875 173.317 232.875 173.317C232.875 173.317 236.238 175.595 241.983 173.317Z" fill="black"/>
</g>
<path opacity="0.2" d="M237.851 157.991C237.101 160.614 236.8 162.244 236.8 162.244L237.255 164.504C237.255 164.504 237.726 159.565 238.389 156.383C238.182 156.931 237.997 157.48 237.851 157.991Z" fill="black"/>
<path opacity="0.2" d="M232.657 161.948C232.055 159.632 231.994 155.684 231.993 155.658C231.856 156.429 231.752 157.461 231.681 158.831C231.55 161.371 231.835 164.022 231.835 164.022L235.15 167.674C235.15 167.674 233.26 164.272 232.657 161.948Z" fill="black"/>
<path opacity="0.2" d="M240.259 165.92L242.351 163.775C242.351 163.773 242.887 161.144 242.735 158.276C242.672 157.105 242.521 155.986 242.314 155.025C242.361 155.388 242.649 157.891 242.069 160.299C241.443 162.904 240.259 165.92 240.259 165.92Z" fill="black"/>
<path opacity="0.2" d="M84.5836 226.594C84.5836 226.501 84.5759 226.407 84.5731 226.314C84.572 226.299 84.572 226.285 84.5714 226.269C84.3083 218.927 75.1845 212.06 67.4462 210.695C59.5938 209.309 54.9535 215.228 54.9535 219.007C54.9535 219.007 54.974 219.029 54.9801 219.035C54.8039 221.789 57.2869 224.997 62.0469 227.5C69.3669 231.351 78.5345 232.511 82.5227 230.092C83.9149 229.248 84.5648 228.021 84.5681 226.601C84.5703 226.601 84.5836 226.594 84.5836 226.594Z" fill="#A3CD0C"/>
<path d="M84.1377 224.903C84.1377 224.814 84.1299 224.725 84.1277 224.637C84.1271 224.622 84.1271 224.608 84.126 224.594C83.8751 217.593 75.1761 211.045 67.7974 209.744C60.3101 208.422 55.8859 214.067 55.8859 217.669C55.8859 217.669 55.9053 217.69 55.9113 217.696C55.7435 220.321 58.1107 223.38 62.6497 225.768C69.6295 229.439 78.3705 230.545 82.1732 228.238C83.5005 227.434 84.1199 226.264 84.1232 224.91C84.1249 224.909 84.1377 224.903 84.1377 224.903Z" fill="#37474F"/>
<path d="M79.5095 215.826C72.5042 217.621 69.0954 223.964 68.0422 228.004C68.296 228.085 68.5486 228.155 68.8018 228.229C69.8222 224.292 73.1889 218.03 80.1887 216.502C79.9693 216.272 79.7422 216.047 79.5095 215.826Z" fill="#A3CD0C"/>
<path d="M83.0385 227.569C82.9582 221.974 79.4536 218.602 76.1983 217.368L75.9296 218.15C79.1993 219.388 82.444 222.654 82.2535 228.184C82.5499 227.996 82.8141 227.792 83.0385 227.569Z" fill="#A3CD0C"/>
<path opacity="0.2" d="M85.1875 202.705L106.847 215.898C107.498 216.294 108.554 216.295 109.206 215.901L171.374 178.245C172.026 177.85 172.026 177.209 171.376 176.813L149.716 163.621C149.065 163.225 148.009 163.224 147.358 163.618L85.1892 201.274C84.5371 201.668 84.5371 202.309 85.1875 202.705Z" fill="#A3CD0C"/>
<path d="M168.843 174.869C168.843 174.615 168.683 174.362 168.364 174.168L148.986 162.417C148.348 162.03 147.313 162.03 146.675 162.418L87.5465 198.34C87.2274 198.533 87.0684 198.787 87.0684 199.04C87.0684 199.293 87.0684 200.922 87.0684 201.175C87.0678 201.429 87.2279 201.683 87.5481 201.876L106.916 213.627C107.555 214.013 108.59 214.012 109.229 213.625L168.364 177.76C168.682 177.567 168.842 177.315 168.843 177.062C168.844 176.806 168.843 175.122 168.843 174.869Z" fill="#263238"/>
<path d="M106.916 211.437L87.5482 199.74C86.9094 199.354 86.9083 198.727 87.5465 198.339L146.675 162.417C147.313 162.03 148.347 162.029 148.986 162.416L168.364 174.167C169.002 174.554 169.002 175.182 168.364 175.569L109.229 211.434C108.591 211.821 107.555 211.823 106.916 211.437Z" fill="#37474F"/>
<path d="M107.998 211.725V213.908C107.606 213.898 107.215 213.805 106.912 213.628L87.5509 201.878C87.2307 201.682 87.0706 201.429 87.0706 201.177V199.037C87.0706 199.289 87.2312 199.541 87.5509 199.738L106.912 211.441C107.215 211.618 107.607 211.716 107.998 211.725Z" fill="#263238"/>
<path d="M147.69 164.27C147.71 164.27 147.727 164.276 147.731 164.278L149.649 165.441L147.047 167.02L145.066 165.85L147.664 164.273L147.69 164.27ZM150.691 166.091C150.712 166.091 150.729 166.097 150.734 166.099L152.651 167.262L150.608 168.502L148.626 167.331L150.666 166.093L150.691 166.091ZM144.054 166.475C144.076 166.475 144.091 166.48 144.095 166.483L146.014 167.647L143.971 168.885L141.989 167.714L144.029 166.478L144.054 166.475ZM153.693 167.912C153.715 167.912 153.732 167.918 153.737 167.921L155.654 169.083L152.353 171.085L150.369 169.914L153.669 167.914L153.693 167.912ZM147.615 167.957C147.637 167.957 147.653 167.962 147.658 167.965L149.576 169.129L147.953 170.113L145.969 168.943L147.591 167.96L147.615 167.957ZM140.978 168.34C141 168.34 141.016 168.346 141.021 168.348L142.938 169.511L140.896 170.751L138.913 169.58L140.954 168.342L140.978 168.34ZM144.958 169.568C144.98 169.568 144.998 169.574 145.003 169.577L146.92 170.74L145.296 171.724L143.314 170.553L144.934 169.57L144.958 169.568ZM156.695 169.733C156.718 169.733 156.734 169.739 156.739 169.742L158.656 170.904L156.054 172.483L154.071 171.312L156.671 169.735L156.695 169.733ZM137.902 170.206C137.924 170.206 137.941 170.211 137.945 170.214L139.862 171.377L125.098 180.333L123.115 179.161L137.877 170.207L137.902 170.206ZM149.359 170.541C149.382 170.541 149.398 170.546 149.403 170.549L151.32 171.712L149.697 172.696L147.714 171.526L149.335 170.543L149.359 170.541ZM142.302 171.18C142.325 171.18 142.341 171.186 142.346 171.188L144.263 172.351L142.64 173.335L140.658 172.164L142.278 171.181L142.302 171.18ZM159.697 171.555C159.72 171.555 159.737 171.56 159.742 171.563L161.659 172.726L160.035 173.71L158.051 172.539L159.673 171.556L159.697 171.555ZM153.06 171.938C153.082 171.938 153.099 171.944 153.103 171.946L155.021 173.109L153.398 174.094L151.415 172.923L153.036 171.94L153.06 171.938ZM146.703 172.152C146.725 172.152 146.741 172.157 146.747 172.16L148.664 173.323L147.041 174.307L145.057 173.136L146.678 172.154L146.703 172.152ZM139.646 172.791C139.668 172.791 139.685 172.797 139.69 172.799L141.607 173.962L139.983 174.946L138 173.775L139.622 172.792L139.646 172.791ZM157.041 173.166C157.064 173.166 157.08 173.171 157.085 173.174L159.002 174.337L157.379 175.321L155.396 174.151L157.016 173.168L157.041 173.166ZM150.404 173.549C150.425 173.549 150.442 173.554 150.447 173.557L152.364 174.72L150.742 175.705L148.759 174.534L150.381 173.551L150.404 173.549ZM144.046 173.763C144.067 173.763 144.084 173.769 144.089 173.772L146.007 174.935L144.384 175.919L142.4 174.748L144.022 173.766L144.046 173.763ZM163.34 173.764C163.363 173.764 163.38 173.77 163.384 173.773L165.303 174.935L163.259 176.174L161.276 175.002L163.318 173.766L163.34 173.764ZM136.99 174.402C137.013 174.402 137.029 174.407 137.034 174.41L138.951 175.573L137.327 176.557L135.345 175.386L136.965 174.403L136.99 174.402ZM154.384 174.777C154.407 174.777 154.423 174.782 154.429 174.785L156.346 175.948L154.722 176.932L152.74 175.762L154.36 174.779L154.384 174.777ZM147.747 175.16C147.77 175.16 147.786 175.166 147.79 175.168L149.709 176.331L148.084 177.316L146.102 176.145L147.723 175.162L147.747 175.16ZM141.39 175.375C141.411 175.375 141.428 175.38 141.432 175.383L143.351 176.546L141.727 177.53L139.744 176.358L141.366 175.377L141.39 175.375ZM134.333 176.013C134.356 176.013 134.373 176.018 134.378 176.021L136.295 177.184L134.671 178.168L132.689 176.998L134.309 176.015L134.333 176.013ZM159.11 176.33C159.132 176.33 159.148 176.336 159.153 176.339L161.071 177.503L159.447 178.487L157.465 177.316L159.086 176.333L159.11 176.33ZM151.727 176.387C151.75 176.387 151.767 176.393 151.773 176.396L153.69 177.559L152.066 178.543L150.083 177.372L151.705 176.39L151.727 176.387ZM145.091 176.772C145.114 176.772 145.13 176.777 145.134 176.78L147.053 177.943L145.429 178.927L143.446 177.756L145.067 176.773L145.091 176.772ZM138.733 176.985C138.755 176.985 138.773 176.992 138.778 176.994L140.694 178.157L139.07 179.141L137.087 177.97L138.709 176.988L138.733 176.985ZM131.676 177.623C131.698 177.623 131.715 177.629 131.72 177.632L133.638 178.795L132.014 179.779L130.031 178.608L131.653 177.625L131.676 177.623ZM156.452 177.942C156.476 177.942 156.492 177.947 156.498 177.95L158.414 179.113L156.79 180.098L154.808 178.927L156.429 177.944L156.452 177.942ZM149.073 177.998C149.095 177.998 149.111 178.004 149.115 178.007L151.034 179.171L149.409 180.155L147.427 178.983L149.048 178.001L149.073 177.998ZM142.435 178.383C142.457 178.383 142.474 178.388 142.478 178.391L144.396 179.554L142.773 180.538L140.79 179.367L142.41 178.384L142.435 178.383ZM136.077 178.596C136.099 178.596 136.116 178.601 136.12 178.604L138.039 179.768L136.415 180.752L134.432 179.581L136.054 178.599L136.077 178.596ZM129.021 179.235C129.043 179.235 129.059 179.24 129.063 179.243L130.982 180.406L129.358 181.39L127.376 180.22L128.997 179.237L129.021 179.235ZM153.797 179.553C153.819 179.553 153.836 179.558 153.841 179.561L155.757 180.724L154.134 181.709L152.151 180.538L153.773 179.555L153.797 179.553ZM146.416 179.611C146.438 179.611 146.454 179.616 146.46 179.619L148.377 180.782L146.753 181.766L144.77 180.595L146.392 179.613L146.416 179.611ZM122.103 179.789C122.126 179.789 122.143 179.794 122.147 179.797L124.066 180.96L122.022 182.198L120.039 181.027L122.08 179.79L122.103 179.789ZM139.778 179.994C139.801 179.994 139.817 179.999 139.821 180.002L141.74 181.165L140.116 182.149L138.133 180.978L139.755 179.995L139.778 179.994ZM133.422 180.208C133.444 180.208 133.46 180.213 133.464 180.216L135.383 181.38L133.759 182.364L131.776 181.193L133.398 180.211L133.422 180.208ZM126.365 180.846C126.387 180.846 126.403 180.852 126.409 180.854L128.326 182.017L126.702 183.001L124.719 181.83L126.34 180.848L126.365 180.846ZM151.141 181.164C151.162 181.164 151.179 181.169 151.183 181.172L153.101 182.335L151.478 183.32L149.495 182.149L151.117 181.165L151.141 181.164ZM143.759 181.22C143.781 181.22 143.799 181.227 143.804 181.23L145.721 182.393L144.097 183.377L142.114 182.206L143.736 181.223L143.759 181.22ZM137.122 181.605C137.144 181.605 137.161 181.611 137.165 181.613L139.084 182.776L137.46 183.761L135.477 182.59L137.099 181.607L137.122 181.605ZM119.028 181.653C119.05 181.653 119.067 181.66 119.072 181.663L120.989 182.826L118.946 184.065L116.962 182.894L119.003 181.656L119.028 181.653ZM130.764 181.819C130.787 181.819 130.804 181.825 130.809 181.828L132.726 182.991L131.103 183.975L129.12 182.804L130.741 181.822L130.764 181.819ZM123.708 182.457C123.73 182.457 123.748 182.463 123.753 182.466L125.67 183.629L124.046 184.613L122.065 183.443L123.685 182.46L123.708 182.457ZM141.103 182.832C141.125 182.832 141.142 182.837 141.146 182.84L143.064 184.004L141.441 184.988L139.457 183.817L141.079 182.835L141.103 182.832ZM134.466 183.216C134.488 183.216 134.505 183.221 134.509 183.224L136.428 184.387L134.803 185.371L132.822 184.201L134.442 183.218L134.466 183.216ZM128.109 183.43C128.13 183.43 128.147 183.435 128.151 183.438L130.07 184.602L128.446 185.586L126.463 184.415L128.084 183.433L128.109 183.43ZM147.329 183.476C147.351 183.476 147.367 183.481 147.371 183.484L149.29 184.647L147.666 185.632L145.683 184.461L147.305 183.478L147.329 183.476ZM115.952 183.519C115.975 183.519 115.992 183.525 115.997 183.527L117.913 184.69L115.87 185.93L113.888 184.759L115.928 183.521L115.952 183.519ZM121.053 184.068C121.075 184.068 121.09 184.073 121.095 184.076L123.013 185.24L121.389 186.224L119.406 185.053L121.028 184.07L121.053 184.068ZM138.447 184.443C138.471 184.443 138.488 184.45 138.492 184.452L140.407 185.614L138.785 186.599L136.801 185.428L138.423 184.445L138.447 184.443ZM131.81 184.827C131.832 184.827 131.848 184.832 131.853 184.835L133.771 185.998L132.147 186.983L130.165 185.812L131.786 184.829L131.81 184.827ZM125.452 185.041C125.474 185.041 125.49 185.046 125.495 185.049L127.413 186.213L125.79 187.197L123.807 186.026L125.428 185.044L125.452 185.041ZM144.673 185.087C144.694 185.087 144.711 185.093 144.715 185.095L146.633 186.258L145.01 187.243L143.027 186.072L144.648 185.089L144.673 185.087ZM112.876 185.385C112.899 185.385 112.915 185.391 112.92 185.393L114.839 186.556L112.236 188.135L110.253 186.964L112.852 185.387L112.876 185.385ZM118.395 185.679C118.416 185.679 118.433 185.685 118.438 185.688L120.357 186.851L115.238 189.955L113.255 188.784L118.372 185.681L118.395 185.679ZM135.792 186.054C135.814 186.054 135.83 186.059 135.835 186.062L137.752 187.226L136.128 188.21L134.145 187.039L135.767 186.057L135.792 186.054ZM129.153 186.439C129.176 186.439 129.192 186.444 129.197 186.447L131.115 187.61L129.491 188.594L127.509 187.423L129.13 186.44L129.153 186.439ZM122.797 186.652C122.818 186.652 122.835 186.658 122.839 186.66L124.758 187.824L123.134 188.808L121.151 187.638L122.773 186.655L122.797 186.652ZM142.015 186.698C142.038 186.698 142.055 186.704 142.059 186.706L143.977 187.87L142.354 188.854L140.371 187.683L141.992 186.7L142.015 186.698ZM133.135 187.665C133.157 187.665 133.173 187.671 133.179 187.673L135.096 188.837L133.471 189.821L131.489 188.65L133.11 187.668L133.135 187.665ZM108.683 187.928C108.704 187.928 108.72 187.933 108.724 187.936L110.644 189.1L109.02 190.084L107.037 188.913L108.659 187.931L108.683 187.928ZM126.497 188.05C126.519 188.05 126.536 188.055 126.54 188.058L128.459 189.221L126.835 190.205L124.853 189.034L126.474 188.051L126.497 188.05ZM120.14 188.263C120.16 188.263 120.177 188.268 120.181 188.271L122.1 189.435L120.617 190.334C120.513 190.397 120.451 190.503 120.451 190.619C120.451 190.739 120.514 190.848 120.627 190.916L123.146 192.443L121.242 193.597L116.256 190.607L120.115 188.266L120.14 188.263ZM139.36 188.31C139.382 188.31 139.399 188.315 139.403 188.318L141.322 189.481L139.698 190.465L137.715 189.294L139.337 188.311L139.36 188.31ZM130.478 189.276C130.5 189.276 130.516 189.282 130.521 189.285L132.439 190.447L130.816 191.433L128.833 190.261L130.454 189.279L130.478 189.276ZM106.026 189.54C106.049 189.54 106.065 189.545 106.069 189.548L107.988 190.711L106.364 191.695L104.381 190.524L106.002 189.542L106.026 189.54ZM123.84 189.661C123.863 189.661 123.879 189.666 123.884 189.669L125.802 190.832L124.179 191.816L122.196 190.645L123.816 189.662L123.84 189.661ZM135.547 190.622C135.57 190.622 135.587 190.627 135.59 190.63L137.508 191.793L135.885 192.778L133.902 191.607L135.524 190.624L135.547 190.622ZM127.823 190.887C127.844 190.887 127.861 190.893 127.867 190.896L129.782 192.058L128.159 193.043L126.176 191.872L127.798 190.89L127.823 190.887ZM103.37 191.15C103.392 191.15 103.41 191.156 103.415 191.16L105.332 192.323L103.708 193.307L101.725 192.136L103.347 191.153L103.37 191.15ZM109.029 191.36C109.052 191.36 109.068 191.366 109.074 191.368L110.991 192.532L109.367 193.516L107.384 192.345L109.006 191.362L109.029 191.36ZM132.891 192.233C132.914 192.233 132.931 192.238 132.935 192.241L134.853 193.404L133.229 194.388L131.247 193.218L132.867 192.235L132.891 192.233ZM125.166 192.498C125.188 192.498 125.205 192.504 125.21 192.507L127.126 193.669L124.245 195.417L122.262 194.246L125.141 192.501L125.166 192.498ZM100.154 193.101C100.177 193.101 100.193 193.107 100.197 193.109L102.116 194.272L97.8354 196.868L95.8526 195.697L100.13 193.103L100.154 193.101ZM117.69 193.392C117.712 193.392 117.728 193.397 117.734 193.4L119.651 194.563L118.027 195.547L116.044 194.378L117.665 193.393L117.69 193.392ZM130.235 193.844C130.258 193.844 130.274 193.849 130.279 193.852L132.197 195.015L130.573 195.999L128.59 194.828L130.211 193.845L130.235 193.844ZM103.157 194.922C103.18 194.922 103.196 194.928 103.201 194.931L105.118 196.093L103.494 197.078L101.511 195.908L103.133 194.924L103.157 194.922ZM115.033 195.003C115.056 195.003 115.073 195.008 115.078 195.011L116.994 196.174L115.372 197.158L113.388 195.987L115.009 195.004L115.033 195.003ZM120.691 195.212C120.713 195.212 120.731 195.218 120.735 195.22L122.653 196.384L121.029 197.369L119.046 196.198L120.667 195.214L120.691 195.212ZM127.579 195.456C127.601 195.456 127.617 195.461 127.622 195.464L129.54 196.626L127.916 197.611L125.933 196.44L127.554 195.457L127.579 195.456ZM94.8421 196.323C94.8648 196.323 94.8814 196.329 94.8864 196.331L96.8022 197.494L95.1789 198.48L93.1962 197.308L94.8177 196.325L94.8421 196.323ZM100.501 196.533C100.523 196.533 100.54 196.539 100.545 196.542L102.462 197.704L100.839 198.689L98.8558 197.518L100.476 196.535L100.501 196.533ZM112.377 196.614C112.399 196.614 112.416 196.619 112.421 196.622L114.338 197.785L112.714 198.77L110.731 197.599L112.352 196.616L112.377 196.614ZM106.159 196.743C106.181 196.743 106.197 196.749 106.202 196.752L108.12 197.914L106.497 198.899L104.514 197.728L106.134 196.745L106.159 196.743ZM118.035 196.824C118.058 196.824 118.075 196.829 118.08 196.832L119.996 197.995L118.373 198.98L116.39 197.809L118.011 196.826L118.035 196.824ZM124.335 197.423C124.358 197.423 124.374 197.428 124.379 197.431L126.297 198.594L124.673 199.578L122.69 198.407L124.31 197.424L124.335 197.423ZM92.1857 197.935C92.2084 197.935 92.225 197.94 92.2306 197.943L97.149 200.927L95.5257 201.912L90.5392 198.92L92.1619 197.936L92.1857 197.935ZM97.8442 198.144C97.8669 198.144 97.883 198.15 97.8886 198.153L99.8054 199.316L98.1822 200.301L96.1983 199.13L97.8199 198.147L97.8442 198.144ZM103.502 198.354C103.525 198.354 103.542 198.36 103.546 198.363L105.465 199.525L103.841 200.51L101.858 199.339L103.478 198.356L103.502 198.354ZM115.379 198.435C115.402 198.435 115.418 198.44 115.423 198.443L117.34 199.606L115.717 200.59L113.735 199.42L115.355 198.437L115.379 198.435ZM109.161 198.563C109.182 198.563 109.198 198.569 109.202 198.572L111.123 199.736L109.499 200.72L107.517 199.549L109.137 198.566L109.161 198.563ZM121.678 199.034C121.701 199.034 121.718 199.039 121.722 199.042L123.641 200.205L122.016 201.189L120.034 200.018L121.654 199.035L121.678 199.034ZM100.846 199.965C100.869 199.965 100.886 199.971 100.89 199.974L102.809 201.136L101.185 202.121L99.201 200.95L100.822 199.967L100.846 199.965ZM106.505 200.174C106.527 200.174 106.542 200.18 106.546 200.183L108.467 201.347L106.843 202.331L104.86 201.16L106.481 200.178L106.505 200.174ZM112.164 200.384C112.186 200.384 112.202 200.39 112.207 200.393L114.125 201.555L112.501 202.541L110.519 201.369L112.14 200.387L112.164 200.384ZM119.023 200.645C119.045 200.645 119.062 200.65 119.066 200.653L120.984 201.816L119.36 202.8L117.378 201.629L118.999 200.646L119.023 200.645ZM98.1899 201.576C98.2126 201.576 98.2293 201.582 98.2342 201.585L103.154 204.568L101.53 205.553L96.5434 202.562L98.1656 201.578L98.1899 201.576ZM103.849 201.786C103.87 201.786 103.886 201.791 103.89 201.794L105.81 202.958L104.186 203.942L102.204 202.771L103.825 201.789L103.849 201.786ZM109.508 201.995C109.529 201.995 109.544 202.001 109.549 202.004L111.468 203.166L109.845 204.151L107.862 202.98L109.483 201.998L109.508 201.995ZM116.578 203.063C116.601 203.063 116.617 203.068 116.622 203.071L117.454 203.565L115.831 204.549L114.94 204.044L116.554 203.064L116.578 203.063ZM106.851 203.607C106.873 203.607 106.889 203.613 106.894 203.615L108.812 204.778L107.189 205.763L105.206 204.592L106.827 203.61L106.851 203.607ZM113.922 204.674C113.945 204.674 113.961 204.679 113.966 204.682L114.798 205.176L113.175 206.161L112.284 205.655L113.897 204.676L113.922 204.674ZM104.195 205.218C104.217 205.218 104.234 205.224 104.237 205.226L106.155 206.389L104.532 207.374L102.549 206.203L104.17 205.22L104.195 205.218ZM111.265 206.285C111.288 206.285 111.304 206.291 111.31 206.293L112.141 206.786L110.518 207.772L109.627 207.266L111.241 206.287L111.265 206.285ZM108.608 207.896C108.631 207.896 108.648 207.902 108.653 207.905L109.486 208.399L107.862 209.384L106.971 208.878L108.585 207.899L108.608 207.896Z" fill="#A3CD0C"/>
<path opacity="0.2" d="M227.164 197.147L223.527 195.013C222.397 194.285 220.553 194.263 219.407 194.963L201.305 205.937L198.926 204.476C197.915 203.856 196.272 203.85 195.257 204.466L173.273 217.89C172.259 218.506 172.259 219.504 173.273 220.119L175.593 221.526L149.428 237.389C148.283 238.089 148.284 239.22 149.432 239.916L153.073 242.124C154.22 242.82 156.081 242.82 157.229 242.124L183.391 226.256C184.406 226.869 186.049 226.869 187.064 226.254L208.961 212.883C209.948 212.285 209.969 211.323 209.04 210.699L227.133 199.724C228.28 199.028 228.294 197.874 227.164 197.147Z" fill="#A3CD0C"/>
<path d="M218.785 177.509L223.418 119.681C223.546 118.054 222.626 116.114 221.363 115.348C220.1 114.583 217.986 114.623 216.64 115.44L147.462 157.399C146.116 158.216 144.921 160.196 144.793 161.823L140.16 219.652C140.032 221.279 140.952 223.218 142.214 223.984C143.477 224.749 145.591 224.709 146.937 223.893L216.116 181.934C217.462 181.116 218.657 179.136 218.785 177.509Z" fill="#263238"/>
<path d="M218.785 177.509L223.418 119.681C223.546 118.054 222.626 116.114 221.363 115.348C220.1 114.583 217.986 114.624 216.641 115.44L147.462 157.399C146.797 157.802 146.171 158.491 145.689 159.28L154.169 164.423L153.645 219.824L216.117 181.933C217.462 181.116 218.657 179.136 218.785 177.509Z" fill="#455A64"/>
<path d="M144.732 222.424L149.366 164.596C149.494 162.969 150.688 160.988 152.034 160.172L220.364 118.687C221.71 117.871 222.273 118.491 222.145 120.118L218.785 177.508C218.657 179.136 217.462 181.116 216.117 181.932L146.938 223.892C145.592 224.708 144.605 224.051 144.732 222.424Z" fill="#37474F"/>
<path d="M182.353 171.507C182.564 168.827 184.351 165.671 186.346 164.457C188.341 163.243 189.787 164.431 189.577 167.111C189.366 169.791 187.578 172.947 185.583 174.161C183.589 175.375 182.142 174.187 182.353 171.507Z" fill="#A3CD0C"/>
<path d="M181.884 193.822L196.67 184.798L194.15 183.27L179.374 192.299L181.884 193.822Z" fill="#455A64"/>
<path d="M203.527 211.281L185.527 222.202C185.204 222.397 184.783 222.488 184.373 222.475C184.026 222.463 183.667 222.371 183.393 222.215C183.381 222.215 183.381 222.202 183.368 222.202L175.441 217.393C175.429 217.379 175.416 217.379 175.404 217.367C174.821 217.002 174.374 216.155 174.374 215.438V214.995C174.374 214.278 174.846 213.978 175.441 214.343L180.23 217.236L181.297 217.887L181.061 216.61L179.374 192.298L181.885 193.826L196.673 184.803L204.371 209.351C204.495 210.056 204.123 210.929 203.527 211.281Z" fill="#37474F"/>
<path d="M174.706 214.252L180.846 210.527L182.093 219.207L174.706 214.252Z" fill="black"/>
<path d="M181.885 193.826L179.374 192.299L181.061 216.611C181.197 217.314 180.813 217.601 180.23 217.236L175.441 214.343C174.846 213.978 174.374 214.278 174.374 214.995V215.438C174.374 216.155 174.821 217.002 175.404 217.367C175.416 217.38 175.429 217.38 175.441 217.393L183.368 222.202C183.381 222.202 183.381 222.215 183.393 222.215C183.667 222.371 184.026 222.463 184.373 222.475L181.885 193.826Z" fill="#263238"/>
<path opacity="0.2" d="M101.751 242.308C106.735 239.572 114.713 239.504 119.571 242.157C124.429 244.811 124.463 249.18 119.646 251.916C114.829 254.651 106.851 254.718 101.826 252.066C96.801 249.414 96.7672 245.045 101.751 242.308Z" fill="#A3CD0C"/>
<path d="M102.481 223.921C107.051 222.092 114.367 222.008 118.821 223.731C123.276 225.455 123.307 228.333 118.889 230.16C114.471 231.986 107.156 232.071 102.549 230.349C97.9411 228.627 97.9112 225.749 102.481 223.921Z" fill="#A3CD0C"/>
<g opacity="0.3">
<path d="M102.481 223.921C107.051 222.092 114.367 222.008 118.821 223.731C123.276 225.455 123.307 228.333 118.889 230.16C114.471 231.986 107.156 232.071 102.549 230.349C97.9411 228.627 97.9112 225.749 102.481 223.921Z" fill="black"/>
</g>
<path d="M98.7633 218.122L122.302 217.876L120.824 247.03L120.801 247.031C120.701 248.093 119.769 249.151 117.979 249.982C114.164 251.753 107.842 251.827 103.86 250.145C101.991 249.357 101.004 248.321 100.878 247.262H100.855L98.7633 218.122Z" fill="#FAFAFA"/>
<path d="M122.301 217.876L122.001 223.797C121.464 224.197 120.822 224.579 120.046 224.927C114.98 227.2 106.586 227.297 101.298 225.144C101.069 225.051 100.878 224.949 100.671 224.85C99.8269 224.444 99.1843 223.994 99.1843 223.994L98.7627 218.121L122.301 217.876Z" fill="#EBEBEB"/>
<path d="M97.2841 219L97.2375 214.546L99.9804 214.514C100.344 214.308 100.742 214.108 101.18 213.918C106.421 211.642 114.815 211.545 119.928 213.7C120.354 213.88 120.731 214.072 121.087 214.27L123.752 214.239L123.799 218.694C123.814 220.144 122.557 221.611 120.024 222.747C114.957 225.02 106.563 225.118 101.275 222.964C98.6309 221.888 97.299 220.452 97.2841 219Z" fill="#A3CD0C"/>
<g opacity="0.2">
<path d="M97.2841 219L97.2375 214.546L99.9804 214.514C100.344 214.308 100.742 214.108 101.18 213.918C106.421 211.642 114.815 211.545 119.928 213.7C120.354 213.88 120.731 214.072 121.087 214.27L123.752 214.239L123.799 218.694C123.814 220.144 122.557 221.611 120.024 222.747C114.957 225.02 106.563 225.118 101.275 222.964C98.6309 221.888 97.299 220.452 97.2841 219Z" fill="black"/>
</g>
<path d="M101.144 210.491C106.386 208.216 114.779 208.119 119.892 210.274C125.005 212.429 125.043 216.019 119.977 218.293C114.91 220.566 106.516 220.664 101.228 218.511C95.9401 216.357 95.9024 212.767 101.144 210.491Z" fill="#A3CD0C"/>
<path d="M99.663 213.447H99.6531L100.464 209.765L107.196 209.687C109.38 209.376 111.725 209.348 113.892 209.61L120.428 209.534L121.319 213.197H121.308C121.744 214.526 120.753 215.935 118.305 216.989C114.127 218.788 107.208 218.868 102.85 217.169C100.296 216.173 99.2398 214.787 99.663 213.447Z" fill="#A3CD0C"/>
<path opacity="0.2" d="M99.663 213.447H99.6531L100.464 209.765L107.196 209.687C109.38 209.376 111.725 209.348 113.892 209.61L120.428 209.534L121.319 213.197H121.308C121.744 214.526 120.753 215.935 118.305 216.989C114.127 218.788 107.208 218.868 102.85 217.169C100.296 216.173 99.2398 214.787 99.663 213.447Z" fill="black"/>
<path d="M103.373 207.384C107.343 205.815 113.698 205.741 117.568 207.219C121.438 208.698 121.464 211.167 117.626 212.734C113.788 214.302 107.433 214.375 103.431 212.899C99.4282 211.422 99.4022 208.953 103.373 207.384Z" fill="#A3CD0C"/>
<path d="M101.794 210.164C101.802 210.223 101.907 210.417 102.241 210.681C102.554 210.924 103.075 211.229 103.885 211.531C105.651 212.178 108.09 212.541 110.574 212.512C113.057 212.483 115.446 212.072 117.13 211.385C117.92 211.065 118.413 210.74 118.7 210.49C119.021 210.212 119.109 210.008 119.108 209.957C119.107 209.855 118.756 209.215 117.1 208.581C115.403 207.934 113.006 207.578 110.522 207.607C108.039 207.636 105.608 208.048 103.856 208.743C102.207 209.391 101.8 210.034 101.794 210.164Z" fill="#A3CD0C"/>
<g opacity="0.5">
<path d="M101.794 210.164C101.802 210.223 101.907 210.417 102.241 210.681C102.554 210.924 103.075 211.229 103.885 211.531C105.651 212.178 108.09 212.541 110.574 212.512C113.057 212.483 115.446 212.072 117.13 211.385C117.92 211.065 118.413 210.74 118.7 210.49C119.021 210.212 119.109 210.008 119.108 209.957C119.107 209.855 118.756 209.215 117.1 208.581C115.403 207.934 113.006 207.578 110.522 207.607C108.039 207.636 105.608 208.048 103.856 208.743C102.207 209.391 101.8 210.034 101.794 210.164Z" fill="black"/>
</g>
<path d="M102.241 210.681C102.554 210.924 103.075 211.229 103.886 211.531C105.652 212.177 108.09 212.541 110.574 212.512C113.057 212.483 115.446 212.072 117.13 211.385C117.92 211.065 118.413 210.74 118.701 210.49C118.408 210.248 117.908 209.934 117.112 209.632C115.414 208.985 113.017 208.628 110.534 208.658C108.051 208.686 105.62 209.099 103.868 209.792C103.063 210.113 102.549 210.423 102.241 210.681Z" fill="#A3CD0C"/>
<g opacity="0.2">
<path d="M102.241 210.681C102.554 210.924 103.075 211.229 103.886 211.531C105.652 212.177 108.09 212.541 110.574 212.512C113.057 212.483 115.446 212.072 117.13 211.385C117.92 211.065 118.413 210.74 118.701 210.49C118.408 210.248 117.908 209.934 117.112 209.632C115.414 208.985 113.017 208.628 110.534 208.658C108.051 208.686 105.62 209.099 103.868 209.792C103.063 210.113 102.549 210.423 102.241 210.681Z" fill="black"/>
</g>
<g opacity="0.5">
<path d="M106.236 210.729C105.652 210.39 104.945 210.257 104.656 210.432C104.368 210.607 104.607 211.027 105.192 211.37C105.776 211.714 106.484 211.847 106.772 211.667C107.06 211.488 106.821 211.068 106.236 210.729Z" fill="black"/>
</g>
<path d="M121.625 237.604C121.637 238.7 120.604 239.809 118.523 240.669C114.361 242.39 107.469 242.469 103.128 240.847C100.962 240.038 99.8696 238.957 99.8546 237.862L99.0735 227.174C99.0857 228.337 100.245 229.487 102.549 230.348C107.156 232.07 114.472 231.985 118.889 230.158C121.098 229.245 122.194 228.069 122.182 226.906L121.625 237.604Z" fill="#A3CD0C"/>
<g opacity="0.35">
<path d="M121.625 237.604C121.637 238.7 120.604 239.809 118.523 240.669C114.361 242.39 107.469 242.469 103.128 240.847C100.962 240.038 99.8696 238.957 99.8546 237.862L99.0735 227.174C99.0857 228.337 100.245 229.487 102.549 230.348C107.156 232.07 114.472 231.985 118.889 230.158C121.098 229.245 122.194 228.069 122.182 226.906L121.625 237.604Z" fill="white"/>
</g>
<path d="M114.448 238.32C114.83 237.767 115.038 237.092 115.346 236.495C115.959 235.306 116.844 234.491 117.982 234.001C118.134 233.935 118.324 234 118.398 234.153C118.99 235.385 118.653 237.123 117.468 238.395C116.295 239.655 114.665 240.059 113.483 239.491C113.416 239.459 113.396 239.323 113.45 239.289C113.826 239.053 114.161 238.736 114.448 238.32Z" fill="#37474F"/>
<path d="M117.341 233.669C116.726 233.923 116.153 234.32 115.673 234.774C115.159 235.258 114.764 235.875 114.476 236.534C114.04 237.537 113.619 238.159 112.97 238.68C112.828 238.793 112.61 238.766 112.511 238.611C111.715 237.376 112.006 235.466 113.282 234.094C114.492 232.795 116.187 232.406 117.377 233.055C117.616 233.185 117.591 233.565 117.341 233.669Z" fill="#37474F"/>
<path d="M156.85 24.2456H153.606V41.7754H156.85C157.466 41.7754 157.967 41.2493 157.967 40.6016V25.4189C157.966 24.7723 157.466 24.2456 156.85 24.2456Z" fill="#A3CD0C"/>
<path d="M134.997 51.4989C134.938 51.4989 134.88 51.4989 134.821 51.4978C134.589 51.4948 134.383 51.3394 134.306 51.1084C134.229 50.8779 134.297 50.6213 134.476 50.4659C136.374 48.8246 137.105 46.6322 136.605 44.1029H124.082C122.245 44.1029 120.749 42.532 120.749 40.6015V25.4189C120.749 23.4884 122.245 21.9176 124.082 21.9176H156.85C158.688 21.9176 160.183 23.4884 160.183 25.4189V40.6021C160.183 42.5326 158.688 44.1034 156.85 44.1034H144.663C143.908 47.7712 140.654 51.4989 134.997 51.4989ZM124.082 23.0816C122.856 23.0816 121.857 24.1304 121.857 25.4189V40.6021C121.857 41.8907 122.855 42.9394 124.082 42.9394H137.044C137.296 42.9394 137.516 43.1181 137.579 43.3742C138.229 45.9775 137.753 48.3736 136.243 50.2651C140.717 49.7518 143.21 46.5001 143.654 43.4336C143.695 43.1495 143.928 42.9394 144.202 42.9394H156.85C158.077 42.9394 159.075 41.8913 159.075 40.6021V25.4189C159.075 24.1304 158.077 23.0816 156.85 23.0816H124.082Z" fill="#455A64"/>
<path d="M120.651 38.9434H118.361C117.948 38.9434 117.614 38.5919 117.614 38.1583V27.8633C117.614 27.4297 117.948 27.0782 118.361 27.0782H120.651C121.064 27.0782 121.399 27.4297 121.399 27.8633V38.1583C121.399 38.5919 121.064 38.9434 120.651 38.9434Z" fill="#455A64"/>
</svg>
