<svg width="266" height="266" viewBox="0 0 266 266" fill="none" xmlns="http://www.w3.org/2000/svg">
<path d="M13.7692 110.153L17.6406 109.848C17.6406 109.848 17.3836 106.61 20.7565 106.285C22.5084 106.117 23.5091 107.19 23.948 108.038C24.4582 109.023 24.4204 110.194 23.9203 111.183C23.3495 112.313 21.9886 113.407 19.343 113.155L20.0335 121.85L23.8613 121.549L23.4569 116.455C23.4569 116.455 28.7158 114.649 28.2476 108.755C27.7996 103.116 22.6196 102.206 20.4469 102.377C18.7849 102.509 13.1558 103.355 13.7692 110.153Z" fill="#E0E0E0"/>
<path d="M24.0447 123.339L20.1599 123.645L20.4466 127.26L24.3315 126.954L24.0447 123.339Z" fill="#E0E0E0"/>
<path d="M201.025 142.393H203.124C203.124 142.393 203.124 140.637 204.955 140.606C205.906 140.589 206.399 141.21 206.6 141.685C206.832 142.237 206.762 142.867 206.45 143.379C206.094 143.963 205.314 144.495 203.9 144.247V148.961H205.975V146.199C205.975 146.199 208.886 145.45 208.886 142.254C208.886 139.196 206.133 138.486 204.955 138.486C204.054 138.487 200.985 138.704 201.025 142.393Z" fill="#E0E0E0"/>
<path d="M206.001 149.933H203.894V151.892H206.001V149.933Z" fill="#E0E0E0"/>
<path d="M14.3932 207.939L17.074 208.32C17.074 208.32 17.3948 206.078 19.7398 206.37C20.9576 206.521 21.4742 207.404 21.6433 208.047C21.8397 208.794 21.6348 209.586 21.1433 210.183C20.5815 210.865 19.4882 211.403 17.7268 210.829L16.8655 216.851L19.5164 217.227L20.0207 213.7C20.0207 213.7 23.8756 213.27 24.4592 209.188C25.0178 205.283 21.6322 203.876 20.1271 203.663C18.9764 203.5 15.0168 203.22 14.3932 207.939Z" fill="#F5F5F5"/>
<path d="M19.3648 218.473L16.6746 218.091L16.3164 220.594L19.0067 220.976L19.3648 218.473Z" fill="#F5F5F5"/>
<path d="M84.4369 26.2984L87.9598 25.5373C87.9598 25.5373 87.3188 22.5905 90.3809 21.8734C91.9716 21.5013 93.026 22.3642 93.5362 23.0898C94.1284 23.9325 94.2401 25.0142 93.9038 25.9867C93.5197 27.0971 92.4047 28.2726 89.9394 28.3686L91.6615 36.2825L95.145 35.5299L94.1363 30.894C94.1363 30.894 98.7482 28.5806 97.581 23.2164C96.4644 18.0839 91.5849 17.8899 89.6074 18.3171C88.0955 18.6436 83.0234 20.1207 84.4369 26.2984Z" fill="#F5F5F5"/>
<path d="M95.5442 37.1481L92.0087 37.9117L92.7247 41.2014L96.2602 40.4377L95.5442 37.1481Z" fill="#F5F5F5"/>
<path d="M230.695 229.699L232.745 230.15C232.745 230.15 233.125 228.436 234.92 228.799C235.852 228.988 236.2 229.7 236.292 230.207C236.4 230.796 236.195 231.395 235.779 231.828C235.305 232.323 234.428 232.674 233.101 232.127L232.079 236.73L234.106 237.176L234.704 234.48C234.704 234.48 237.708 234.374 238.4 231.253C239.063 228.268 236.529 226.983 235.379 226.73C234.499 226.537 231.456 226.089 230.695 229.699Z" fill="#E0E0E0"/>
<path d="M233.909 238.123L231.853 237.67L231.428 239.584L233.485 240.037L233.909 238.123Z" fill="#E0E0E0"/>
<path d="M236.899 80.1119H240.764C240.764 80.1119 240.764 76.8784 244.137 76.8206C245.889 76.7904 246.797 77.9336 247.166 78.8092C247.595 79.8263 247.465 80.9854 246.891 81.9282C246.236 83.0052 244.799 83.9841 242.194 83.5267V92.2097H246.016V87.1233C246.016 87.1233 251.377 85.7427 251.377 79.857C251.377 74.2258 246.308 72.9177 244.138 72.9177C242.478 72.9183 236.826 73.3179 236.899 80.1119Z" fill="#F5F5F5"/>
<path d="M246.061 93.999H242.182V97.6083H246.061V93.999Z" fill="#F5F5F5"/>
<path d="M140.588 31.803L144.758 32.7209C144.758 32.7209 145.532 29.233 149.184 29.9713C151.082 30.355 151.788 31.804 151.976 32.8359C152.195 34.0348 151.777 35.2543 150.933 36.1352C149.968 37.1411 148.183 37.8561 145.482 36.7436L143.404 46.1108L147.528 47.0187L148.745 41.5316C148.745 41.5316 154.859 41.3154 156.267 34.9665C157.615 28.8917 152.459 26.2767 150.119 25.7615C148.329 25.3682 142.135 24.4566 140.588 31.803Z" fill="#E0E0E0"/>
<path d="M147.144 48.9583L142.96 48.0369L142.096 51.9305L146.281 52.8519L147.144 48.9583Z" fill="#E0E0E0"/>
<path d="M239.002 248.043C239.002 248.117 191.559 248.176 133.049 248.176C74.5193 248.176 27.0873 248.117 27.0873 248.043C27.0873 247.969 74.5193 247.91 133.049 247.91C191.559 247.91 239.002 247.969 239.002 248.043Z" fill="#263238"/>
<path d="M117.759 38.3495L104.869 42.6028L109.425 55.3207L117.759 38.3495Z" fill="#455A64"/>
<path d="M119.212 93.4319L115.009 85.5127C123.234 81.1815 127.435 74.8326 126.841 67.6358C126.201 59.8978 119.996 52.7793 111.399 49.9221L114.245 41.4246C126.396 45.4632 134.858 55.4633 135.803 66.9012C136.697 77.7381 130.651 87.4085 119.212 93.4319Z" fill="#455A64"/>
<g opacity="0.3">
<path d="M126.432 73.2606C126.432 73.2606 130.428 74.5501 135.617 71.7083L135.099 75.5873L125.498 79.2062L125.289 76.2938L126.432 73.2606Z" fill="black"/>
</g>
<path d="M117.149 149.814C90.3193 146.161 68.6381 138.225 52.7085 126.228C39.2143 116.065 33.815 105.853 32.0408 102.497C27.4049 93.7287 25.4083 84.239 26.2665 75.0531C27.8438 58.1699 40.1815 47.9849 48.0896 45.2581C54.7668 42.9563 63.6708 42.9377 69.5335 43.9405C75.9606 45.0408 82.1919 47.2064 88.0551 50.3779L82.6638 60.2703C77.8885 57.6871 72.8271 55.9259 67.6209 55.035C62.5388 54.1653 55.7302 54.5352 51.7854 55.8957C47.6119 57.3347 38.6317 64.1664 37.5167 76.0967C36.8623 83.1038 38.4259 90.4188 42.0381 97.2516C43.5219 100.058 48.038 108.599 59.5228 117.249C73.8884 128.069 93.7922 135.273 118.68 138.662L117.149 149.814Z" fill="#C1E833"/>
<g opacity="0.3">
<path d="M57.9981 116.043L47.3049 121.797L51.9743 125.693L62.4063 119.347L57.9981 116.043Z" fill="black"/>
</g>
<g opacity="0.3">
<path d="M94.2358 133.74C94.2358 133.74 94.2422 144.272 96.0079 145.855L99.7325 146.732L96.8831 134.374L94.2358 133.74Z" fill="black"/>
</g>
<path d="M79.6926 63.6539L93.8065 59.8331L89.6543 45.8888L79.6926 63.6539Z" fill="#C1E833"/>
<path d="M188.3 240.749L186.716 229.975C219.366 225.212 236.462 198.919 242.296 187.835L251.975 192.892C245.363 205.453 225.922 235.261 188.3 240.749Z" fill="#C1E833"/>
<path d="M253.52 200.169L251.347 183.243L234.754 190.853L253.52 200.169Z" fill="#C1E833"/>
<g opacity="0.3">
<path d="M209.474 222.337L206.825 223.72L208.508 234.97L212.985 232.829L209.474 222.337Z" fill="black"/>
</g>
<path d="M90.3315 234.077C75.5499 231.602 54.554 225.311 38.4684 209.394C23.441 194.525 16.2782 173.701 19.7755 155.051C21.579 145.436 26.2606 136.082 33.3133 128.002C39.8362 120.529 48.2343 114.265 57.6013 109.885C73.1133 102.633 92.044 99.5502 115.473 100.459L115.123 109.41C93.1644 108.557 75.5999 111.366 61.4221 117.994C44.1486 126.07 31.5779 140.9 28.6152 156.696C25.6568 172.472 31.8604 190.228 44.8056 203.038C59.2148 217.296 78.3269 222.982 91.8222 225.242L90.3315 234.077Z" fill="#455A64"/>
<g opacity="0.3">
<path d="M83.1985 223.45L80.5427 232.021L87.1119 233.693L86.8666 224.299L83.1985 223.45Z" fill="black"/>
</g>
<path d="M90.4591 112.317C87.8087 98.1919 96.4973 84.4113 110.417 80.6441L111.8 80.2699C126.953 77.101 138.119 88.1515 140.879 103.329L151.026 161.134L131.014 178.746L119.856 172.388C118.896 168.151 116.833 159.392 116.801 159.399C116.801 159.399 101.856 161.058 97.7842 146.824C95.818 139.948 92.925 125.459 90.4591 112.317Z" fill="#AE7461"/>
<path d="M116.801 159.4C116.801 159.4 125.982 157.482 133.969 148.85C133.969 148.85 132.406 160.803 117.75 163.389L116.801 159.4Z" fill="#6F4439"/>
<path d="M98.7589 124.055C99.0137 125.143 100.149 125.824 101.294 125.579C102.437 125.334 103.159 124.257 102.903 123.169C102.648 122.081 101.513 121.398 100.37 121.643C99.2249 121.888 98.5035 122.968 98.7589 124.055Z" fill="#263238"/>
<path d="M95.2275 117.8C95.5536 117.997 96.7926 116.433 98.9977 115.843C101.192 115.221 103.116 115.913 103.282 115.58C103.367 115.429 102.978 115.018 102.134 114.698C101.303 114.378 99.9862 114.203 98.6147 114.58C97.2448 114.959 96.2271 115.775 95.7041 116.469C95.1684 117.171 95.0695 117.714 95.2275 117.8Z" fill="#263238"/>
<path d="M117.633 119.235C117.889 120.323 119.023 121.004 120.169 120.758C121.311 120.514 122.033 119.436 121.777 118.348C121.522 117.261 120.387 116.579 119.244 116.823C118.099 117.068 117.378 118.148 117.633 119.235Z" fill="#263238"/>
<path d="M116.963 112.464C117.289 112.661 118.531 111.098 120.734 110.508C122.928 109.887 124.852 110.578 125.018 110.244C125.102 110.094 124.716 109.683 123.87 109.364C123.038 109.043 121.722 108.868 120.351 109.245C118.981 109.624 117.964 110.44 117.44 111.134C116.906 111.835 116.806 112.379 116.963 112.464Z" fill="#263238"/>
<path d="M113.658 131.468C113.634 131.341 112.2 131.475 109.904 131.793C109.325 131.888 108.763 131.921 108.564 131.564C108.321 131.195 108.392 130.527 108.487 129.801C108.646 128.302 108.812 126.73 108.986 125.083C109.64 118.381 109.95 112.933 109.679 112.908C109.408 112.885 108.658 118.297 108.005 124.999C107.857 126.648 107.715 128.22 107.581 129.724C107.542 130.419 107.373 131.24 107.889 132.003C108.155 132.381 108.651 132.573 109.038 132.572C109.429 132.584 109.747 132.504 110.03 132.446C112.296 131.96 113.684 131.595 113.658 131.468Z" fill="#263238"/>
<path d="M125.636 105.124C125.345 104.533 123.111 105.073 120.413 105.044C117.715 105.069 115.482 104.527 115.19 105.116C115.061 105.398 115.499 105.935 116.433 106.435C117.359 106.935 118.794 107.35 120.412 107.353C122.029 107.352 123.464 106.94 124.391 106.441C125.326 105.942 125.765 105.405 125.636 105.124Z" fill="#263238"/>
<path d="M93.3665 111.373C93.9549 111.757 95.6222 110.778 97.7816 110.202C99.9229 109.563 101.867 109.52 102.155 108.888C102.275 108.588 101.858 108.16 100.935 107.89C100.024 107.619 98.604 107.57 97.1256 107.986C95.6477 108.405 94.4752 109.187 93.8527 109.892C93.2202 110.601 93.1016 111.181 93.3665 111.373Z" fill="#263238"/>
<path d="M142.553 113.895C142.768 113.724 151.651 108.655 154.001 118.504C156.351 128.353 145.061 128.997 144.976 128.719C144.892 128.44 142.553 113.895 142.553 113.895Z" fill="#AE7461"/>
<path d="M147.985 123.946C148.021 123.904 148.186 124.025 148.509 124.089C148.823 124.152 149.333 124.125 149.803 123.811C150.756 123.182 151.241 121.322 150.866 119.535C150.678 118.633 150.285 117.824 149.798 117.193C149.324 116.544 148.737 116.151 148.189 116.182C147.636 116.186 147.339 116.588 147.284 116.893C147.218 117.2 147.327 117.382 147.279 117.411C147.258 117.443 147.027 117.296 147.01 116.871C147.005 116.665 147.065 116.405 147.252 116.162C147.443 115.913 147.769 115.732 148.144 115.685C148.92 115.557 149.772 116.093 150.308 116.786C150.886 117.473 151.348 118.377 151.56 119.39C151.97 121.39 151.393 123.489 150.062 124.239C149.41 124.584 148.78 124.513 148.425 124.351C148.06 124.18 147.956 123.973 147.985 123.946Z" fill="#6F4439"/>
<path d="M66.8862 103.868C66.9038 103.251 67.2124 102.672 67.6582 102.243C68.6301 101.307 69.9554 101.084 71.2103 100.763C74.3343 99.9642 77.2523 98.4219 79.708 96.3406C78.6147 96.0814 77.5603 95.7008 76.6022 95.1163C74.6226 93.9105 73.1197 91.6988 73.3394 89.3981C73.3804 88.9661 73.5134 88.4923 73.8879 88.2713C74.4827 87.9215 75.1956 88.4155 75.7632 88.8066C77.6289 90.0934 79.1579 90.4719 81.3003 89.7267C82.6308 89.264 83.8783 88.6439 84.7907 87.7228C84.8226 87.6682 84.8492 87.6099 84.8817 87.5558C85.2684 86.905 85.6488 86.2806 86.0255 85.6743C86.026 85.6722 86.0271 85.6706 86.0276 85.669L86.0271 85.6722C88.8605 81.111 91.445 77.8017 94.4188 75.6955C98.7781 72.6077 106.658 69.8967 112.005 70.0096C117.352 70.1231 122.848 73.1101 124.783 78.0773C127.032 75.0271 131.272 74.0355 135.039 74.5909L135.116 74.5326C139.27 74.9773 142.413 78.4859 144.478 82.1037C144.591 82.3014 144.696 82.5044 144.806 82.7042C146.591 84.4383 148.771 85.7692 151.161 86.4847C151.583 86.6108 152.07 86.7725 152.217 87.1859C152.363 87.595 152.09 88.0286 151.805 88.3572C151.045 89.2306 150.08 89.9164 149.016 90.3786C149.589 91.2192 150.215 92.0189 150.929 92.7546C151.537 93.3805 152.261 94.1305 152.065 94.9785C151.915 95.6346 151.225 96.0544 150.552 96.1153C149.879 96.1752 149.217 95.9547 148.578 95.7374C149.249 96.6533 149.921 97.5702 150.593 98.486C149.266 99.0568 147.806 99.2884 146.364 99.2036C146.426 103.033 147.435 109.912 147.088 112.6C144.476 113.273 143.771 113.141 142.553 113.895C140.978 114.869 142.357 117.731 139.923 117.405C138.685 117.24 135.914 113.375 135.258 112.315C130.903 105.283 128.1 97.3046 127.088 89.1039C125.099 87.7996 122.854 86.8806 120.518 86.4147L120.726 86.5276C116.349 86.0946 111.448 85.8105 108.069 88.6163C105.448 90.793 104.44 94.2842 102.807 97.2686C99.7122 102.924 95.5398 106.545 89.3228 108.315C89.8021 112.797 91.3455 119.945 92.1078 124.051L86.6777 116.764L86.683 116.797C86.2878 116.388 85.9404 115.964 85.601 115.537L85.4887 115.41L85.4844 115.392C84.9429 114.706 84.4178 114.013 83.7842 113.358C83.7741 113.373 83.764 113.387 83.7533 113.402C82.0142 115.867 78.0508 113.68 79.2212 110.901C79.4532 110.35 79.7654 109.834 80.1549 109.376C79.3739 110.56 77.9795 111.371 76.5596 111.282C75.1402 111.193 73.7943 110.106 73.5783 108.705C73.4314 107.749 73.9017 106.751 74.6625 106.177C72.9138 106.74 70.9986 106.788 69.2329 106.276C68.0763 105.94 66.8479 105.227 66.8862 103.868Z" fill="#263238"/>
<path d="M121.236 80.8184C121.216 80.8624 121.933 81.0548 123.004 81.7936C124.066 82.5303 125.398 83.9353 126.376 86.0474C126.868 87.0952 127.308 88.2941 127.626 89.6207C127.951 90.9462 128.186 92.3926 128.444 93.9142C128.708 95.4348 128.981 97.0423 129.473 98.6651C129.719 99.475 130.019 100.287 130.399 101.079C130.779 101.856 131.209 102.696 132.001 103.253C132.635 103.71 133.525 103.767 134.207 103.449C134.899 103.149 135.45 102.613 135.795 101.977C136.465 100.673 136.367 99.2455 136.307 97.9809L136.012 98.0901C136.77 99.0589 137.537 100.011 138.498 100.688C139.448 101.373 140.612 101.699 141.679 101.542C142.211 101.465 142.715 101.257 143.107 100.926C143.51 100.596 143.75 100.141 143.882 99.6896C144.001 99.2333 144.007 98.7621 143.881 98.3392C143.753 97.9173 143.488 97.5516 143.147 97.3295L143.026 97.5023C144.446 98.5013 145.787 98.9004 146.692 99.0822C147.148 99.1728 147.504 99.2068 147.744 99.2253C147.984 99.2375 148.108 99.2375 148.109 99.228C148.11 99.2174 147.987 99.1988 147.75 99.167C147.513 99.1304 147.162 99.0785 146.716 98.972C145.829 98.7579 144.521 98.3328 143.15 97.3322L143.029 97.5049C143.639 97.9024 143.884 98.7976 143.64 99.6228C143.515 100.031 143.292 100.438 142.936 100.722C142.585 101.011 142.124 101.198 141.638 101.264C140.656 101.398 139.569 101.091 138.677 100.437C137.768 99.7876 137.024 98.8596 136.272 97.8881L135.953 97.4763L135.977 97.9978C136.036 99.2608 136.106 100.637 135.492 101.815C135.183 102.384 134.677 102.871 134.071 103.132C133.466 103.405 132.747 103.357 132.196 102.968C131.506 102.487 131.081 101.696 130.709 100.931C130.338 100.158 130.042 99.3631 129.798 98.5671C129.31 96.9728 129.03 95.3775 128.759 93.8607C128.492 92.3417 128.246 90.8911 127.905 89.5512C127.57 88.2109 127.111 86.9988 126.596 85.9414C125.574 83.8097 124.184 82.3968 123.08 81.6834C121.966 80.9658 121.236 80.8184 121.236 80.8184Z" fill="#455A64"/>
<path d="M79.8687 105.525C79.8665 105.53 79.9133 105.554 80.0086 105.595C80.123 105.643 80.2629 105.701 80.4331 105.771C80.6193 105.851 80.8534 105.941 81.1401 106.016C81.4242 106.099 81.7503 106.205 82.1307 106.267C83.6267 106.582 85.9329 106.699 88.5881 105.898C91.2194 105.111 94.1949 103.405 96.5437 100.602C98.935 97.8421 100.737 94.1872 101.97 90.2005C102.603 88.2045 103.029 86.2112 103.577 84.334C104.118 82.4567 104.787 80.6812 105.753 79.176C106.702 77.6666 107.928 76.4269 109.314 75.6605C110.001 75.2641 110.735 75.0372 111.451 74.8835C112.173 74.7505 112.884 74.733 113.555 74.7881C114.903 74.9074 116.073 75.3531 117.007 75.8767C117.944 76.4057 118.638 77.0353 119.147 77.5961C120.123 78.7637 120.364 79.6048 120.413 79.5783C120.419 79.5761 120.402 79.5263 120.365 79.4299C120.318 79.3148 120.26 79.1755 120.191 79.0048C120.027 78.6359 119.726 78.1165 119.25 77.5086C118.749 76.9245 118.054 76.2663 117.104 75.7087C116.16 75.1575 114.966 74.6827 113.58 74.5443C112.888 74.4797 112.154 74.4903 111.403 74.6212C110.66 74.7717 109.888 75.006 109.175 75.4098C107.732 76.1926 106.462 77.4662 105.484 79.0053C104.487 80.5423 103.8 82.3502 103.251 84.2401C102.695 86.1322 102.266 88.1213 101.639 90.0988C100.416 94.0557 98.6419 97.6677 96.3011 100.396C94.0002 103.168 91.1013 104.857 88.5169 105.665C85.9132 106.483 83.6437 106.406 82.1573 106.135C80.6566 105.858 79.8852 105.477 79.8687 105.525Z" fill="#455A64"/>
<path d="M77.0288 99.5078C77.0214 99.5312 77.2368 99.6138 77.6342 99.7437C78.029 99.8815 78.6195 100.026 79.3574 100.154C80.0953 100.287 80.9874 100.364 81.9807 100.369C82.9728 100.356 84.0645 100.262 85.1892 100.037C86.3112 99.7994 87.3517 99.4564 88.2684 99.0775C89.1781 98.6816 89.9676 98.2602 90.5927 97.8468C91.2194 97.4382 91.704 97.073 92.0115 96.7911C92.3249 96.5149 92.4898 96.3543 92.4738 96.3363C92.4323 96.286 91.7317 96.8865 90.4629 97.6385C89.8314 98.0196 89.044 98.4113 88.145 98.7828C87.2395 99.1384 86.2175 99.4654 85.1179 99.6981C84.0161 99.9175 82.9484 100.02 81.9754 100.05C81.0023 100.062 80.1235 100.013 79.3925 99.9122C77.9284 99.7204 77.0469 99.4453 77.0288 99.5078Z" fill="#455A64"/>
<path d="M121.848 136.471C121.888 136.687 120.217 137.166 118.188 137.804C116.155 138.436 114.51 138.994 114.419 138.794C114.33 138.604 115.87 137.711 117.954 137.062C120.036 136.409 121.812 136.265 121.848 136.471Z" fill="#263238"/>
<path d="M114.354 105.986C114.363 106.011 114.09 106.137 113.611 106.155C113.135 106.176 112.461 106.042 111.836 105.655C111.213 105.265 110.798 104.718 110.609 104.283C110.416 103.845 110.41 103.545 110.436 103.542C110.48 103.532 110.551 103.81 110.773 104.199C110.992 104.588 111.396 105.072 111.974 105.435C112.555 105.794 113.168 105.945 113.614 105.971C114.062 106.001 114.344 105.943 114.354 105.986Z" fill="#6F4439"/>
<path d="M123.666 138.035C123.594 138.008 123.854 137.373 123.68 136.589C123.526 135.802 123.032 135.323 123.087 135.27C123.108 135.246 123.265 135.331 123.454 135.545C123.642 135.756 123.845 136.108 123.935 136.536C124.024 136.965 123.98 137.368 123.892 137.637C123.804 137.908 123.694 138.049 123.666 138.035Z" fill="#6F4439"/>
<path d="M68.5998 139.087C68.5998 139.087 80.2527 115.542 81.0502 114.595C81.8477 113.649 86.0914 103.803 86.0914 103.803L92.0275 96.7354C92.0275 96.7354 94.812 97.1515 93.0441 100.741L90.5241 105.523L99.7793 96.2679C99.7793 96.2679 102.52 96.5838 101.453 99.484C100.66 101.639 97.8332 104.977 97.8332 104.977L106.14 97.7938C106.14 97.7938 109.596 98.3243 107.938 101.936C106.86 104.285 97.1778 114.946 97.1778 114.946C97.1778 114.946 102.008 111.973 103.534 110.986C105.06 109.999 106.636 107.854 107.763 108.057C108.89 108.26 110.857 109.997 107.922 113.315C104.988 116.634 96.7314 121.923 95.5291 122.58C94.3268 123.238 94.3268 123.238 94.3268 123.238C94.3268 123.238 92.8968 126.927 90.8805 128.71C90.8805 128.71 87.5672 139.17 85.8973 142.049C84.0954 145.156 81.1045 146.842 81.1045 146.842L76.0074 160.559L61.4487 150.542L68.5998 139.087Z" fill="#AE7461"/>
<path d="M68.5998 139.087C68.5998 139.087 68.4487 139.348 68.1407 139.85C67.8295 140.355 67.3704 141.099 66.7708 142.072C65.5594 144.024 63.7799 146.891 61.496 150.57L61.4801 150.494C65.3961 153.18 70.3176 156.557 76.0531 160.491L75.9297 160.529C77.4544 156.414 79.1712 151.782 81.014 146.809C81.022 146.788 81.0358 146.771 81.0534 146.761L81.0566 146.758C82.4063 145.933 83.6698 144.846 84.7306 143.553C85.2557 142.902 85.7366 142.198 86.1106 141.429C86.4846 140.658 86.8288 139.857 87.1523 139.038C88.4471 135.763 89.6149 132.277 90.7762 128.676C90.7826 128.657 90.7943 128.64 90.8082 128.628C91.5508 127.956 92.1812 127.095 92.743 126.168C93.299 125.237 93.8017 124.233 94.222 123.196C94.2321 123.171 94.2507 123.151 94.2725 123.138C94.8822 122.799 95.5073 122.48 96.1016 122.109C96.7001 121.74 97.298 121.359 97.8933 120.968C99.0855 120.186 100.276 119.374 101.46 118.53C102.644 117.684 103.823 116.806 104.973 115.873C106.115 114.935 107.259 113.956 108.197 112.794C108.65 112.208 109.056 111.565 109.242 110.852C109.439 110.152 109.337 109.351 108.832 108.813C108.59 108.544 108.276 108.331 107.932 108.22C107.59 108.098 107.246 108.196 106.919 108.382C106.273 108.761 105.715 109.311 105.138 109.829C104.566 110.351 103.963 110.884 103.281 111.282C102.616 111.696 101.949 112.112 101.28 112.529C99.941 113.364 98.594 114.203 97.24 115.046C97.1842 115.081 97.1108 115.064 97.0757 115.008C97.0469 114.962 97.0544 114.903 97.089 114.865C97.7954 114.076 98.5578 113.225 99.3233 112.37C101.463 109.949 103.57 107.539 105.55 105.08C106.044 104.464 106.527 103.843 106.987 103.211C107.441 102.572 107.874 101.935 108.093 101.197C108.326 100.48 108.35 99.6716 107.958 99.0446C107.567 98.4208 106.835 98.0535 106.122 97.9088L106.217 97.8813C103.395 100.321 100.622 102.717 97.9088 105.063C97.8609 105.104 97.788 105.099 97.746 105.051C97.7087 105.008 97.7098 104.944 97.7449 104.902C98.919 103.471 100.036 101.997 100.898 100.417C101.104 100.019 101.306 99.6165 101.423 99.193C101.562 98.777 101.62 98.3344 101.552 97.9178C101.486 97.5007 101.263 97.1207 100.928 96.8626C100.595 96.6077 100.177 96.4423 99.7665 96.3782L99.858 96.3464C96.6538 99.5476 93.5634 102.635 90.5985 105.597C90.5576 105.638 90.4911 105.638 90.4501 105.598C90.4166 105.565 90.4107 105.514 90.4315 105.475C91.271 103.884 92.0908 102.331 92.8931 100.811C93.0798 100.428 93.2522 100.045 93.3687 99.6441C93.4416 99.4474 93.4575 99.2402 93.5054 99.0398C93.5123 98.8374 93.5501 98.6317 93.5144 98.433C93.482 98.0334 93.3213 97.6512 93.042 97.3735C92.7696 97.0926 92.3903 96.9066 92.0142 96.8319L92.1041 96.7979C90.0192 99.2762 88.0449 101.624 86.1622 103.861L86.176 103.839C84.9663 106.619 83.798 109.262 82.6334 111.739C82.3387 112.357 82.0493 112.966 81.7429 113.558C81.5912 113.854 81.4359 114.145 81.2593 114.429C81.0608 114.72 80.9044 114.961 80.7454 115.251C80.1171 116.373 79.5478 117.486 78.9892 118.557C76.7756 122.849 74.9056 126.573 73.3719 129.617C71.8434 132.66 70.6544 135.028 69.8452 136.64C69.442 137.44 69.1334 138.052 68.9238 138.468C68.7126 138.878 68.5998 139.087 68.5998 139.087C68.5998 139.087 68.6966 138.87 68.8977 138.455C69.102 138.037 69.4026 137.421 69.7958 136.616C70.5953 134.999 71.7695 132.624 73.2793 129.572C74.7992 126.52 76.6559 122.79 78.8584 118.49C79.4148 117.418 79.9798 116.305 80.6087 115.175C80.7565 114.899 80.9571 114.595 81.1263 114.344C81.2944 114.072 81.4503 113.78 81.5998 113.486C81.903 112.897 82.1913 112.287 82.4839 111.67C83.641 109.194 84.8045 106.549 86.0084 103.769C86.0122 103.761 86.017 103.753 86.0223 103.746C87.9013 101.505 89.8718 99.1554 91.9525 96.6734L91.9552 96.6702C91.977 96.6442 92.011 96.6336 92.0424 96.6395C92.4733 96.7248 92.8707 96.9214 93.1825 97.2363C93.4963 97.5463 93.6772 97.9798 93.7123 98.4139C93.7501 98.6323 93.7118 98.849 93.7038 99.0663C93.6554 99.2762 93.6363 99.4967 93.5618 99.7002C93.4421 100.116 93.2628 100.515 93.0739 100.903C92.2733 102.424 91.4551 103.979 90.6172 105.572L90.4501 105.45C93.4123 102.485 96.4995 99.3944 99.7005 96.19L99.7037 96.1869C99.7277 96.163 99.7612 96.1535 99.7926 96.1582C100.256 96.2308 100.691 96.4031 101.067 96.6882C101.441 96.9739 101.702 97.4143 101.774 97.8807C101.851 98.3471 101.784 98.8225 101.641 99.2587C101.517 99.7055 101.31 100.117 101.1 100.523C100.223 102.133 99.1058 103.606 97.9226 105.051L97.7587 104.891C100.471 102.544 103.243 100.146 106.064 97.7053L106.066 97.7027C106.093 97.6799 106.127 97.6719 106.159 97.6777C106.56 97.7535 106.931 97.8945 107.28 98.0959C107.624 98.2994 107.948 98.566 108.16 98.9201C108.603 99.6281 108.564 100.521 108.321 101.267C108.189 101.642 108.051 102.017 107.838 102.359C107.64 102.707 107.407 103.024 107.182 103.349C106.718 103.987 106.232 104.61 105.738 105.228C103.752 107.694 101.645 110.105 99.5037 112.528C98.7376 113.383 97.9742 114.235 97.2672 115.025L97.1156 114.844C98.4684 114.001 99.8144 113.163 101.152 112.33C102.479 111.471 103.881 110.759 104.979 109.655C105.558 109.138 106.112 108.584 106.804 108.177C106.982 108.083 107.168 107.993 107.377 107.954C107.582 107.897 107.816 107.942 108.006 107.997C108.396 108.124 108.74 108.358 109.01 108.657C109.576 109.258 109.685 110.165 109.471 110.91C109.271 111.673 108.847 112.337 108.382 112.939C107.42 114.129 106.269 115.109 105.121 116.052C103.965 116.989 102.782 117.869 101.596 118.716C100.408 119.563 99.2148 120.376 98.0194 121.157C97.4225 121.549 96.8229 121.931 96.2207 122.302C95.6169 122.678 94.9902 122.997 94.3816 123.335L94.4321 123.277C94.0033 124.333 93.4979 125.338 92.9335 126.282C92.3632 127.22 91.7237 128.096 90.9539 128.791L90.9853 128.742C89.8192 132.347 88.6477 135.831 87.3448 139.115C87.0198 139.936 86.6724 140.739 86.2931 141.52C85.9106 142.304 85.4206 143.019 84.8865 143.679C83.8049 144.991 82.535 146.083 81.1524 146.925L81.1949 146.876C79.3425 151.845 77.6172 156.474 76.0845 160.587C76.0691 160.629 76.0217 160.651 75.9792 160.635C75.9728 160.633 75.9664 160.629 75.9606 160.625C70.2368 156.675 65.3248 153.285 61.4167 150.587C61.3917 150.57 61.3854 150.536 61.4008 150.511C63.7038 146.845 65.4983 143.988 66.7203 142.043C67.331 141.076 67.7981 140.337 68.1157 139.836C68.4306 139.338 68.5998 139.087 68.5998 139.087Z" fill="#6F4439"/>
<path d="M99.1722 103.468C99.1845 103.479 99.0025 103.707 98.6626 104.111C98.3221 104.515 97.8199 105.09 97.1884 105.791C95.9206 107.19 94.1305 109.09 92.0232 111.059C90.3522 112.622 88.7269 113.982 87.3624 115.004L87.3475 115.016L87.3304 115.02C86.0728 115.375 85.1274 115.921 84.5103 116.342C83.8921 116.767 83.5814 117.06 83.5644 117.041C83.558 117.034 83.6293 116.954 83.774 116.814C83.9203 116.676 84.1422 116.479 84.4459 116.252C85.0508 115.8 85.9978 115.218 87.2767 114.835L87.2448 114.851C88.586 113.81 90.1937 112.442 91.8594 110.884C93.9602 108.922 95.7664 107.044 97.0639 105.676C97.6896 105.011 98.2056 104.462 98.5929 104.049C98.9546 103.665 99.16 103.457 99.1722 103.468Z" fill="#6F4439"/>
<path d="M90.98 104.964C91.004 104.985 90.6736 105.405 90.1075 106.057C89.542 106.708 88.736 107.588 87.8253 108.537C86.9358 109.454 86.1319 110.283 85.4802 110.955C84.878 111.571 84.5003 111.948 84.4747 111.926C84.4508 111.905 84.7843 111.487 85.3562 110.84C85.9271 110.193 86.7416 109.322 87.6523 108.373C88.536 107.452 89.3351 106.618 89.9825 105.943C90.5794 105.321 90.9545 104.941 90.98 104.964Z" fill="#6F4439"/>
<path d="M97.3964 114.81C97.4055 114.824 97.2842 114.921 97.0565 115.087C96.8293 115.253 96.492 115.481 96.0675 115.752C95.2195 116.295 94.014 116.994 92.6302 117.666C91.2454 118.336 89.9489 118.85 88.9972 119.179C88.5211 119.345 88.1332 119.468 87.8614 119.544C87.5901 119.62 87.4379 119.655 87.4326 119.64C87.4214 119.606 88.005 119.391 88.9376 119.022C89.8707 118.654 91.1486 118.118 92.5254 117.452C93.9006 116.784 95.1125 116.112 95.9792 115.609C96.8469 115.105 97.3767 114.78 97.3964 114.81Z" fill="#6F4439"/>
<path d="M66.8012 140.922C66.292 141.597 51.1939 164.244 51.1939 164.244C51.1939 164.244 36.9342 186.375 34.8514 192.602C31.8099 201.694 31.1306 217.453 40.9699 221.679C50.8092 225.904 54.2002 226.04 66.0755 221.477C77.9508 216.914 86.6059 209.785 86.6059 209.785L84.2742 168.597L74.6987 173.493L82.9394 151.45L66.8012 140.922Z" fill="#E0E0E0"/>
<path d="M193.637 175.993C193.637 175.993 201.304 182.106 204.08 202.929C205.831 216.076 210.803 247.935 210.803 247.935L181.822 247.999C181.822 247.999 175.998 206.895 176.591 206.273C177.185 205.65 193.637 175.993 193.637 175.993Z" fill="#E0E0E0"/>
<path d="M84.2742 168.597L116.902 164.422C116.902 164.422 123.059 174.244 135.108 172.326C152.023 169.634 151.587 157.748 151.587 157.748C151.587 157.748 179.741 167.378 185.19 169.808C190.64 172.237 193.637 175.993 193.637 175.993C193.637 175.993 183.633 214.666 183.322 215.152C183.011 215.638 181.116 248.365 181.822 247.999C182.125 247.842 89.9926 248.009 88.4647 248.002L85.7042 208.942L76.0473 175.638L84.2742 168.597Z" fill="#E0E0E0"/>
<path d="M78.9749 162.55C78.9824 162.553 78.9371 162.684 78.8446 162.932C78.7419 163.198 78.603 163.558 78.428 164.01C78.0694 164.949 77.5444 166.303 76.9272 167.989C75.6829 171.356 74.0853 176.051 72.3669 181.253C71.5184 183.862 70.6092 186.308 70.1006 188.625C69.8224 189.777 69.566 190.878 69.2771 191.896C68.9967 192.917 68.6605 193.85 68.3264 194.683C67.996 195.517 67.722 196.279 67.4933 196.955C67.2661 197.634 67.0092 198.198 66.7921 198.651C66.574 199.104 66.3974 199.452 66.2739 199.686C66.1511 199.92 66.083 200.041 66.0755 200.038C66.0681 200.034 66.1218 199.906 66.2309 199.665C66.3484 199.405 66.5075 199.055 66.7075 198.612C66.9113 198.154 67.1528 197.591 67.3667 196.913C67.5832 196.233 67.8481 195.462 68.1684 194.623C68.8467 192.96 69.358 190.889 69.8862 188.574C70.3858 186.243 71.2939 183.779 72.1398 181.179C73.8587 175.976 75.4829 171.285 76.7687 167.93C77.4066 166.25 77.9561 164.904 78.3413 163.976C78.5339 163.53 78.6866 163.176 78.7999 162.913C78.9068 162.672 78.9669 162.547 78.9749 162.55Z" fill="#263238"/>
<path d="M86.8618 224.874C86.8554 224.875 86.8432 224.783 86.8251 224.606C86.8076 224.411 86.7836 224.152 86.7538 223.825C86.698 223.122 86.6192 222.129 86.5203 220.885C86.3351 218.347 86.0755 214.787 85.7718 210.615L85.7739 210.631C85.1988 208.038 84.5258 205.198 83.7294 202.246C82.0951 196.129 80.1629 190.711 78.3211 186.994C77.4316 185.119 76.5091 183.712 75.8718 182.745C75.5377 182.272 75.2509 181.924 75.0716 181.676C74.9881 181.562 74.92 181.47 74.8652 181.395C74.8195 181.331 74.7977 181.297 74.8008 181.294C74.804 181.292 74.8317 181.32 74.8838 181.38C74.9434 181.45 75.0174 181.538 75.1089 181.646C75.3004 181.884 75.6004 182.224 75.9478 182.691C76.6107 183.646 77.5603 185.047 78.4722 186.92C80.3597 190.633 82.3233 196.059 83.9598 202.185C84.7578 205.142 85.4254 207.987 85.9899 210.585L85.9915 210.593L85.992 210.601C86.2612 214.776 86.491 218.338 86.6543 220.877C86.7267 222.123 86.7841 223.117 86.8251 223.821C86.8405 224.149 86.8522 224.409 86.8613 224.604C86.8682 224.781 86.8682 224.873 86.8618 224.874Z" fill="#263238"/>
<path d="M181.822 247.999C181.817 247.999 181.8 248.099 181.797 247.999C181.796 247.887 181.793 247.74 181.79 247.556C181.789 247.152 181.787 246.582 181.784 245.855C181.79 244.361 181.798 242.226 181.808 239.594C181.852 234.293 181.912 226.993 181.978 218.923V218.916L181.979 218.909C181.984 218.869 181.99 218.826 181.996 218.783C183.083 210.754 184.067 203.487 184.781 198.209C185.147 195.59 185.445 193.465 185.653 191.978C185.759 191.255 185.843 190.687 185.902 190.286C185.931 190.103 185.954 189.958 185.972 189.846C185.989 189.748 186.001 189.697 186.004 189.697C186.009 189.698 186.005 189.749 185.996 189.849C185.984 189.961 185.969 190.107 185.949 190.292C185.901 190.695 185.832 191.264 185.745 191.99C185.555 193.479 185.283 195.607 184.949 198.23C184.252 203.51 183.293 210.781 182.233 218.813C182.227 218.856 182.221 218.899 182.216 218.939L182.217 218.925C182.123 226.995 182.039 234.294 181.978 239.595C181.936 242.227 181.902 244.362 181.878 245.855C181.861 246.582 181.848 247.153 181.838 247.556C181.831 247.741 181.826 247.887 181.822 247.999C181.826 247.999 181.817 248.099 181.822 247.999Z" fill="#263238"/>
<path d="M130.796 184.273L123.278 247.831L145.276 247.935L135.785 184.273H130.796Z" fill="#C1E833"/>
<g opacity="0.3">
<path d="M33.7607 196.652C33.7607 196.652 47.1108 219.661 69.259 220.164L74.3172 217.178L36.6745 187.405C36.6745 187.405 34.4486 193.121 33.7607 196.652Z" fill="black"/>
</g>
<path d="M113.655 164.576L116.536 159.453C116.536 159.453 133.126 172.024 132.899 172.287C132.899 172.287 150.33 153.44 150.607 153.159L154.467 158.864C154.467 158.864 139.064 178.625 138.857 178.8C138.605 179.012 129.16 177.091 129.16 177.091L121.131 173.319L113.655 164.576Z" fill="#E0E0E0"/>
<path d="M128.28 179.998L131.059 185.455H136.047L138.01 179.15L134.324 174.83H132.145L128.28 179.998Z" fill="#C1E833"/>
<path d="M133.145 173.469C133.151 173.473 133.12 173.526 133.055 173.624C132.975 173.739 132.878 173.879 132.761 174.049C132.478 174.441 132.097 174.97 131.625 175.624C130.618 176.991 129.228 178.876 127.603 181.08L127.517 181.197L127.418 181.089C126.263 179.841 124.999 178.474 123.675 177.043C120.89 174.001 118.399 171.22 116.639 169.168C115.757 168.145 115.062 167.3 114.593 166.707C114.354 166.414 114.186 166.172 114.068 166.012C113.951 165.851 113.894 165.764 113.901 165.758C113.908 165.753 113.979 165.829 114.109 165.98C114.241 166.129 114.421 166.36 114.671 166.643C115.163 167.215 115.878 168.041 116.778 169.048C118.571 171.066 121.083 173.827 123.867 176.867C125.186 178.303 126.445 179.673 127.595 180.925L127.409 180.935C129.064 178.754 130.48 176.888 131.506 175.536C132.001 174.899 132.4 174.384 132.697 174.001C132.827 173.84 132.934 173.708 133.022 173.599C133.098 173.509 133.139 173.465 133.145 173.469Z" fill="#263238"/>
<path d="M154.713 160.046C154.9 160.12 153.814 161.788 151.931 164.313C150.048 166.849 147.371 170.295 144.374 174.068C142.5 176.427 140.723 178.635 139.19 180.52L139.102 180.628L139.013 180.523C137.262 178.44 135.791 176.691 134.737 175.438C134.239 174.834 133.841 174.351 133.548 173.996C133.425 173.84 133.324 173.713 133.241 173.609C133.173 173.52 133.141 173.473 133.145 173.469C133.15 173.465 133.192 173.505 133.269 173.586C133.359 173.684 133.469 173.804 133.603 173.95C133.908 174.295 134.322 174.765 134.84 175.351C135.912 176.59 137.408 178.318 139.188 180.375L139.012 180.377C140.53 178.473 142.295 176.26 144.171 173.907C147.167 170.135 149.866 166.708 151.784 164.202C153.706 161.704 154.833 160.092 154.713 160.046Z" fill="#263238"/>
<path d="M130.679 185.075C130.647 185.062 130.835 184.518 131.188 183.659C131.541 182.799 132.066 181.626 132.709 180.361C133.353 179.096 133.991 177.98 134.477 177.187C134.964 176.395 135.293 175.922 135.322 175.94C135.354 175.959 135.081 176.465 134.636 177.279C134.192 178.093 133.582 179.218 132.94 180.478C132.3 181.738 131.751 182.894 131.356 183.733C130.961 184.571 130.713 185.09 130.679 185.075Z" fill="#263238"/>
<path d="M135.928 185.368C135.928 185.439 134.768 185.497 133.337 185.497C131.905 185.497 130.745 185.439 130.745 185.368C130.745 185.296 131.905 185.238 133.337 185.238C134.768 185.238 135.928 185.296 135.928 185.368Z" fill="#263238"/>
<g opacity="0.3">
<path d="M115.576 167.802L128.262 183.169L134.307 174.727L133.145 173.469L127.507 181.008L115.576 167.802Z" fill="black"/>
</g>
<g opacity="0.3">
<path d="M134.307 174.727C134.957 175.592 137.996 183.972 139.147 184.079C140.299 184.186 153.669 161.793 153.669 161.793L139.101 180.448L134.307 174.727Z" fill="black"/>
</g>
<g opacity="0.3">
<path d="M66.2303 199.665L64.9099 202.97C64.9099 202.97 70.0453 203.478 71.8057 193.539C73.5666 183.599 73.6081 177.523 73.6081 177.523L66.2303 199.665Z" fill="black"/>
</g>
<g opacity="0.3">
<path d="M183.895 248.007L182.944 213.421L182.215 218.909L181.804 247.966L183.895 248.007Z" fill="black"/>
</g>
<g opacity="0.3">
<path d="M104.033 167.283C104.033 167.283 112.705 174.875 127.618 174.83C142.531 174.785 151.72 170.496 161.332 162.212L155.885 160.324C155.885 160.324 147.118 166.273 133.337 166.534C119.556 166.795 111.101 166.067 111.101 166.067L104.033 167.283Z" fill="black"/>
</g>
<path opacity="0.3" d="M123.638 248.043C123.638 248.043 127.439 242.059 133.624 238.925C140.092 235.649 143.526 235.734 143.526 235.734L142.782 230.745L133.624 230.989L125.464 237.348L124.347 241.482L123.638 248.043Z" fill="black"/>
<g opacity="0.3">
<path d="M88.4844 246.767C88.4844 246.767 91.9317 241.673 98.8536 235.783C105.775 229.893 142.979 208.055 142.979 208.055L197.003 179.772L193.902 175.94L107.995 217.484L87.132 235.643L88.4844 246.767Z" fill="black"/>
</g>
<path d="M87.6114 247.839L78.6046 247.838C79.2377 235.218 85.5935 226.101 99.9352 216.214C113.114 207.129 133.544 196.982 161.819 182.938C172.176 177.793 183.915 171.963 196.772 165.453C204.406 161.588 211.111 156.126 216.165 149.657L223.261 155.159C217.401 162.66 209.65 168.981 200.846 173.439C187.957 179.965 176.202 185.803 165.831 190.955C111.155 218.112 88.5493 228.922 87.6114 247.839Z" fill="#455A64"/>
<path d="M85.095 220.873C62.2488 220.874 41.0661 205.53 34.2927 190.919C32.3249 186.675 29.0467 178.433 29.1962 170.921C29.3153 164.949 31.6072 156.389 37.6725 151.918C40.549 149.798 44.5864 148.284 48.7504 147.763C53.458 147.176 57.7571 147.923 60.8597 149.87L55.2689 158.714C52.9984 157.289 46.8426 158.161 43.9113 160.321C41.5907 162.031 39.7734 166.677 39.6845 171.129C39.6058 175.087 41.1119 180.703 43.8161 186.538C46.4851 192.294 52.4903 198.42 59.8803 202.924C68.2077 207.999 77.5773 210.666 86.2532 210.405L86.5569 220.852C86.0702 220.866 85.5807 220.873 85.095 220.873Z" fill="#C1E833"/>
<g opacity="0.3">
<path d="M53.116 158.077L56.1707 148.016C56.1707 148.016 59.6346 148.92 60.7299 149.898L55.1961 158.588" fill="black"/>
</g>
<g opacity="0.3">
<path d="M78.6924 171.534C78.9084 171.423 111.683 197.944 135.674 204.046C159.666 210.147 179.506 211.209 187.228 209.617C194.951 208.025 204.673 205.294 204.673 205.294L203.541 197.899C203.541 197.899 175.378 200.066 157.003 198.872C138.628 197.678 94.2875 171.533 94.2875 171.533L85.4813 167.323L78.6924 171.534Z" fill="black"/>
</g>
<path d="M173.161 207.223C164.761 207.223 156.841 206.113 150.159 204.698C135.927 201.685 120.137 193.38 109.499 187.395C106.829 185.893 103.943 184.227 100.674 182.303C98.4669 181.004 96.3309 179.732 94.2859 178.514C86.8661 174.096 80.3081 170.34 76.6043 168.872C77.7444 165.366 78.9292 162.021 80.1671 158.868C84.6524 160.645 91.5386 164.703 99.6681 169.543C101.699 170.753 103.82 172.016 106.012 173.306C109.221 175.194 112.049 176.827 114.658 178.295C124.695 183.941 139.52 191.761 152.34 194.476C166.701 197.515 187.382 199.06 204.353 189.156C212.281 184.528 218.681 178.093 222.374 171.036C226.594 162.973 227.376 154.295 224.699 145.243C220.737 131.844 207.022 124.417 190.569 126.766C180.308 128.231 171.403 132.341 163.546 135.969C157.621 138.704 152.504 141.067 147.664 141.919L145.838 131.628C149.332 131.012 153.875 128.915 159.136 126.486C167.226 122.752 177.294 118.103 189.081 116.421C199.744 114.9 209.76 116.599 218.048 121.334C226.209 125.996 232.145 133.438 234.763 142.29C238.184 153.861 237.117 165.472 231.676 175.868C227.017 184.772 219.402 192.485 209.656 198.174C197.993 204.979 185.095 207.223 173.161 207.223Z" fill="#C1E833"/>
<g opacity="0.3">
<path d="M190.069 116.361C191.392 120.3 190.611 126.929 190.611 126.929L188.249 127.153C188.445 123.598 188.151 120.12 187.294 116.728L190.069 116.361Z" fill="black"/>
</g>
<g opacity="0.3">
<path d="M202.416 116.242C202.416 116.242 203.217 120.917 202.416 126.828L200.074 126.403V115.959L202.416 116.242Z" fill="black"/>
</g>
<g opacity="0.3">
<path d="M226.085 151.838L226.229 155.113C226.229 155.113 232.807 149.041 233.927 140.006C233.228 138.036 232.626 136.642 231.822 135.267L226.085 151.838Z" fill="black"/>
</g>
<g opacity="0.3">
<path d="M149.631 130.541C149.631 130.715 151.276 140.943 151.276 140.943C150.221 141.357 148.888 141.688 147.444 141.987L145.802 131.555C147.199 131.416 148.473 131.023 149.631 130.541Z" fill="black"/>
</g>
<path d="M128.156 172.141C122.754 172.141 117.51 171.242 112.951 169.472C111.051 168.735 108.394 167.569 105.581 166.336C103.203 165.292 100.743 164.213 98.3987 163.238C95.087 161.86 90.7454 162.041 89.833 163.783L81.8727 159.6C85.3908 152.881 94.9232 152.083 101.865 154.972C104.288 155.981 106.787 157.077 109.204 158.137C111.925 159.331 114.497 160.458 116.215 161.126C122.093 163.407 129.872 163.807 137.021 162.198C146.176 160.138 157.682 152.959 163.785 145.5C170.266 137.581 172.399 128.369 169.638 120.224C167.031 112.531 154.037 107.392 146.946 108.107L146.037 99.1951C156.28 98.1574 173.875 104.719 178.158 117.359C181.929 128.484 179.23 140.804 170.755 151.161C163.415 160.13 150.062 168.447 139.003 170.936C135.421 171.742 131.753 172.141 128.156 172.141Z" fill="#455A64"/>
<path d="M114.598 247.838C114.59 241.739 118.274 235.147 124.453 230.204C139.692 218.017 161.973 220.639 173.898 223.287L171.942 232.031C147.829 226.678 135.365 232.964 130.083 237.19C125.284 241.027 123.586 245.318 123.59 247.826L114.598 247.838Z" fill="#455A64"/>
<path d="M167.27 234.449L180.526 229.53L171.155 218.922L167.27 234.449Z" fill="#455A64"/>
<g opacity="0.3">
<path d="M150.706 99.1676L149.946 108.079H147.02L146.17 99.1231C147.888 98.9445 149.438 98.9238 150.706 99.1676Z" fill="black"/>
</g>
<g opacity="0.3">
<path d="M83.2011 157.637C83.2011 157.637 90.8087 162.918 90.706 162.952C90.6028 162.986 90.2043 163.162 89.8335 163.782L81.8732 159.599C81.8732 159.599 82.5744 158.34 83.2011 157.637Z" fill="black"/>
</g>
<path d="M157.268 61.571L146.55 76.3972L163.697 81.8456L157.268 61.571Z" fill="#455A64"/>
<path d="M209.342 168.431L205.745 160.221L205.689 160.245C205.752 160.216 212.006 157.201 218.228 146.509C224.5 135.732 224.445 119.345 224.433 118.253C223.388 97.9905 214.375 83.9291 197.646 76.4555L197.364 76.3305C186.001 71.2997 172.847 71.1439 161.273 75.9022L157.35 77.515L153.92 69.2338L157.843 67.621C171.681 61.933 187.416 62.1238 201.012 68.143L201.317 68.2792C221.127 77.1286 232.224 94.28 233.417 117.882L233.422 118.014C233.438 118.812 233.743 137.711 226.006 151.004C218.297 164.251 210.235 168.042 209.342 168.431Z" fill="#455A64"/>
<path d="M185.705 170.101L176.021 166.31C177.235 162.976 178.569 160.223 180.169 157.069C182.16 153.143 184.219 149.082 185.855 143.962C191.778 125.416 190.979 115.195 187.273 101.75L197.389 98.9821C201.547 114.067 202.535 126.208 195.852 147.132C193.962 153.049 191.609 157.689 189.533 161.783C188.078 164.649 186.705 167.357 185.705 170.101Z" fill="#C1E833"/>
<path d="M201.592 99.4183L188.319 86.7163L181.131 103.65L201.592 99.4183Z" fill="#C1E833"/>
<g opacity="0.3">
<path d="M176.021 166.303L176.915 164.106L186.645 167.565L185.705 170.101L176.021 166.303Z" fill="black"/>
</g>
<path d="M203.807 77.6903C218.284 76.0382 228.676 63.0065 227.018 48.5833C225.36 34.1601 212.279 23.8071 197.801 25.4592C183.324 27.1113 172.931 40.1429 174.59 54.5661C176.248 68.9893 189.329 79.3424 203.807 77.6903Z" fill="white"/>
<path d="M174.417 51.5847C174.426 51.5847 174.442 51.4405 174.466 51.1591C174.487 50.8543 174.517 50.4409 174.555 49.9125C174.573 49.6364 174.592 49.3306 174.614 48.9946C174.651 48.6585 174.725 48.2944 174.785 47.8985C174.914 47.1067 175.035 46.1887 175.341 45.1908C175.811 43.1646 176.768 40.7711 178.273 38.235C179.79 35.7101 181.976 33.0728 184.951 30.8357C187.916 28.6198 191.657 26.7351 195.973 25.9751C200.261 25.2421 205.1 25.3756 209.709 27.1204C210.882 27.4946 211.984 28.0728 213.118 28.6145C214.191 29.2611 215.322 29.8573 216.322 30.6672C217.384 31.3938 218.313 32.3033 219.286 33.1783C220.164 34.1477 221.088 35.0964 221.846 36.1967C223.401 38.3485 224.758 40.7388 225.58 43.3681C226.431 45.981 226.89 48.7561 226.928 51.5799C226.891 54.4048 226.433 57.1809 225.582 59.7944C224.761 62.4242 223.403 64.8156 221.848 66.9679C221.09 68.0682 220.167 69.0174 219.288 69.9873C218.315 70.8629 217.386 71.7724 216.323 72.4995C215.324 73.3094 214.193 73.9056 213.119 74.5528C211.985 75.0944 210.883 75.6726 209.71 76.0474C205.1 77.7926 200.26 77.9257 195.972 77.1927C191.655 76.4321 187.915 74.5475 184.95 72.3315C181.975 70.0944 179.789 67.4571 178.272 64.9322C176.767 62.3961 175.81 60.0032 175.341 57.977C175.035 56.979 174.914 56.0611 174.785 55.2698C174.725 54.8739 174.651 54.5097 174.614 54.1737C174.592 53.8382 174.573 53.5324 174.555 53.2563C174.517 52.7279 174.487 52.3145 174.466 52.0097C174.443 51.7288 174.426 51.5847 174.417 51.5847C174.408 51.5847 174.407 51.7288 174.412 52.0108C174.421 52.3171 174.433 52.7321 174.449 53.2632C174.459 53.5414 174.471 53.8494 174.483 54.187C174.512 54.5256 174.577 54.8924 174.631 55.292C174.743 56.0907 174.85 57.0172 175.143 58.0268C175.586 60.0758 176.522 62.5032 178.021 65.0817C179.531 67.649 181.723 70.3371 184.725 72.6246C187.717 74.8909 191.506 76.8254 195.891 77.6172C200.246 78.382 205.172 78.2628 209.872 76.4984C211.068 76.1194 212.193 75.5348 213.349 74.9842C214.445 74.3286 215.598 73.7217 216.619 72.8997C217.702 72.1603 218.651 71.2365 219.644 70.3446C220.542 69.3588 221.484 68.3915 222.258 67.2711C223.847 65.079 225.233 62.6405 226.073 59.9587C226.944 57.2933 227.411 54.461 227.449 51.581C227.411 48.7015 226.942 45.8702 226.071 43.2059C225.231 40.5252 223.845 38.0877 222.256 35.8961C221.482 34.7757 220.54 33.8095 219.642 32.8237C218.65 31.9323 217.701 31.0085 216.617 30.2697C215.597 29.4476 214.444 28.8408 213.348 28.1857C212.192 27.635 211.067 27.051 209.872 26.672C205.172 24.9082 200.247 24.7884 195.893 25.5532C191.507 26.3445 187.718 28.279 184.725 30.5453C181.723 32.8327 179.53 35.5204 178.02 38.0882C176.522 40.6667 175.585 43.0941 175.142 45.1431C174.849 46.1527 174.742 47.0797 174.63 47.8784C174.577 48.278 174.511 48.6448 174.482 48.9834C174.47 49.321 174.458 49.629 174.448 49.9072C174.432 50.4383 174.42 50.8533 174.411 51.1596C174.407 51.44 174.409 51.5847 174.417 51.5847Z" fill="#263238"/>
<path d="M194.169 45.0996H197.704C197.704 45.0996 197.704 42.1433 200.788 42.0897C202.39 42.0622 203.22 43.1073 203.558 43.9082C203.95 44.8383 203.831 45.8978 203.306 46.7601C202.706 47.7448 201.393 48.64 199.011 48.2218V56.1618H202.506V51.511C202.506 51.511 207.408 50.2486 207.408 44.8669C207.408 39.718 202.773 38.5218 200.789 38.5218C199.272 38.5223 194.103 38.8875 194.169 45.0996Z" fill="#263238"/>
<path d="M202.548 57.7979H199.002V61.0982H202.548V57.7979Z" fill="#263238"/>
<path d="M182.673 82.3833C184.149 80.7535 184.019 78.2402 182.383 76.7698C180.747 75.2993 178.225 75.4285 176.749 77.0583C175.273 78.6881 175.402 81.2014 177.038 82.6718C178.674 84.1423 181.197 84.0131 182.673 82.3833Z" fill="white"/>
<path d="M175.716 79.7256C175.767 79.7272 175.771 79.3721 175.947 78.7816C176.122 78.2023 176.533 77.3623 177.412 76.7242C178.263 76.0839 179.646 75.7352 180.976 76.236C182.295 76.6966 183.427 78.0953 183.413 79.725C183.428 81.3553 182.295 82.754 180.976 83.2151C179.646 83.7159 178.263 83.3672 177.412 82.727C176.533 82.0888 176.122 81.2488 175.947 80.6695C175.771 80.0796 175.767 79.724 175.716 79.7256C175.69 79.7229 175.615 80.0812 175.734 80.7225C175.852 81.35 176.231 82.2934 177.17 83.0428C178.076 83.7928 179.625 84.2449 181.153 83.7022C182.668 83.2087 183.996 81.606 183.978 79.7245C183.995 77.8441 182.668 76.2419 181.153 75.7484C179.626 75.2057 178.077 75.6578 177.171 76.4078C176.232 77.1572 175.852 78.1006 175.734 78.7281C175.615 79.3699 175.69 79.7282 175.716 79.7256Z" fill="#263238"/>
<path d="M73.4955 78.5338C74.7335 70.9976 69.6046 63.8885 62.04 62.6553C54.4753 61.422 47.3394 66.5316 46.1015 74.0678C44.8636 81.604 49.9925 88.7131 57.5571 89.9463C65.1218 91.1796 72.2576 86.07 73.4955 78.5338Z" fill="white"/>
<path d="M73.675 76.3018C73.6703 76.3018 73.6617 76.226 73.6495 76.0781C73.6378 75.9181 73.6224 75.7002 73.6027 75.4225C73.5931 75.2773 73.583 75.1162 73.5718 74.9397C73.5527 74.7632 73.5138 74.5713 73.4819 74.363C73.4144 73.9465 73.3505 73.4636 73.1893 72.9389C72.9425 71.8731 72.4392 70.6143 71.6476 69.2803C70.8496 67.9522 69.6994 66.5651 68.1348 65.3885C66.575 64.2231 64.6076 63.232 62.3371 62.8318C60.0819 62.446 57.5363 62.5165 55.1125 63.4344C54.4954 63.6316 53.9155 63.9353 53.3197 64.2204C52.7552 64.5607 52.1599 64.8744 51.6343 65.3C51.0757 65.6822 50.5873 66.1608 50.0755 66.6208C49.6132 67.1307 49.1275 67.6299 48.729 68.2081C47.9113 69.3397 47.1969 70.5974 46.7649 71.9802C46.3169 73.3544 46.0759 74.8141 46.0557 76.2997C46.0754 77.7852 46.3159 79.2459 46.7638 80.6207C47.1958 82.004 47.9103 83.2617 48.728 84.3938C49.1264 84.9726 49.6121 85.4718 50.0745 85.9817C50.5862 86.4423 51.0746 86.9203 51.6337 87.303C52.1594 87.7291 52.7547 88.0429 53.3191 88.3831C53.9155 88.6683 54.4954 88.9725 55.1125 89.1691C57.5368 90.0871 60.083 90.157 62.3381 89.7712C64.6087 89.371 66.5766 88.3799 68.1359 87.2145C69.7005 86.0379 70.8501 84.6509 71.6481 83.3222C72.4397 81.9881 72.943 80.7294 73.1899 79.6641C73.3511 79.1394 73.4149 78.6566 73.4825 78.24C73.5144 78.0317 73.5532 77.8404 73.5724 77.6633C73.5835 77.4869 73.5942 77.3257 73.6032 77.1805C73.6234 76.9028 73.6389 76.685 73.65 76.5249C73.6617 76.3776 73.6703 76.3018 73.675 76.3018C73.6798 76.3018 73.6804 76.3776 73.6777 76.526C73.6729 76.6871 73.6665 76.9054 73.658 77.1848C73.6527 77.331 73.6468 77.4932 73.6399 77.6708C73.625 77.8489 73.5905 78.0418 73.5623 78.2522C73.5032 78.6719 73.4468 79.1595 73.2925 79.6906C73.0601 80.7686 72.5674 82.0449 71.7795 83.4011C70.9852 84.7516 69.8319 86.1651 68.2529 87.3687C66.6792 88.5607 64.6858 89.5783 62.3791 89.9949C60.0883 90.3971 57.498 90.3346 55.0252 89.4066C54.3964 89.2073 53.8048 88.8999 53.1968 88.61C52.6201 88.2655 52.0136 87.9459 51.4768 87.5134C50.907 87.1244 50.4075 86.6384 49.8856 86.1693C49.4132 85.651 48.9179 85.1422 48.5104 84.5528C47.6746 83.3995 46.9458 82.1175 46.5037 80.7066C46.0456 79.3048 45.7998 77.8149 45.7802 76.2997C45.7998 74.7849 46.0467 73.2961 46.5047 71.8943C46.9468 70.484 47.6757 69.2019 48.5114 68.0491C48.9189 67.4598 49.4142 66.9515 49.8867 66.4332C50.4086 65.9641 50.9076 65.4786 51.4779 65.0896C52.0147 64.6571 52.6211 64.3381 53.1973 63.9936C53.8048 63.7042 54.397 63.3968 55.0258 63.1975C57.498 62.27 60.0883 62.207 62.3786 62.6092C64.6853 63.0258 66.6782 64.0429 68.2524 65.2348C69.8313 66.4379 70.9847 67.852 71.779 69.2024C72.5669 70.5587 73.0595 71.8355 73.2925 72.9135C73.4468 73.4445 73.5032 73.9321 73.5623 74.3524C73.5899 74.5623 73.6245 74.7558 73.6399 74.9339C73.6463 75.1114 73.6527 75.2736 73.658 75.4199C73.6665 75.6992 73.6729 75.9175 73.6777 76.0786C73.6804 76.226 73.6798 76.3018 73.675 76.3018Z" fill="#263238"/>
<path d="M55.5567 73.6518H57.8247C57.8247 73.6518 57.8247 71.7549 59.8037 71.7205C60.8315 71.703 61.3646 72.3734 61.5811 72.8875C61.8327 73.4843 61.7561 74.1643 61.4194 74.7176C61.0347 75.3494 60.1915 75.9239 58.6631 75.6557V80.7506H60.9055V77.7662C60.9055 77.7662 64.0507 76.9563 64.0507 73.5029C64.0507 70.1988 61.0768 69.4314 59.8032 69.4314C58.8307 69.4314 55.5142 69.6657 55.5567 73.6518Z" fill="#263238"/>
<path d="M60.9331 81.8H58.6572V83.9179H60.9331V81.8Z" fill="#263238"/>
<path d="M79.8409 82.8589C79.8409 84.1426 78.7961 85.1835 77.5075 85.1835C76.219 85.1835 75.1742 84.1426 75.1742 82.8589C75.1742 81.5753 76.219 80.5344 77.5075 80.5344C78.7966 80.5344 79.8409 81.5747 79.8409 82.8589Z" fill="white"/>
<path d="M79.8409 82.8589C79.8111 82.86 79.809 82.6522 79.7053 82.3067C79.6031 81.968 79.3627 81.4767 78.8482 81.1036C78.3508 80.7288 77.5416 80.5248 76.7644 80.8179C75.993 81.0871 75.3306 81.9049 75.3391 82.8584C75.3306 83.8119 75.993 84.6302 76.7644 84.8994C77.5422 85.1925 78.3508 84.9885 78.8482 84.6137C79.3627 84.2406 79.6031 83.7493 79.7053 83.4106C79.809 83.0656 79.8111 82.8579 79.8409 82.8589C79.8558 82.8573 79.8995 83.0667 79.8303 83.4419C79.7617 83.8092 79.5393 84.3609 78.9903 84.7993C78.4604 85.2376 77.5549 85.502 76.6606 85.1851C75.7749 84.8968 74.9981 83.9592 75.0088 82.8589C74.9981 81.7592 75.7749 80.8221 76.6606 80.5333C77.5544 80.2158 78.4599 80.4803 78.9897 80.9186C79.5388 81.3569 79.7611 81.9086 79.8298 82.2759C79.9 82.6506 79.8564 82.86 79.8409 82.8589Z" fill="#263238"/>
<path d="M223.351 217.397C233.689 217.397 242.07 209.048 242.07 198.748C242.07 188.449 233.689 180.1 223.351 180.1C213.012 180.1 204.632 188.449 204.632 198.748C204.632 209.048 213.012 217.397 223.351 217.397Z" fill="white"/>
<path d="M242.07 198.748C242.063 198.748 242.051 198.646 242.036 198.447C242.02 198.23 241.999 197.937 241.972 197.562C241.959 197.366 241.946 197.149 241.93 196.911C241.904 196.673 241.852 196.415 241.809 196.134C241.718 195.572 241.632 194.921 241.414 194.213C241.082 192.776 240.402 191.078 239.335 189.279C238.258 187.487 236.707 185.616 234.597 184.03C232.493 182.458 229.839 181.12 226.777 180.581C223.735 180.061 220.302 180.156 217.032 181.394C216.2 181.659 215.418 182.07 214.614 182.454C213.852 182.913 213.049 183.336 212.34 183.91C211.586 184.426 210.928 185.071 210.238 185.692C209.614 186.38 208.959 187.053 208.422 187.833C207.318 189.359 206.355 191.055 205.772 192.92C205.168 194.774 204.843 196.743 204.816 198.746C204.842 200.75 205.167 202.719 205.771 204.574C206.353 206.44 207.317 208.136 208.42 209.663C208.957 210.444 209.613 211.117 210.236 211.805C210.926 212.426 211.585 213.071 212.339 213.587C213.048 214.161 213.851 214.584 214.613 215.043C215.417 215.427 216.199 215.838 217.031 216.103C220.301 217.341 223.735 217.435 226.777 216.916C229.839 216.376 232.493 215.039 234.597 213.467C236.707 211.879 238.258 210.009 239.334 208.217C240.402 206.418 241.081 204.72 241.413 203.283C241.63 202.575 241.716 201.924 241.807 201.362C241.85 201.081 241.903 200.823 241.929 200.585C241.944 200.347 241.958 200.129 241.971 199.934C241.998 199.559 242.018 199.265 242.034 199.05C242.051 198.85 242.063 198.748 242.07 198.748C242.076 198.748 242.077 198.851 242.073 199.05C242.067 199.268 242.058 199.562 242.047 199.939C242.039 200.136 242.031 200.354 242.022 200.594C242.002 200.834 241.955 201.094 241.918 201.378C241.838 201.944 241.762 202.601 241.554 203.318C241.24 204.772 240.576 206.494 239.513 208.323C238.441 210.144 236.886 212.051 234.756 213.674C232.633 215.282 229.945 216.654 226.834 217.216C223.744 217.759 220.25 217.674 216.915 216.423C216.067 216.154 215.268 215.739 214.449 215.348C213.671 214.884 212.853 214.453 212.129 213.87C211.36 213.345 210.687 212.69 209.983 212.057C209.346 211.357 208.678 210.672 208.128 209.877C207.001 208.322 206.018 206.592 205.422 204.689C204.804 202.798 204.473 200.789 204.446 198.746C204.473 196.702 204.805 194.694 205.423 192.804C206.019 190.902 207.002 189.173 208.129 187.618C208.679 186.823 209.347 186.137 209.984 185.438C210.687 184.805 211.361 184.15 212.13 183.626C212.854 183.043 213.672 182.612 214.449 182.147C215.269 181.756 216.068 181.342 216.915 181.073C220.25 179.822 223.743 179.737 226.833 180.279C229.944 180.841 232.632 182.213 234.755 183.821C236.885 185.444 238.44 187.351 239.512 189.172C240.575 191.001 241.24 192.723 241.554 194.177C241.762 194.893 241.838 195.551 241.917 196.117C241.955 196.401 242.001 196.661 242.022 196.901C242.031 197.141 242.039 197.36 242.046 197.557C242.057 197.934 242.066 198.228 242.073 198.446C242.077 198.646 242.076 198.748 242.07 198.748Z" fill="#263238"/>
<path d="M218.295 194.516H221C221 194.516 221 192.253 223.361 192.212C224.587 192.191 225.222 192.991 225.481 193.604C225.781 194.316 225.69 195.127 225.288 195.787C224.829 196.541 223.824 197.226 222 196.906V202.983H224.675V199.423C224.675 199.423 228.427 198.457 228.427 194.338C228.427 190.396 224.88 189.481 223.361 189.481C222.2 189.481 218.244 189.761 218.295 194.516Z" fill="#263238"/>
<path d="M224.708 204.235H221.993V206.761H224.708V204.235Z" fill="#263238"/>
<path d="M203.508 178.111C203.508 179.819 204.898 181.204 206.613 181.204C208.328 181.204 209.718 179.819 209.718 178.111C209.718 176.402 208.328 175.017 206.613 175.017C204.898 175.018 203.508 176.402 203.508 178.111Z" fill="white"/>
<path d="M203.508 178.111C203.548 178.112 203.551 177.835 203.688 177.376C203.824 176.925 204.144 176.271 204.829 175.775C205.49 175.277 206.567 175.005 207.601 175.395C208.628 175.753 209.509 176.842 209.498 178.109C209.51 179.378 208.628 180.467 207.601 180.825C206.567 181.215 205.49 180.943 204.829 180.445C204.144 179.949 203.824 179.295 203.688 178.844C203.551 178.386 203.548 178.11 203.508 178.111C203.488 178.108 203.43 178.387 203.522 178.886C203.614 179.375 203.91 180.109 204.64 180.692C205.345 181.276 206.55 181.628 207.74 181.205C208.918 180.821 209.952 179.574 209.937 178.11C209.951 176.647 208.918 175.4 207.74 175.016C206.551 174.593 205.346 174.945 204.64 175.529C203.91 176.112 203.614 176.847 203.522 177.335C203.43 177.834 203.488 178.113 203.508 178.111Z" fill="#263238"/>
<path d="M53.915 231.495C56.0005 224.679 52.1455 217.47 45.3046 215.392C38.4636 213.315 31.2273 217.155 29.1417 223.97C27.0562 230.786 30.9112 237.995 37.7522 240.073C44.5931 242.15 51.8294 238.31 53.915 231.495Z" fill="white"/>
<path d="M54.488 227.732C54.4837 227.732 54.4757 227.661 54.4646 227.523C54.4539 227.374 54.4396 227.171 54.4209 226.911C54.4124 226.775 54.4023 226.625 54.3922 226.46C54.3741 226.295 54.338 226.117 54.3082 225.922C54.2454 225.534 54.1853 225.083 54.0352 224.594C53.8049 223.599 53.3351 222.424 52.5967 221.18C51.8519 219.941 50.7789 218.647 49.3191 217.548C47.864 216.461 46.0281 215.536 43.9092 215.163C41.8051 214.803 39.4297 214.869 37.1677 215.725C36.592 215.909 36.051 216.193 35.4945 216.459C34.9673 216.776 34.4124 217.069 33.9219 217.466C33.4006 217.823 32.9446 218.269 32.4674 218.698C32.036 219.174 31.5827 219.64 31.2109 220.18C30.4474 221.236 29.7814 222.409 29.3781 223.7C28.96 224.982 28.7349 226.344 28.7163 227.73C28.7349 229.116 28.9594 230.479 29.3771 231.761C29.7798 233.052 30.4469 234.226 31.2098 235.282C31.5817 235.822 32.0349 236.288 32.4664 236.764C32.9441 237.194 33.4 237.64 33.9214 237.997C34.4119 238.394 34.9673 238.687 35.494 239.004C36.0505 239.27 36.5915 239.554 37.1671 239.738C39.4292 240.594 41.8051 240.66 43.9092 240.3C46.0281 239.927 47.864 239.002 49.3191 237.914C50.7789 236.816 51.8519 235.522 52.5962 234.283C53.3346 233.038 53.8044 231.864 54.0347 230.869C54.1853 230.379 54.2449 229.929 54.3076 229.54C54.3374 229.346 54.3736 229.167 54.3917 229.002C54.4023 228.837 54.4119 228.687 54.4204 228.552C54.439 228.293 54.4534 228.09 54.464 227.94C54.4752 227.803 54.4832 227.732 54.488 227.732C54.4928 227.732 54.4933 227.803 54.4906 227.941C54.4864 228.092 54.48 228.295 54.472 228.556C54.4672 228.693 54.4614 228.844 54.455 229.009C54.4412 229.175 54.4087 229.355 54.3826 229.551C54.3273 229.943 54.2746 230.398 54.131 230.894C53.914 231.9 53.4543 233.091 52.7191 234.356C51.978 235.616 50.9018 236.936 49.4287 238.058C47.9603 239.171 46.1005 240.12 43.948 240.509C41.8104 240.884 39.393 240.826 37.0863 239.96C36.4995 239.774 35.9472 239.487 35.3801 239.217C34.8423 238.895 34.2762 238.597 33.7751 238.193C33.2431 237.83 32.7771 237.377 32.2903 236.939C31.8493 236.456 31.3869 235.981 31.0071 235.431C30.2277 234.355 29.5473 233.158 29.1345 231.842C28.7073 230.534 28.478 229.144 28.4594 227.731C28.478 226.317 28.7078 224.928 29.1355 223.62C29.5484 222.305 30.2283 221.108 31.0082 220.032C31.388 219.483 31.8503 219.008 32.2913 218.525C32.7781 218.087 33.2442 217.634 33.7762 217.271C34.2768 216.868 34.8428 216.57 35.3807 216.248C35.9478 215.978 36.5 215.691 37.0868 215.505C39.3935 214.64 41.8104 214.581 43.948 214.956C46.1005 215.345 47.9603 216.294 49.4287 217.406C50.9018 218.529 51.9785 219.848 52.7196 221.108C53.4548 222.374 53.9145 223.565 54.1321 224.571C54.2757 225.066 54.3284 225.521 54.3837 225.913C54.4098 226.109 54.4417 226.29 54.4561 226.456C54.4624 226.621 54.4678 226.772 54.4731 226.909C54.4811 227.169 54.4869 227.373 54.4917 227.523C54.4928 227.661 54.4922 227.732 54.488 227.732Z" fill="#263238"/>
<path d="M38.0401 224.804H39.9117C39.9117 224.804 39.9117 223.238 41.5449 223.21C42.393 223.195 42.8329 223.749 43.0117 224.173C43.2192 224.665 43.1564 225.226 42.8787 225.683C42.5611 226.204 41.8657 226.678 40.6044 226.457V230.661H42.4552V228.198C42.4552 228.198 45.0508 227.529 45.0508 224.68C45.0508 221.953 42.5967 221.32 41.546 221.32C40.7416 221.321 38.005 221.514 38.0401 224.804Z" fill="#263238"/>
<path d="M42.4765 231.528H40.5985V233.275H42.4765V231.528Z" fill="#263238"/>
<path d="M50.0341 211.332C50.0341 212.979 51.3742 214.314 53.0276 214.314C54.6811 214.314 56.0207 212.979 56.0207 211.332C56.0207 209.685 54.6805 208.35 53.0276 208.35C51.3747 208.35 50.0341 209.685 50.0341 211.332Z" fill="white"/>
<path d="M50.034 211.332C50.0724 211.334 50.075 211.066 50.2075 210.624C50.3384 210.189 50.6469 209.559 51.3071 209.08C51.945 208.6 52.9829 208.338 53.9804 208.714C54.9699 209.059 55.8195 210.109 55.8089 211.331C55.8201 212.555 54.9699 213.604 53.9804 213.95C52.9829 214.325 51.945 214.064 51.3071 213.583C50.6474 213.104 50.3389 212.475 50.208 212.04C50.075 211.598 50.0724 211.331 50.034 211.332C50.0149 211.33 49.9585 211.599 50.0479 212.08C50.1362 212.55 50.4213 213.259 51.1257 213.821C51.8056 214.383 52.9675 214.722 54.114 214.315C55.2503 213.945 56.2467 212.743 56.2329 211.331C56.2462 209.921 55.2503 208.719 54.114 208.348C52.9675 207.941 51.8056 208.28 51.1257 208.843C50.4213 209.405 50.1362 210.112 50.0479 210.584C49.9585 211.065 50.0149 211.334 50.034 211.332Z" fill="#263238"/>
</svg>
