<svg width="270" height="270" viewBox="0 0 270 270" fill="none" xmlns="http://www.w3.org/2000/svg">
<g clip-path="url(#clip0_372_4225)">
<g filter="url(#filter0_d_372_4225)">
<path d="M134.999 257.921C206.474 257.921 264.416 213.756 264.416 159.275C264.416 104.794 206.474 60.629 134.999 60.629C63.524 60.629 5.58203 104.794 5.58203 159.275C5.58203 213.756 63.524 257.921 134.999 257.921Z" fill="white"/>
</g>
<path d="M182.609 27.001C182.613 25.3081 184.465 24.132 186.566 23.9338C189.041 23.7005 190.797 24.8038 190.856 26.7532C192.475 26.0884 194.181 26.515 194.053 28.2943C194.475 27.8089 196.05 27.8224 196.615 27.9579C197.213 28.101 197.818 28.6394 198.025 29.1594C198.192 29.5801 198.201 29.775 198.171 30.0704C199.115 29.7615 201.261 29.572 201.798 30.4376C202.753 31.9787 198.937 32.0268 198.167 31.5608C198.004 32.7596 193.902 32.9561 192.909 31.8502C192.133 32.6316 191.019 32.8044 189.816 32.8757C187.787 32.9966 186.542 32.3092 184.959 31.5003C183.238 32.9594 180.26 32.9864 178.709 31.3167C178.313 31.6898 177.224 31.8059 176.351 31.597C175.778 31.4603 175.645 31.2157 175.645 31.2157C175.337 31.3577 174.972 31.4522 174.592 31.5322C173.466 31.7681 171.373 31.5192 172.251 30.5056C172.551 30.1606 173.646 29.9419 174.11 30.0488C174.601 29.0833 176.571 28.1685 177.702 28.985C177.745 27.8153 178.815 26.9006 180.319 26.6684C180.823 26.5912 182.033 26.5237 182.609 27.001Z" fill="#F5F5F5"/>
<path d="M41.9644 35.0751C41.9708 32.785 44.4754 31.1936 47.3174 30.9257C50.6659 30.6098 53.0419 32.1029 53.1213 34.7398C55.311 33.8407 57.62 34.4174 57.4467 36.8252C58.0164 36.1686 60.1478 36.187 60.9124 36.37C61.7208 36.5639 62.54 37.2918 62.8202 37.9954C63.0465 38.5646 63.0584 38.8281 63.0184 39.2277C64.2955 38.8092 67.1986 38.5538 67.9243 39.7245C69.2165 41.8094 64.0531 41.8742 63.0119 41.2446C62.7916 42.8668 57.242 43.1324 55.8985 41.6361C54.8488 42.6934 53.3411 42.9267 51.7141 43.0234C48.9687 43.187 47.285 42.2566 45.1433 41.1631C42.8149 43.1373 38.7859 43.1735 36.688 40.9147C36.1523 41.4196 34.6781 41.5762 33.4966 41.2943C32.7212 41.1091 32.5419 40.7786 32.5419 40.7786C32.1266 40.9708 31.6315 41.0988 31.1174 41.2068C29.5951 41.5254 26.7628 41.189 27.9514 39.8179C28.3558 39.3514 29.8376 39.0554 30.4656 39.1996C31.1298 37.8934 33.7952 36.6557 35.3245 37.76C35.3834 36.1778 36.83 34.9401 38.8664 34.6258C39.5484 34.5205 41.1862 34.4287 41.9644 35.0751Z" fill="#F0F0F0"/>
<path d="M208.18 47.3093C208.689 47.0782 209.296 47.0571 209.734 47.0226C210.237 46.9831 210.396 46.8832 210.493 46.7742C211.716 45.024 213.738 44.9571 214.945 45.4587C215.241 44.2545 216.698 43.2091 218.301 43.5612C218.246 41.9962 220.244 40.3147 222.04 39.9329C223.761 39.5662 225.263 39.7201 226.245 40.8525C227.296 38.7989 231.419 38.2206 233.649 39.3065C234.932 39.9313 236.02 40.5723 236.552 41.7478C236.903 42.5238 237.029 43.0406 237.036 44.085C237.905 43.3187 239.646 43.1113 240.807 43.5606C242.059 44.045 242.154 44.9884 242.216 45.948C243.443 45.6385 244.265 45.8389 244.495 45.9069C245.284 46.1407 245.738 46.7596 245.63 47.2602C246.253 47.2256 247.74 47.73 247.569 48.3888C247.378 49.128 245.68 49.0535 245.046 49.0303C244.521 49.0108 243.841 48.8704 243.271 48.7516C243.098 48.8375 242.638 48.9288 242.348 48.9271C241.267 48.9196 240.809 48.4563 240.635 48.054C240.108 49.1647 238.23 50.0109 236.903 50.3511C234.404 50.991 230.867 50.6011 229.328 48.7327C229.166 49.0686 228.896 49.3818 228.583 49.6399C227.972 50.1432 227.148 50.4948 226.271 50.5768C225.244 50.673 222.49 50.8042 221.714 49.1723C221.164 50.2572 218.712 50.7518 216.847 50.4867C216.149 50.3878 215.366 50.1454 214.759 49.8565C214.269 49.6232 213.99 49.3959 213.558 49.1367C213.19 48.9163 213.025 48.9185 212.535 49.0665C211.255 49.4526 209.769 49.6102 208.463 49.0621C207.42 48.6247 207.202 47.7521 208.18 47.3093Z" fill="#EBEBEB"/>
<path d="M30.8982 122.627C31.2924 122.085 31.6752 120.977 31.0089 119.73C30.3425 118.484 29.1194 117.589 28.9531 117.618C28.7862 117.648 28.3607 119.094 28.9552 120.639C29.5368 122.152 30.5299 122.45 30.8982 122.627Z" fill="#A3CD0C"/>
<path d="M30.2005 126.068C30.3042 125.406 30.1389 124.245 28.9769 123.44C27.8148 122.634 26.3184 122.397 26.1834 122.499C26.0484 122.601 26.3298 124.082 27.5637 125.185C28.7722 126.267 29.7923 126.079 30.2005 126.068Z" fill="#A3CD0C"/>
<path d="M32.4696 128.534C33.1397 128.522 34.2543 128.158 34.8461 126.874C35.4379 125.59 35.499 124.206 35.3753 124.091C35.2516 123.975 33.6765 124.541 32.8054 125.747C31.8561 127.06 32.3886 128.134 32.4696 128.534Z" fill="#A3CD0C"/>
<path d="M31.2589 128.346C31.2454 129.538 31.1736 130.61 31.0402 131.651C31.2206 131.692 31.4015 131.731 31.5916 131.763C31.6094 131.765 31.6283 131.769 31.6461 131.772C31.8751 129.468 31.8297 127.108 31.476 124.823C31.2368 123.277 30.9209 121.64 30.1935 120.242C30.1778 120.212 30.0968 120.233 30.1071 120.266C30.6714 122.118 30.7789 123.083 30.9684 124.494C31.1326 125.72 31.2746 126.973 31.2589 128.346Z" fill="#37474F"/>
<path d="M31.7815 129.451C32.2659 129.039 32.6763 128.575 33.057 128.067C33.4091 127.598 33.745 127.05 33.8935 126.479C33.9145 126.398 33.8136 126.475 33.7855 126.52C33.4982 126.987 33.192 127.398 32.8524 127.83C32.5014 128.278 32.0602 128.656 31.5996 128.987C31.4835 129.07 31.4014 129.259 31.4592 129.397C31.5153 129.532 31.6779 129.539 31.7815 129.451Z" fill="#37474F"/>
<path d="M31.7264 128.237C31.457 127.378 31.0217 126.761 30.3743 125.933C30.1005 125.583 29.8645 125.339 29.5437 125.032C29.2235 124.724 28.6139 124.283 28.3574 124.198C28.339 124.192 28.2202 124.187 28.2488 124.209C28.5577 124.453 28.9935 124.863 29.2943 125.17C29.6636 125.548 29.8704 125.803 30.1253 126.162C30.7139 126.993 31.0547 127.593 31.4078 128.399C31.4802 128.564 31.7729 128.386 31.7264 128.237Z" fill="#37474F"/>
<path d="M249.061 113.819C248.667 113.277 248.284 112.169 248.95 110.922C249.616 109.676 250.84 108.781 251.006 108.811C251.173 108.84 251.598 110.286 251.004 111.831C250.422 113.344 249.429 113.642 249.061 113.819Z" fill="#A3CD0C"/>
<path d="M249.759 117.259C249.655 116.597 249.82 115.437 250.982 114.631C252.144 113.826 253.641 113.588 253.776 113.69C253.911 113.793 253.629 115.273 252.395 116.377C251.187 117.458 250.167 117.27 249.759 117.259Z" fill="#A3CD0C"/>
<path d="M247.489 119.726C246.819 119.713 245.705 119.349 245.113 118.066C244.521 116.782 244.46 115.397 244.584 115.282C244.707 115.167 246.283 115.733 247.154 116.938C248.103 118.252 247.57 119.325 247.489 119.726Z" fill="#A3CD0C"/>
<path d="M248.7 119.538C248.714 120.73 248.786 121.801 248.919 122.843C248.738 122.883 248.558 122.922 248.368 122.954C248.35 122.957 248.331 122.96 248.313 122.963C248.084 120.659 248.129 118.3 248.483 116.014C248.722 114.468 249.038 112.831 249.766 111.433C249.781 111.403 249.862 111.425 249.852 111.458C249.288 113.309 249.18 114.274 248.991 115.686C248.827 116.912 248.685 118.165 248.7 119.538Z" fill="#37474F"/>
<path d="M248.177 120.643C247.693 120.231 247.283 119.767 246.902 119.259C246.55 118.79 246.214 118.242 246.065 117.67C246.044 117.589 246.145 117.667 246.173 117.711C246.46 118.179 246.767 118.589 247.106 119.022C247.457 119.469 247.898 119.847 248.359 120.178C248.475 120.261 248.557 120.45 248.499 120.588C248.444 120.724 248.281 120.731 248.177 120.643Z" fill="#37474F"/>
<path d="M248.233 119.428C248.502 118.569 248.937 117.953 249.585 117.125C249.858 116.775 250.094 116.53 250.415 116.223C250.735 115.916 251.345 115.474 251.602 115.389C251.62 115.383 251.739 115.378 251.71 115.4C251.401 115.644 250.965 116.054 250.665 116.362C250.295 116.74 250.088 116.994 249.834 117.354C249.245 118.184 248.904 118.785 248.551 119.59C248.479 119.756 248.186 119.577 248.233 119.428Z" fill="#37474F"/>
<path d="M149.337 221.964C148.831 221.268 148.34 219.845 149.195 218.244C150.051 216.643 151.622 215.494 151.836 215.531C152.05 215.569 152.597 217.426 151.833 219.411C151.086 221.354 149.811 221.737 149.337 221.964Z" fill="#A3CD0C"/>
<path d="M150.234 226.383C150.101 225.532 150.313 224.042 151.805 223.008C153.298 221.973 155.219 221.668 155.393 221.8C155.566 221.931 155.205 223.833 153.62 225.25C152.068 226.637 150.758 226.397 150.234 226.383Z" fill="#A3CD0C"/>
<path d="M147.319 229.55C146.459 229.533 145.027 229.066 144.267 227.418C143.507 225.769 143.428 223.991 143.588 223.843C143.747 223.695 145.77 224.421 146.888 225.969C148.107 227.657 147.424 229.036 147.319 229.55Z" fill="#A3CD0C"/>
<path d="M148.875 229.308C148.892 230.84 148.984 232.216 149.155 233.554C148.923 233.606 148.692 233.656 148.448 233.696C148.425 233.7 148.4 233.704 148.377 233.708C148.083 230.748 148.142 227.719 148.595 224.783C148.903 222.797 149.308 220.695 150.243 218.9C150.263 218.862 150.367 218.889 150.354 218.932C149.63 221.31 149.492 222.549 149.248 224.362C149.036 225.935 148.855 227.546 148.875 229.308Z" fill="#37474F"/>
<path d="M148.203 230.728C147.581 230.199 147.054 229.602 146.565 228.95C146.113 228.348 145.681 227.644 145.49 226.91C145.463 226.806 145.593 226.905 145.628 226.963C145.997 227.564 146.391 228.091 146.827 228.646C147.278 229.221 147.844 229.706 148.436 230.131C148.585 230.238 148.691 230.481 148.617 230.659C148.545 230.832 148.336 230.841 148.203 230.728Z" fill="#37474F"/>
<path d="M148.274 229.168C148.62 228.065 149.179 227.273 150.01 226.21C150.362 225.76 150.665 225.446 151.077 225.052C151.488 224.658 152.271 224.09 152.601 223.981C152.624 223.974 152.777 223.967 152.741 223.995C152.344 224.309 151.784 224.835 151.398 225.231C150.923 225.716 150.658 226.043 150.331 226.505C149.575 227.572 149.137 228.343 148.683 229.377C148.59 229.589 148.214 229.359 148.274 229.168Z" fill="#37474F"/>
<path d="M14.1135 194.553C15.6833 197.676 17.4523 200.723 19.4147 203.684L92.2099 245.712L126.376 225.986L42.6882 178.055L14.1135 194.553Z" fill="#F0F0F0"/>
<path d="M54.0779 82.296L145.966 135.348L180.133 115.622L93.4163 65.8325C78.9908 69.5607 65.7133 75.1805 54.0779 82.296Z" fill="#F0F0F0"/>
<path d="M188.724 222.917L30.7908 131.735L72.4669 107.673L230.4 198.856L188.724 222.917Z" fill="#A3CD0C"/>
<path opacity="0.75" d="M188.724 222.917L30.7908 131.735L72.4669 107.673L230.4 198.856L188.724 222.917Z" fill="white"/>
<path d="M32.5243 197.451C32.358 196.73 32.3655 195.941 32.4557 195.168C32.581 194.098 32.8089 193.02 32.6685 191.952C32.5923 191.374 32.4103 190.816 32.2991 190.244C32.1879 189.672 32.1511 189.065 32.359 188.52C32.7171 187.585 33.6513 187.371 34.5109 187.087C35.3139 186.822 35.7762 186.771 36.4814 186.229C37.1866 185.687 39.6868 182.29 39.6868 182.29L42.9679 187.37C42.9679 187.37 39.487 189.874 38.6209 190.882C37.7547 191.89 37.4664 192.43 37.4151 192.62C37.246 193.247 37.1586 193.903 37.205 194.552C37.2352 194.977 37.2676 195.516 37.4458 195.911C37.6527 196.369 38.2116 196.728 38.5204 197.13C38.866 197.58 39.1436 198.094 39.2473 198.651C39.3051 198.963 39.2484 199.228 38.9843 199.417C38.8569 199.508 38.6992 199.544 38.5707 199.632C38.4184 199.735 38.3093 199.867 38.1338 199.947C37.6991 200.147 37.2131 200.22 36.7379 200.237C35.8264 200.269 34.8916 200.103 34.1027 199.646C33.1987 199.122 32.7295 198.338 32.5243 197.451Z" fill="#B16668"/>
<path d="M32.468 187.37C31.476 187.489 31.2584 188.251 31.1277 189.079C30.9971 189.907 31.5554 191.306 31.7558 192.045C31.9561 192.783 32.1219 193.045 31.7558 194.287C31.3896 195.529 31.1412 197.652 31.7882 198.998C32.4351 200.344 33.582 201.191 35.7215 201.269C37.861 201.347 39.1311 200.823 39.3865 200.388C39.6419 199.953 39.67 198.732 39.5388 198.438C39.4081 198.143 36.6406 196.117 35.8344 194.722C35.0282 193.328 32.468 187.37 32.468 187.37Z" fill="#263238"/>
<path d="M36.6736 186.045C36.4776 185.858 36.3286 185.851 35.8258 186.117C35.5607 186.257 35.2637 186.4 34.3878 186.632C33.5119 186.864 32.1824 186.882 31.832 188.602C31.4815 190.322 32.4643 191.946 32.3639 192.976C32.2861 193.774 31.259 196.331 32.203 198.351C33.1274 200.329 34.8619 200.417 36.3626 200.494C37.8465 200.571 39.6107 199.977 39.6771 199.324C39.7435 198.671 39.5129 197.252 38.1257 196.289C37.0576 195.548 37.6796 192.682 37.8033 192.343C38.0047 191.79 38.224 191.574 38.7283 191.109C39.2327 190.644 39.4066 190.523 38.4767 190.189C37.6537 189.893 35.9646 189.261 35.147 190.312C35.147 190.312 35.8733 189.174 35.815 188.687C35.7567 188.201 35.4694 187.112 36.1061 186.491C36.3507 186.357 36.5435 186.209 36.6736 186.045Z" fill="#37474F"/>
<path d="M32.3245 198.698C32.636 197.529 34.269 196.548 35.7961 196.299C37.3232 196.05 37.9594 196.109 38.4761 196.42C38.9929 196.732 40.114 197.937 39.6895 199.509C38.7888 200.806 33.6048 201.324 32.3245 198.698Z" fill="#FAFAFA"/>
<path d="M49.5726 168.616C49.5726 168.616 48.5099 165.927 48.9564 163.666C49.403 161.406 51.4566 156.257 51.4566 156.257L63.8847 158.372C63.6968 163.178 62.0304 167.029 60.9407 170.249C59.5626 173.989 58.9621 175.346 57.6369 176.919C56.254 178.56 54.9526 179.796 50.0035 183.019C45.5647 185.91 41.7577 188.363 41.7577 188.363C41.7577 188.363 40.3737 188.363 39.2186 186.359C38.5647 185.224 38.5317 183.632 38.5317 183.632C38.5317 183.632 42.9117 177.541 45.0144 175.767C47.2517 173.881 48.7232 173.03 48.7232 173.03L49.5726 168.616Z" fill="#263238"/>
<path d="M54.5978 214.801C55.0206 214.879 55.451 214.923 55.8787 214.942C56.173 214.956 56.4716 214.958 56.7578 214.89C57.1434 214.798 57.4879 214.584 57.8189 214.367C58.0851 214.192 58.3627 213.996 58.4853 213.701C58.6419 213.326 58.5004 212.883 58.2509 212.562C58.002 212.241 57.6585 212.009 57.3432 211.752C57.3318 211.742 57.32 211.733 57.3086 211.723C56.1816 210.79 55.2771 209.472 54.5638 208.207C53.8721 206.98 53.1684 205.617 53.1981 204.17C53.2284 202.681 53.932 195.693 55.0034 189.178C55.4564 186.341 55.721 183.876 55.7059 182.625C55.7032 182.397 55.3198 174.255 54.6599 166.552C54.6599 166.552 57.7692 165.041 59.5016 163.531C62.2458 161.139 63.0229 158.466 63.0229 158.466L49.1201 154.488C49.1201 154.488 46.9649 156.819 45.8579 158.465C44.6332 160.287 44.2287 162.345 44.3724 165.342C44.5025 168.051 45.3438 171.721 45.778 173.798C46.6906 178.165 47.0195 180.746 47.3553 183.218C47.3548 183.22 46.5065 186.714 46.9952 191.891C47.222 194.291 47.945 200.701 47.9331 203.237C47.9331 203.237 47.877 203.771 47.6453 205.217C47.5357 205.902 46.6728 207.542 47.6469 208.332C47.8673 208.509 47.9828 208.7 48.2285 208.85C48.4888 209.01 48.7404 209.183 48.9834 209.368C49.2216 209.55 49.4532 209.746 49.6341 209.985C49.848 210.267 49.9841 210.599 50.1288 210.922C50.6461 212.076 51.3346 213.201 52.373 213.922C53.0351 214.383 53.8019 214.653 54.5978 214.801Z" fill="#B16668"/>
<path d="M46.9077 207.785C46.9191 208.28 46.8548 208.597 47.3224 209.103C47.7895 209.609 48.592 210.007 49.1752 210.39C49.7589 210.774 50.2282 211.378 50.4404 212.008C50.6526 212.637 51.0457 214.135 53.2749 215.017C55.504 215.899 57.2379 215.424 58.0647 215.167C58.8914 214.911 59.4066 214.468 59.3887 213.693C59.3715 212.917 46.9077 207.785 46.9077 207.785Z" fill="#263238"/>
<path d="M48.3436 204.176C47.9473 203.959 48.0078 203.693 47.9332 203.525V203.238C47.667 203.24 47.5963 204.048 47.2258 205.007C46.9024 205.844 46.7895 206.59 46.9072 207.785C47.3975 208.885 49.0062 209.171 49.8492 210.24C50.6921 211.31 50.6451 213.27 53.4585 214.289C55.9944 215.207 58.5772 214.332 59.3882 213.692C59.3882 213.692 59.8003 211.929 58.6603 211.379C57.8633 210.995 57.1554 210.644 55.9965 209.128C55.3642 208.302 54.0655 205.851 53.8829 205.31C53.7004 204.769 53.7253 203.746 53.3489 203.686C52.9725 203.626 50.3767 204.181 49.8016 204.381C49.2265 204.582 49.6251 205.742 49.6251 205.742C49.6251 205.742 49.3507 205.486 49.1218 204.933C48.8917 204.378 48.6871 204.364 48.3436 204.176Z" fill="#37474F"/>
<path d="M52.3142 213.736C52.4281 212.475 53.1334 211.471 54.6746 210.812C55.7567 210.349 57.0878 210.367 57.6089 210.613C58.13 210.859 59.3347 211.372 59.446 212.25C59.5572 213.128 59.3893 213.693 59.3893 213.693C59.3893 213.693 58.1619 214.867 55.5412 214.727C53.2797 214.606 52.3142 213.736 52.3142 213.736Z" fill="#FAFAFA"/>
<path d="M47.1118 183.258C46.0766 187.3 46.9579 192.754 47.2884 195.5C47.4623 196.947 47.8359 200.571 47.8359 200.571C47.8359 200.571 48.0514 201.375 50.3653 201.644C52.6792 201.912 53.5713 201.199 53.5713 201.199C53.5713 201.199 54.9472 191.775 55.4429 187.364C55.8161 184.043 55.8479 182.037 55.7545 180.532C55.7388 178.618 55.5644 169.864 55.3284 168.204L55.3474 166.749C55.3474 166.749 62.6471 163.491 63.8858 158.372L48.5099 154.136C47.02 155.247 45.7154 156.719 44.8627 158.223C43.8394 160.027 43.6158 161.442 43.5662 163.946C43.5289 165.808 43.8486 167.566 44.3853 170.36C44.9216 173.154 46.5454 181.802 47.1118 183.258Z" fill="#37474F"/>
<path d="M63.5505 139.646C62.0423 140.973 61.3154 142.917 63.47 145.753C65.8207 148.847 69.1076 152.521 70.6969 154.076C71.907 155.259 72.0658 155.601 74.3424 156.061C76.8064 156.559 85.3114 156.742 85.9934 156.775C86.6242 156.806 87.1955 156.47 87.7036 156.135C88.1162 155.862 88.4143 155.552 88.7161 155.167C89.0979 154.679 88.9208 154.025 88.9354 153.466C88.9613 152.454 89.0191 151.446 89.0347 150.435C89.0417 149.976 89.1746 149.459 88.9008 149.05C88.8457 148.968 88.7113 148.873 88.6254 148.893C88.6254 148.893 88.6308 148.463 88.6389 148.267C88.6535 147.908 88.6124 147.236 88.1907 147.101C87.8419 146.989 87.5567 147.812 87.5567 147.812C87.5567 147.812 87.7943 147.019 87.6696 146.64C87.5135 146.166 87.1334 145.878 86.8699 146.161C86.6063 146.445 86.4719 146.862 86.4719 146.862C86.3585 146.796 86.1549 146.831 85.9951 146.92C85.5744 147.153 85.4032 147.654 85.2666 148.083C85.1051 148.59 84.9955 149.115 84.9404 149.644C84.8848 150.182 84.8837 150.733 84.7045 151.242C84.5862 151.578 84.3729 151.899 84.0737 152.099C83.7163 152.338 83.3977 152.276 82.9954 152.223C82.3933 152.144 81.7971 152.005 81.2063 151.865C79.7343 151.516 78.2763 151.109 76.8232 150.69C76.2799 150.533 75.7372 150.375 75.1961 150.211C75.1961 150.211 71.2147 144.953 69.6417 142.994C68.5158 141.591 66.5642 138.936 63.5505 139.646Z" fill="#B16668"/>
<path d="M88.9355 153.466L88.977 151.076C88.9878 150.68 88.9932 150.275 89.0246 149.88C89.0337 149.684 89.0267 149.487 88.9695 149.305C88.9409 149.217 88.8944 149.128 88.8431 149.057C88.7907 148.995 88.6919 148.934 88.6379 148.944C88.6093 148.95 88.5807 148.931 88.5747 148.903L88.5737 148.893C88.565 148.399 88.6509 147.882 88.4576 147.444C88.3701 147.24 88.1352 147.056 87.9764 147.226C87.815 147.38 87.7026 147.612 87.6173 147.833C87.6054 147.867 87.5687 147.884 87.5352 147.872C87.5039 147.861 87.4872 147.826 87.4953 147.794C87.566 147.549 87.6216 147.293 87.6416 147.039C87.6719 146.786 87.6065 146.542 87.4564 146.337C87.3851 146.237 87.2922 146.149 87.1842 146.113C87.0762 146.079 86.965 146.118 86.8878 146.215C86.7204 146.402 86.5994 146.638 86.513 146.875C86.5044 146.899 86.4785 146.911 86.4547 146.902L86.4536 146.902L86.4488 146.899C86.2106 146.804 85.9071 146.979 85.7343 147.185C85.5475 147.399 85.439 147.674 85.3434 147.947C85.1468 148.494 85.0102 149.064 84.9395 149.644C84.9891 149.062 85.1047 148.484 85.2824 147.926C85.372 147.648 85.4811 147.366 85.6755 147.134C85.8666 146.918 86.1604 146.704 86.4925 146.823L86.4282 146.848C86.5168 146.595 86.6361 146.355 86.8138 146.149C86.8953 146.037 87.0681 145.964 87.2139 146.014C87.3565 146.061 87.4618 146.163 87.5433 146.273C87.7102 146.487 87.789 146.778 87.7588 147.046C87.7404 147.314 87.6875 147.572 87.6168 147.829L87.4947 147.79C87.5871 147.552 87.6843 147.313 87.8889 147.124C87.9786 147.02 88.1967 146.994 88.3047 147.082C88.4289 147.154 88.5132 147.271 88.5672 147.391C88.6741 147.635 88.6952 147.894 88.6962 148.146L88.6757 148.893L88.6115 148.842C88.8944 148.845 88.9932 149.091 89.0591 149.275C89.1196 149.476 89.1228 149.684 89.111 149.884C89.0742 150.284 89.0645 150.676 89.0483 151.076L88.9355 153.466Z" fill="#9A4A4D"/>
<path d="M86.4999 146.801C86.7094 146.898 86.7699 147.135 86.7731 147.317C86.7791 147.509 86.7467 147.693 86.7024 147.873C86.5944 148.226 86.5123 148.571 86.4556 148.932C86.3978 149.29 86.3535 149.651 86.3363 150.014L86.306 151.106L86.3022 150.013C86.3087 149.648 86.3417 149.284 86.3886 148.922C86.4329 148.562 86.5085 148.195 86.6036 147.849C86.6408 147.675 86.6662 147.496 86.6549 147.323C86.6462 147.153 86.5847 146.981 86.4443 146.924L86.4999 146.801Z" fill="#9A4A4D"/>
<path d="M87.6236 147.821C87.5497 148.325 87.5027 148.835 87.4643 149.345C87.4292 149.855 87.3958 150.367 87.4066 150.879C87.3731 150.368 87.3839 149.854 87.3968 149.341C87.413 148.828 87.4373 148.316 87.4897 147.803L87.6236 147.821Z" fill="#9A4A4D"/>
<path d="M87.1775 153.085C86.8411 152.742 86.4264 152.483 85.9447 152.418C85.9139 152.414 85.9264 152.472 85.948 152.48C86.3389 152.618 86.7158 152.851 86.9837 153.171C87.2526 153.492 87.4265 153.84 87.5653 154.234C87.6128 154.369 87.6517 154.515 87.7127 154.644C87.7462 154.629 87.7607 154.592 87.7553 154.553C87.7181 154.273 87.6716 153.983 87.5836 153.714C87.5005 153.473 87.3547 153.265 87.1775 153.085Z" fill="#9A4A4D"/>
<path d="M88.6924 148.902C88.5969 149.522 88.5067 150.145 88.4759 150.774C88.4613 150.144 88.5067 149.514 88.5585 148.886L88.6924 148.902Z" fill="#9A4A4D"/>
<path d="M84.6682 150.695C84.4705 149.827 83.883 149.534 83.5698 149.753C83.2571 149.973 83.5736 150.998 83.5622 151.698C83.5509 152.398 83.3192 155.7 84.8825 156.219L85.247 152.469C84.9905 152.278 84.821 151.366 84.6682 150.695Z" fill="#B16668"/>
<path d="M85.2477 152.468C85.0798 152.321 85.015 152.095 84.9399 151.892C84.8713 151.683 84.8146 151.471 84.7601 151.257C84.6521 150.834 84.6029 150.381 84.3302 150.046C84.2017 149.882 84.0187 149.745 83.8194 149.735C83.7249 149.73 83.6196 149.766 83.5661 149.831C83.5111 149.899 83.497 150.009 83.4911 150.111C83.4819 150.536 83.5861 150.971 83.6201 151.413C83.6201 152.303 83.5575 153.169 83.6801 154.039C83.7379 154.471 83.834 154.901 84.0111 155.297C84.1796 155.691 84.462 156.065 84.8832 156.218C84.455 156.088 84.1429 155.719 83.9512 155.325C83.7611 154.923 83.6579 154.488 83.5915 154.052C83.4527 153.181 83.4997 152.284 83.4862 151.423C83.4614 150.99 83.3631 150.56 83.3798 150.105C83.3896 149.993 83.4004 149.87 83.4841 149.764C83.5759 149.661 83.7038 149.63 83.8248 149.635C84.0705 149.653 84.2654 149.813 84.4015 149.99C84.9264 150.755 84.7277 151.743 85.2477 152.468Z" fill="#9A4A4D"/>
<path d="M61.8166 139.274C63.1828 139.215 64.6041 139.409 65.0339 139.554C65.6873 139.776 67.9542 143.711 68.889 147.792C69.8237 151.872 65.555 153.479 65.555 153.479C65.555 153.479 64.326 157.612 64.1705 158.497C64.0149 159.382 64.3503 160.878 63.6062 161.756C62.7027 162.822 60.1912 163.837 54.9219 162.059C50.9685 160.725 47.2377 156.649 47.0357 155.745C46.8959 155.118 47.6724 154.45 47.9975 154.184C49.2621 153.15 50.1067 152.506 50.4793 149.371C50.7309 147.257 51.3557 145.121 51.8811 143.817C52.7117 141.755 53.8986 141.111 54.6276 140.167C58.1921 139.419 60.4288 139.332 61.8166 139.274Z" fill="#455A64"/>
<path d="M55.6443 126.631C53.5329 127.121 53.1587 130.482 54.4163 132.518C56.4959 135.885 58.4674 136.348 58.759 137.962C60.9827 136.302 63.1649 134.579 65.4048 132.945C66.8909 132.248 68.6578 130.804 67.8202 128.982C68.3397 129.792 69.6665 129.268 69.4926 128.322C69.4116 128.884 68.6119 129.039 68.33 128.543C68.0567 128.086 68.2128 127.492 68.2965 126.966C68.5249 125.529 67.2241 123.853 65.7169 123.982C62.5752 121.76 56.653 122.52 55.6443 126.631Z" fill="#263238"/>
<path d="M57.1418 138.311C57.2509 138.197 57.3702 138.099 57.5187 138.044C57.7001 137.978 57.8989 137.988 58.0917 137.977C58.5777 137.947 59.0469 137.752 59.426 137.449C59.7948 137.154 59.9892 136.754 60.2738 136.391C60.5222 136.075 60.4903 135.56 60.4563 135.182C60.3596 134.117 60.0124 133.044 59.298 132.248C59.096 132.023 58.8639 131.825 58.6095 131.661C58.3616 131.501 58.0965 131.414 57.8335 131.29C57.7266 131.239 57.6407 131.207 57.5209 131.185C57.2077 131.128 56.8934 131.099 56.5759 131.081C56.5181 131.078 56.4603 131.075 56.4031 131.063C56.3231 131.047 56.2535 131.014 56.1833 130.974C55.9786 130.857 55.7686 130.779 55.5401 130.719C55.012 130.579 54.458 130.539 53.9153 130.603C53.3548 130.67 52.7894 130.859 52.3844 131.252C51.9794 131.646 51.7709 132.271 51.9761 132.797C52.0534 132.994 52.1862 133.185 52.1695 133.396C52.1538 133.593 52.0129 133.752 51.8984 133.912C51.441 134.551 51.367 135.517 51.9108 136.083C52.116 136.297 52.393 136.443 52.5545 136.691C52.7872 137.049 52.723 137.522 52.8612 137.926C53.0005 138.332 53.2603 138.73 53.6426 138.926C54.0254 139.121 54.2825 139.204 54.7323 139.168C54.0994 138.918 53.9185 138.233 54.0487 137.565C54.1712 138.089 54.4272 138.498 54.8695 138.805C55.3117 139.112 56.1455 139.209 56.5856 138.899C56.8037 138.744 56.9582 138.505 57.1418 138.311Z" fill="#263238"/>
<path d="M57.6002 139.092L57.9615 135.705C57.9615 135.705 57.01 136.331 56.0385 135.407C54.9304 134.352 54.7749 133.157 55.3209 132.363C55.924 131.485 57.3518 131.747 58.0079 132.757C58.9405 132.939 59.2585 131.603 58.5004 130.281C58.5004 130.281 60.3353 129.106 59.8941 127.143C61.5282 128.073 65.2547 128.388 66.0685 126.696C66.616 127.448 67.3607 128.321 67.527 132.496C67.6788 136.31 66.9697 137.245 65.9508 137.747C65.3427 138.047 64.5867 138.15 63.4068 138.097C63.4068 138.097 63.3782 138.594 63.3436 138.902C63.3091 139.21 63.4873 139.283 63.8107 139.334C64.5489 139.903 65.4172 141.568 63.3658 141.932C58.8276 142.739 57.004 140.549 56.7286 139.774C57.375 139.654 57.5446 139.509 57.6002 139.092Z" fill="#B16668"/>
<path d="M65.4659 129.282L66.6841 129.82C66.5469 130.165 66.163 130.324 65.8266 130.175C65.4902 130.027 65.3287 129.627 65.4659 129.282Z" fill="#263238"/>
<path d="M60.8868 130.373L62.0867 129.757C61.9279 129.416 61.5305 129.278 61.1989 129.448C60.8679 129.619 60.728 130.033 60.8868 130.373Z" fill="#263238"/>
<path d="M63.739 130.603L64.0576 134.097L65.8256 133.285L63.739 130.603Z" fill="#9A4A4D"/>
<path d="M65.3051 131.313C65.2937 131.616 65.533 131.878 65.8397 131.898C66.1464 131.918 66.404 131.688 66.4153 131.385C66.4267 131.081 66.1874 130.82 65.8813 130.8C65.574 130.78 65.3159 131.01 65.3051 131.313Z" fill="#263238"/>
<path d="M62.5786 134.96C62.5716 135.15 62.7212 135.314 62.9129 135.326C63.1046 135.339 63.266 135.195 63.273 135.005C63.2801 134.815 63.1305 134.652 62.9388 134.639C62.7471 134.626 62.5856 134.77 62.5786 134.96Z" fill="#9A4A4D"/>
<path d="M61.4018 131.413C61.3904 131.717 61.6296 131.978 61.9364 131.998C62.2431 132.018 62.5007 131.788 62.512 131.485C62.5233 131.182 62.2841 130.92 61.9779 130.9C61.6712 130.88 61.4131 131.11 61.4018 131.413Z" fill="#263238"/>
<path d="M63.4069 138.097C61.2895 137.966 59.244 137.353 58.7332 136.41C58.7332 136.41 58.8595 137.332 59.7343 137.801C60.8149 138.381 63.3664 138.667 63.3664 138.667L63.4069 138.097Z" fill="#9A4A4D"/>
<path d="M54.6277 140.167C52.6794 140.658 50.7953 142.432 51.4147 145.939C52.0908 149.766 53.3344 154.537 54.0369 156.646C54.5721 158.252 54.557 158.629 56.3719 160.079C58.3359 161.648 65.8165 165.699 66.4073 166.04C66.998 166.382 67.7189 166.34 68.9172 166.16C70.1149 165.979 70.5615 165.182 71.3855 164.555C72.2738 163.879 73.39 163.352 73.1697 163.022C72.897 162.612 72.3608 162.5 71.3855 162.893C70.4103 163.286 70.2121 163.519 71.054 162.03C71.8958 160.54 72.4439 160.108 72.7134 159.725C73.1151 159.154 73.0433 158.7 72.7841 158.441C72.5249 158.182 71.8953 158.784 71.8953 158.784C71.8953 158.784 72.4693 158.187 72.5314 157.793C72.6092 157.3 72.4029 156.87 72.0384 157.002C71.6744 157.134 71.3639 157.442 71.3639 157.442C71.2214 157.248 70.5896 157.067 69.8595 157.87C69.8595 157.87 69.6392 157.339 68.5921 158.079C67.7292 158.69 66.9003 160.19 66.4877 160.896C66.1756 161.43 59.8047 155.266 59.8047 155.266L57.7397 146.507C57.7413 146.507 56.8676 140.874 54.6277 140.167Z" fill="#B16668"/>
<path d="M71.0539 162.028C71.2639 161.641 71.4897 161.263 71.7375 160.899C71.9827 160.533 72.2705 160.194 72.5567 159.863C72.8278 159.542 73.0557 159.1 72.9012 158.7C72.865 158.607 72.7992 158.512 72.7268 158.457C72.6582 158.404 72.5508 158.424 72.4568 158.461C72.2651 158.54 72.0896 158.678 71.933 158.822C71.9114 158.842 71.8774 158.84 71.8574 158.818C71.8385 158.798 71.839 158.766 71.8574 158.745C72.0307 158.557 72.1949 158.353 72.3256 158.135C72.466 157.921 72.5151 157.676 72.4725 157.427C72.4465 157.181 72.264 156.957 72.0378 157.074C71.8066 157.163 71.5923 157.316 71.4092 157.486C71.3833 157.51 71.3422 157.509 71.3179 157.483L71.3142 157.479C71.245 157.391 71.103 157.343 70.9729 157.337C70.839 157.33 70.7018 157.358 70.5738 157.409C70.3157 157.512 70.0927 157.697 69.8994 157.904C69.8794 157.925 69.8464 157.926 69.8254 157.907C69.8211 157.903 69.8173 157.898 69.8146 157.893L69.813 157.89C69.7341 157.736 69.5057 157.704 69.3205 157.76C69.1282 157.809 68.9463 157.906 68.7729 158.013C68.4235 158.226 68.1341 158.522 67.8717 158.839C67.3506 159.478 66.9137 160.185 66.4893 160.895C66.8932 160.174 67.2906 159.441 67.8144 158.792C68.0747 158.469 68.3679 158.162 68.7254 157.937C68.9025 157.825 69.0883 157.722 69.2978 157.666C69.4938 157.608 69.7795 157.613 69.9096 157.849L69.8232 157.834C70.0214 157.617 70.2514 157.418 70.5322 157.302C70.6716 157.245 70.8244 157.21 70.9804 157.217C71.1338 157.226 71.2985 157.264 71.4162 157.404L71.3217 157.397C71.5183 157.211 71.7343 157.051 71.9902 156.947C72.1166 156.883 72.3159 156.901 72.4239 157.017C72.5319 157.129 72.5767 157.27 72.5977 157.406C72.6453 157.676 72.5783 157.971 72.4266 158.194C72.2851 158.423 72.1177 158.626 71.9357 158.819L71.8601 158.743C72.0291 158.593 72.2057 158.454 72.4228 158.367C72.527 158.329 72.6669 158.295 72.783 158.378C72.8834 158.459 72.9433 158.555 72.9876 158.665C73.1545 159.126 72.8947 159.585 72.6161 159.911C72.325 160.244 72.0367 160.571 71.7764 160.925C71.5161 161.28 71.2769 161.649 71.0539 162.028Z" fill="#9A4A4D"/>
<path d="M69.9244 157.846C70.0275 158.165 69.8952 158.485 69.7165 158.72C69.6279 158.841 69.507 158.943 69.4017 159.035C69.3018 159.131 69.2138 159.248 69.1333 159.368C68.8104 159.85 68.5425 160.371 68.2844 160.894C68.5226 160.362 68.7693 159.831 69.0771 159.331C69.1544 159.206 69.2375 159.084 69.3434 158.974C69.453 158.87 69.554 158.778 69.635 158.66C69.7953 158.435 69.8915 158.139 69.7975 157.893L69.9244 157.846Z" fill="#9A4A4D"/>
<path d="M71.4179 157.399C71.5594 157.582 71.5054 157.82 71.4249 157.984C71.3428 158.156 71.2294 158.306 71.1079 158.445C70.8504 158.71 70.6198 158.979 70.4043 159.275C70.1894 159.567 69.9847 159.869 69.8033 160.183L69.2773 161.14L69.7736 160.167C69.9459 159.845 70.1419 159.537 70.3492 159.236C70.5534 158.936 70.7883 158.644 71.0307 158.38C71.1436 158.242 71.2478 158.094 71.3169 157.935C71.3877 157.78 71.4109 157.598 71.3121 157.483L71.4179 157.399Z" fill="#9A4A4D"/>
<path d="M71.9515 158.821C71.655 159.235 71.3802 159.667 71.1129 160.104C70.8483 160.541 70.5847 160.981 70.3601 161.442C70.5642 160.971 70.8088 160.519 71.0545 160.07C71.3035 159.621 71.5594 159.176 71.8402 158.744L71.9515 158.821Z" fill="#9A4A4D"/>
<path d="M71.3855 162.892C70.7548 163.146 70.4518 163.33 70.542 163.027C70.2461 163.678 70.2801 163.949 70.5415 163.709C70.8028 163.469 71.021 163.259 71.3315 163.027C71.6128 162.818 72.0076 162.702 72.0815 162.682C71.879 162.719 71.6495 162.785 71.3855 162.892Z" fill="#9A4A4D"/>
<path d="M68.8627 163.512C68.7202 163.054 68.4696 162.633 68.0706 162.356C68.0446 162.338 68.0295 162.396 68.0452 162.412C68.3303 162.713 68.5587 163.093 68.6505 163.5C68.7002 163.719 68.7191 163.941 68.7358 164.165C68.7461 164.303 68.7628 164.451 68.7429 164.587C68.7304 164.676 68.7056 164.762 68.7078 164.852C68.7078 164.861 68.7159 164.87 68.724 164.862C68.7947 164.791 68.8147 164.686 68.8444 164.594C68.8805 164.479 68.9189 164.379 68.9362 164.257C68.9723 164.006 68.9378 163.753 68.8627 163.512Z" fill="#9A4A4D"/>
<path d="M64.3283 159.426L64.3262 159.424C64.3262 159.424 65.8668 162.259 65.9845 162.141C66.1022 162.023 66.2464 161.434 66.4894 160.895C66.3755 161.09 65.4526 160.391 64.3283 159.426Z" fill="#9A4A4D"/>
<path d="M58.043 225.987L92.2094 245.712V189.649L58.0425 169.923L58.043 225.987Z" fill="#E0E0E0"/>
<path d="M126.376 225.987L92.2095 245.712V189.649L126.376 169.923V225.987Z" fill="#F0F0F0"/>
<path d="M126.376 169.923L92.2088 150.197L58.0425 169.923L92.2094 189.649L126.376 169.923Z" fill="#FAFAFA"/>
<path d="M87.2269 90.639C87.0315 89.9073 87.0072 89.0989 87.0666 88.303C87.1486 87.2014 87.3333 86.0884 87.1492 84.9992C87.0498 84.4106 86.8452 83.8463 86.7112 83.2648C86.5768 82.6832 86.5158 82.0622 86.7021 81.4968C87.0223 80.5242 87.9473 80.2688 88.7946 79.9443C89.5862 79.6413 90.0463 79.5712 90.7288 78.988C91.412 78.4048 93.7734 74.8262 93.7734 74.8262L97.2564 79.9011C97.2564 79.9011 93.8792 82.6038 93.0541 83.6698C92.229 84.7357 91.9627 85.3005 91.919 85.4976C91.7754 86.1462 91.7143 86.8217 91.7867 87.4849C91.8342 87.9196 91.8882 88.4704 92.0821 88.8678C92.3073 89.329 92.8802 89.6746 93.2047 90.0742C93.5682 90.5218 93.8662 91.037 93.9921 91.604C94.0628 91.9209 94.0164 92.1942 93.7599 92.3988C93.6362 92.4977 93.4801 92.5403 93.3554 92.6343C93.2074 92.7461 93.1038 92.8859 92.9315 92.975C92.5049 93.197 92.0221 93.2909 91.5486 93.3266C90.6392 93.3951 89.6985 93.2629 88.8918 92.8255C87.9684 92.3249 87.4678 91.5397 87.2269 90.639Z" fill="#FFBDA7"/>
<path d="M86.7646 80.3137C85.7786 80.4741 85.5912 81.2641 85.494 82.1173C85.3968 82.9705 86.0113 84.3821 86.2408 85.1311C86.4708 85.8795 86.6474 86.1409 86.331 87.4277C86.0151 88.7145 85.8525 90.8993 86.5535 92.2526C87.2544 93.6064 88.4343 94.4288 90.5748 94.4245C92.7159 94.4201 93.9639 93.8337 94.2015 93.3779C94.4391 92.9222 94.418 91.671 94.2755 91.3745C94.1329 91.0781 91.286 89.1109 90.4242 87.7139C89.5629 86.3169 86.7646 80.3137 86.7646 80.3137Z" fill="#263238"/>
<path d="M90.9133 78.792C90.7097 78.6078 90.5607 78.6062 90.0687 78.8989C89.8095 79.0528 89.5185 79.211 88.6523 79.4832C87.7862 79.7553 86.4588 79.8255 86.178 81.6016C85.8972 83.3777 86.9448 85.002 86.886 86.0615C86.8401 86.8823 85.9172 89.5412 86.9421 91.5738C87.9455 93.5642 89.6826 93.5864 91.1849 93.6069C92.671 93.6269 94.4098 92.9492 94.4498 92.2779C94.4897 91.6067 94.2024 90.1622 92.7774 89.2302C91.6801 88.5125 92.1866 85.5517 92.2962 85.1996C92.475 84.6256 92.6856 84.395 93.1705 83.8993C93.656 83.4036 93.8244 83.2724 92.8816 82.9662C92.0473 82.6951 90.3344 82.1146 89.5595 83.2238C89.5595 83.2238 90.2394 82.0293 90.1616 81.5325C90.0839 81.0362 89.7528 79.9325 90.3641 79.2715C90.6033 79.1235 90.7896 78.9648 90.9133 78.792Z" fill="#37474F"/>
<path d="M87.0779 91.9243C87.3419 90.7147 88.9344 89.6455 90.4502 89.3301C91.966 89.0148 92.6042 89.0499 93.1329 89.3485C93.6616 89.6471 94.8307 90.8384 94.4694 92.4654C93.6216 93.8294 88.463 94.5638 87.0779 91.9243Z" fill="#FAFAFA"/>
<path d="M103.101 60.4303C103.101 60.4303 101.931 57.7184 102.286 55.3851C102.641 53.0518 104.486 47.696 104.486 47.696L117.437 51.124C116.805 55.3738 115.486 58.3157 114.526 61.6572C113.3 65.542 112.754 66.9557 111.493 68.6194C110.178 70.3555 108.927 71.6726 104.111 75.1685C99.7922 78.3038 96.0867 80.9676 96.0867 80.9676C96.0867 80.9676 94.7038 81.0221 93.4688 79.0139C92.7701 77.8772 92.6729 76.248 92.6729 76.248C92.6729 76.248 96.8038 69.8355 98.8337 67.9363C100.993 65.9156 102.429 64.9858 102.429 64.9858L103.101 60.4303Z" fill="#263238"/>
<path d="M109.982 107.544C110.407 107.608 110.839 107.636 111.268 107.639C111.562 107.641 111.861 107.631 112.144 107.55C112.526 107.441 112.861 107.208 113.184 106.972C113.443 106.783 113.712 106.571 113.823 106.264C113.964 105.874 113.805 105.426 113.543 105.107C113.281 104.787 112.929 104.564 112.604 104.313C112.592 104.304 112.58 104.294 112.568 104.285C111.404 103.373 110.447 102.059 109.684 100.79C108.943 99.5608 108.185 98.1919 108.157 96.7091C108.127 95.1819 108.549 87.9967 109.357 81.2807C109.696 78.3561 109.86 75.8208 109.795 74.5404C109.783 74.3066 109.072 65.9809 108.102 58.1163C108.102 58.1163 111.148 56.4461 112.818 54.831C115.464 52.2725 116.393 51.2119 116.393 51.2119L102.08 45.975C102.08 45.975 100.02 48.4476 98.9799 50.1783C97.8297 52.0926 97.5079 54.217 97.7725 57.281C98.0117 60.0512 98.9999 63.7772 99.5178 65.8891C100.606 70.3263 101.038 72.9577 101.474 75.4768C101.473 75.479 100.766 79.091 101.463 84.3749C101.786 86.8249 102.767 93.3632 102.857 95.9606C102.857 95.9606 102.823 96.5098 102.65 98.0002C102.568 98.7065 101.772 100.42 102.777 101.192C103.004 101.364 103.127 101.555 103.379 101.7C103.645 101.853 103.904 102.02 104.154 102.2C104.399 102.377 104.638 102.569 104.829 102.806C105.054 103.087 105.203 103.421 105.361 103.747C105.924 104.909 106.657 106.033 107.724 106.731C108.403 107.177 109.181 107.424 109.982 107.544Z" fill="#FFBDA7"/>
<path d="M102.015 100.66C102.047 101.167 101.995 101.493 102.483 101.994C102.971 102.494 103.788 102.87 104.387 103.24C104.985 103.61 105.478 104.211 105.716 104.847C105.954 105.484 106.407 107.003 108.669 107.819C110.932 108.634 112.645 108.079 113.461 107.784C114.277 107.489 114.773 107.015 114.725 106.221C114.676 105.427 102.015 100.66 102.015 100.66Z" fill="#263238"/>
<path d="M103.305 96.9062C102.901 96.6994 102.95 96.4251 102.869 96.2556L102.857 95.9618C102.592 95.9742 102.553 96.8042 102.222 97.8016C101.933 98.6726 101.85 99.441 102.016 100.66C102.55 101.768 104.17 101.998 105.055 103.06C105.94 104.123 105.972 106.133 108.824 107.065C111.395 107.906 113.941 106.909 114.725 106.221C114.725 106.221 115.066 104.399 113.905 103.881C113.094 103.519 112.372 103.186 111.153 101.679C110.488 100.858 109.091 98.3988 108.887 97.8512C108.683 97.3042 108.667 96.255 108.288 96.2086C107.91 96.1621 105.338 96.8317 104.772 97.0596C104.205 97.2875 104.65 98.4598 104.65 98.4598C104.65 98.4598 104.366 98.2082 104.114 97.6509C103.861 97.0909 103.656 97.0855 103.305 96.9062Z" fill="#37474F"/>
<path d="M107.657 106.544C107.721 105.247 108.385 104.191 109.898 103.455C110.961 102.938 112.292 102.905 112.823 103.136C113.353 103.368 114.578 103.846 114.724 104.741C114.871 105.636 114.726 106.221 114.726 106.221C114.726 106.221 113.546 107.472 110.922 107.432C108.658 107.397 107.657 106.544 107.657 106.544Z" fill="#FAFAFA"/>
<path d="M101.231 75.526C100.36 79.7077 101.46 85.2595 101.901 88.0605C102.133 89.5357 102.652 93.2331 102.652 93.2331C102.652 93.2331 102.9 94.0485 105.222 94.2332C107.545 94.4179 108.408 93.6511 108.408 93.6511C108.408 93.6511 109.403 83.944 109.721 79.4048C109.96 75.9882 109.911 73.9319 109.757 72.394C109.664 70.4343 109.587 59.0095 109.587 59.0095C109.587 59.0095 116.066 58.239 117.098 52.9464L100.385 45.0786C99.9844 46.4664 98.8304 48.7371 98.2251 50.3949C97.6419 51.9922 96.9318 54.3936 96.9826 56.9608C97.0204 58.8697 97.4124 60.5507 98.0615 63.3922C98.7111 66.2342 100.606 74.0577 101.231 75.526Z" fill="#37474F"/>
<path d="M115.846 28.9985C114.252 30.2221 113.397 32.1132 115.358 35.0864C117.497 38.3307 120.531 42.2166 122.013 43.8733C123.141 45.1347 123.277 45.4868 125.518 46.0976C127.943 46.7585 136.417 47.5091 137.095 47.5874C137.722 47.6603 138.314 47.3633 138.844 47.0631C139.273 46.819 139.592 46.529 139.918 46.1651C140.332 45.7044 140.199 45.0397 140.251 44.4824C140.345 43.4753 140.469 42.4725 140.553 41.4649C140.591 41.007 140.758 40.5005 140.512 40.0744C140.462 39.9885 140.335 39.8843 140.247 39.8989C140.247 39.8989 140.281 39.4701 140.302 39.2752C140.341 38.9177 140.345 38.2443 139.933 38.0818C139.593 37.9468 139.253 38.7487 139.253 38.7487C139.253 38.7487 139.544 37.9733 139.444 37.5866C139.32 37.1033 138.96 36.7907 138.678 37.0563C138.396 37.3215 138.234 37.7286 138.234 37.7286C138.125 37.6557 137.92 37.6773 137.755 37.7551C137.319 37.9598 137.115 38.4474 136.95 38.8664C136.755 39.3621 136.611 39.8778 136.521 40.4027C136.43 40.9346 136.391 41.4849 136.178 41.9811C136.038 42.3078 135.804 42.614 135.492 42.7933C135.12 43.0077 134.806 42.9245 134.408 42.8451C133.812 42.7263 133.227 42.5476 132.647 42.3683C131.202 41.9223 129.774 41.4185 128.352 40.9033C127.821 40.7105 127.29 40.5167 126.761 40.3169C126.761 40.3169 123.14 34.8056 121.701 32.7455C120.67 31.2713 118.9 28.4914 115.846 28.9985Z" fill="#FFBDA7"/>
<path d="M118.769 29.3241C120.215 29.964 121.426 31.6861 122.581 33.4313C123.735 35.1766 125.628 38.1758 125.628 38.1758C125.628 38.1758 123.921 40.2213 122.729 41.1533C121.537 42.0854 120.559 42.4304 120.559 42.4304L116.204 36.91L118.769 29.3241Z" fill="#37474F"/>
<path d="M140.251 44.4824L140.452 42.1C140.489 41.7058 140.522 41.3018 140.579 40.9103C140.602 40.7149 140.607 40.5178 140.563 40.3325C140.54 40.2418 140.499 40.15 140.453 40.0771C140.405 40.0107 140.31 39.9432 140.256 39.9508C140.227 39.9545 140.2 39.934 140.196 39.9049L140.195 39.8951C140.22 39.4016 140.34 38.8913 140.177 38.4415C140.103 38.2319 139.881 38.0327 139.711 38.192C139.54 38.3345 139.412 38.5586 139.313 38.7736C139.299 38.806 139.261 38.8211 139.228 38.807C139.198 38.7935 139.183 38.7574 139.194 38.7266C139.281 38.4868 139.354 38.2352 139.39 37.9841C139.438 37.733 139.389 37.4857 139.253 37.2707C139.188 37.1665 139.101 37.0731 138.996 37.0299C138.891 36.9889 138.777 37.0202 138.694 37.1114C138.514 37.2875 138.378 37.5137 138.276 37.7454C138.266 37.7686 138.239 37.7789 138.216 37.7686L138.215 37.7681L138.21 37.7659C137.979 37.6552 137.664 37.8091 137.478 38.0024C137.277 38.2044 137.151 38.4706 137.037 38.7363C136.804 39.2698 136.63 39.8293 136.521 40.4027C136.609 39.8255 136.763 39.2569 136.978 38.7115C137.086 38.4404 137.213 38.1661 137.423 37.9474C137.628 37.7449 137.935 37.5499 138.258 37.6914L138.193 37.7119C138.298 37.4657 138.433 37.234 138.625 37.0402C138.713 36.9332 138.891 36.8728 139.033 36.9322C139.172 36.9883 139.27 37.0969 139.344 37.2119C139.497 37.4371 139.556 37.7324 139.508 37.9987C139.472 38.2649 139.402 38.5187 139.314 38.7703L139.195 38.7228C139.303 38.4911 139.416 38.2595 139.632 38.0851C139.728 37.9879 139.948 37.9754 140.05 38.071C140.169 38.1509 140.246 38.2735 140.292 38.3966C140.382 38.6472 140.386 38.9069 140.37 39.1586L140.3 39.9022L140.239 39.8465C140.522 39.8687 140.604 40.1209 140.657 40.3082C140.704 40.5124 140.693 40.7203 140.669 40.9195C140.605 41.3159 140.57 41.7063 140.526 42.1054L140.251 44.4824Z" fill="#F0997A"/>
<path d="M138.266 37.6692C138.468 37.7804 138.513 38.0213 138.504 38.2027C138.497 38.3944 138.452 38.5758 138.396 38.7524C138.264 39.0975 138.159 39.4366 138.079 39.7935C137.997 40.1472 137.929 40.5047 137.888 40.8654L137.785 41.9525L137.854 40.8622C137.885 40.4982 137.942 40.1375 138.013 39.7795C138.081 39.4231 138.182 39.0624 138.3 38.7233C138.349 38.5515 138.385 38.375 138.386 38.2016C138.389 38.031 138.338 37.8549 138.202 37.7891L138.266 37.6692Z" fill="#F0997A"/>
<path d="M139.32 38.7617C139.212 39.2596 139.131 39.7655 139.059 40.2721C138.99 40.7791 138.922 41.2873 138.899 41.7992C138.899 41.2862 138.945 40.7748 138.992 40.264C139.042 39.7531 139.101 39.2434 139.187 38.7352L139.32 38.7617Z" fill="#F0997A"/>
<path d="M138.523 43.9845C138.21 43.6205 137.813 43.3338 137.337 43.2377C137.306 43.2312 137.315 43.2906 137.336 43.2992C137.717 43.4629 138.077 43.7204 138.323 44.0574C138.57 44.396 138.72 44.7545 138.832 45.1563C138.87 45.2945 138.899 45.4425 138.951 45.5759C138.986 45.5635 139.003 45.5267 139 45.4884C138.982 45.2065 138.954 44.9138 138.884 44.639C138.819 44.3938 138.687 44.1762 138.523 43.9845Z" fill="#F0997A"/>
<path d="M140.313 39.9119C140.176 40.5248 140.045 41.1404 139.972 41.7651C139.999 41.1355 140.087 40.5096 140.18 39.8865L140.313 39.9119Z" fill="#F0997A"/>
<path d="M136.179 41.432C136.039 40.5534 135.472 40.2213 135.145 40.4195C134.819 40.6176 135.066 41.6615 135.008 42.3591C134.95 43.0574 134.499 46.3362 136.024 46.9578L136.638 43.2404C136.395 43.0336 136.287 42.1129 136.179 41.432Z" fill="#FFBDA7"/>
<path d="M136.638 43.241C136.48 43.0828 136.431 42.8533 136.37 42.6459C136.315 42.4326 136.273 42.2166 136.232 42.0006C136.153 41.5713 136.134 41.1156 135.884 40.7629C135.767 40.5912 135.593 40.4422 135.395 40.419C135.301 40.4076 135.194 40.4362 135.136 40.4973C135.076 40.5621 135.055 40.6706 135.042 40.7727C135.005 41.1966 135.08 41.6367 135.084 42.0795C135.025 42.9683 134.905 43.828 134.969 44.7044C134.998 45.1386 135.064 45.5738 135.215 45.981C135.357 46.3849 135.614 46.778 136.024 46.9584C135.605 46.7996 135.319 46.4113 135.154 46.0053C134.99 45.5916 134.917 45.1504 134.879 44.7114C134.799 43.8328 134.906 42.9408 134.949 42.0811C134.954 41.6469 134.884 41.2111 134.931 40.7592C134.948 40.6479 134.967 40.5259 135.057 40.4254C135.156 40.3288 135.285 40.3066 135.406 40.3191C135.65 40.3536 135.834 40.527 135.958 40.7127C136.432 41.5098 136.168 42.4818 136.638 43.241Z" fill="#F0997A"/>
<path d="M110.574 28.5632C108.913 28.7981 105.789 29.4375 104.438 29.9078C104.438 29.9078 101.905 31.868 101.557 35.8133C101.449 37.0385 101.435 40.5242 100.647 43.6611C100.137 45.6942 99.5005 46.9848 98.8887 48.5259C98.8887 48.5259 99.3444 52.5095 108.245 55.1204C114.098 56.8376 116.203 54.8391 116.203 54.8391C116.203 54.8391 120.258 44.8286 120.786 40.0021C121.365 34.7138 120.933 30.6158 118.768 29.3236C117.782 28.9245 115.531 28.6923 115.531 28.6923L110.574 28.5632Z" fill="#455A64"/>
<path d="M110.659 15.4709C110.659 15.4709 109.692 15.4148 108.901 16.5369C108.504 17.1006 108.129 18.1763 108.566 21.4552C108.847 23.5655 109.395 24.5429 109.616 25.1493C109.838 25.7558 110.426 25.9966 110.426 25.9966L110.691 23.5574L110.829 21.8516C110.829 21.8516 112.361 20.7964 112.643 19.5954C113.005 18.0494 112.514 17.0801 112.514 17.0801L110.659 15.4709Z" fill="#37474F"/>
<path d="M110.317 15.5077C110.738 14.1733 112.691 12.7769 116.058 13.0491C118.816 13.2721 120.291 14.4298 121.03 16.1557C121.768 17.8815 120.861 19.8649 120.861 19.8649L112.331 18.1429L110.317 15.5077Z" fill="#37474F"/>
<path d="M108.374 23.9694C109.551 24.7514 110.26 23.8328 110.26 23.8328L109.719 29.316C111.701 32.8778 118.327 32.4447 116.008 29.6648L116.205 28.1258C116.205 28.1258 116.629 28.1728 117.311 28.1555C118.45 28.1296 119.473 27.4697 119.968 26.3071C120.699 24.5867 121.062 21.7155 120.799 18.5835C120.748 17.9787 120.581 17.3037 120.078 16.9646C118.829 16.1227 117.462 16.9095 115.5 17.3852C114.687 17.5823 112.797 17.4619 112.335 17.1638C112.889 17.9695 112.262 19.779 112.01 20.3444C111.646 21.1604 111.231 21.5254 111.049 21.5389C110.264 21.5967 110.264 20.9292 109.969 20.5242C109.671 20.1219 108.429 19.6284 107.717 20.7327C106.995 21.8564 107.283 23.2448 108.374 23.9694Z" fill="#FFBDA7"/>
<path d="M111.637 26.0415C111.733 27.311 113.294 28.3484 116.117 28.7982L116.204 28.1259C116.204 28.1259 115.335 28.0195 114.153 27.6577C112.856 27.2608 111.637 26.0415 111.637 26.0415Z" fill="#F0997A"/>
<path d="M115.231 19.194L114.037 19.8323C113.867 19.4894 113.996 19.0687 114.326 18.8927C114.655 18.7161 115.06 18.8511 115.231 19.194Z" fill="#37474F"/>
<path d="M120.146 19.8628L118.978 19.1586C119.161 18.826 119.572 18.7142 119.894 18.9086C120.217 19.103 120.33 19.5302 120.146 19.8628Z" fill="#37474F"/>
<path d="M114.666 20.966C114.637 21.2689 114.858 21.5389 115.161 21.5692C115.464 21.5989 115.734 21.3775 115.765 21.074C115.794 20.7705 115.573 20.5005 115.269 20.4708C114.966 20.4411 114.696 20.6625 114.666 20.966Z" fill="#263238"/>
<path d="M115.645 24.7152C115.622 24.9425 115.788 25.145 116.016 25.1677C116.244 25.1904 116.446 25.0241 116.469 24.7962C116.491 24.5688 116.325 24.3663 116.097 24.3437C115.87 24.3215 115.667 24.4878 115.645 24.7152Z" fill="#B16668"/>
<path d="M118.641 20.8952C118.611 21.1982 118.832 21.4682 119.136 21.4984C119.439 21.5281 119.709 21.3067 119.739 21.0032C119.769 20.6998 119.547 20.4298 119.244 20.4001C118.895 20.366 118.675 20.5464 118.641 20.8952Z" fill="#263238"/>
<path d="M117.075 19.8715L117.202 23.4749L119.201 22.9856C118.774 21.5595 117.802 20.5729 117.075 19.8715Z" fill="#F0997A"/>
<path d="M104.628 30.3253C102.699 30.8891 100.883 32.7326 101.633 36.214C102.452 40.0129 103.873 44.7336 104.654 46.8148C105.249 48.3991 105.248 48.7766 107.116 50.1574C109.137 51.6521 116.764 55.4202 117.368 55.7388C117.971 56.0574 118.69 55.9894 119.881 55.7636C121.071 55.5385 121.487 54.7247 122.287 54.0675C123.149 53.3585 124.245 52.7904 124.012 52.4686C123.724 52.07 123.184 51.9777 122.225 52.407C121.265 52.8363 121.076 53.0761 121.861 51.5565C122.646 50.0369 123.178 49.5839 123.433 49.1913C123.813 48.6059 123.724 48.155 123.455 47.9056C123.187 47.6566 122.58 48.2809 122.58 48.2809C122.58 48.2809 123.131 47.6631 123.179 47.2667C123.238 46.7716 123.016 46.3493 122.657 46.4945C122.298 46.6398 122 46.9606 122 46.9606C121.85 46.7716 121.212 46.6139 120.512 47.4444C120.512 47.4444 120.272 46.9211 119.254 47.7009C118.415 48.3435 117.642 49.8733 117.257 50.5942C116.965 51.1396 110.368 45.2185 110.368 45.2185L107.977 36.544C107.977 36.544 106.893 30.9479 104.628 30.3253Z" fill="#FFBDA7"/>
<path d="M104.439 29.9084C102.141 30.5932 101.138 31.9135 101.187 34.6761C101.236 37.4393 103.534 44.212 103.534 44.212C103.534 44.212 105.141 44.6764 107.04 44.212C108.938 43.7476 109.956 42.3047 109.956 42.3047C109.956 42.3047 108.376 35.923 108.082 34.9693C107.789 34.0157 107.03 30.3728 104.439 29.9084Z" fill="#37474F"/>
<path d="M121.861 51.5566C122.056 51.1624 122.268 50.7763 122.502 50.4026C122.734 50.0273 123.008 49.6779 123.282 49.3366C123.54 49.0056 123.752 48.5547 123.582 48.161C123.542 48.0692 123.473 47.9774 123.399 47.9251C123.329 47.8748 123.222 47.8986 123.129 47.9391C122.94 48.025 122.77 48.1697 122.619 48.3187C122.598 48.3398 122.564 48.3392 122.543 48.3182C122.524 48.2982 122.522 48.2663 122.54 48.2458C122.707 48.0509 122.863 47.8408 122.985 47.6183C123.118 47.3996 123.157 47.1518 123.106 46.905C123.071 46.6604 122.88 46.4433 122.659 46.5686C122.431 46.6663 122.222 46.8272 122.046 47.0044C122.021 47.0297 121.98 47.0297 121.954 47.0049L121.951 47.0011C121.878 46.9158 121.735 46.8737 121.604 46.8726C121.47 46.8699 121.334 46.9034 121.208 46.9595C120.953 47.0713 120.737 47.2657 120.552 47.4801C120.533 47.5017 120.5 47.5044 120.478 47.4855L120.467 47.472L120.465 47.4688C120.381 47.3186 120.151 47.2949 119.968 47.3581C119.778 47.4137 119.599 47.5179 119.43 47.6308C119.089 47.8576 118.811 48.1643 118.561 48.4904C118.064 49.1482 117.654 49.8707 117.256 50.5964C117.633 49.8604 118.003 49.1136 118.502 48.4456C118.749 48.1135 119.031 47.7944 119.38 47.5568C119.552 47.4385 119.734 47.3278 119.941 47.2646C120.135 47.1993 120.421 47.1928 120.56 47.425L120.473 47.4131C120.662 47.1896 120.885 46.9817 121.161 46.8553C121.298 46.7927 121.45 46.7522 121.606 46.7538C121.759 46.7576 121.925 46.7889 122.048 46.9244L121.954 46.9207C122.143 46.7273 122.353 46.5594 122.605 46.4465C122.729 46.3774 122.929 46.3882 123.041 46.5005C123.153 46.608 123.203 46.7473 123.229 46.8823C123.287 47.1502 123.231 47.4477 123.087 47.6761C122.954 47.9094 122.794 48.1189 122.619 48.3187L122.541 48.2458C122.704 48.0898 122.876 47.9445 123.089 47.8495C123.192 47.8068 123.331 47.7674 123.45 47.8468C123.553 47.9234 123.617 48.0179 123.666 48.1259C123.85 48.5806 123.607 49.0493 123.341 49.3852C123.063 49.7287 122.786 50.0662 122.54 50.4301C122.295 50.7914 122.069 51.1699 121.861 51.5566Z" fill="#F0997A"/>
<path d="M120.575 47.4196C120.691 47.7349 120.57 48.0589 120.4 48.3008C120.316 48.425 120.199 48.5309 120.098 48.627C120.002 48.7269 119.918 48.8473 119.842 48.9699C119.538 49.464 119.289 49.9948 119.051 50.5267C119.269 49.9856 119.496 49.4467 119.785 48.9348C119.858 48.8074 119.936 48.6821 120.038 48.5676C120.144 48.4591 120.241 48.3646 120.318 48.2431C120.469 48.0125 120.555 47.7128 120.451 47.4703L120.575 47.4196Z" fill="#F0997A"/>
<path d="M122.051 46.9174C122.2 47.0945 122.154 47.3348 122.08 47.5006C122.004 47.6766 121.896 47.83 121.78 47.9736C121.533 48.2479 121.312 48.5255 121.108 48.829C120.904 49.1292 120.71 49.4375 120.541 49.7588L120.052 50.7346L120.512 49.7432C120.672 49.4154 120.856 49.0995 121.052 48.7917C121.245 48.4844 121.469 48.1842 121.701 47.9104C121.809 47.7684 121.907 47.6167 121.971 47.4557C122.035 47.2975 122.052 47.1155 121.949 47.0048L122.051 46.9174Z" fill="#F0997A"/>
<path d="M122.638 48.3176C122.357 48.7426 122.099 49.1854 121.848 49.6309C121.599 50.0785 121.352 50.5278 121.146 50.9965C121.332 50.5186 121.559 50.058 121.788 49.599C122.02 49.1411 122.259 48.6875 122.524 48.2452L122.638 48.3176Z" fill="#F0997A"/>
<path d="M122.224 52.4075C121.603 52.6851 121.307 52.8805 121.387 52.5743C121.116 53.2358 121.16 53.5059 121.412 53.2558C121.664 53.0058 121.874 52.7876 122.176 52.5446C122.449 52.3249 122.839 52.1947 122.912 52.1715C122.711 52.2158 122.485 52.2909 122.224 52.4075Z" fill="#F0997A"/>
<path d="M119.726 53.122C119.566 52.6694 119.301 52.2585 118.891 51.9961C118.865 51.9793 118.852 52.0371 118.868 52.0533C119.164 52.3438 119.407 52.7143 119.514 53.1176C119.572 53.3353 119.599 53.5561 119.624 53.7791C119.64 53.9158 119.662 54.0632 119.647 54.2003C119.638 54.2894 119.616 54.3769 119.622 54.4666C119.622 54.4747 119.63 54.4838 119.638 54.4752C119.706 54.4018 119.722 54.2959 119.748 54.2025C119.78 54.0864 119.814 53.9849 119.827 53.8628C119.854 53.6107 119.811 53.3601 119.726 53.122Z" fill="#F0997A"/>
<path d="M115.042 49.208L115.04 49.2064C115.04 49.2064 116.685 51.9815 116.798 51.8594C116.912 51.7374 117.034 51.1429 117.256 50.5948C117.15 50.7946 116.202 50.1304 115.042 49.208Z" fill="#F0997A"/>
<path d="M111.8 115.622L145.966 135.348V79.2844L111.8 59.5582L111.8 115.622Z" fill="#E0E0E0"/>
<path d="M180.133 115.622L145.967 135.348V79.2844L180.133 59.5582V115.622Z" fill="#F0F0F0"/>
<path d="M180.133 59.5582L145.966 39.832L111.8 59.5582L145.966 79.2844L180.133 59.5582Z" fill="#FAFAFA"/>
<path d="M124.163 20.0238C124.201 19.9455 124.262 19.892 124.347 19.8628C124.432 19.8342 124.513 19.8391 124.59 19.8774L125.931 20.5362C126.01 20.5746 126.062 20.6361 126.092 20.7198C126.121 20.8051 126.116 20.8867 126.078 20.9644L125.549 22.039C125.511 22.1173 125.45 22.1708 125.365 22.1989C125.28 22.2286 125.199 22.2237 125.121 22.1854L123.78 21.526C123.703 21.4877 123.649 21.4267 123.62 21.3414C123.591 21.2571 123.596 21.1756 123.635 21.0978L124.163 20.0238ZM127.012 14.2247C127.051 14.1469 127.112 14.0935 127.196 14.0643C127.281 14.0352 127.363 14.04 127.441 14.0784L128.781 14.7377C128.86 14.776 128.913 14.8376 128.941 14.9218C128.97 15.0072 128.966 15.0882 128.927 15.1659L126.673 19.7521C126.635 19.8299 126.574 19.8839 126.489 19.9125C126.404 19.9417 126.323 19.9368 126.245 19.8985L124.904 19.2397C124.826 19.2013 124.773 19.1403 124.744 19.0555C124.715 18.9708 124.72 18.8898 124.758 18.812L127.012 14.2247Z" fill="#A3CD0C"/>
<g opacity="0.5">
<path d="M124.163 20.0238C124.201 19.9455 124.262 19.892 124.347 19.8628C124.432 19.8342 124.513 19.8391 124.59 19.8774L125.931 20.5362C126.01 20.5746 126.062 20.6361 126.092 20.7198C126.121 20.8051 126.116 20.8867 126.078 20.9644L125.549 22.039C125.511 22.1173 125.45 22.1708 125.365 22.1989C125.28 22.2286 125.199 22.2237 125.121 22.1854L123.78 21.526C123.703 21.4877 123.649 21.4267 123.62 21.3414C123.591 21.2571 123.596 21.1756 123.635 21.0978L124.163 20.0238ZM127.012 14.2247C127.051 14.1469 127.112 14.0935 127.196 14.0643C127.281 14.0352 127.363 14.04 127.441 14.0784L128.781 14.7377C128.86 14.776 128.913 14.8376 128.941 14.9218C128.97 15.0072 128.966 15.0882 128.927 15.1659L126.673 19.7521C126.635 19.8299 126.574 19.8839 126.489 19.9125C126.404 19.9417 126.323 19.9368 126.245 19.8985L124.904 19.2397C124.826 19.2013 124.773 19.1403 124.744 19.0555C124.715 18.9708 124.72 18.8898 124.758 18.812L127.012 14.2247Z" fill="white"/>
</g>
<path d="M127.102 23.2622C127.161 23.199 127.236 23.166 127.326 23.1639C127.415 23.1617 127.491 23.1903 127.554 23.2503L128.638 24.2784C128.701 24.3384 128.734 24.4134 128.736 24.502C128.738 24.5922 128.71 24.6678 128.65 24.731L127.826 25.5998C127.766 25.663 127.692 25.6959 127.602 25.6976C127.512 25.7003 127.436 25.6711 127.373 25.6117L126.289 24.5835C126.226 24.5241 126.194 24.4496 126.191 24.36C126.188 24.2709 126.218 24.1947 126.277 24.1316L127.102 23.2622ZM131.548 18.575C131.608 18.5123 131.683 18.4794 131.773 18.4767C131.862 18.4745 131.938 18.5031 132.001 18.5625L133.085 19.5907C133.148 19.6506 133.181 19.7257 133.183 19.8148C133.186 19.9044 133.157 19.9806 133.097 20.0432L129.58 23.7503C129.521 23.8135 129.446 23.8464 129.356 23.8481C129.267 23.8508 129.191 23.8221 129.128 23.7617L128.044 22.7335C127.981 22.6736 127.949 22.5996 127.946 22.5099C127.943 22.4208 127.972 22.3447 128.032 22.2815L131.548 18.575Z" fill="#A3CD0C"/>
<g opacity="0.2">
<path d="M127.102 23.2622C127.161 23.199 127.236 23.166 127.326 23.1639C127.415 23.1617 127.491 23.1903 127.554 23.2503L128.638 24.2784C128.701 24.3384 128.734 24.4134 128.736 24.502C128.738 24.5922 128.71 24.6678 128.65 24.731L127.826 25.5998C127.766 25.663 127.692 25.6959 127.602 25.6976C127.512 25.7003 127.436 25.6711 127.373 25.6117L126.289 24.5835C126.226 24.5241 126.194 24.4496 126.191 24.36C126.188 24.2709 126.218 24.1947 126.277 24.1316L127.102 23.2622ZM131.548 18.575C131.608 18.5123 131.683 18.4794 131.773 18.4767C131.862 18.4745 131.938 18.5031 132.001 18.5625L133.085 19.5907C133.148 19.6506 133.181 19.7257 133.183 19.8148C133.186 19.9044 133.157 19.9806 133.097 20.0432L129.58 23.7503C129.521 23.8135 129.446 23.8464 129.356 23.8481C129.267 23.8508 129.191 23.8221 129.128 23.7617L128.044 22.7335C127.981 22.6736 127.949 22.5996 127.946 22.5099C127.943 22.4208 127.972 22.3447 128.032 22.2815L131.548 18.575Z" fill="white"/>
</g>
<path d="M71.6953 132.051C71.7336 131.973 71.7946 131.919 71.8794 131.89C71.9642 131.862 72.0458 131.866 72.123 131.905L73.4638 132.564C73.5421 132.602 73.595 132.663 73.6242 132.747C73.6533 132.832 73.6485 132.914 73.6101 132.992L73.082 134.066C73.0437 134.145 72.9821 134.198 72.8973 134.226C72.8125 134.256 72.7315 134.251 72.6532 134.213L71.3124 133.554C71.2347 133.516 71.1812 133.455 71.152 133.369C71.1229 133.285 71.1277 133.203 71.1666 133.126L71.6953 132.051ZM74.5454 126.252C74.5837 126.174 74.6448 126.121 74.7295 126.092C74.8143 126.063 74.8959 126.067 74.9736 126.106L76.3144 126.765C76.3927 126.803 76.4457 126.865 76.4743 126.949C76.5034 127.035 76.4986 127.116 76.4602 127.193L74.2063 131.779C74.168 131.857 74.1064 131.911 74.0221 131.939C73.9374 131.968 73.8564 131.964 73.7781 131.925L72.4373 131.266C72.3595 131.228 72.306 131.167 72.2769 131.082C72.2477 130.998 72.2526 130.917 72.2909 130.839L74.5454 126.252Z" fill="#A3CD0C"/>
<path d="M74.634 135.289C74.6934 135.226 74.7685 135.193 74.8581 135.191C74.9477 135.189 75.0239 135.218 75.0865 135.278L76.1703 136.306C76.2335 136.366 76.2664 136.441 76.2686 136.529C76.2707 136.62 76.2427 136.695 76.1827 136.758L75.3581 137.627C75.2982 137.69 75.2242 137.723 75.134 137.725C75.0449 137.728 74.9688 137.698 74.9056 137.639L73.8218 136.611C73.7587 136.551 73.7263 136.477 73.7236 136.387C73.7209 136.298 73.75 136.222 73.8094 136.159L74.634 135.289ZM79.0809 130.602C79.1403 130.539 79.2154 130.507 79.305 130.504C79.3946 130.502 79.4708 130.53 79.5334 130.59L80.6172 131.618C80.6804 131.678 80.7133 131.752 80.7155 131.842C80.7182 131.932 80.689 132.008 80.6296 132.071L77.1126 135.778C77.0532 135.841 76.9787 135.874 76.8885 135.876C76.7994 135.879 76.7233 135.85 76.6601 135.79L75.5763 134.761C75.5137 134.701 75.4813 134.627 75.478 134.538C75.4759 134.449 75.5045 134.373 75.5644 134.309L79.0809 130.602Z" fill="#A3CD0C"/>
<g opacity="0.2">
<path d="M74.634 135.289C74.6934 135.226 74.7685 135.193 74.8581 135.191C74.9477 135.189 75.0239 135.218 75.0865 135.278L76.1703 136.306C76.2335 136.366 76.2664 136.441 76.2686 136.529C76.2707 136.62 76.2427 136.695 76.1827 136.758L75.3581 137.627C75.2982 137.69 75.2242 137.723 75.134 137.725C75.0449 137.728 74.9688 137.698 74.9056 137.639L73.8218 136.611C73.7587 136.551 73.7263 136.477 73.7236 136.387C73.7209 136.298 73.75 136.222 73.8094 136.159L74.634 135.289ZM79.0809 130.602C79.1403 130.539 79.2154 130.507 79.305 130.504C79.3946 130.502 79.4708 130.53 79.5334 130.59L80.6172 131.618C80.6804 131.678 80.7133 131.752 80.7155 131.842C80.7182 131.932 80.689 132.008 80.6296 132.071L77.1126 135.778C77.0532 135.841 76.9787 135.874 76.8885 135.876C76.7994 135.879 76.7233 135.85 76.6601 135.79L75.5763 134.761C75.5137 134.701 75.4813 134.627 75.478 134.538C75.4759 134.449 75.5045 134.373 75.5644 134.309L79.0809 130.602Z" fill="white"/>
</g>
<path d="M141.17 179.549C141.004 178.828 141.012 178.04 141.102 177.267C141.227 176.196 141.455 175.119 141.315 174.05C141.239 173.472 141.057 172.914 140.945 172.343C140.834 171.771 140.797 171.163 141.005 170.619C141.363 169.684 142.297 169.47 143.157 169.186C143.96 168.921 144.422 168.87 145.128 168.328C145.833 167.785 148.333 164.388 148.333 164.388L151.614 169.468C151.614 169.468 148.133 171.973 147.267 172.98C146.401 173.988 146.113 174.528 146.061 174.719C145.892 175.346 145.805 176.002 145.851 176.651C145.881 177.076 145.914 177.615 146.092 178.01C146.299 178.468 146.858 178.827 147.167 179.229C147.512 179.678 147.79 180.193 147.893 180.75C147.951 181.062 147.895 181.327 147.63 181.516C147.503 181.607 147.345 181.643 147.217 181.73C147.065 181.834 146.955 181.966 146.78 182.046C146.345 182.246 145.859 182.319 145.384 182.336C144.473 182.368 143.538 182.202 142.749 181.745C141.844 181.221 141.375 180.437 141.17 179.549Z" fill="#FFBDA7"/>
<path d="M141.114 169.468C140.122 169.586 139.904 170.349 139.774 171.177C139.643 172.005 140.201 173.404 140.402 174.142C140.602 174.881 140.768 175.143 140.402 176.385C140.035 177.627 139.787 179.75 140.434 181.096C141.081 182.442 142.228 183.289 144.367 183.367C146.507 183.444 147.777 182.921 148.032 182.485C148.288 182.051 148.316 180.83 148.185 180.535C148.054 180.241 145.287 178.215 144.481 176.82C143.674 175.426 141.114 169.468 141.114 169.468Z" fill="#263238"/>
<path d="M145.319 168.144C145.123 167.956 144.974 167.949 144.471 168.215C144.206 168.356 143.909 168.498 143.033 168.731C142.157 168.963 140.827 168.98 140.477 170.7C140.127 172.421 141.109 174.044 141.009 175.074C140.931 175.873 139.904 178.429 140.848 180.449C141.772 182.428 143.507 182.516 145.008 182.593C146.492 182.67 148.256 182.076 148.322 181.423C148.389 180.77 148.158 179.351 146.771 178.388C145.702 177.646 146.325 174.78 146.448 174.441C146.65 173.889 146.869 173.672 147.373 173.207C147.878 172.742 148.051 172.621 147.122 172.287C146.299 171.991 144.61 171.359 143.792 172.411C143.792 172.411 144.518 171.272 144.46 170.786C144.402 170.299 144.115 169.211 144.751 168.59C144.997 168.455 145.189 168.307 145.319 168.144Z" fill="#37474F"/>
<path d="M140.971 180.796C141.282 179.627 142.916 178.646 144.442 178.397C145.969 178.148 146.606 178.206 147.122 178.518C147.639 178.83 148.76 180.035 148.336 181.607C147.435 182.904 142.251 183.422 140.971 180.796Z" fill="#FAFAFA"/>
<path d="M158.219 150.714C158.219 150.714 157.156 148.026 157.603 145.765C158.049 143.505 160.103 138.355 160.103 138.355L172.531 140.47C172.343 145.276 170.677 149.127 169.587 152.347C168.209 156.087 167.608 157.444 166.283 159.017C164.9 160.659 163.599 161.895 158.649 165.117C154.21 168.008 150.403 170.462 150.403 170.462C150.403 170.462 149.019 170.462 147.864 168.457C147.21 167.323 147.177 165.731 147.177 165.731C147.177 165.731 151.557 159.639 153.66 157.866C155.897 155.979 157.369 155.128 157.369 155.128L158.219 150.714Z" fill="#263238"/>
<path d="M169.679 197.618C170.105 197.678 170.537 197.704 170.965 197.706C171.26 197.707 171.558 197.697 171.841 197.617C172.223 197.509 172.558 197.281 172.88 197.05C173.138 196.863 173.407 196.656 173.518 196.357C173.659 195.976 173.499 195.539 173.236 195.228C172.974 194.918 172.621 194.701 172.296 194.457C172.284 194.448 172.272 194.439 172.26 194.43C171.095 193.545 170.136 192.266 169.37 191.032C168.628 189.835 167.868 188.503 167.837 187.056C167.804 185.567 168.216 178.556 169.013 172.002C169.348 169.148 169.509 166.674 169.441 165.426C169.429 165.198 168.363 154.887 165.919 147.523C165.919 147.523 168.279 146.978 169.86 145.31C171.445 143.636 172.53 141.732 172.53 141.732L159.159 136.34C157.983 137.333 156.911 138.28 155.874 139.972C154.726 141.843 153.596 144.746 153.865 147.734C154.109 150.435 155.217 153.481 156.046 155.435C157.558 159.001 160.226 164.46 161.122 166.368C161.122 166.37 160.42 169.896 161.125 175.047C161.452 177.436 162.563 183.972 162.657 186.506C162.657 186.506 162.503 186.88 162.332 188.335C162.251 189.024 161.458 190.698 162.464 191.447C162.692 191.615 162.815 191.8 163.067 191.941C163.334 192.089 163.593 192.252 163.843 192.427C164.089 192.599 164.328 192.784 164.519 193.015C164.745 193.289 164.895 193.614 165.053 193.931C165.618 195.063 166.353 196.157 167.421 196.834C168.1 197.266 168.878 197.504 169.679 197.618Z" fill="#FFBDA7"/>
<path d="M161.688 190.949C161.685 191.445 161.613 191.759 162.067 192.277C162.52 192.796 163.311 193.215 163.884 193.614C164.457 194.013 164.911 194.629 165.106 195.264C165.302 195.9 165.655 197.407 167.859 198.348C170.064 199.29 171.81 198.861 172.643 198.627C173.476 198.392 174.003 197.963 174.006 197.188C174.01 196.413 161.688 190.949 161.688 190.949Z" fill="#263238"/>
<path d="M163.22 187.379C162.829 187.152 162.733 186.886 162.662 186.715L162.657 186.506C162.391 186.501 162.476 187.231 162.08 188.18C161.735 189.009 161.602 189.751 161.688 190.949C162.148 192.062 163.749 192.391 164.563 193.482C165.377 194.574 165.278 196.532 168.063 197.626C170.573 198.611 173.178 197.807 174.007 197.188C174.007 197.188 174.466 195.436 173.341 194.856C172.555 194.451 171.856 194.081 170.738 192.534C170.128 191.691 168.895 189.207 168.727 188.661C168.559 188.115 168.612 187.093 168.237 187.024C167.862 186.954 165.252 187.438 164.672 187.623C164.092 187.808 164.459 188.978 164.459 188.978C164.459 188.978 164.192 188.715 163.977 188.156C163.763 187.596 163.558 187.577 163.22 187.379Z" fill="#37474F"/>
<path d="M166.933 197.043C167.081 195.785 167.813 194.8 169.371 194.182C170.465 193.749 171.796 193.803 172.31 194.062C172.824 194.322 174.015 194.868 174.103 195.748C174.191 196.629 174.007 197.188 174.007 197.188C174.007 197.188 172.749 198.33 170.133 198.119C167.876 197.937 166.933 197.043 166.933 197.043Z" fill="#FAFAFA"/>
<path d="M160.88 166.416C160.015 170.498 161.124 175.91 161.569 178.641C161.803 180.079 162.328 183.684 162.328 183.684C162.328 183.684 162.577 184.478 164.9 184.65C167.223 184.821 168.084 184.071 168.084 184.071C168.084 184.071 168.875 174.581 169.376 170.17C169.8 166.432 169.571 165.138 169.415 163.639C169.319 161.728 168.188 155.476 167.313 151.725L166.59 148.109C166.59 148.109 171.507 146.898 172.53 141.732L158.848 135.844C157.801 136.507 156.326 137.482 155.015 139.425C153.856 141.145 153.049 142.669 153.156 145.975C153.236 148.429 153.987 150.295 154.51 152.056C154.999 153.7 160.253 164.986 160.88 166.416Z" fill="#37474F"/>
<path d="M164.793 152.542C165.604 154.767 166.304 157.039 166.819 159.36C167.085 160.518 167.292 161.691 167.466 162.869C167.55 163.459 167.615 164.05 167.675 164.644C167.698 164.942 167.732 165.24 167.748 165.54C167.759 165.842 167.77 166.144 167.771 166.441C167.777 168.825 167.634 171.189 167.448 173.551C167.264 175.913 167.007 178.267 166.693 180.615C166.749 178.247 166.833 175.882 166.929 173.52L167.052 169.979C167.089 168.8 167.121 167.62 167.106 166.447C167.107 166.153 167.098 165.864 167.091 165.574C167.078 165.284 167.048 164.993 167.027 164.702C166.977 164.118 166.909 163.534 166.843 162.951C166.707 161.783 166.515 160.622 166.312 159.463C165.887 157.146 165.359 154.842 164.793 152.542Z" fill="#263238"/>
<path d="M164.013 107.784C161.981 108.194 161.119 111.686 161.334 115.351C161.548 119.016 163.487 124.547 170.133 125.82C176.78 127.094 179.619 125.046 180.461 123.13C181.944 119.757 179.666 117.858 177.967 117.985C179.08 116.667 177.316 113.461 174.465 114.793C172.784 115.579 164.013 107.784 164.013 107.784Z" fill="#263238"/>
<path d="M172.764 120.439C170.982 121.367 169.812 123.081 171.226 126.35C172.769 129.916 175.081 134.27 176.253 136.159C177.145 137.598 177.217 137.968 179.318 138.959C181.591 140.031 189.806 142.242 190.459 142.438C191.064 142.619 191.699 142.429 192.273 142.225C192.738 142.059 193.102 141.829 193.487 141.527C193.974 141.145 193.959 140.468 194.107 139.928C194.374 138.952 194.671 137.987 194.929 137.009C195.045 136.565 195.298 136.095 195.129 135.632C195.095 135.539 194.988 135.415 194.899 135.414C194.899 135.414 195.007 134.998 195.062 134.809C195.162 134.464 195.283 133.802 194.906 133.569C194.594 133.378 194.121 134.108 194.121 134.108C194.121 134.108 194.541 133.395 194.511 132.997C194.472 132.5 194.172 132.129 193.848 132.342C193.525 132.554 193.294 132.926 193.294 132.926C193.199 132.836 192.993 132.821 192.817 132.869C192.353 132.995 192.067 133.44 191.832 133.824C191.553 134.278 191.322 134.761 191.141 135.262C190.959 135.771 190.826 136.306 190.53 136.758C190.335 137.055 190.051 137.315 189.713 137.438C189.309 137.584 189.014 137.448 188.636 137.301C188.071 137.081 187.525 136.802 186.985 136.525C185.639 135.835 184.321 135.091 183.01 134.336C182.52 134.054 182.031 133.77 181.545 133.482C181.545 133.482 178.936 127.425 177.877 125.147C177.12 123.515 175.86 120.471 172.764 120.439Z" fill="#FFBDA7"/>
<path d="M194.108 139.929L194.72 137.617C194.825 137.236 194.927 136.843 195.052 136.468C195.107 136.279 195.148 136.086 195.136 135.896C195.129 135.802 195.106 135.705 195.072 135.625C195.037 135.551 194.955 135.468 194.9 135.466C194.87 135.465 194.848 135.44 194.849 135.41L194.85 135.401C194.959 134.918 195.167 134.437 195.084 133.966C195.047 133.747 194.863 133.512 194.669 133.64C194.475 133.75 194.311 133.949 194.175 134.143C194.156 134.173 194.116 134.181 194.086 134.161C194.059 134.143 194.051 134.105 194.066 134.076C194.194 133.855 194.309 133.62 194.389 133.379C194.479 133.14 194.474 132.887 194.377 132.653C194.332 132.539 194.262 132.432 194.166 132.371C194.069 132.312 193.952 132.323 193.854 132.398C193.647 132.54 193.474 132.74 193.333 132.95C193.319 132.971 193.291 132.977 193.27 132.963L193.269 132.962L193.264 132.959C193.056 132.81 192.719 132.906 192.502 133.065C192.27 133.229 192.099 133.469 191.94 133.711C191.618 134.196 191.349 134.716 191.142 135.262C191.329 134.709 191.58 134.176 191.886 133.676C192.039 133.428 192.212 133.18 192.457 133.001C192.694 132.837 193.03 132.699 193.325 132.894L193.257 132.903C193.403 132.679 193.576 132.474 193.798 132.317C193.904 132.227 194.089 132.198 194.218 132.282C194.346 132.361 194.424 132.485 194.477 132.611C194.587 132.859 194.594 133.161 194.501 133.414C194.419 133.67 194.306 133.908 194.176 134.14L194.067 134.073C194.214 133.863 194.365 133.655 194.608 133.52C194.72 133.441 194.938 133.467 195.023 133.579C195.126 133.679 195.18 133.812 195.203 133.942C195.249 134.205 195.207 134.461 195.148 134.706L194.95 135.427L194.9 135.361C195.174 135.432 195.211 135.694 195.232 135.889C195.242 136.098 195.195 136.301 195.136 136.493C195.005 136.872 194.902 137.25 194.79 137.636L194.108 139.929Z" fill="#F0997A"/>
<path d="M193.337 132.874C193.516 133.019 193.519 133.263 193.479 133.44C193.439 133.628 193.362 133.799 193.277 133.963C193.088 134.28 192.926 134.596 192.784 134.933C192.643 135.266 192.513 135.607 192.409 135.955L192.119 137.007L192.377 135.946C192.47 135.592 192.59 135.247 192.721 134.907C192.851 134.568 193.012 134.23 193.186 133.917C193.265 133.756 193.332 133.588 193.362 133.418C193.395 133.25 193.376 133.069 193.253 132.98L193.337 132.874Z" fill="#F0997A"/>
<path d="M194.185 134.133C193.992 134.605 193.824 135.089 193.665 135.576C193.509 136.063 193.354 136.551 193.242 137.051C193.332 136.547 193.465 136.05 193.6 135.556C193.738 135.062 193.885 134.57 194.058 134.084L194.185 134.133Z" fill="#F0997A"/>
<path d="M192.492 139.138C192.247 138.725 191.907 138.374 191.454 138.196C191.425 138.185 191.423 138.244 191.443 138.257C191.789 138.485 192.099 138.801 192.284 139.176C192.468 139.552 192.554 139.931 192.594 140.347C192.608 140.489 192.611 140.64 192.639 140.78C192.675 140.774 192.698 140.741 192.702 140.702C192.733 140.422 192.757 140.128 192.736 139.846C192.713 139.593 192.621 139.355 192.492 139.138Z" fill="#F0997A"/>
<path d="M194.963 135.438C194.722 136.018 194.485 136.602 194.305 137.204C194.442 136.589 194.637 135.988 194.837 135.39L194.963 135.438Z" fill="#F0997A"/>
<path d="M190.627 136.217C190.643 135.328 190.142 134.902 189.786 135.04C189.43 135.179 189.492 136.249 189.314 136.927C189.135 137.604 188.121 140.755 189.515 141.632L190.766 138.078C190.561 137.832 190.615 136.906 190.627 136.217Z" fill="#FFBDA7"/>
<path d="M190.766 138.078C190.638 137.894 190.629 137.66 190.605 137.445C190.588 137.225 190.584 137.006 190.582 136.786C190.578 136.349 190.639 135.897 190.454 135.506C190.368 135.317 190.223 135.14 190.032 135.083C189.942 135.055 189.831 135.065 189.763 135.115C189.693 135.168 189.654 135.272 189.624 135.37C189.513 135.78 189.511 136.227 189.438 136.664C189.224 137.529 188.957 138.354 188.868 139.229C188.821 139.661 188.811 140.102 188.889 140.529C188.958 140.951 189.143 141.383 189.515 141.632C189.13 141.403 188.916 140.97 188.824 140.542C188.735 140.106 188.739 139.659 188.779 139.22C188.852 138.341 189.112 137.481 189.305 136.642C189.385 136.215 189.392 135.774 189.517 135.336C189.553 135.23 189.593 135.113 189.7 135.03C189.814 134.952 189.945 134.952 190.061 134.986C190.296 135.063 190.447 135.265 190.537 135.47C190.863 136.338 190.435 137.249 190.766 138.078Z" fill="#F0997A"/>
<path d="M169.535 120.397C170.893 120.238 172.325 120.325 172.764 120.439C173.432 120.612 175.984 124.368 177.219 128.369C178.453 132.369 174.315 134.287 174.315 134.287C174.315 134.287 173.396 138.5 173.306 139.394C173.216 140.288 173.662 141.755 172.985 142.686C172.162 143.815 169.733 145.014 164.346 143.631C160.305 142.593 156.282 138.805 156.014 137.918C155.828 137.303 156.553 136.579 156.858 136.291C158.042 135.166 158.837 134.461 158.976 131.306C159.07 129.18 159.535 127.004 159.963 125.664C160.638 123.547 161.774 122.816 162.431 121.821C165.931 120.811 168.155 120.559 169.535 120.397Z" fill="#A3CD0C"/>
<path d="M165.798 118.251C165.798 118.251 164.486 116.336 163.768 115.055C163.05 113.773 160.987 109.525 164.013 107.784C164.124 106.371 165.573 105.047 168.3 104.511C171.027 103.975 173.276 104.758 174.756 105.955C176.62 107.462 177.858 111.311 175.347 113.39L165.798 118.251Z" fill="#263238"/>
<path d="M174.996 108.41C174.996 108.41 175.903 109.414 175.706 112.216C175.672 112.701 175.992 113.575 175.962 114.811C175.896 117.623 174.974 118.994 173.559 119.491C172.932 119.711 171.833 119.671 171.241 119.581L171.11 121.182C172.358 123.481 172.903 125.97 172.91 128.04C170.412 125.384 168.073 123.556 165.638 121.845L165.857 116.924C165.857 116.924 165.052 117.541 164.102 116.571C163.056 115.504 163.137 113.851 164.013 113.282C165.299 112.448 166.145 113.438 166.419 114.042C166.693 114.646 167.741 114.27 167.159 112.454C167.802 112.317 168.736 110.313 168.654 108.859C170.866 109.835 173.638 109.703 174.996 108.41Z" fill="#FFBDA7"/>
<path d="M170.724 111.327L169.528 111.967C169.336 111.641 169.45 111.232 169.781 111.056C170.111 110.879 170.534 111 170.724 111.327Z" fill="#263238"/>
<path d="M173.906 111.092L175.209 111.471C175.328 111.112 175.133 110.736 174.773 110.631C174.414 110.527 174.025 110.733 173.906 111.092Z" fill="#263238"/>
<path d="M172.41 112.343L172.864 115.376L174.572 114.65L172.41 112.343Z" fill="#F0997A"/>
<path d="M171.242 119.581C170.46 119.461 168.51 118.896 167.56 118.248C167.053 117.901 166.644 117.135 166.517 116.791C166.517 116.791 166.625 118.175 167.376 118.794C168.565 119.775 171.175 120.422 171.175 120.422L171.242 119.581Z" fill="#F0997A"/>
<path d="M173.946 112.763C173.967 113.045 174.217 113.263 174.503 113.25C174.789 113.236 175.004 112.997 174.983 112.714C174.963 112.432 174.713 112.214 174.427 112.227C174.141 112.241 173.925 112.48 173.946 112.763Z" fill="#263238"/>
<path d="M170.081 112.92C170.061 113.202 170.276 113.454 170.561 113.483C170.846 113.511 171.094 113.305 171.114 113.023C171.135 112.74 170.92 112.488 170.635 112.46C170.35 112.432 170.101 112.638 170.081 112.92Z" fill="#263238"/>
<path d="M170.677 115.859C170.464 116.353 170.692 116.926 171.187 117.138C171.681 117.351 172.254 117.122 172.466 116.628L170.677 115.859Z" fill="#B16668"/>
<path d="M170.606 116.156C170.569 116.564 170.79 116.967 171.187 117.138C171.311 117.191 171.44 117.217 171.568 117.217C171.557 116.679 171.158 116.218 170.608 116.156C170.608 116.156 170.607 116.156 170.606 116.156Z" fill="#F28F8F"/>
<path d="M162.432 121.82C160.526 122.454 158.778 124.364 159.655 127.815C160.613 131.581 162.206 136.246 163.063 138.297C163.716 139.859 163.729 140.236 165.646 141.547C167.721 142.967 175.481 146.453 176.096 146.749C176.71 147.046 177.426 146.951 178.607 146.682C179.789 146.413 180.174 145.586 180.95 144.899C181.785 144.159 182.86 143.551 182.615 143.238C182.313 142.85 181.77 142.778 180.827 143.241C179.884 143.706 179.703 143.952 180.432 142.405C181.161 140.857 181.676 140.385 181.917 139.984C182.275 139.385 182.17 138.937 181.892 138.698C181.615 138.459 181.032 139.106 181.032 139.106C181.032 139.106 181.56 138.468 181.593 138.07C181.634 137.573 181.396 137.159 181.042 137.318C180.689 137.476 180.403 137.808 180.403 137.808C180.246 137.624 179.603 137.49 178.934 138.346C178.934 138.346 178.675 137.832 177.686 138.648C176.87 139.321 176.155 140.878 175.796 141.613C175.524 142.168 168.714 136.494 168.714 136.494L166.006 127.912C166.006 127.912 164.718 122.359 162.432 121.82Z" fill="#FFBDA7"/>
<path d="M180.432 142.405C180.613 142.004 180.81 141.61 181.031 141.228C181.248 140.845 181.51 140.486 181.77 140.135C182.017 139.794 182.211 139.337 182.028 138.949C181.985 138.859 181.912 138.77 181.836 138.72C181.764 138.673 181.658 138.7 181.567 138.744C181.382 138.837 181.217 138.988 181.072 139.142C181.051 139.164 181.017 139.165 180.995 139.145C180.975 139.125 180.973 139.094 180.99 139.072C181.149 138.871 181.297 138.656 181.412 138.428C181.536 138.205 181.567 137.956 181.506 137.711C181.462 137.468 181.263 137.258 181.046 137.392C180.823 137.498 180.62 137.667 180.449 137.85C180.425 137.876 180.385 137.877 180.358 137.853L180.354 137.85C180.279 137.767 180.134 137.73 180.003 137.734C179.869 137.736 179.735 137.775 179.611 137.835C179.361 137.957 179.152 138.158 178.975 138.379C178.956 138.401 178.923 138.405 178.901 138.387L178.889 138.373L178.887 138.37C178.797 138.223 178.567 138.208 178.386 138.278C178.198 138.34 178.024 138.451 177.859 138.57C177.526 138.81 177.259 139.126 177.021 139.462C176.549 140.138 176.166 140.875 175.795 141.614C176.144 140.865 176.486 140.105 176.961 139.419C177.197 139.078 177.466 138.749 177.805 138.499C177.974 138.375 178.151 138.257 178.356 138.187C178.547 138.114 178.832 138.097 178.98 138.324L178.892 138.315C179.074 138.085 179.288 137.868 179.56 137.732C179.695 137.665 179.845 137.619 180.001 137.615C180.154 137.613 180.321 137.638 180.449 137.769L180.355 137.768C180.537 137.568 180.741 137.393 180.988 137.271C181.11 137.197 181.309 137.201 181.426 137.309C181.542 137.412 181.597 137.549 181.628 137.683C181.696 137.949 181.65 138.248 181.515 138.482C181.392 138.72 181.24 138.935 181.072 139.141L180.991 139.071C181.148 138.909 181.315 138.758 181.525 138.655C181.626 138.608 181.763 138.564 181.885 138.639C181.991 138.711 182.058 138.803 182.11 138.91C182.31 139.357 182.085 139.834 181.832 140.18C181.567 140.533 181.303 140.881 181.069 141.253C180.837 141.624 180.626 142.011 180.432 142.405Z" fill="#F0997A"/>
<path d="M178.995 138.318C179.122 138.629 179.014 138.957 178.853 139.205C178.773 139.332 178.66 139.442 178.562 139.542C178.47 139.646 178.391 139.769 178.319 139.895C178.033 140.399 177.804 140.939 177.585 141.479C177.784 140.931 177.99 140.384 178.26 139.862C178.328 139.732 178.402 139.604 178.499 139.486C178.601 139.374 178.695 139.276 178.766 139.151C178.91 138.916 178.984 138.613 178.872 138.374L178.995 138.318Z" fill="#F0997A"/>
<path d="M180.452 137.762C180.607 137.934 180.571 138.176 180.503 138.344C180.433 138.523 180.331 138.68 180.221 138.828C179.984 139.111 179.773 139.397 179.58 139.708C179.387 140.015 179.205 140.33 179.048 140.658L178.595 141.651L179.018 140.643C179.166 140.309 179.338 139.987 179.523 139.672C179.704 139.358 179.917 139.049 180.139 138.768C180.242 138.622 180.335 138.467 180.392 138.304C180.451 138.143 180.46 137.961 180.354 137.854L180.452 137.762Z" fill="#F0997A"/>
<path d="M181.089 139.14C180.825 139.575 180.582 140.026 180.348 140.482C180.116 140.938 179.886 141.396 179.697 141.872C179.865 141.388 180.076 140.919 180.288 140.452C180.502 139.986 180.724 139.524 180.973 139.072L181.089 139.14Z" fill="#F0997A"/>
<path d="M180.827 143.241C180.217 143.542 179.928 143.747 179.996 143.439C179.749 144.11 179.804 144.378 180.047 144.119C180.29 143.86 180.492 143.634 180.784 143.38C181.049 143.151 181.435 143.006 181.507 142.981C181.306 143.032 181.082 143.116 180.827 143.241Z" fill="#F0997A"/>
<path d="M178.357 144.047C178.18 143.601 177.9 143.2 177.481 142.953C177.454 142.936 177.443 142.995 177.46 143.011C177.766 143.29 178.022 143.652 178.144 144.051C178.21 144.266 178.245 144.486 178.279 144.708C178.299 144.844 178.327 144.99 178.317 145.128C178.311 145.217 178.293 145.306 178.301 145.395C178.302 145.404 178.311 145.413 178.318 145.404C178.384 145.327 178.396 145.222 178.418 145.127C178.446 145.01 178.476 144.907 178.485 144.785C178.502 144.531 178.449 144.283 178.357 144.047Z" fill="#F0997A"/>
<path d="M173.532 140.308L173.53 140.307C173.53 140.307 175.275 143.019 175.384 142.893C175.494 142.767 175.593 142.168 175.796 141.613C175.697 141.816 174.725 141.187 173.532 140.308Z" fill="#F0997A"/>
<path d="M247.417 216.828C265.688 198.557 265.688 168.934 247.417 150.663C229.146 132.392 199.523 132.392 181.252 150.663C162.981 168.934 162.981 198.557 181.252 216.828C199.523 235.099 229.146 235.099 247.417 216.828Z" fill="#A3CD0C"/>
<path opacity="0.1" d="M258.995 197.733C258.968 197.791 241.984 229.175 205.83 218.124C169.213 206.932 169.677 160.417 190.398 143.542C176.716 151.707 167.55 166.655 167.55 183.745C167.55 209.585 188.497 230.532 214.336 230.532C235.303 230.531 253.048 216.74 258.995 197.733Z" fill="black"/>
<path opacity="0.1" d="M204.095 145.592C200.228 147.118 196.333 149.886 195.627 153.984C195.117 156.942 196.444 159.989 198.477 162.198C200.51 164.408 203.181 165.912 205.854 167.281C214.134 171.523 223.071 174.949 229.833 181.339C232.48 183.841 234.977 186.485 237.772 188.821C241.984 192.339 246.182 192.87 249.371 191.112C249.759 190.898 250.134 190.658 250.49 190.395C262.578 181.438 249.403 160.629 241.266 153.49C231.305 144.752 216.756 140.597 204.095 145.592Z" fill="white"/>
<path opacity="0.1" d="M201.155 153.429C200.727 155.21 201.425 157.125 202.614 158.519C203.803 159.912 205.431 160.858 207.089 161.637C212.859 164.349 219.289 165.339 225.207 167.712C227.018 168.437 228.808 169.3 230.741 169.557C232.674 169.814 234.841 169.34 236.056 167.814C237.074 166.536 237.243 164.773 237.083 163.147C236.845 160.728 235.961 158.376 234.548 156.399C228.961 148.579 216.841 144.596 207.812 147.85C205.183 148.797 201.871 150.451 201.155 153.429Z" fill="white"/>
<path d="M239.837 226.893C238.318 227.776 236.914 228.83 235.407 229.736C233.947 230.615 232.421 231.376 230.844 232.022C227.725 233.301 224.432 234.135 221.075 234.458C219.162 234.642 217.272 234.589 215.356 234.612C214.873 234.618 215.122 235.248 215.465 235.309C217.208 235.619 219.095 235.549 220.854 235.409C222.6 235.269 224.336 234.996 226.041 234.594C229.295 233.827 232.415 232.605 235.323 230.957C237.057 229.975 238.828 228.89 240.103 227.339C240.226 227.189 240.053 226.767 239.837 226.893Z" fill="#E0E0E0"/>
<path d="M237.474 234.357C236.191 234.932 235.055 235.808 233.804 236.454C232.621 237.064 231.374 237.566 230.104 237.967C228.873 238.356 227.608 238.636 226.328 238.81C224.968 238.994 223.577 238.967 222.228 239.198C222.023 239.234 222.166 239.587 222.309 239.619C223.759 239.948 225.324 239.824 226.785 239.614C228.111 239.423 229.421 239.115 230.696 238.707C231.964 238.302 233.187 237.781 234.368 237.167C235.546 236.554 236.936 235.848 237.725 234.75C237.821 234.616 237.656 234.276 237.474 234.357Z" fill="#E0E0E0"/>
<path d="M215.931 88.7112C210.228 81.513 199.732 80.2936 192.531 85.9993C185.332 91.7022 184.118 102.199 189.821 109.397C195.524 116.595 206.018 117.811 213.216 112.108C220.418 106.404 221.634 95.9094 215.931 88.7112ZM190.993 108.469C185.802 101.916 186.906 92.3621 193.459 87.1705C200.011 81.979 209.565 83.0892 214.756 89.6416C219.945 96.1912 218.839 105.743 212.286 110.934C205.734 116.126 196.183 115.019 190.993 108.469Z" fill="#455A64"/>
<path d="M212.287 110.934C205.734 116.126 196.183 115.019 190.993 108.469C185.802 101.916 186.907 92.3622 193.459 87.1706C200.011 81.979 209.565 83.0893 214.756 89.6416C219.946 96.1913 218.839 105.743 212.287 110.934Z" fill="white"/>
<path d="M185.663 111.539L188.653 106.449L192.423 111.207L186.784 112.953C185.94 113.215 185.216 112.301 185.663 111.539Z" fill="#455A64"/>
<path d="M202.876 110.294C202.216 110.294 201.571 110.238 200.961 110.129C200.843 110.108 200.754 110.013 200.74 109.894L200.501 107.834C200.452 107.376 200.142 106.978 199.691 106.791C199.682 106.788 199.674 106.785 199.664 106.781C199.212 106.592 198.706 106.654 198.344 106.94L196.725 108.227C196.632 108.301 196.501 108.306 196.402 108.238C195.343 107.499 194.432 106.588 193.695 105.529C193.627 105.432 193.631 105.301 193.705 105.208L194.992 103.584C195.28 103.22 195.339 102.727 195.15 102.266C195.147 102.259 195.145 102.252 195.143 102.245C194.951 101.793 194.551 101.479 194.098 101.426L192.033 101.187C191.915 101.174 191.819 101.084 191.798 100.966C191.689 100.355 191.633 99.712 191.633 99.0565C191.633 98.3977 191.688 97.7534 191.798 97.1416C191.819 97.0244 191.915 96.9348 192.033 96.9208L194.098 96.6821C194.556 96.6281 194.944 96.3284 195.138 95.878C195.141 95.8656 195.146 95.8532 195.151 95.8408C195.337 95.3882 195.276 94.8833 194.992 94.5237L193.705 92.9053C193.631 92.8119 193.627 92.6812 193.695 92.5829C194.432 91.5245 195.343 90.613 196.402 89.8748C196.5 89.8063 196.631 89.8106 196.725 89.8846L198.344 91.166C198.704 91.4527 199.21 91.5148 199.667 91.3301C199.674 91.3269 199.681 91.3247 199.689 91.322C200.141 91.1293 200.452 90.7291 200.501 90.2744L200.74 88.2127C200.754 88.0945 200.843 87.9994 200.961 87.9784C202.181 87.7597 203.571 87.7597 204.791 87.9784C204.909 87.9994 204.999 88.0945 205.012 88.2127L205.251 90.2723C205.3 90.7291 205.611 91.1293 206.063 91.322C206.071 91.3242 206.078 91.3274 206.086 91.3307C206.54 91.5159 207.048 91.4527 207.409 91.1665L209.028 89.8846C209.122 89.8111 209.252 89.8068 209.35 89.8748C210.409 90.613 211.32 91.524 212.058 92.5829C212.126 92.6812 212.122 92.8119 212.048 92.9053L210.761 94.5242C210.474 94.8866 210.412 95.3909 210.601 95.8386C210.607 95.8521 210.611 95.8651 210.614 95.8791C210.801 96.3214 211.198 96.6281 211.655 96.6821L213.714 96.9159C213.833 96.9294 213.929 97.0201 213.949 97.1384C214.058 97.7772 214.114 98.4225 214.114 99.057C214.114 99.719 214.058 100.364 213.949 100.972C213.927 101.09 213.831 101.179 213.714 101.193L211.654 101.427C211.196 101.481 210.797 101.794 210.61 102.244C210.61 102.245 210.61 102.246 210.609 102.246C210.606 102.254 210.604 102.261 210.601 102.268C210.41 102.726 210.47 103.217 210.76 103.584L212.047 105.208C212.122 105.302 212.126 105.433 212.057 105.531C211.316 106.587 210.405 107.497 209.35 108.238C209.252 108.306 209.12 108.302 209.026 108.228L207.408 106.941C207.045 106.654 206.54 106.593 206.087 106.782C206.078 106.785 206.069 106.789 206.06 106.791C205.61 106.979 205.3 107.377 205.25 107.833L205.012 109.894C204.998 110.013 204.908 110.108 204.791 110.129C204.181 110.238 203.537 110.294 202.876 110.294ZM201.253 109.63C202.294 109.794 203.457 109.794 204.499 109.63L204.714 107.772C204.786 107.118 205.227 106.548 205.866 106.287C205.874 106.284 205.883 106.281 205.891 106.278C206.521 106.019 207.23 106.11 207.744 106.518L209.204 107.678C210.085 107.034 210.855 106.264 211.499 105.383L210.339 103.919C209.926 103.398 209.836 102.707 210.101 102.068C210.101 102.067 210.101 102.066 210.102 102.065C210.103 102.059 210.106 102.052 210.109 102.046C210.368 101.409 210.936 100.966 211.593 100.889L213.451 100.678C213.533 100.159 213.575 99.6137 213.575 99.0554C213.575 98.5175 213.533 97.9711 213.451 97.4278L211.594 97.2172C210.935 97.14 210.367 96.6983 210.109 96.0654C210.104 96.0535 210.1 96.0411 210.097 96.0287C209.841 95.4034 209.934 94.6992 210.34 94.1878L211.5 92.7277C210.859 91.8448 210.089 91.0742 209.205 90.4332L207.746 91.5893C207.233 91.996 206.522 92.0878 205.89 91.8329C205.882 91.8302 205.873 91.8275 205.865 91.8237C205.226 91.5569 204.786 90.9856 204.715 90.3322L204.5 88.4762C203.459 88.3121 202.295 88.3126 201.254 88.4762L201.039 90.3344C200.969 90.9856 200.528 91.5569 199.889 91.8237C199.881 91.8269 199.873 91.8302 199.864 91.8329C199.232 92.0888 198.521 91.9954 198.009 91.5893L196.549 90.4337C195.666 91.0753 194.895 91.8453 194.255 92.7282L195.415 94.1878C195.818 94.6954 195.909 95.3985 195.658 96.0271C195.658 96.0281 195.657 96.0292 195.657 96.0303C195.653 96.0433 195.649 96.0557 195.644 96.0681C195.381 96.7004 194.812 97.1411 194.161 97.2178L192.297 97.4332C192.216 97.9543 192.174 98.4997 192.174 99.0559C192.174 99.6094 192.216 100.153 192.297 100.674L194.161 100.889C194.81 100.966 195.379 101.409 195.644 102.044C195.647 102.052 195.651 102.059 195.653 102.067C195.653 102.067 195.653 102.069 195.654 102.069C195.913 102.712 195.825 103.402 195.416 103.919L194.255 105.384C194.896 106.267 195.666 107.037 196.549 107.678L198.009 106.518C198.522 106.11 199.232 106.019 199.863 106.278C199.871 106.281 199.879 106.284 199.887 106.287C200.527 106.548 200.968 107.118 201.04 107.774L201.253 109.63Z" fill="#A3CD0C"/>
<path d="M202.878 92.5236C199.276 92.5236 196.349 95.4558 196.349 99.0576C196.349 102.654 199.276 105.581 202.878 105.581C206.474 105.581 209.401 102.654 209.401 99.0576C209.401 95.4558 206.474 92.5236 202.878 92.5236ZM202.878 105.041C199.573 105.041 196.889 102.357 196.889 99.0576C196.889 95.7528 199.573 93.0636 202.878 93.0636C206.177 93.0636 208.861 95.7528 208.861 99.0576C208.861 102.357 206.177 105.041 202.878 105.041Z" fill="#A3CD0C"/>
<path d="M202.067 99.0543C202.067 98.6077 202.429 98.2454 202.876 98.2454C203.322 98.2454 203.685 98.6077 203.685 99.0543C203.685 99.5009 203.322 99.8632 202.876 99.8632C202.429 99.8632 202.067 99.5009 202.067 99.0543Z" fill="#455A64"/>
<path d="M202.876 99.3232C202.841 99.3232 202.806 99.3167 202.773 99.3027C202.672 99.2611 202.606 99.1623 202.606 99.0532V95.561C202.606 95.412 202.727 95.291 202.876 95.291C203.025 95.291 203.146 95.412 203.146 95.561V98.4014L204.432 97.1162C204.537 97.0109 204.708 97.0109 204.813 97.1162C204.919 97.2215 204.919 97.3927 204.813 97.498L203.068 99.2438C203.016 99.2957 202.947 99.3232 202.876 99.3232Z" fill="#455A64"/>
<path d="M202.874 94.4876C202.725 94.4876 202.604 94.3666 202.604 94.2176V93.7251C202.604 93.576 202.725 93.4551 202.874 93.4551C203.023 93.4551 203.144 93.576 203.144 93.7251V94.2176C203.144 94.3666 203.023 94.4876 202.874 94.4876Z" fill="#A3CD0C"/>
<path d="M200.456 95.1366C200.363 95.1366 200.273 95.0885 200.222 95.0021L199.976 94.5755C199.9 94.4465 199.945 94.2812 200.074 94.2067C200.201 94.1317 200.368 94.176 200.443 94.305L200.69 94.7316C200.765 94.8607 200.721 95.0259 200.591 95.1004C200.549 95.1247 200.502 95.1366 200.456 95.1366Z" fill="#A3CD0C"/>
<path d="M198.687 96.9072C198.641 96.9072 198.595 96.8959 198.552 96.871L198.125 96.6248C197.996 96.5503 197.952 96.385 198.027 96.256C198.101 96.1269 198.266 96.0832 198.395 96.1572L198.822 96.4034C198.951 96.4779 198.995 96.6432 198.921 96.7722C198.871 96.8586 198.78 96.9072 198.687 96.9072Z" fill="#A3CD0C"/>
<path d="M198.041 99.3259H197.548C197.399 99.3259 197.278 99.2049 197.278 99.0559C197.278 98.9068 197.399 98.7859 197.548 98.7859H198.041C198.19 98.7859 198.311 98.9068 198.311 99.0559C198.311 99.2049 198.19 99.3259 198.041 99.3259Z" fill="#A3CD0C"/>
<path d="M198.263 101.99C198.17 101.99 198.079 101.942 198.029 101.855C197.954 101.726 197.999 101.56 198.128 101.486L198.555 101.24C198.683 101.166 198.849 101.209 198.924 101.338C198.999 101.468 198.954 101.633 198.825 101.707L198.398 101.954C198.356 101.978 198.309 101.99 198.263 101.99Z" fill="#A3CD0C"/>
<path d="M200.214 103.939C200.168 103.939 200.122 103.927 200.079 103.903C199.95 103.828 199.906 103.663 199.98 103.534L200.227 103.108C200.301 102.978 200.467 102.935 200.595 103.009C200.724 103.083 200.769 103.248 200.694 103.378L200.448 103.804C200.398 103.891 200.307 103.939 200.214 103.939Z" fill="#A3CD0C"/>
<path d="M202.879 104.651C202.73 104.651 202.609 104.53 202.609 104.381V103.889C202.609 103.74 202.73 103.619 202.879 103.619C203.028 103.619 203.149 103.74 203.149 103.889V104.381C203.149 104.531 203.028 104.651 202.879 104.651Z" fill="#A3CD0C"/>
<path d="M205.542 103.936C205.45 103.936 205.358 103.888 205.309 103.801L205.062 103.375C204.987 103.246 205.032 103.081 205.161 103.006C205.289 102.932 205.456 102.975 205.53 103.105L205.776 103.531C205.851 103.661 205.807 103.826 205.677 103.9C205.635 103.925 205.588 103.936 205.542 103.936Z" fill="#A3CD0C"/>
<path d="M207.492 101.985C207.446 101.985 207.4 101.974 207.357 101.949L206.931 101.702C206.802 101.628 206.757 101.463 206.832 101.334C206.906 101.205 207.072 101.161 207.201 101.235L207.627 101.481C207.756 101.556 207.801 101.721 207.726 101.85C207.676 101.936 207.585 101.985 207.492 101.985Z" fill="#A3CD0C"/>
<path d="M208.205 99.3205H207.712C207.563 99.3205 207.442 99.1996 207.442 99.0505C207.442 98.9015 207.563 98.7805 207.712 98.7805H208.205C208.354 98.7805 208.475 98.9015 208.475 99.0505C208.475 99.2001 208.354 99.3205 208.205 99.3205Z" fill="#A3CD0C"/>
<path d="M207.063 96.9029C206.97 96.9029 206.879 96.8549 206.829 96.7679C206.754 96.6389 206.798 96.4736 206.928 96.3991L207.355 96.1529C207.483 96.0784 207.649 96.1216 207.724 96.2517C207.799 96.3808 207.754 96.546 207.625 96.6205L207.198 96.8668C207.155 96.8916 207.109 96.9029 207.063 96.9029Z" fill="#A3CD0C"/>
<path d="M205.292 95.1338C205.247 95.1338 205.2 95.1225 205.157 95.0977C205.028 95.0231 204.984 94.8579 205.059 94.7288L205.305 94.3022C205.379 94.1732 205.545 94.1294 205.674 94.2034C205.803 94.2779 205.847 94.4432 205.773 94.5722L205.526 94.9988C205.476 95.0852 205.385 95.1338 205.292 95.1338Z" fill="#A3CD0C"/>
</g>
<defs>
<filter id="filter0_d_372_4225" x="-1.41797" y="58.629" width="272.834" height="211.292" filterUnits="userSpaceOnUse" color-interpolation-filters="sRGB">
<feFlood flood-opacity="0" result="BackgroundImageFix"/>
<feColorMatrix in="SourceAlpha" type="matrix" values="0 0 0 0 0 0 0 0 0 0 0 0 0 0 0 0 0 0 127 0" result="hardAlpha"/>
<feOffset dy="5"/>
<feGaussianBlur stdDeviation="3.5"/>
<feComposite in2="hardAlpha" operator="out"/>
<feColorMatrix type="matrix" values="0 0 0 0 0 0 0 0 0 0 0 0 0 0 0 0 0 0 0.25 0"/>
<feBlend mode="normal" in2="BackgroundImageFix" result="effect1_dropShadow_372_4225"/>
<feBlend mode="normal" in="SourceGraphic" in2="effect1_dropShadow_372_4225" result="shape"/>
</filter>
<clipPath id="clip0_372_4225">
<rect width="270" height="270" fill="white"/>
</clipPath>
</defs>
</svg>
