<svg width="503" height="600" viewBox="0 0 503 600" fill="none" xmlns="http://www.w3.org/2000/svg">
<ellipse cx="325" cy="337.5" rx="325" ry="306.5" fill="#181E23"/>
<path d="M278 525.028C418.077 525.028 531.632 459.704 531.632 379.122C531.632 298.541 418.077 233.217 278 233.217C137.923 233.217 24.3677 298.541 24.3677 379.122C24.3677 459.704 137.923 525.028 278 525.028Z" fill="#F5F5F5" fill-opacity="0.76"/>
<path d="M302.358 504.989C319.433 504.989 333.276 497.027 333.276 487.204C333.276 477.381 319.433 469.419 302.358 469.419C285.283 469.419 271.44 477.381 271.44 487.204C271.44 497.027 285.283 504.989 302.358 504.989Z" fill="#E0E0E0"/>
<path d="M347.629 460.844C355.556 465.403 355.556 472.797 347.629 477.356C339.702 481.916 326.851 481.916 318.924 477.356C310.997 472.797 310.997 465.403 318.924 460.843C326.851 456.284 339.702 456.284 347.629 460.844Z" fill="#E0E0E0"/>
<path d="M95.5057 391.456L295.168 276.597C302.418 272.426 311.351 272.426 318.6 276.597L367.578 305.239C372.676 308.172 372.676 315.503 367.578 318.436L167.916 433.295C160.666 437.465 151.733 437.465 144.484 433.295L95.5057 404.652C90.4089 401.72 90.4089 394.389 95.5057 391.456Z" fill="#E0E0E0"/>
<path d="M356.359 367.236L420.103 330.319C428.875 325.273 439.682 325.273 448.454 330.319L507.713 364.974C513.88 368.522 513.88 377.391 507.713 380.939L443.967 417.855C435.196 422.902 424.389 422.902 415.617 417.855L356.358 383.201C350.192 379.653 350.192 370.784 356.359 367.236Z" fill="#E0E0E0"/>
<path d="M205.186 435.833L195.545 441.412C195.545 441.412 200.41 425.939 197.71 410.373C196.691 404.498 194.546 401.579 193.789 400.011C193.032 398.444 187.22 388.734 192.336 384.258C197.453 379.783 209.46 388.685 208.922 412.659C208.644 424.964 205.186 435.833 205.186 435.833Z" fill="#C1E833"/>
<path opacity="0.3" d="M205.186 435.833L195.545 441.412C195.545 441.412 200.41 425.939 197.71 410.373C196.691 404.498 194.546 401.579 193.789 400.011C193.032 398.444 187.22 388.734 192.336 384.258C197.453 379.783 209.46 388.685 208.922 412.659C208.644 424.964 205.186 435.833 205.186 435.833Z" fill="black"/>
<path d="M200.704 438.863C200.654 438.863 200.603 438.854 200.553 438.837C200.326 438.754 200.21 438.502 200.293 438.277C200.329 438.178 203.919 428.226 203.73 412.223C203.541 396.324 195.209 387.874 195.125 387.791C194.953 387.621 194.953 387.345 195.124 387.174C195.293 387.002 195.572 387.001 195.743 387.172C195.831 387.257 204.415 395.935 204.606 412.212C204.798 428.39 201.153 438.477 201.116 438.577C201.05 438.753 200.882 438.863 200.704 438.863Z" fill="white"/>
<path d="M197.708 440.192L181.78 449.526C181.78 449.526 174.487 448.455 175.039 441.615C175.591 434.775 178.554 433.163 174.864 430.158C171.174 427.153 170.223 426.953 170.399 424.008C170.575 421.062 172.565 419.777 173.5 418.61C174.435 417.443 177.045 414.994 175.209 411.441C173.373 407.888 170.886 404.456 174.579 402.828C176.783 401.855 180.491 403.074 182.948 405.673C185.406 408.271 187.432 410.14 189.761 410.744C192.089 411.348 196.943 411.396 196.78 415.393C196.616 419.39 195.576 420.771 196.549 422.545C198.382 425.887 206.212 427.686 197.708 440.192Z" fill="#C1E833"/>
<path d="M191.223 444.43C191.21 444.43 191.199 444.428 191.186 444.427C190.945 444.407 190.766 444.198 190.785 443.957C190.804 443.724 192.498 420.469 176.309 405.222C176.133 405.058 176.125 404.78 176.291 404.605C176.457 404.431 176.735 404.423 176.91 404.587C193.411 420.127 191.678 443.79 191.659 444.028C191.64 444.257 191.449 444.43 191.223 444.43Z" fill="white"/>
<path d="M188.367 424.151C188.356 424.151 188.345 424.15 188.334 424.15C188.092 424.131 187.912 423.923 187.929 423.682C188.422 417.054 192.94 413.743 193.131 413.605C193.326 413.466 193.6 413.509 193.742 413.704C193.884 413.9 193.839 414.172 193.643 414.314C193.599 414.346 189.263 417.539 188.801 423.747C188.786 423.977 188.594 424.151 188.367 424.151Z" fill="white"/>
<path d="M189.543 428.188C189.423 428.188 189.304 428.139 189.217 428.044C189.177 428.001 185.167 423.733 176.058 424.975C175.826 425.011 175.598 424.841 175.565 424.602C175.532 424.363 175.7 424.142 175.94 424.11C185.535 422.791 189.697 427.269 189.868 427.46C190.03 427.64 190.015 427.915 189.836 428.076C189.752 428.151 189.647 428.188 189.543 428.188Z" fill="white"/>
<path d="M271.906 363.191L239.081 381.807C236.898 383.052 234.492 383.764 232.064 383.946C228.731 384.203 225.329 383.475 222.331 381.754L201.295 369.645L198.898 368.265C193.821 365.337 190.693 359.938 190.693 354.099V293.752L239.949 265.816V327.452C239.949 332.502 242.65 337.158 247.035 339.683L271.937 354.015C275.484 356.054 275.468 361.166 271.906 363.191Z" fill="#263238"/>
<path d="M232.068 383.945C234.494 383.763 236.899 383.049 239.082 381.806L271.906 363.19C275.468 361.165 275.483 356.053 271.937 354.014L254.934 344.227H232.068V383.945Z" fill="#37474F"/>
<path d="M271.327 349.967L272.234 350.688C273.721 351.869 274.586 353.661 274.586 355.555V358.608H271.298L271.327 349.967Z" fill="#37474F"/>
<path d="M243.732 270.477V325.934C243.732 330.818 246.347 335.332 250.591 337.775L271.327 349.967C274.762 351.944 274.747 356.891 271.298 358.847L268.94 360.184L239.517 376.869C234.488 379.721 228.318 379.701 223.307 376.817L202.903 364.817C198.658 362.374 196.043 357.86 196.043 352.975V297.518L243.732 270.477Z" fill="#455A64"/>
<path d="M243.732 325.934V270.477L196.044 297.518V352.975C196.044 357.859 198.659 362.374 202.904 364.817L249.884 337.337C246.06 334.817 243.732 330.541 243.732 325.934Z" fill="#263238"/>
<path d="M114.336 381.38L109.785 384.003V392.291C106.858 392.291 103.996 391.509 101.482 390.016L101.126 389.803C98.9927 388.538 97.5179 386.468 96.9706 384.114C96.8199 383.623 96.7246 383.102 96.7246 382.549V371.251L114.336 381.38Z" fill="#263238"/>
<path d="M312.12 76.7136L311.761 76.5006C309.25 75.0113 306.381 74.2241 303.46 74.2241C302.572 74.212 301.659 74.4306 300.798 74.9252L104.66 187.305C99.7504 190.129 96.7256 195.348 96.7256 200.998V371.252L114.336 381.38L300.657 274.651C305.567 271.827 308.592 266.607 308.592 260.958V84.4229H316.516C316.517 81.261 314.846 78.3321 312.12 76.7136Z" fill="#37474F"/>
<path d="M98.4142 193.902C97.3283 196.067 96.7256 198.493 96.7256 200.996V371.251L114.337 381.379L120.927 377.587V207.792L98.4142 193.902Z" fill="#263238"/>
<path d="M104.651 375.809V387.108C104.651 391.093 108.981 393.584 112.445 391.591L308.583 279.212C313.493 276.387 316.518 271.168 316.518 265.519V253.931L104.651 375.809Z" fill="#37474F"/>
<path d="M316.518 83.9702C316.518 79.9848 312.188 77.4942 308.724 79.4869L112.586 191.866C107.676 194.69 104.651 199.91 104.651 205.559V375.81L316.518 253.931" fill="#455A64"/>
<path d="M305.148 91.8086C305.184 91.8086 305.178 91.8086 305.111 91.8042V91.8086C304.819 91.8097 303.515 91.8373 302.529 92.4048L118.191 197.996C113.855 200.49 111.185 205.099 111.185 210.087V355.149C111.185 355.808 111.321 356.42 111.561 356.97H111.557C112.591 359.353 115.582 360.539 118.068 359.108L302.406 253.517C306.742 251.023 309.412 246.414 309.412 241.426V96.3648C309.411 93.8201 307.411 91.9764 305.148 91.8086Z" fill="#C1E833"/>
<path opacity="0.4" d="M305.148 91.8086C305.184 91.8086 305.178 91.8086 305.111 91.8042V91.8086C304.819 91.8097 303.515 91.8373 302.529 92.4048L118.191 197.996C113.855 200.49 111.185 205.099 111.185 210.087V355.149C111.185 355.808 111.321 356.42 111.561 356.97H111.557C112.591 359.353 115.582 360.539 118.068 359.108L302.406 253.517C306.742 251.023 309.412 246.414 309.412 241.426V96.3648C309.411 93.8201 307.411 91.9764 305.148 91.8086Z" fill="white"/>
<path d="M128.008 219.061V381.849C128.008 384.461 128.971 386.217 130.444 386.793L130.485 386.806L130.492 386.813L136.748 390.228L136.713 384.681L137.601 217.319L129.413 213.199C128.537 215.064 128.008 217.135 128.008 219.061Z" fill="#E0E0E0"/>
<path d="M129.412 213.199L137.6 217.319L335.695 101.617L340.415 98.8809L333.891 95.22L333.705 95.1107V95.1041C332.665 94.4803 331.304 94.5212 329.803 95.3856L133.906 207.851C132.102 208.886 130.492 210.882 129.412 213.199Z" fill="#F0F0F0"/>
<path d="M135.112 222.612V384.322C135.112 386.571 135.83 388.186 136.979 388.944L137.356 389.148C138.354 389.618 139.606 389.516 140.968 388.732L335.692 276.938C338.928 275.078 341.555 270.081 341.555 265.788V104.085C341.555 101.911 340.885 100.336 339.803 99.5455C339.618 99.4097 339.42 99.2938 339.208 99.2121C338.23 98.7959 337.012 98.9184 335.692 99.6758L140.968 211.468C139.244 212.456 137.698 214.337 136.631 216.525C135.687 218.44 135.112 220.6 135.112 222.612Z" fill="white"/>
<path d="M315.343 207.968L222.539 261.355C220.482 262.539 217.911 261.06 217.911 258.693V209.232C217.911 204.084 220.668 199.328 225.141 196.755L315.801 144.601C318.75 142.904 322.437 145.025 322.437 148.418V195.726C322.438 200.777 319.733 205.443 315.343 207.968Z" fill="#C1E833"/>
<path d="M232.64 289.428L221.185 296.018C219.176 297.174 217.549 295.947 217.549 293.279V281.394C217.549 278.726 219.176 275.627 221.185 274.471L232.64 267.881C234.649 266.725 236.276 267.952 236.276 270.62V282.505C236.276 285.173 234.647 288.272 232.64 289.428Z" fill="#C1E833"/>
<path d="M260.578 273.444L249.122 280.034C247.113 281.19 245.486 279.963 245.486 277.295V265.41C245.486 262.742 247.113 259.642 249.122 258.487L260.578 251.897C262.587 250.742 264.214 251.968 264.214 254.637V266.521C264.214 269.188 262.587 272.288 260.578 273.444Z" fill="#C1E833"/>
<path d="M289.348 256.881L277.893 263.471C275.884 264.627 274.256 263.4 274.256 260.732V248.847C274.256 246.179 275.884 243.079 277.893 241.924L289.348 235.334C291.357 234.178 292.985 235.405 292.985 238.073V249.958C292.985 252.626 291.356 255.725 289.348 256.881Z" fill="#C1E833"/>
<path d="M318.117 240.318L306.662 246.907C304.653 248.063 303.025 246.837 303.025 244.168V232.284C303.025 229.615 304.653 226.515 306.662 225.361L318.117 218.771C320.126 217.615 321.754 218.842 321.754 221.51V233.394C321.754 236.063 320.126 239.163 318.117 240.318Z" fill="#C1E833"/>
<path d="M232.64 320.875L221.185 327.465C219.176 328.621 217.549 327.395 217.549 324.726V312.842C217.549 310.173 219.176 307.074 221.185 305.918L232.64 299.329C234.649 298.173 236.276 299.399 236.276 302.068V313.952C236.276 316.621 234.647 319.721 232.64 320.875Z" fill="#C1E833"/>
<path d="M260.578 304.892L249.122 311.481C247.113 312.637 245.486 311.411 245.486 308.742V296.858C245.486 294.19 247.113 291.091 249.122 289.935L260.578 283.345C262.587 282.189 264.214 283.416 264.214 286.084V297.969C264.214 300.637 262.587 303.736 260.578 304.892Z" fill="#C1E833"/>
<path d="M289.348 288.328L277.893 294.918C275.884 296.073 274.256 294.847 274.256 292.179V280.295C274.256 277.626 275.884 274.527 277.893 273.371L289.348 266.782C291.357 265.627 292.985 266.852 292.985 269.521V281.405C292.985 284.074 291.356 287.174 289.348 288.328Z" fill="#C1E833"/>
<path d="M318.117 271.766L306.662 278.356C304.653 279.512 303.025 278.285 303.025 275.617V263.732C303.025 261.064 304.653 257.964 306.662 256.809L318.117 250.219C320.126 249.064 321.754 250.29 321.754 252.958V264.843C321.754 267.511 320.126 270.61 318.117 271.766Z" fill="#C1E833"/>
<g opacity="0.7">
<path d="M315.343 207.968L222.539 261.355C220.482 262.539 217.911 261.06 217.911 258.693V209.232C217.911 204.084 220.668 199.328 225.141 196.755L315.801 144.601C318.75 142.904 322.437 145.025 322.437 148.418V195.726C322.438 200.777 319.733 205.443 315.343 207.968Z" fill="white"/>
<path d="M232.64 289.428L221.185 296.018C219.176 297.174 217.549 295.947 217.549 293.279V281.394C217.549 278.726 219.176 275.627 221.185 274.471L232.64 267.881C234.649 266.725 236.276 267.952 236.276 270.62V282.505C236.276 285.173 234.647 288.272 232.64 289.428Z" fill="white"/>
<path d="M260.578 273.444L249.122 280.034C247.113 281.19 245.486 279.963 245.486 277.295V265.41C245.486 262.742 247.113 259.642 249.122 258.487L260.578 251.897C262.587 250.742 264.214 251.968 264.214 254.637V266.521C264.214 269.188 262.587 272.288 260.578 273.444Z" fill="white"/>
<path d="M289.348 256.881L277.893 263.471C275.884 264.627 274.256 263.4 274.256 260.732V248.847C274.256 246.179 275.884 243.079 277.893 241.924L289.348 235.334C291.357 234.178 292.985 235.405 292.985 238.073V249.958C292.985 252.626 291.356 255.725 289.348 256.881Z" fill="white"/>
<path d="M318.117 240.318L306.662 246.907C304.653 248.063 303.025 246.837 303.025 244.168V232.284C303.025 229.615 304.653 226.515 306.662 225.361L318.117 218.771C320.126 217.615 321.754 218.842 321.754 221.51V233.394C321.754 236.063 320.126 239.163 318.117 240.318Z" fill="white"/>
<path d="M232.64 320.875L221.185 327.465C219.176 328.621 217.549 327.395 217.549 324.726V312.842C217.549 310.173 219.176 307.074 221.185 305.918L232.64 299.329C234.649 298.173 236.276 299.399 236.276 302.068V313.952C236.276 316.621 234.647 319.721 232.64 320.875Z" fill="white"/>
<path d="M260.578 304.892L249.122 311.481C247.113 312.637 245.486 311.411 245.486 308.742V296.858C245.486 294.19 247.113 291.091 249.122 289.935L260.578 283.345C262.587 282.189 264.214 283.416 264.214 286.084V297.969C264.214 300.637 262.587 303.736 260.578 304.892Z" fill="white"/>
<path d="M289.348 288.328L277.893 294.918C275.884 296.073 274.256 294.847 274.256 292.179V280.295C274.256 277.626 275.884 274.527 277.893 273.371L289.348 266.782C291.357 265.627 292.985 266.852 292.985 269.521V281.405C292.985 284.074 291.356 287.174 289.348 288.328Z" fill="white"/>
<path d="M318.117 271.766L306.662 278.356C304.653 279.512 303.025 278.285 303.025 275.617V263.732C303.025 261.064 304.653 257.964 306.662 256.809L318.117 250.219C320.126 249.064 321.754 250.29 321.754 252.958V264.843C321.754 267.511 320.126 270.61 318.117 271.766Z" fill="white"/>
</g>
<path d="M200.172 354.919L140.644 389.164C138.081 390.639 134.876 388.796 134.876 385.847V226.302L200.173 188.74V354.919H200.172Z" fill="#C1E833"/>
<path opacity="0.7" d="M200.172 354.919L140.644 389.164C138.081 390.639 134.876 388.796 134.876 385.847V226.302L200.173 188.74V354.919H200.172Z" fill="white"/>
<path d="M152.896 236.854C152.896 239.717 150.879 243.197 148.392 244.629C145.904 246.06 143.887 244.9 143.887 242.038C143.887 239.175 145.903 235.695 148.392 234.263C150.879 232.833 152.896 233.993 152.896 236.854Z" fill="#FAFAFA"/>
<path d="M152.896 254.043C152.896 256.905 150.879 260.385 148.392 261.817C145.904 263.248 143.887 262.087 143.887 259.226C143.887 256.363 145.903 252.882 148.392 251.451C150.879 250.02 152.896 251.18 152.896 254.043Z" fill="#FAFAFA"/>
<path d="M152.896 271.23C152.896 274.092 150.879 277.572 148.392 279.004C145.904 280.435 143.887 279.274 143.887 276.413C143.887 273.55 145.903 270.07 148.392 268.639C150.879 267.207 152.896 268.367 152.896 271.23Z" fill="#FAFAFA"/>
<path d="M152.896 288.417C152.896 291.279 150.879 294.759 148.392 296.191C145.904 297.622 143.887 296.462 143.887 293.6C143.887 290.737 145.903 287.257 148.392 285.826C150.879 284.395 152.896 285.555 152.896 288.417Z" fill="#FAFAFA"/>
<path d="M162.931 232.709C162.367 232.709 161.82 232.417 161.517 231.896C161.066 231.119 161.334 230.125 162.115 229.677L188.508 214.493C189.289 214.044 190.285 214.31 190.735 215.087C191.186 215.864 190.918 216.858 190.139 217.306L163.745 232.489C163.487 232.638 163.207 232.709 162.931 232.709Z" fill="#FAFAFA"/>
<path d="M162.931 249.896C162.367 249.896 161.82 249.604 161.517 249.083C161.066 248.306 161.334 247.313 162.115 246.864L188.508 231.681C189.289 231.232 190.285 231.499 190.735 232.276C191.186 233.053 190.918 234.047 190.139 234.495L163.745 249.678C163.487 249.825 163.207 249.896 162.931 249.896Z" fill="#FAFAFA"/>
<path d="M162.931 267.083C162.367 267.083 161.82 266.792 161.517 266.27C161.066 265.493 161.334 264.5 162.115 264.051L188.508 248.868C189.289 248.419 190.285 248.685 190.735 249.462C191.186 250.239 190.918 251.233 190.139 251.681L163.745 266.866C163.487 267.012 163.207 267.083 162.931 267.083Z" fill="#FAFAFA"/>
<path d="M162.931 284.27C162.367 284.27 161.82 283.979 161.517 283.458C161.066 282.68 161.334 281.687 162.115 281.238L188.508 266.055C189.289 265.607 190.285 265.873 190.735 266.649C191.186 267.426 190.918 268.42 190.139 268.868L163.745 284.051C163.487 284.201 163.207 284.27 162.931 284.27Z" fill="#FAFAFA"/>
<path d="M148.393 324.543C147.829 324.543 147.282 324.251 146.979 323.73C146.528 322.953 146.796 321.96 147.575 321.511L188.507 297.965C189.288 297.516 190.284 297.782 190.734 298.56C191.185 299.337 190.917 300.331 190.138 300.779L149.206 324.325C148.95 324.473 148.67 324.543 148.393 324.543Z" fill="#FAFAFA"/>
<path d="M148.393 338.883C147.829 338.883 147.282 338.591 146.979 338.07C146.528 337.293 146.796 336.299 147.575 335.851L188.507 312.304C189.288 311.855 190.284 312.122 190.734 312.899C191.185 313.676 190.917 314.67 190.138 315.118L149.206 338.665C148.95 338.812 148.67 338.883 148.393 338.883Z" fill="#FAFAFA"/>
<path d="M148.393 353.223C147.829 353.223 147.282 352.931 146.979 352.41C146.528 351.633 146.796 350.639 147.575 350.191L188.507 326.644C189.288 326.196 190.284 326.462 190.734 327.239C191.185 328.016 190.917 329.01 190.138 329.458L149.206 353.005C148.95 353.152 148.67 353.223 148.393 353.223Z" fill="#FAFAFA"/>
<path d="M148.393 367.561C147.829 367.561 147.282 367.27 146.979 366.749C146.528 365.972 146.796 364.978 147.575 364.53L188.507 340.983C189.288 340.532 190.284 340.8 190.734 341.578C191.185 342.355 190.917 343.348 190.138 343.797L149.206 367.344C148.95 367.491 148.67 367.561 148.393 367.561Z" fill="#FAFAFA"/>
<path d="M135.112 317.393C134.925 317.393 134.742 317.296 134.641 317.123C134.491 316.863 134.581 316.532 134.841 316.383L198.234 279.917C198.493 279.768 198.826 279.855 198.976 280.115C199.127 280.374 199.037 280.705 198.777 280.854L135.384 317.321C135.299 317.37 135.205 317.393 135.112 317.393Z" fill="#FAFAFA"/>
<path d="M139.653 212.571L336.78 98.8069C339.103 97.4512 342.026 99.1193 342.026 101.802V110.373L134.875 229.301V222.612C134.875 219.194 136.693 214.299 139.653 212.571Z" fill="#E6E6E6"/>
<path d="M338.798 99.2927C339.088 99.2927 339.361 99.3457 339.638 99.4627C339.754 99.5079 339.878 99.5786 340.008 99.6735C340.871 100.305 341.366 101.681 341.366 103.446V266.125C341.366 270.058 338.892 274.804 335.964 276.489L140.065 388.957C139.408 389.336 138.791 389.528 138.23 389.528C137.922 389.528 137.634 389.467 137.373 389.349L137.062 389.18C136.169 388.568 135.659 387.185 135.659 385.374V222.689C135.659 220.887 136.165 218.867 137.087 216.997C138.115 214.888 139.561 213.188 141.054 212.332L336.951 99.8656C337.614 99.4859 338.235 99.2927 338.798 99.2927ZM338.798 98.3079C338.081 98.3079 337.29 98.5342 336.458 99.0111L140.559 211.478C138.825 212.471 137.27 214.365 136.196 216.565C135.246 218.492 134.668 220.665 134.668 222.688V385.373C134.668 387.635 135.39 389.262 136.547 390.022L136.926 390.228C137.324 390.415 137.762 390.511 138.23 390.511C138.945 390.511 139.733 390.285 140.56 389.809L336.458 277.344C339.713 275.472 342.356 270.446 342.356 266.126V103.447C342.356 101.26 341.681 99.6758 340.594 98.8809C340.408 98.744 340.209 98.627 339.996 98.5453C339.628 98.3885 339.226 98.3079 338.798 98.3079Z" fill="#F0F0F0"/>
<path d="M394.004 243.457V248.59L416.803 240.399L434.722 202.772L426.319 201.658L411.161 233.079L394.004 243.457Z" fill="#37474F"/>
<path d="M394.004 243.457L399.646 246.373V251.507L394.004 248.59V243.457Z" fill="#455A64"/>
<path d="M399.646 246.373V251.507L419.062 240.399L435.794 204.619L431.962 204.575L416.803 235.994L399.646 246.373Z" fill="#263238"/>
<path d="M444.156 278.681L477.207 212.549L488.287 216.924L461.345 286.837L444.156 278.681Z" fill="#37474F"/>
<path d="M488.287 188.707C486.378 187.599 483.738 187.752 480.818 189.431C474.998 192.779 470.281 200.921 470.281 207.617C470.281 211.276 471.696 213.736 473.924 214.676L473.92 214.684L486.376 221.883L501.239 196.173L488.287 188.707Z" fill="#C1E833"/>
<path d="M504.628 203.128C504.628 209.824 499.911 217.966 494.091 221.314C488.272 224.662 483.554 221.948 483.554 215.252C483.554 208.557 488.272 200.415 494.091 197.067C499.911 193.718 504.628 196.433 504.628 203.128Z" fill="#C1E833"/>
<path opacity="0.3" d="M504.628 203.128C504.628 209.824 499.911 217.966 494.091 221.314C488.272 224.662 483.554 221.948 483.554 215.252C483.554 208.557 488.272 200.415 494.091 197.067C499.911 193.718 504.628 196.433 504.628 203.128Z" fill="black"/>
<path d="M499.438 206.114C499.438 209.512 497.044 213.644 494.09 215.343C491.136 217.042 488.742 215.664 488.742 212.266C488.742 208.868 491.136 204.736 494.09 203.037C497.044 201.338 499.438 202.714 499.438 206.114Z" fill="#C1E833"/>
<path opacity="0.6" d="M499.438 206.114C499.438 209.512 497.044 213.644 494.09 215.343C491.136 217.042 488.742 215.664 488.742 212.266C488.742 208.868 491.136 204.736 494.09 203.037C497.044 201.338 499.438 202.714 499.438 206.114Z" fill="black"/>
<path d="M436.688 200.265C437.078 200.896 478.791 209.19 478.791 209.19C478.791 209.19 482.689 208.597 482.689 204.941C482.689 201.285 479.18 200.265 479.18 200.265L437.597 194.888L436.688 200.265Z" fill="#37474F"/>
<path d="M433.584 184.981C432.265 184.215 430.439 184.321 428.42 185.482C424.396 187.797 421.135 193.426 421.135 198.055C421.135 200.586 422.113 202.285 423.653 202.936L423.65 202.942L432.262 207.92L442.538 190.144L433.584 184.981Z" fill="#C1E833"/>
<path d="M444.881 194.951C444.881 199.58 441.619 205.209 437.596 207.524C433.573 209.84 430.311 207.963 430.311 203.334C430.311 198.705 433.573 193.075 437.596 190.76C441.62 188.445 444.881 190.322 444.881 194.951Z" fill="#C1E833"/>
<path opacity="0.3" d="M444.881 194.951C444.881 199.58 441.619 205.209 437.596 207.524C433.573 209.84 430.311 207.963 430.311 203.334C430.311 198.705 433.573 193.075 437.596 190.76C441.62 188.445 444.881 190.322 444.881 194.951Z" fill="black"/>
<path d="M441.294 197.014C441.294 199.364 439.638 202.221 437.596 203.395C435.554 204.57 433.899 203.617 433.899 201.268C433.899 198.919 435.554 196.062 437.596 194.887C439.638 193.712 441.294 194.665 441.294 197.014Z" fill="#C1E833"/>
<path opacity="0.6" d="M441.294 197.014C441.294 199.364 439.638 202.221 437.596 203.395C435.554 204.57 433.899 203.617 433.899 201.268C433.899 198.919 435.554 196.062 437.596 194.887C439.638 193.712 441.294 194.665 441.294 197.014Z" fill="black"/>
<path d="M389.194 340.046C391.912 352.299 386.584 369.099 377.293 377.57C368.003 386.041 358.268 382.976 355.55 370.724C352.832 358.472 358.16 341.671 367.451 333.2C376.742 324.728 386.476 327.794 389.194 340.046Z" fill="#37474F"/>
<path d="M362.506 381.325L376.388 389.852L397.261 338.618L395.663 337.534L362.506 381.325Z" fill="#37474F"/>
<path d="M403.374 348.736C406.092 360.988 400.763 377.789 391.473 386.26C382.182 394.731 372.447 391.666 369.729 379.414C367.011 367.162 372.34 350.361 381.63 341.89C390.921 333.418 400.656 336.483 403.374 348.736Z" fill="#263238"/>
<path d="M484.768 359.58C489.264 345.406 486.025 331.748 477.534 329.075C469.043 326.401 458.516 335.725 454.021 349.899C449.525 364.074 452.764 377.731 461.255 380.405C469.746 383.078 480.273 373.755 484.768 359.58Z" fill="#37474F"/>
<path d="M459.114 379.491L473.804 388.577L493.507 336.551L479.162 329.748L459.114 379.491Z" fill="#37474F"/>
<path d="M383.324 278.681L436.688 308.88L477.207 285.381L424.408 255.277L383.324 278.681Z" fill="#C1E833"/>
<path opacity="0.2" d="M477.205 285.384L463.373 293.412H463.362L461.295 294.612L436.684 308.882L383.32 278.678L408.501 264.337L410.444 263.231L424.41 255.275L477.205 285.384Z" fill="black"/>
<path d="M477.205 285.384V355.691L463.373 363.69L461.442 364.807L448.191 372.474C444.899 361.879 435.74 359.593 426.965 367.59C423.414 370.829 420.443 375.298 418.274 380.265V363.855L436.686 308.883L461.296 294.615L463.363 293.414H463.373L477.205 285.384Z" fill="#C1E833"/>
<path opacity="0.4" d="M477.205 285.384V355.691L463.373 363.69L461.442 364.807L448.191 372.474C444.899 361.879 435.74 359.593 426.965 367.59C423.414 370.829 420.443 375.298 418.274 380.265V363.855L436.686 308.883L461.296 294.615L463.363 293.414H463.373L477.205 285.384Z" fill="black"/>
<path d="M364.912 333.658L418.274 363.859V380.26L407.245 374.267V391.618L375.287 373.361V355.881L364.912 350.06V333.658Z" fill="#C1E833"/>
<path d="M383.324 278.681L364.912 333.658L418.274 363.859L436.688 308.88L383.324 278.681Z" fill="#C1E833"/>
<path opacity="0.2" d="M383.324 278.681L364.912 333.658L418.274 363.859L436.688 308.88L383.324 278.681Z" fill="white"/>
<path d="M418.274 380.26L407.256 374.274C403.747 381.212 401.859 389.086 402.529 395.907C403.756 408.395 413.053 412.599 423.294 405.295C430.424 400.21 436.124 390.888 438.519 381.478L418.274 380.26Z" fill="#37474F"/>
<path d="M408.592 407.524L423.282 416.611L444.156 365.377L442.557 364.292L408.592 407.524Z" fill="#37474F"/>
<path d="M447.239 394.61C451.886 379.956 448.77 365.91 440.28 363.236C431.789 360.563 421.138 370.275 416.491 384.929C411.844 399.583 414.959 413.63 423.45 416.303C431.941 418.977 442.591 409.264 447.239 394.61Z" fill="#37474F"/>
<path d="M448.799 395.671C453.447 381.017 450.331 366.97 441.84 364.297C433.349 361.623 422.699 371.336 418.051 385.99C413.404 400.644 416.52 414.69 425.011 417.364C433.501 420.037 444.152 410.325 448.799 395.671Z" fill="#455A64"/>
<path d="M442.196 384.693C443.422 390.224 441.017 397.809 436.823 401.633C432.629 405.457 428.235 404.074 427.007 398.543C425.781 393.012 428.186 385.427 432.38 381.603C436.574 377.778 440.969 379.162 442.196 384.693Z" fill="#263238"/>
<path d="M440.761 385.459C441.55 390.18 439.459 396.772 436.09 400.185C432.723 403.596 429.353 402.535 428.565 397.814C427.776 393.094 429.867 386.502 433.235 383.089C436.602 379.678 439.973 380.739 440.761 385.459Z" fill="#C1E833"/>
<path d="M438.784 387.357C439.23 390.517 437.818 394.969 435.631 397.3C433.444 399.631 431.31 398.959 430.864 395.799C430.419 392.64 431.831 388.187 434.018 385.857C436.206 383.525 438.34 384.196 438.784 387.357Z" fill="#263238"/>
<path d="M497.76 366.58C502.408 351.926 499.292 337.879 490.801 335.206C482.31 332.532 471.66 342.245 467.012 356.899C462.365 371.553 465.481 385.599 473.972 388.273C482.462 390.946 493.113 381.234 497.76 366.58Z" fill="#37474F"/>
<path d="M499.318 367.638C503.965 352.984 500.849 338.937 492.359 336.264C483.868 333.591 473.217 343.303 468.57 357.957C463.923 372.611 467.038 386.657 475.529 389.331C484.02 392.004 494.67 382.292 499.318 367.638Z" fill="#455A64"/>
<path d="M492.716 356.659C493.943 362.19 491.537 369.775 487.343 373.599C483.15 377.423 478.755 376.04 477.528 370.509C476.3 364.978 478.707 357.394 482.9 353.569C487.095 349.745 491.489 351.128 492.716 356.659Z" fill="#263238"/>
<path d="M491.281 357.426C492.07 362.146 489.979 368.738 486.611 372.151C483.243 375.562 479.873 374.501 479.085 369.781C478.297 365.061 480.387 358.469 483.756 355.056C487.124 351.644 490.493 352.706 491.281 357.426Z" fill="#C1E833"/>
<path d="M489.306 359.324C489.751 362.484 488.34 366.936 486.152 369.267C483.965 371.599 481.831 370.926 481.386 367.767C480.94 364.607 482.352 360.155 484.539 357.824C486.726 355.492 488.86 356.164 489.306 359.324Z" fill="#263238"/>
<path d="M431.057 310.827L423.217 334.23L421.17 340.326L417.006 352.772L415.532 357.169L408.128 352.98L370.547 331.717L386.072 285.363L392.405 288.953L402.77 294.82L411.161 299.569L415.272 301.897L431.057 310.827Z" fill="#37474F"/>
<path d="M463.373 293.412V363.689L461.442 364.806C461.348 364.661 461.296 364.486 461.296 364.288V294.612L408.887 264.72C408.721 264.628 408.586 264.493 408.502 264.337L410.445 263.23L463.363 293.412H463.373Z" fill="#C1E833"/>
<g opacity="0.5">
<path d="M463.373 293.412V363.689L461.442 364.806C461.348 364.661 461.296 364.486 461.296 364.288V294.612L408.887 264.72C408.721 264.628 408.586 264.493 408.502 264.337L410.445 263.23L463.363 293.412H463.373Z" fill="black"/>
</g>
<path d="M417.007 352.772L415.532 357.169L408.128 352.98L392.406 288.953L402.77 294.82L417.007 352.772Z" fill="#455A64"/>
<path d="M423.217 334.23L421.17 340.326L411.161 299.569L415.272 301.897L423.217 334.23Z" fill="#455A64"/>
<path d="M457.934 339.914L423.217 360.515L439.335 312.388L457.934 301.601V339.914Z" fill="#37474F"/>
<path d="M473.92 330.67L467 334.651V296.26L473.92 292.278V330.67Z" fill="#37474F"/>
<path d="M311.006 219.975V289.559C311.006 290.675 311.419 291.426 312.048 291.672L312.066 291.678L312.069 291.681L314.743 293.141L314.728 290.769L315.107 219.23L311.607 217.468C311.232 218.267 311.006 219.152 311.006 219.975Z" fill="#C1E833"/>
<path d="M311.606 217.47L315.106 219.232L399.783 169.774L401.8 168.605L399.012 167.04L398.932 166.992V166.989C398.488 166.722 397.905 166.739 397.264 167.109L313.527 215.184C312.756 215.627 312.068 216.479 311.606 217.47Z" fill="#C1E833"/>
<path opacity="0.2" d="M311.606 217.47L315.106 219.232L399.783 169.774L401.8 168.605L399.012 167.04L398.932 166.992V166.989C398.488 166.722 397.905 166.739 397.264 167.109L313.527 215.184C312.756 215.627 312.068 216.479 311.606 217.47Z" fill="white"/>
<path d="M314.043 221.493V290.617C314.043 291.579 314.35 292.269 314.841 292.592L315.002 292.679C315.428 292.88 315.964 292.837 316.545 292.501L399.78 244.715C401.163 243.92 402.287 241.784 402.287 239.949V170.829C402.287 169.899 402 169.227 401.538 168.889C401.459 168.83 401.374 168.781 401.283 168.746C400.865 168.569 400.344 168.621 399.78 168.944L316.545 216.731C315.808 217.153 315.148 217.957 314.692 218.892C314.288 219.71 314.043 220.633 314.043 221.493Z" fill="#C1E833"/>
<path opacity="0.2" d="M314.043 221.493V290.617C314.043 291.579 314.35 292.269 314.841 292.592L315.002 292.679C315.428 292.88 315.964 292.837 316.545 292.501L399.78 244.715C401.163 243.92 402.287 241.784 402.287 239.949V170.829C402.287 169.899 402 169.227 401.538 168.889C401.459 168.83 401.374 168.781 401.283 168.746C400.865 168.569 400.344 168.621 399.78 168.944L316.545 216.731C315.808 217.153 315.148 217.957 314.692 218.892C314.288 219.71 314.043 220.633 314.043 221.493Z" fill="black"/>
<path d="M332.792 247.467V245.058L349.605 225.506V229.362L336.708 243.95L336.812 243.649V244.251L336.708 244.07L349.605 243.819V247.675L332.792 247.467ZM365.586 207.156L356.971 249.04L354.151 250.662L362.766 208.778L365.586 207.156ZM386.939 216.318L370.125 235.869V232.014L383.023 217.426L382.918 217.727V217.125L383.023 217.306L370.125 217.556V213.701L386.939 213.908V216.318Z" fill="#FAFAFA"/>
<path d="M401.109 168.781C401.233 168.781 401.349 168.804 401.468 168.854C401.518 168.872 401.57 168.902 401.626 168.943C401.995 169.213 402.207 169.801 402.207 170.556V240.094C402.207 241.775 401.149 243.804 399.898 244.524L316.16 292.599C315.878 292.761 315.615 292.843 315.375 292.843C315.24 292.843 315.113 292.815 315.021 292.773L314.89 292.704C314.5 292.447 314.276 291.851 314.276 291.067V221.526C314.276 220.756 314.492 219.893 314.887 219.093C315.327 218.192 315.945 217.465 316.583 217.099L400.32 169.026C400.603 168.862 400.869 168.781 401.109 168.781ZM401.109 168.359C400.802 168.359 400.464 168.456 400.108 168.659L316.371 216.734C315.63 217.159 314.965 217.968 314.507 218.909C314.101 219.732 313.854 220.662 313.854 221.526V291.067C313.854 292.035 314.163 292.729 314.657 293.055L314.819 293.143C314.989 293.222 315.176 293.264 315.376 293.264C315.682 293.264 316.019 293.168 316.372 292.964L400.11 244.889C401.501 244.089 402.63 241.941 402.63 240.095V170.557C402.63 169.622 402.342 168.945 401.877 168.605C401.797 168.547 401.712 168.497 401.621 168.462C401.464 168.394 401.292 168.359 401.109 168.359Z" fill="#C1E833"/>
<path d="M407.808 164.791L427.136 189.243L431.837 191.768L411.961 162.445L407.808 164.791Z" fill="#455A64"/>
<path d="M395.026 172.011V175.842L412.712 165.813L431.837 191.768L433.959 189.632L413.687 161.47L395.026 172.011Z" fill="#263238"/>
<path d="M413.687 161.47L407.245 157.571L388.587 168.307L395.026 172.011L413.687 161.47Z" fill="#37474F"/>
<path d="M388.587 168.307V172.011L395.026 175.842V172.011L388.587 168.307Z" fill="#455A64"/>
<path d="M399.706 378.426C399.435 378.426 399.164 378.355 398.916 378.213L381.568 368.233C380.238 367.468 379.412 366.042 379.412 364.512V351.738C379.412 351.168 379.708 350.657 380.203 350.373C380.7 350.091 381.29 350.091 381.784 350.374L399.132 360.354C400.462 361.118 401.288 362.544 401.288 364.075V376.848C401.288 377.418 400.993 377.928 400.498 378.212C400.249 378.354 399.978 378.426 399.706 378.426ZM399.388 377.397C399.588 377.511 399.826 377.511 400.025 377.397C400.228 377.281 400.343 377.08 400.343 376.847V364.074C400.343 362.878 399.698 361.764 398.659 361.168L381.31 351.188C381.107 351.072 380.877 351.072 380.673 351.187C380.474 351.302 380.355 351.507 380.355 351.737V364.511C380.355 365.706 381 366.819 382.039 367.417L399.388 377.397Z" fill="#455A64"/>
<path d="M380.113 352.579L379.641 353.393L400.555 365.425L401.027 364.611L380.113 352.579Z" fill="#455A64"/>
<path d="M380.118 356.134L379.646 356.948L400.561 368.98L401.033 368.166L380.118 356.134Z" fill="#455A64"/>
<path d="M380.111 359.65L379.639 360.465L400.554 372.497L401.026 371.682L380.111 359.65Z" fill="#455A64"/>
<path d="M380.112 363.188L379.64 364.003L400.554 376.035L401.026 375.22L380.112 363.188Z" fill="#455A64"/>
<path d="M372.336 348.966L364.912 344.695V340.326L372.336 344.596V348.966Z" fill="white"/>
<path d="M418.274 374.702L410.849 370.431V366.061L418.274 370.331V374.702Z" fill="white"/>
<path d="M332.282 147.354V185.619C332.282 186.233 332.508 186.646 332.855 186.781L332.865 186.785L332.867 186.786L334.338 187.588L334.33 186.285L334.538 146.946L332.614 145.978C332.406 146.415 332.282 146.902 332.282 147.354Z" fill="#C1E833"/>
<path d="M332.612 145.976L334.537 146.945L381.101 119.748L382.21 119.105L380.676 118.244L380.633 118.219C380.389 118.072 380.069 118.081 379.716 118.284L333.668 144.72C333.244 144.963 332.866 145.432 332.612 145.976Z" fill="#C1E833"/>
<path opacity="0.2" d="M332.612 145.976L334.537 146.945L381.101 119.748L382.21 119.105L380.676 118.244L380.633 118.219C380.389 118.072 380.069 118.081 379.716 118.284L333.668 144.72C333.244 144.963 332.866 145.432 332.612 145.976Z" fill="white"/>
<path d="M333.952 148.189V186.2C333.952 186.728 334.121 187.108 334.391 187.286L334.48 187.334C334.714 187.445 335.008 187.421 335.328 187.236L381.1 160.959C381.86 160.522 382.478 159.347 382.478 158.338V120.328C382.478 119.817 382.321 119.447 382.066 119.262C382.023 119.23 381.976 119.202 381.926 119.183C381.696 119.085 381.41 119.114 381.1 119.293L335.328 145.57C334.923 145.802 334.559 146.245 334.309 146.759C334.087 147.208 333.952 147.716 333.952 148.189Z" fill="#C1E833"/>
<path opacity="0.2" d="M333.952 148.189V186.2C333.952 186.728 334.121 187.108 334.391 187.286L334.48 187.334C334.714 187.445 335.008 187.421 335.328 187.236L381.1 160.959C381.86 160.522 382.478 159.347 382.478 158.338V120.328C382.478 119.817 382.321 119.447 382.066 119.262C382.023 119.23 381.976 119.202 381.926 119.183C381.696 119.085 381.41 119.114 381.1 119.293L335.328 145.57C334.923 145.802 334.559 146.245 334.309 146.759C334.087 147.208 333.952 147.716 333.952 148.189Z" fill="black"/>
<path d="M351.501 153.445L350.108 154.246C350.026 153.831 349.882 153.508 349.676 153.277C349.474 153.043 349.227 152.892 348.935 152.822C348.646 152.746 348.326 152.749 347.974 152.83C347.622 152.912 347.255 153.063 346.873 153.282C346.177 153.683 345.546 154.249 344.981 154.98C344.419 155.709 343.972 156.565 343.639 157.547C343.309 158.527 343.144 159.592 343.144 160.741C343.144 161.89 343.309 162.764 343.639 163.365C343.972 163.964 344.419 164.305 344.981 164.388C345.546 164.469 346.177 164.309 346.873 163.908C347.255 163.689 347.622 163.417 347.974 163.094C348.326 162.77 348.646 162.407 348.935 162.003C349.227 161.593 349.474 161.155 349.676 160.689C349.882 160.217 350.026 159.728 350.108 159.222L351.501 158.421C351.396 159.16 351.205 159.876 350.928 160.571C350.651 161.266 350.307 161.92 349.895 162.533C349.483 163.141 349.021 163.69 348.508 164.18C347.999 164.667 347.454 165.078 346.873 165.411C345.893 165.976 345.02 166.201 344.256 166.088C343.493 165.974 342.892 165.534 342.454 164.766C342.016 163.999 341.797 162.915 341.797 161.516C341.797 160.116 342.016 158.781 342.454 157.51C342.892 156.238 343.493 155.106 344.256 154.114C345.02 153.122 345.893 152.343 346.873 151.779C347.454 151.445 347.999 151.229 348.508 151.131C349.021 151.03 349.483 151.049 349.895 151.188C350.307 151.322 350.651 151.578 350.928 151.954C351.205 152.326 351.396 152.823 351.501 153.445ZM356.942 157.105V148.553L358.2 147.829V156.382L356.942 157.105ZM353.864 155.325V153.874L361.277 149.609V151.061L353.864 155.325ZM367.367 151.108V142.556L368.625 141.832V150.384L367.367 151.108ZM364.289 149.328V147.877L371.702 143.612V145.063L364.289 149.328Z" fill="#FAFAFA"/>
<path d="M381.83 119.202C381.898 119.202 381.961 119.214 382.027 119.242C382.055 119.253 382.084 119.27 382.114 119.292C382.317 119.44 382.433 119.763 382.433 120.178V158.416C382.433 159.341 381.852 160.456 381.164 160.853L335.116 187.289C334.962 187.379 334.817 187.424 334.685 187.424C334.611 187.424 334.541 187.408 334.49 187.385L334.418 187.348C334.204 187.206 334.08 186.879 334.08 186.448V148.208C334.08 147.785 334.2 147.309 334.416 146.87C334.658 146.374 334.998 145.974 335.349 145.773L381.396 119.337C381.55 119.247 381.697 119.202 381.83 119.202ZM381.83 118.97C381.661 118.97 381.475 119.023 381.28 119.136L335.233 145.572C334.825 145.806 334.459 146.251 334.207 146.768C333.984 147.221 333.848 147.732 333.848 148.208V186.448C333.848 186.98 334.017 187.362 334.289 187.541L334.377 187.589C334.47 187.634 334.573 187.657 334.684 187.657C334.853 187.657 335.038 187.604 335.232 187.491L381.279 161.055C382.043 160.614 382.665 159.433 382.665 158.418V120.18C382.665 119.666 382.507 119.294 382.251 119.107C382.207 119.075 382.16 119.048 382.11 119.029C382.025 118.99 381.929 118.97 381.83 118.97Z" fill="#C1E833"/>
<path d="M332.282 87.9778V126.099C332.282 126.711 332.508 127.122 332.853 127.257L332.863 127.26L332.865 127.263L334.33 128.062L334.322 126.762L334.53 87.5704L332.612 86.6055C332.406 87.0416 332.282 87.5273 332.282 87.9778Z" fill="#C1E833"/>
<path d="M332.611 86.6055L334.529 87.5704L380.918 60.476L382.024 59.8357L380.496 58.9779L380.453 58.9525C380.209 58.8068 379.89 58.8145 379.538 59.0176L333.664 85.3547C333.241 85.5953 332.864 86.0623 332.611 86.6055Z" fill="#C1E833"/>
<path opacity="0.2" d="M332.611 86.6055L334.529 87.5704L380.918 60.476L382.024 59.8357L380.496 58.9779L380.453 58.9525C380.209 58.8068 379.89 58.8145 379.538 59.0176L333.664 85.3547C333.241 85.5953 332.864 86.0623 332.611 86.6055Z" fill="white"/>
<path d="M333.945 88.8091V126.677C333.945 127.204 334.114 127.583 334.383 127.759L334.472 127.807C334.705 127.917 334.999 127.893 335.317 127.71L380.917 101.53C381.675 101.094 382.29 99.9253 382.29 98.9195V61.0523C382.29 60.5434 382.132 60.1746 381.88 59.9892C381.836 59.9572 381.79 59.9307 381.74 59.9108C381.511 59.8136 381.226 59.8423 380.917 60.019L335.317 86.2003C334.914 86.4322 334.551 86.8727 334.301 87.3849C334.08 87.8331 333.945 88.3388 333.945 88.8091Z" fill="#C1E833"/>
<path opacity="0.2" d="M333.945 88.8091V126.677C333.945 127.204 334.114 127.583 334.383 127.759L334.472 127.807C334.705 127.917 334.999 127.893 335.317 127.71L380.917 101.53C381.675 101.094 382.29 99.9253 382.29 98.9195V61.0523C382.29 60.5434 382.132 60.1746 381.88 59.9892C381.836 59.9572 381.79 59.9307 381.74 59.9108C381.511 59.8136 381.226 59.8423 380.917 60.019L335.317 86.2003C334.914 86.4322 334.551 86.8727 334.301 87.3849C334.08 87.8331 333.945 88.3388 333.945 88.8091Z" fill="black"/>
<path d="M345.272 98.7063V97.6832C346.068 97.2252 346.624 96.7131 346.938 96.1471C347.258 95.5783 347.417 94.8429 347.417 93.9408V91.3006C347.417 90.5416 347.479 89.8486 347.603 89.2218C347.732 88.5922 347.94 88.0136 348.226 87.486C348.512 86.9584 348.893 86.4695 349.37 86.0192C349.847 85.5689 350.435 85.1422 351.136 84.739V86.3561C350.583 86.6743 350.147 87.0243 349.828 87.406C349.513 87.7851 349.289 88.222 349.155 88.7168C349.027 89.2034 348.962 89.7685 348.962 90.412V93.7122C348.962 94.1412 348.912 94.5606 348.812 94.9702C348.717 95.3771 348.538 95.7824 348.276 96.1863C348.013 96.5902 347.639 97.0007 347.153 97.418C346.671 97.8325 346.044 98.2619 345.272 98.7063ZM351.136 105.86C350.435 106.264 349.847 106.514 349.37 106.613C348.893 106.711 348.512 106.661 348.226 106.462C347.94 106.264 347.732 105.924 347.603 105.442C347.479 104.958 347.417 104.336 347.417 103.577V100.937C347.417 100.035 347.258 99.4835 346.938 99.2823C346.624 99.0783 346.068 99.2053 345.272 99.6633V98.6403C346.044 98.1959 346.671 97.904 347.153 97.7645C347.639 97.6223 348.013 97.6022 348.276 97.7044C348.538 97.8066 348.717 98.0062 348.812 98.3034C348.912 98.5978 348.962 98.9595 348.962 99.3886V102.689C348.962 103.332 349.027 103.823 349.155 104.162C349.289 104.498 349.513 104.674 349.828 104.691C350.147 104.711 350.583 104.561 351.136 104.243V105.86ZM345.272 99.6633V97.6832L346.96 96.7123V98.6924L345.272 99.6633Z" fill="#FAFAFA"/>
<path d="M381.645 59.9318C381.712 59.9318 381.777 59.9439 381.841 59.9715C381.869 59.9814 381.897 59.998 381.927 60.0212C382.129 60.1691 382.245 60.4915 382.245 60.9044V99.0001C382.245 99.9208 381.666 101.033 380.98 101.427L335.104 127.764C334.95 127.852 334.806 127.897 334.674 127.897C334.6 127.897 334.53 127.882 334.481 127.859L334.408 127.82C334.195 127.68 334.073 127.353 334.073 126.924V88.8279C334.073 88.4061 334.191 87.9325 334.407 87.4953C334.648 87.0018 334.987 86.6033 335.336 86.4024L381.21 60.0653C381.367 59.9759 381.512 59.9318 381.645 59.9318ZM381.645 59.701C381.477 59.701 381.291 59.754 381.096 59.8655L335.222 86.2025C334.816 86.4355 334.452 86.8782 334.2 87.3938C333.977 87.8453 333.842 88.3542 333.842 88.8279V126.925C333.842 127.455 334.012 127.835 334.282 128.013L334.371 128.062C334.464 128.106 334.566 128.128 334.677 128.128C334.844 128.128 335.028 128.075 335.222 127.964L381.096 101.627C381.859 101.188 382.477 100.011 382.477 99.0001V60.9044C382.477 60.3921 382.32 60.0212 382.065 59.8346C382.021 59.8026 381.974 59.775 381.924 59.7562C381.839 59.7198 381.744 59.701 381.645 59.701Z" fill="#C1E833"/>
<path d="M241.884 88.958C241.963 87.8397 242.443 86.7865 243.235 85.9905L247.555 81.644C248.211 80.9838 248.493 80.0399 248.303 79.1302L247.21 73.8774C247.14 73.5396 246.923 73.2923 246.654 73.1509L246.66 73.1465L240.537 70.1657L240.389 70.0918C240.047 69.9538 239.631 69.9935 239.309 70.2596L237.526 71.7202L239.346 66.2079C239.568 65.5356 239.239 64.8433 238.643 64.5486H238.665L232.548 61.5678L232.538 61.5634C232.389 61.4839 232.226 61.4254 232.048 61.4055L228.114 60.912C227.555 60.8424 227.01 61.0257 226.619 61.3911V61.3967C226.436 61.5589 226.282 61.7665 226.178 62.0039L223.265 68.6223C222.987 69.2627 222.515 69.7904 221.928 70.1558L221.719 69.617C221.614 69.3466 221.413 69.1545 221.177 69.0496L221.178 69.0485L215.165 66.1218L214.972 66.0279L214.967 66.0235C214.6 65.88 214.165 65.944 213.857 66.2554L208.7 71.4475C208.333 71.8129 208.071 72.2567 207.918 72.7358C207.784 73.1852 207.745 73.6632 207.819 74.1423L208.557 78.8708C208.646 79.4526 208.523 80.0498 208.2 80.5488L205.267 85.104C205.099 85.37 204.881 85.5974 204.634 85.7708C204.227 86.0622 203.732 86.2245 203.217 86.2245H199.873C199.67 86.2245 199.466 86.2488 199.279 86.304C198.565 86.4917 197.976 87.0194 197.713 87.7304L194.76 95.7598C194.544 96.3438 194.799 96.9797 195.319 97.2722H195.318L195.321 97.2733C195.328 97.2767 195.335 97.28 195.342 97.2833L199.705 99.414C199.756 99.6006 199.775 99.7971 199.753 99.9991L199.262 104.506C199.228 104.792 199.158 105.073 199.044 105.34C198.895 105.716 198.673 106.056 198.39 106.347L193.907 110.947C193.59 111.273 193.368 111.663 193.238 112.082C193.099 112.536 193.08 113.021 193.184 113.494L194.452 119.214C194.513 119.494 194.703 119.692 194.934 119.793L194.93 119.796L201.023 122.767V122.765C201.306 122.919 201.672 122.915 201.956 122.683L203.933 121.059L202.275 126.77C202.235 126.898 202.22 127.032 202.225 127.16C202.237 127.657 202.535 128.099 202.983 128.31L202.995 128.329L208.923 131.2L208.921 131.193C209.095 131.32 209.298 131.411 209.531 131.441L212.958 131.867C213.899 131.984 214.806 131.476 215.194 130.614L218.113 124.127C218.407 123.471 218.909 122.939 219.531 122.583L219.68 123.011C219.789 123.324 220.028 123.536 220.306 123.636L220.302 123.641L226.323 126.583C226.332 126.588 226.341 126.592 226.349 126.597L226.38 126.612V126.609C226.739 126.774 227.185 126.738 227.513 126.44L232.756 121.659C233.392 121.079 233.699 120.224 233.578 119.374L232.835 114.15C232.709 113.267 232.908 112.367 233.394 111.619L235.795 107.921C236.413 106.969 237.475 106.393 238.614 106.393H241.806C242.605 106.393 243.318 105.898 243.595 105.153L246.488 97.3727C246.762 96.6374 246.446 95.8437 245.801 95.4661H245.81L245.777 95.4495C245.738 95.4275 245.697 95.4098 245.656 95.391L241.643 93.4392C241.601 93.2758 241.581 93.1035 241.594 92.9269L241.884 88.958ZM222.637 85.2199C224.128 84.1667 225.58 83.555 226.928 83.3353C227.523 84.4349 227.926 85.8337 228.085 87.5294C228.738 94.5277 224.602 103.491 218.846 107.558C217.352 108.611 215.93 109.244 214.625 109.495C213.987 108.366 213.558 106.947 213.399 105.249C212.746 98.2493 216.882 89.2837 222.637 85.2199Z" fill="#C1E833"/>
<path opacity="0.3" d="M241.884 88.958C241.963 87.8397 242.443 86.7865 243.235 85.9905L247.555 81.644C248.211 80.9838 248.493 80.0399 248.303 79.1302L247.21 73.8774C247.14 73.5396 246.923 73.2923 246.654 73.1509L246.66 73.1465L240.537 70.1657L240.389 70.0918C240.047 69.9538 239.631 69.9935 239.309 70.2596L237.526 71.7202L239.346 66.2079C239.568 65.5356 239.239 64.8433 238.643 64.5486H238.665L232.548 61.5678L232.538 61.5634C232.389 61.4839 232.226 61.4254 232.048 61.4055L228.114 60.912C227.555 60.8424 227.01 61.0257 226.619 61.3911V61.3967C226.436 61.5589 226.282 61.7665 226.178 62.0039L223.265 68.6223C222.987 69.2627 222.515 69.7904 221.928 70.1558L221.719 69.617C221.614 69.3466 221.413 69.1545 221.177 69.0496L221.178 69.0485L215.165 66.1218L214.972 66.0279L214.967 66.0235C214.6 65.88 214.165 65.944 213.857 66.2554L208.7 71.4475C208.333 71.8129 208.071 72.2567 207.918 72.7358C207.784 73.1852 207.745 73.6632 207.819 74.1423L208.557 78.8708C208.646 79.4526 208.523 80.0498 208.2 80.5488L205.267 85.104C205.099 85.37 204.881 85.5974 204.634 85.7708C204.227 86.0622 203.732 86.2245 203.217 86.2245H199.873C199.67 86.2245 199.466 86.2488 199.279 86.304C198.565 86.4917 197.976 87.0194 197.713 87.7304L194.76 95.7598C194.544 96.3438 194.799 96.9797 195.319 97.2722H195.318L195.321 97.2733C195.328 97.2767 195.335 97.28 195.342 97.2833L199.705 99.414C199.756 99.6006 199.775 99.7971 199.753 99.9991L199.262 104.506C199.228 104.792 199.158 105.073 199.044 105.34C198.895 105.716 198.673 106.056 198.39 106.347L193.907 110.947C193.59 111.273 193.368 111.663 193.238 112.082C193.099 112.536 193.08 113.021 193.184 113.494L194.452 119.214C194.513 119.494 194.703 119.692 194.934 119.793L194.93 119.796L201.023 122.767V122.765C201.306 122.919 201.672 122.915 201.956 122.683L203.933 121.059L202.275 126.77C202.235 126.898 202.22 127.032 202.225 127.16C202.237 127.657 202.535 128.099 202.983 128.31L202.995 128.329L208.923 131.2L208.921 131.193C209.095 131.32 209.298 131.411 209.531 131.441L212.958 131.867C213.899 131.984 214.806 131.476 215.194 130.614L218.113 124.127C218.407 123.471 218.909 122.939 219.531 122.583L219.68 123.011C219.789 123.324 220.028 123.536 220.306 123.636L220.302 123.641L226.323 126.583C226.332 126.588 226.341 126.592 226.349 126.597L226.38 126.612V126.609C226.739 126.774 227.185 126.738 227.513 126.44L232.756 121.659C233.392 121.079 233.699 120.224 233.578 119.374L232.835 114.15C232.709 113.267 232.908 112.367 233.394 111.619L235.795 107.921C236.413 106.969 237.475 106.393 238.614 106.393H241.806C242.605 106.393 243.318 105.898 243.595 105.153L246.488 97.3727C246.762 96.6374 246.446 95.8437 245.801 95.4661H245.81L245.777 95.4495C245.738 95.4275 245.697 95.4098 245.656 95.391L241.643 93.4392C241.601 93.2758 241.581 93.1035 241.594 92.9269L241.884 88.958ZM222.637 85.2199C224.128 84.1667 225.58 83.555 226.928 83.3353C227.523 84.4349 227.926 85.8337 228.085 87.5294C228.738 94.5277 224.602 103.491 218.846 107.558C217.352 108.611 215.93 109.244 214.625 109.495C213.987 108.366 213.558 106.947 213.399 105.249C212.746 98.2493 216.882 89.2837 222.637 85.2199Z" fill="black"/>
<path opacity="0.2" d="M205.993 108.51L199.365 115.222L193.242 112.078C193.371 111.659 193.593 111.269 193.911 110.943L198.394 106.343C198.677 106.051 198.9 105.711 199.048 105.336L205.993 108.51Z" fill="black"/>
<path opacity="0.2" d="M210.812 88.7638L210.678 89.5134H204.932L199.28 86.3008C199.468 86.2467 199.671 86.2213 199.874 86.2213H203.218C203.733 86.2213 204.228 86.059 204.635 85.7675L210.812 88.7638Z" fill="black"/>
<path opacity="0.2" d="M221.179 69.0463L218.589 71.5878H218.585L213.997 76.0843L207.924 72.7425L207.919 72.7326C208.073 72.2535 208.336 71.8097 208.701 71.4442L213.858 66.2521C214.165 65.9408 214.601 65.8768 214.968 66.0203L214.974 66.0247L215.166 66.1185L221.179 69.0463Z" fill="black"/>
<path opacity="0.2" d="M238.665 64.5498H232.632L226.619 61.3956V61.3901C227.01 61.0247 227.555 60.8425 228.114 60.911L232.048 61.4045C232.226 61.4243 232.39 61.484 232.538 61.5623L232.548 61.5668L238.665 64.5498Z" fill="black"/>
<path d="M243.235 85.9906L247.555 81.6441C248.211 80.9839 248.493 80.04 248.303 79.1303L247.21 73.8775C247.045 73.0848 246.094 72.7503 245.466 73.2647L240.978 76.9422C240.495 77.3385 239.786 77.2977 239.352 76.8483L238.057 75.5103C237.239 74.6657 236.957 73.4392 237.325 72.3241L239.345 66.2069C239.617 65.3833 239.067 64.5178 238.204 64.4085L234.272 63.915C233.454 63.8123 232.666 64.2572 232.336 65.0101L229.424 71.6275C229.07 72.4345 228.417 73.0749 227.603 73.4182L224.987 74.5189C224.344 74.7894 223.604 74.4769 223.352 73.8278L221.718 69.6138C221.446 68.915 220.542 68.7262 220.014 69.2594L214.857 74.4471C214.153 75.157 213.827 76.1572 213.98 77.1442L214.715 81.8704C214.806 82.4544 214.68 83.0517 214.36 83.5496L211.429 88.1069C210.98 88.8047 210.206 89.2264 209.374 89.2264H206.033C205.066 89.2264 204.203 89.8281 203.87 90.7322L200.92 98.7605C200.673 99.4318 201.043 100.171 201.73 100.379L204.79 101.304C205.526 101.527 205.998 102.239 205.915 103.001L205.421 107.504C205.345 108.199 205.039 108.848 204.551 109.349L200.07 113.948C199.414 114.621 199.141 115.577 199.344 116.493L200.611 122.215C200.745 122.822 201.475 123.073 201.957 122.678L206.363 119.06C207.096 118.458 208.18 118.564 208.781 119.297L209.896 120.657C210.444 121.326 210.627 122.221 210.386 123.05L208.434 129.771C208.209 130.544 208.731 131.333 209.532 131.432L212.959 131.858C213.9 131.975 214.807 131.468 215.195 130.605L218.114 124.118C218.445 123.382 219.029 122.786 219.761 122.439L222.315 121.228C223.165 120.825 224.178 121.246 224.487 122.132L225.842 126.009C226.086 126.708 226.968 126.93 227.515 126.43L232.758 121.649C233.394 121.069 233.701 120.215 233.58 119.364L232.837 114.14C232.712 113.257 232.91 112.357 233.396 111.609L235.797 107.912C236.416 106.959 237.477 106.384 238.616 106.384H241.808C242.607 106.384 243.321 105.888 243.598 105.143L246.491 97.3629C246.815 96.4907 246.318 95.5291 245.416 95.2873L242.782 94.5797C242.039 94.3799 241.541 93.6832 241.597 92.9171L241.88 88.9559C241.963 87.8398 242.443 86.7876 243.235 85.9906ZM225.004 110.561C219.249 114.624 214.054 112.245 213.399 105.248C212.745 98.2494 216.88 89.2838 222.636 85.22C228.391 81.1572 233.588 83.5353 234.242 90.5335C234.895 97.5318 230.76 106.497 225.004 110.561Z" fill="#C1E833"/>
<path d="M120.672 181.893C120.811 179.955 121.641 178.13 123.014 176.75L130.5 169.221C131.636 168.077 132.123 166.441 131.795 164.866L129.9 155.766C129.778 155.18 129.404 154.752 128.936 154.508L128.947 154.5L118.339 149.336L118.082 149.208C117.489 148.968 116.769 149.037 116.212 149.498L113.123 152.03L116.276 142.479C116.661 141.315 116.089 140.115 115.057 139.605H115.096L104.497 134.441L104.48 134.432C104.223 134.295 103.94 134.192 103.631 134.158L96.8164 133.302C95.8469 133.183 94.9029 133.499 94.2248 134.132V134.14C93.9068 134.422 93.6408 134.782 93.4613 135.193L88.4155 146.66C87.9335 147.769 87.1147 148.685 86.1009 149.316L85.7386 148.382C85.5569 147.913 85.209 147.581 84.799 147.398L84.8023 147.396L74.3838 142.325L74.0492 142.163L74.0403 142.154C73.4054 141.906 72.6498 142.017 72.1179 142.556L63.1841 151.553C62.5493 152.185 62.0939 152.955 61.8279 153.785C61.5964 154.563 61.5277 155.392 61.6562 156.222L62.9348 164.414C63.0889 165.423 62.875 166.458 62.3166 167.321L57.2353 175.214C56.9439 175.675 56.5661 176.069 56.1373 176.368C55.4337 176.873 54.575 177.156 53.683 177.156H47.8904C47.5381 177.156 47.1868 177.199 46.86 177.292C45.6246 177.617 44.603 178.532 44.1476 179.763L39.0331 193.676C38.6597 194.688 39.0995 195.79 40.0003 196.296L40.0048 196.299C40.017 196.306 40.0292 196.31 40.0413 196.317L47.6012 200.007C47.6888 200.331 47.722 200.672 47.6832 201.021L46.8334 208.828C46.7736 209.324 46.6528 209.812 46.4556 210.273C46.1985 210.924 45.8118 211.513 45.3232 212.018L37.5561 219.987C37.0065 220.552 36.6209 221.227 36.3971 221.955C36.1567 222.742 36.1223 223.58 36.303 224.4L38.5001 234.311C38.6065 234.794 38.9345 235.139 39.3344 235.313L39.3267 235.32L49.8837 240.467V240.463C50.3746 240.732 51.0094 240.724 51.4992 240.322L54.9262 237.508L52.0521 247.402C51.9834 247.624 51.9579 247.855 51.9656 248.077C51.9856 248.937 52.5041 249.703 53.2797 250.068L53.3019 250.101L63.5719 255.076L63.5675 255.063C63.8689 255.283 64.2223 255.442 64.6245 255.492L70.5612 256.232C72.1911 256.435 73.7633 255.554 74.4359 254.06L79.4928 242.82C80.0036 241.684 80.8745 240.761 81.9503 240.144L82.2107 240.887C82.3991 241.432 82.8135 241.797 83.2943 241.969L83.2855 241.978L93.7184 247.075C93.7339 247.084 93.7494 247.091 93.7649 247.098L93.8192 247.125V247.119C94.4408 247.406 95.2131 247.343 95.7815 246.826L104.865 238.542C105.966 237.538 106.499 236.057 106.29 234.585L105.002 225.533C104.784 224.002 105.129 222.444 105.972 221.147L110.132 214.74C111.204 213.09 113.043 212.093 115.016 212.093H120.548C121.931 212.093 123.168 211.235 123.649 209.943L128.663 196.463C129.137 195.189 128.59 193.814 127.473 193.16H127.488L127.429 193.132C127.362 193.094 127.292 193.062 127.221 193.03L120.268 189.647C120.195 189.364 120.161 189.067 120.183 188.761L120.672 181.893ZM87.3241 175.416C89.9091 173.591 92.4243 172.531 94.7588 172.151C95.7904 174.057 96.4895 176.48 96.7632 179.417C97.8956 191.542 90.7301 207.071 80.757 214.117C78.1698 215.944 75.7034 217.039 73.4431 217.471C72.3407 215.517 71.5939 213.057 71.3191 210.114C70.1878 197.99 77.3533 182.455 87.3241 175.416Z" fill="#C1E833"/>
<path opacity="0.3" d="M120.672 181.893C120.811 179.955 121.641 178.13 123.014 176.75L130.5 169.221C131.636 168.077 132.123 166.441 131.795 164.866L129.9 155.766C129.778 155.18 129.404 154.752 128.936 154.508L128.947 154.5L118.339 149.336L118.082 149.208C117.489 148.968 116.769 149.037 116.212 149.498L113.123 152.03L116.276 142.479C116.661 141.315 116.089 140.115 115.057 139.605H115.096L104.497 134.441L104.48 134.432C104.223 134.295 103.94 134.192 103.631 134.158L96.8164 133.302C95.8469 133.183 94.9029 133.499 94.2248 134.132V134.14C93.9068 134.422 93.6408 134.782 93.4613 135.193L88.4155 146.66C87.9335 147.769 87.1147 148.685 86.1009 149.316L85.7386 148.382C85.5569 147.913 85.209 147.581 84.799 147.398L84.8023 147.396L74.3838 142.325L74.0492 142.163L74.0403 142.154C73.4054 141.906 72.6498 142.017 72.1179 142.556L63.1841 151.553C62.5493 152.185 62.0939 152.955 61.8279 153.785C61.5964 154.563 61.5277 155.392 61.6562 156.222L62.9348 164.414C63.0889 165.423 62.875 166.458 62.3166 167.321L57.2353 175.214C56.9439 175.675 56.5661 176.069 56.1373 176.368C55.4337 176.873 54.575 177.156 53.683 177.156H47.8904C47.5381 177.156 47.1868 177.199 46.86 177.292C45.6246 177.617 44.603 178.532 44.1476 179.763L39.0331 193.676C38.6597 194.688 39.0995 195.79 40.0003 196.296L40.0048 196.299C40.017 196.306 40.0292 196.31 40.0413 196.317L47.6012 200.007C47.6888 200.331 47.722 200.672 47.6832 201.021L46.8334 208.828C46.7736 209.324 46.6528 209.812 46.4556 210.273C46.1985 210.924 45.8118 211.513 45.3232 212.018L37.5561 219.987C37.0065 220.552 36.6209 221.227 36.3971 221.955C36.1567 222.742 36.1223 223.58 36.303 224.4L38.5001 234.311C38.6065 234.794 38.9345 235.139 39.3344 235.313L39.3267 235.32L49.8837 240.467V240.463C50.3746 240.732 51.0094 240.724 51.4992 240.322L54.9262 237.508L52.0521 247.402C51.9834 247.624 51.9579 247.855 51.9656 248.077C51.9856 248.937 52.5041 249.703 53.2797 250.068L53.3019 250.101L63.5719 255.076L63.5675 255.063C63.8689 255.283 64.2223 255.442 64.6245 255.492L70.5612 256.232C72.1911 256.435 73.7633 255.554 74.4359 254.06L79.4928 242.82C80.0036 241.684 80.8745 240.761 81.9503 240.144L82.2107 240.887C82.3991 241.432 82.8135 241.797 83.2943 241.969L83.2855 241.978L93.7184 247.075C93.7339 247.084 93.7494 247.091 93.7649 247.098L93.8192 247.125V247.119C94.4408 247.406 95.2131 247.343 95.7815 246.826L104.865 238.542C105.966 237.538 106.499 236.057 106.29 234.585L105.002 225.533C104.784 224.002 105.129 222.444 105.972 221.147L110.132 214.74C111.204 213.09 113.043 212.093 115.016 212.093H120.548C121.931 212.093 123.168 211.235 123.649 209.943L128.663 196.463C129.137 195.189 128.59 193.814 127.473 193.16H127.488L127.429 193.132C127.362 193.094 127.292 193.062 127.221 193.03L120.268 189.647C120.195 189.364 120.161 189.067 120.183 188.761L120.672 181.893ZM87.3241 175.416C89.9091 173.591 92.4243 172.531 94.7588 172.151C95.7904 174.057 96.4895 176.48 96.7632 179.417C97.8956 191.542 90.7301 207.071 80.757 214.117C78.1698 215.944 75.7034 217.039 73.4431 217.471C72.3407 215.517 71.5939 213.057 71.3191 210.114C70.1878 197.99 77.3533 182.455 87.3241 175.416Z" fill="black"/>
<path opacity="0.2" d="M58.4873 215.767L47.004 227.396L36.396 221.949C36.6187 221.223 37.0054 220.547 37.555 219.982L45.322 212.012C45.8118 211.508 46.1974 210.918 46.4544 210.268L58.4873 215.767Z" fill="black"/>
<path opacity="0.2" d="M66.8383 181.554L66.6068 182.853H56.6514L46.8589 177.287C47.1846 177.193 47.537 177.15 47.8893 177.15H53.682C54.575 177.15 55.4326 176.869 56.1362 176.363L66.8383 181.554Z" fill="black"/>
<path opacity="0.2" d="M84.8001 147.393L80.3116 151.797H80.3027L72.355 159.587L61.8334 153.797L61.8257 153.781C62.0916 152.951 62.5459 152.181 63.1819 151.548L72.1157 142.552C72.6475 142.013 73.4032 141.902 74.0381 142.15L74.0469 142.159L74.3815 142.321L84.8001 147.393Z" fill="black"/>
<path opacity="0.2" d="M115.096 139.602H104.642L94.2236 134.138V134.129C94.9017 133.497 95.8457 133.18 96.8152 133.3L103.629 134.156C103.939 134.19 104.221 134.293 104.479 134.43L104.496 134.438L115.096 139.602Z" fill="black"/>
<path d="M123.013 176.75L130.499 169.221C131.635 168.077 132.122 166.441 131.794 164.866L129.899 155.766C129.613 154.392 127.965 153.814 126.878 154.705L119.103 161.076C118.265 161.762 117.039 161.692 116.285 160.914L114.043 158.595C112.625 157.131 112.139 155.007 112.776 153.075L116.275 142.477C116.746 141.05 115.794 139.549 114.299 139.361L107.485 138.506C106.069 138.327 104.704 139.1 104.13 140.402L99.0857 151.868C98.4708 153.266 97.3417 154.376 95.9301 154.97L91.3973 156.877C90.2837 157.345 89.0018 156.804 88.5663 155.681L85.7354 148.379C85.2656 147.168 83.6989 146.841 82.7826 147.764L73.8477 156.751C72.6256 157.981 72.0616 159.715 72.3275 161.425L73.6017 169.614C73.759 170.627 73.5397 171.661 72.9857 172.524L67.9077 180.42C67.131 181.629 65.7881 182.36 64.3477 182.36H58.5606C56.8853 182.36 55.3884 183.402 54.8122 184.969L49.6988 198.878C49.2711 200.04 49.9127 201.322 51.1015 201.682L56.4044 203.285C57.6786 203.67 58.4974 204.905 58.3534 206.225L57.4991 214.028C57.3673 215.231 56.8366 216.355 55.9911 217.223L48.2274 225.192C47.0917 226.358 46.6197 228.014 46.9709 229.6L49.1659 239.515C49.3986 240.566 50.6639 241.001 51.4982 240.316L59.1323 234.048C60.4021 233.006 62.2802 233.19 63.3217 234.46L65.2529 236.817C66.2025 237.976 66.5205 239.525 66.1028 240.962L62.7189 252.608C62.33 253.948 63.2341 255.314 64.6214 255.488L70.558 256.227C72.1879 256.43 73.7601 255.549 74.4327 254.056L79.4896 242.816C80.0647 241.54 81.0763 240.507 82.3438 239.906L86.7681 237.807C88.2395 237.108 89.9946 237.839 90.5308 239.373L92.8787 246.09C93.3019 247.3 94.8299 247.685 95.7783 246.82L104.862 238.537C105.963 237.532 106.496 236.052 106.287 234.579L104.999 225.527C104.781 223.996 105.125 222.438 105.969 221.141L110.129 214.735C111.201 213.084 113.04 212.087 115.013 212.087H120.544C121.928 212.087 123.165 211.229 123.646 209.938L128.659 196.458C129.221 194.947 128.359 193.282 126.798 192.862L122.234 191.636C120.945 191.29 120.083 190.081 120.179 188.755L120.671 181.892C120.81 179.954 121.641 178.13 123.013 176.75ZM91.4283 219.322C81.4563 226.362 72.4549 222.24 71.3214 210.115C70.188 197.991 77.3534 182.456 87.3254 175.417C97.2974 168.377 106.299 172.499 107.432 184.623C108.565 196.746 101.399 212.28 91.4283 219.322Z" fill="#C1E833"/>
<path d="M176.67 67.0548C176.785 65.4573 177.47 63.9536 178.601 62.8154L184.773 56.6076C185.71 55.6648 186.111 54.3157 185.841 53.0163L184.279 45.5135C184.178 45.0311 183.87 44.6778 183.484 44.4769L183.493 44.4702L174.748 40.2121L174.535 40.1061C174.047 39.9085 173.452 39.9648 172.993 40.3457L170.446 42.4322L173.046 34.5574C173.363 33.598 172.892 32.6077 172.041 32.1882H172.073L163.334 27.9301L163.32 27.9235C163.108 27.8109 162.874 27.7259 162.619 27.6972L157.002 26.9917C156.202 26.8923 155.424 27.154 154.865 27.6751V27.6817C154.603 27.9146 154.384 28.2105 154.235 28.5483L150.075 38.0019C149.677 38.9171 149.002 39.6711 148.167 40.1922L147.868 39.4216C147.718 39.0352 147.431 38.7614 147.093 38.6102L147.095 38.608L138.505 34.4271L138.229 34.2936L138.222 34.2869C137.698 34.0827 137.076 34.1743 136.637 34.6181L129.271 42.0348C128.748 42.557 128.372 43.1907 128.153 43.8752C127.961 44.5166 127.905 45.2011 128.011 45.8845L129.066 52.6387C129.193 53.4711 129.016 54.3234 128.556 55.0355L124.367 61.5425C124.126 61.9234 123.815 62.2479 123.462 62.4941C122.881 62.9103 122.174 63.1433 121.438 63.1433H116.662C116.372 63.1433 116.081 63.1786 115.813 63.2559C114.794 63.5242 113.952 64.2782 113.577 65.2928L109.36 76.7633C109.052 77.5979 109.416 78.5065 110.158 78.9228L110.161 78.925C110.171 78.9305 110.181 78.9349 110.191 78.9393L116.425 81.983C116.497 82.2491 116.523 82.5306 116.492 82.8188L115.792 89.2551C115.742 89.6636 115.644 90.0654 115.481 90.4463C115.269 90.9818 114.95 91.4686 114.547 91.8848L108.144 98.4602C107.69 98.9261 107.372 99.4825 107.188 100.082C106.99 100.731 106.962 101.421 107.111 102.098L108.922 110.269C109.01 110.667 109.28 110.951 109.611 111.096L109.604 111.101L118.308 115.345V115.341C118.713 115.562 119.237 115.557 119.64 115.226L122.466 112.906L120.096 121.064C120.039 121.247 120.018 121.437 120.025 121.62C120.041 122.33 120.468 122.961 121.107 123.262L121.125 123.289L129.592 127.391L129.589 127.38C129.837 127.562 130.13 127.693 130.461 127.734L135.356 128.343C136.7 128.511 137.996 127.785 138.55 126.553L142.72 117.286C143.141 116.349 143.859 115.588 144.746 115.079L144.96 115.691C145.115 116.14 145.458 116.441 145.854 116.584L145.848 116.591L154.449 120.794C154.462 120.801 154.475 120.806 154.488 120.813L154.532 120.835V120.831C155.045 121.067 155.682 121.015 156.15 120.589L163.639 113.759C164.546 112.931 164.986 111.712 164.813 110.497L163.752 103.034C163.572 101.772 163.856 100.487 164.551 99.4174L167.981 94.1359C168.865 92.7746 170.381 91.9533 172.008 91.9533H176.568C177.708 91.9533 178.729 91.2456 179.124 90.1802L183.257 79.0674C183.648 78.0164 183.197 76.8826 182.276 76.3438H182.289L182.241 76.3206C182.186 76.2897 182.128 76.2632 182.069 76.2367L176.336 73.448C176.277 73.214 176.248 72.9689 176.267 72.7172L176.67 67.0548ZM149.177 61.7147C151.308 60.21 153.382 59.3367 155.307 59.0232C156.158 60.5942 156.734 62.5924 156.96 65.0135C157.894 75.0102 151.985 87.8133 143.764 93.6236C141.631 95.1284 139.597 96.0325 137.734 96.3891C136.824 94.7773 136.209 92.7493 135.983 90.3238C135.048 80.327 140.956 67.5184 149.177 61.7147Z" fill="#C1E833"/>
<path opacity="0.3" d="M176.67 67.0548C176.785 65.4573 177.47 63.9536 178.601 62.8154L184.773 56.6076C185.71 55.6648 186.111 54.3157 185.841 53.0163L184.279 45.5135C184.178 45.0311 183.87 44.6778 183.484 44.4769L183.493 44.4702L174.748 40.2121L174.535 40.1061C174.047 39.9085 173.452 39.9648 172.993 40.3457L170.446 42.4322L173.046 34.5574C173.363 33.598 172.892 32.6077 172.041 32.1882H172.073L163.334 27.9301L163.32 27.9235C163.108 27.8109 162.874 27.7259 162.619 27.6972L157.002 26.9917C156.202 26.8923 155.424 27.154 154.865 27.6751V27.6817C154.603 27.9146 154.384 28.2105 154.235 28.5483L150.075 38.0019C149.677 38.9171 149.002 39.6711 148.167 40.1922L147.868 39.4216C147.718 39.0352 147.431 38.7614 147.093 38.6102L147.095 38.608L138.505 34.4271L138.229 34.2936L138.222 34.2869C137.698 34.0827 137.076 34.1743 136.637 34.6181L129.271 42.0348C128.748 42.557 128.372 43.1907 128.153 43.8752C127.961 44.5166 127.905 45.2011 128.011 45.8845L129.066 52.6387C129.193 53.4711 129.016 54.3234 128.556 55.0355L124.367 61.5425C124.126 61.9234 123.815 62.2479 123.462 62.4941C122.881 62.9103 122.174 63.1433 121.438 63.1433H116.662C116.372 63.1433 116.081 63.1786 115.813 63.2559C114.794 63.5242 113.952 64.2782 113.577 65.2928L109.36 76.7633C109.052 77.5979 109.416 78.5065 110.158 78.9228L110.161 78.925C110.171 78.9305 110.181 78.9349 110.191 78.9393L116.425 81.983C116.497 82.2491 116.523 82.5306 116.492 82.8188L115.792 89.2551C115.742 89.6636 115.644 90.0654 115.481 90.4463C115.269 90.9818 114.95 91.4686 114.547 91.8848L108.144 98.4602C107.69 98.9261 107.372 99.4825 107.188 100.082C106.99 100.731 106.962 101.421 107.111 102.098L108.922 110.269C109.01 110.667 109.28 110.951 109.611 111.096L109.604 111.101L118.308 115.345V115.341C118.713 115.562 119.237 115.557 119.64 115.226L122.466 112.906L120.096 121.064C120.039 121.247 120.018 121.437 120.025 121.62C120.041 122.33 120.468 122.961 121.107 123.262L121.125 123.289L129.592 127.391L129.589 127.38C129.837 127.562 130.13 127.693 130.461 127.734L135.356 128.343C136.7 128.511 137.996 127.785 138.55 126.553L142.72 117.286C143.141 116.349 143.859 115.588 144.746 115.079L144.96 115.691C145.115 116.14 145.458 116.441 145.854 116.584L145.848 116.591L154.449 120.794C154.462 120.801 154.475 120.806 154.488 120.813L154.532 120.835V120.831C155.045 121.067 155.682 121.015 156.15 120.589L163.639 113.759C164.546 112.931 164.986 111.712 164.813 110.497L163.752 103.034C163.572 101.772 163.856 100.487 164.551 99.4174L167.981 94.1359C168.865 92.7746 170.381 91.9533 172.008 91.9533H176.568C177.708 91.9533 178.729 91.2456 179.124 90.1802L183.257 79.0674C183.648 78.0164 183.197 76.8826 182.276 76.3438H182.289L182.241 76.3206C182.186 76.2897 182.128 76.2632 182.069 76.2367L176.336 73.448C176.277 73.214 176.248 72.9689 176.267 72.7172L176.67 67.0548ZM149.177 61.7147C151.308 60.21 153.382 59.3367 155.307 59.0232C156.158 60.5942 156.734 62.5924 156.96 65.0135C157.894 75.0102 151.985 87.8133 143.764 93.6236C141.631 95.1284 139.597 96.0325 137.734 96.3891C136.824 94.7773 136.209 92.7493 135.983 90.3238C135.048 80.327 140.956 67.5184 149.177 61.7147Z" fill="black"/>
<path opacity="0.2" d="M125.402 94.9837L115.934 104.572L107.188 100.081C107.372 99.4814 107.69 98.925 108.144 98.4591L114.547 91.8881C114.95 91.4719 115.268 90.9862 115.481 90.4496L125.402 94.9837Z" fill="black"/>
<path opacity="0.2" d="M132.287 66.7765L132.095 67.8485H123.887L115.814 63.2592C116.084 63.1819 116.373 63.1466 116.663 63.1466H121.44C122.175 63.1466 122.883 62.9136 123.463 62.4974L132.287 66.7765Z" fill="black"/>
<path opacity="0.2" d="M147.096 38.6102L143.396 42.2413H143.389L136.837 48.6643L128.163 43.8917L128.156 43.8774C128.376 43.194 128.75 42.5592 129.274 42.037L136.64 34.6203C137.079 34.1765 137.702 34.0849 138.226 34.2891L138.232 34.2958L138.508 34.4293L147.096 38.6102Z" fill="black"/>
<path opacity="0.2" d="M172.073 32.1882H163.455L154.865 27.6828V27.6761C155.424 27.1539 156.202 26.8934 157.002 26.9928L162.62 27.6982C162.874 27.7269 163.108 27.8108 163.32 27.9245L163.334 27.9312L172.073 32.1882Z" fill="black"/>
<path d="M178.601 62.8154L184.773 56.6076C185.71 55.6648 186.111 54.3157 185.841 53.0163L184.279 45.5135C184.043 44.3808 182.684 43.9039 181.788 44.6391L175.378 49.892C174.688 50.4583 173.676 50.3998 173.055 49.7584L171.205 47.8474C170.037 46.6407 169.635 44.8886 170.162 43.2967L173.047 34.5596C173.435 33.3827 172.65 32.1463 171.417 31.9906L165.8 31.2851C164.633 31.1383 163.507 31.7753 163.035 32.8484L158.875 42.302C158.368 43.4545 157.437 44.3698 156.274 44.8588L152.537 46.432C151.618 46.8184 150.562 46.3713 150.203 45.4451L147.869 39.4249C147.481 38.4269 146.19 38.1575 145.434 38.9182L138.068 46.3282C137.061 47.3417 136.596 48.7714 136.815 50.1812L137.866 56.9333C137.995 57.7679 137.815 58.6213 137.357 59.3323L133.17 65.8426C132.529 66.8395 131.423 67.4422 130.235 67.4422H125.463C124.082 67.4422 122.848 68.3012 122.372 69.5939L118.156 81.0623C117.804 82.0206 118.333 83.0782 119.313 83.3741L123.685 84.6956C124.736 85.0135 125.412 86.0314 125.292 87.1188L124.587 93.5518C124.479 94.5432 124.041 95.4706 123.344 96.186L116.943 102.756C116.007 103.717 115.617 105.083 115.907 106.391L117.717 114.565C117.908 115.432 118.952 115.791 119.639 115.227L125.934 110.059C126.981 109.199 128.53 109.351 129.387 110.399L130.979 112.342C131.763 113.297 132.024 114.575 131.68 115.76L128.891 125.361C128.571 126.465 129.315 127.593 130.46 127.735L135.355 128.344C136.699 128.512 137.995 127.786 138.549 126.554L142.719 117.287C143.192 116.235 144.026 115.383 145.072 114.888L148.72 113.157C149.933 112.58 151.38 113.183 151.822 114.447L153.758 119.986C154.107 120.984 155.366 121.301 156.149 120.588L163.638 113.758C164.545 112.93 164.985 111.71 164.812 110.496L163.751 103.033C163.571 101.771 163.855 100.486 164.55 99.4163L167.98 94.1348C168.864 92.7735 170.38 91.9522 172.006 91.9522H176.567C177.707 91.9522 178.728 91.2445 179.123 90.1791L183.257 79.0663C183.72 77.8198 183.01 76.4476 181.722 76.102L177.96 75.0908C176.897 74.8059 176.187 73.809 176.266 72.7161L176.671 67.057C176.785 65.4573 177.47 63.9536 178.601 62.8154ZM152.56 97.9138C144.339 103.717 136.917 100.319 135.983 90.3227C135.049 80.327 140.957 67.5184 149.177 61.7147C157.399 55.911 164.82 59.3091 165.754 69.3047C166.688 79.3014 160.781 92.11 152.56 97.9138Z" fill="#C1E833"/>
<path d="M348.829 306.085L344.327 303.078L344.324 303.073L344.323 303.074L344.322 303.073L336.355 323.752L327.866 328.341L325.858 325.436L336.005 304.956L331.5 301.946C331.106 302.136 330.713 302.343 330.317 302.571C320.965 307.937 313.375 320.996 313.363 331.754C313.353 336.731 314.976 340.347 317.649 342.252L318.102 342.545L321.682 344.896L322.891 345.731L322.776 439.787C317.11 446.183 313.2 455.083 313.191 462.792C313.187 466.847 314.261 469.993 316.093 472.049L316.107 472.015L316.095 472.051L320.602 475.061L319.724 462.622L324.059 451.369L325.69 450.493L332.552 446.788L336.92 453.088L332.16 465.043L328.921 473.174L333.427 476.185L337.222 466.659C343.018 460.244 347.044 451.198 347.054 443.373C347.059 440.426 346.491 437.962 345.476 436.045L347.143 435.792L342.915 432.981L342.914 432.983C341.383 431.838 339.495 431.264 337.362 431.332L337.484 335.52C343.232 329.112 347.213 320.117 347.225 312.33C347.226 311.686 347.189 311.073 347.137 310.475L348.829 306.085Z" fill="#C1E833"/>
<path d="M341.868 434.342L341.991 338.531C347.739 332.122 351.724 323.125 351.734 315.34C351.74 311.289 350.667 308.145 348.829 306.086L340.863 326.766L332.376 331.351L328.002 325.044L336.003 304.961C335.613 305.153 335.222 305.358 334.825 305.585C325.472 310.949 317.88 324.014 317.866 334.766C317.856 342.478 321.75 346.904 327.403 346.812L327.28 442.797C321.619 449.193 317.709 458.095 317.699 465.807C317.693 469.858 318.766 473.002 320.603 475.061L328.569 454.381L337.056 449.796L341.43 456.103L333.429 476.187C333.819 475.994 334.21 475.791 334.607 475.563C343.959 470.199 351.551 457.134 351.566 446.383C351.576 438.596 347.608 434.161 341.868 434.342Z" fill="#C1E833"/>
<path d="M347.127 435.796L347.146 435.793L342.918 432.982L342.917 432.984C342.586 432.737 342.234 432.522 341.871 432.328L341.869 434.342C343.87 434.279 345.649 434.789 347.127 435.796Z" fill="#C1E833"/>
<path opacity="0.4" d="M347.127 435.796L347.146 435.793L342.918 432.982L342.917 432.984C342.586 432.737 342.234 432.522 341.871 432.328L341.869 434.342C343.87 434.279 345.649 434.789 347.127 435.796Z" fill="black"/>
<path d="M337.224 466.661L341.43 456.103L337.056 449.796L335.297 450.746L336.921 453.088L332.162 465.045L328.923 473.176L333.429 476.186L337.224 466.661Z" fill="#C1E833"/>
<path opacity="0.2" d="M318.102 342.546L321.682 344.897L321.746 344.941C319.321 342.965 317.861 339.484 317.866 334.765C317.881 324.013 325.473 310.947 334.825 305.584C335.222 305.356 335.614 305.153 336.003 304.96L335.998 304.973L336.005 304.958L331.5 301.948C331.106 302.138 330.714 302.345 330.317 302.573C320.965 307.939 313.376 320.998 313.363 331.756C313.353 336.733 314.977 340.349 317.649 342.254L318.102 342.546Z" fill="black"/>
<path opacity="0.2" d="M344.323 303.074L336.356 323.754L340.863 326.765L348.829 306.085L344.323 303.074Z" fill="black"/>
<path opacity="0.4" d="M336.357 323.754L340.863 326.765L332.377 331.35L329.63 327.389L336.357 323.754Z" fill="black"/>
<path opacity="0.4" d="M327.401 346.811C325.694 346.838 324.15 346.447 322.823 345.684L322.891 345.731L322.775 439.787L327.278 442.796L327.401 346.811Z" fill="black"/>
<path opacity="0.2" d="M313.192 462.792C313.188 466.847 314.262 469.993 316.094 472.049L316.108 472.015L316.096 472.051L320.603 475.061C318.766 473.002 317.693 469.858 317.699 465.807C317.709 458.095 321.619 449.193 327.28 442.797L322.777 439.788C317.111 446.183 313.2 455.083 313.192 462.792Z" fill="black"/>
<path opacity="0.4" d="M336.922 453.088L341.43 456.103L337.056 449.796L335.297 450.746L336.922 453.088Z" fill="black"/>
<path opacity="0.2" d="M328.923 473.176L333.429 476.186L341.43 456.103L336.921 453.088L328.923 473.176Z" fill="black"/>
<path d="M312.41 475.824C312.41 475.824 308.212 472.243 306.583 472.075C304.954 471.907 302.13 474.69 304.515 479.518C305.179 480.862 307.875 482.317 309.56 484.89C311.245 487.465 312.761 489.399 315.345 489.048C317.929 488.696 318.266 487.24 318.097 485.562C317.929 483.883 317.171 481.002 317.171 481.002L312.41 475.824Z" fill="#37474F"/>
<path d="M315.482 488.277C312.819 488.639 311.257 486.645 309.519 483.991C307.783 481.338 305.003 479.838 304.319 478.454C304.019 477.845 303.801 477.269 303.648 476.725C303.745 477.559 304.006 478.489 304.514 479.518C305.178 480.862 307.874 482.316 309.559 484.89C311.244 487.465 312.76 489.399 315.344 489.048C317.323 488.778 317.979 487.86 318.104 486.691C317.764 487.478 317.013 488.068 315.482 488.277Z" fill="#263238"/>
<path d="M310.172 480.427C310.107 480.427 310.041 480.411 309.98 480.378C309.782 480.272 309.707 480.027 309.813 479.829C309.867 479.727 311.177 477.329 313.761 476.746C313.982 476.698 314.2 476.834 314.249 477.053C314.299 477.271 314.161 477.49 313.941 477.539C311.729 478.038 310.545 480.189 310.533 480.211C310.458 480.349 310.317 480.427 310.172 480.427Z" fill="#EBEBEB"/>
<path d="M308.604 478.988C308.539 478.988 308.473 478.973 308.412 478.939C308.214 478.833 308.139 478.588 308.245 478.39C308.299 478.288 309.609 475.891 312.193 475.307C312.407 475.259 312.632 475.393 312.681 475.614C312.731 475.833 312.593 476.051 312.373 476.1C310.16 476.6 308.977 478.751 308.965 478.773C308.89 478.911 308.749 478.988 308.604 478.988Z" fill="#EBEBEB"/>
<path d="M306.813 477.55C306.747 477.55 306.682 477.534 306.621 477.501C306.423 477.395 306.347 477.15 306.454 476.952C306.508 476.85 307.818 474.452 310.401 473.869C310.623 473.825 310.84 473.957 310.89 474.176C310.94 474.394 310.801 474.613 310.582 474.661C308.368 475.16 307.186 477.312 307.174 477.334C307.1 477.472 306.958 477.55 306.813 477.55Z" fill="#EBEBEB"/>
<path d="M290.082 487.564C290.082 487.564 284.458 485.747 282.781 486.248C281.103 486.749 279.461 490.654 283.809 494.445C285.019 495.499 288.281 495.833 291.007 497.684C293.732 499.537 296.028 500.825 298.435 499.42C300.841 498.014 300.644 496.397 300.216 494.644C299.671 492.41 299.233 490.788 299.233 490.788L290.082 487.564Z" fill="#37474F"/>
<path d="M298.254 498.602C295.775 500.05 293.408 498.721 290.598 496.812C287.788 494.903 284.425 494.56 283.179 493.474C282.63 492.996 282.177 492.516 281.803 492.041C282.243 492.824 282.884 493.636 283.81 494.444C285.02 495.498 288.282 495.832 291.008 497.683C293.734 499.536 296.029 500.824 298.436 499.419C300.279 498.342 300.548 497.167 300.19 495.96C300.177 496.878 299.679 497.769 298.254 498.602Z" fill="#263238"/>
<path d="M288.74 492.737C288.726 492.737 288.713 492.736 288.7 492.735C288.476 492.713 288.311 492.515 288.333 492.292C288.345 492.171 288.648 489.28 290.947 487.651C291.133 487.522 291.386 487.565 291.516 487.748C291.647 487.93 291.604 488.185 291.42 488.316C289.43 489.723 289.149 492.344 289.146 492.372C289.124 492.579 288.947 492.737 288.74 492.737Z" fill="#EBEBEB"/>
<path d="M291.062 493.494C291.049 493.494 291.037 493.494 291.023 493.491C290.798 493.47 290.634 493.272 290.656 493.049C290.668 492.927 290.97 490.036 293.27 488.408C293.455 488.277 293.708 488.321 293.839 488.503C293.97 488.687 293.927 488.942 293.743 489.071C291.744 490.486 291.471 493.101 291.469 493.127C291.448 493.337 291.271 493.494 291.062 493.494Z" fill="#EBEBEB"/>
<path d="M286.598 491.958C286.585 491.958 286.571 491.957 286.558 491.956C286.334 491.934 286.169 491.736 286.191 491.513C286.204 491.392 286.506 488.5 288.805 486.873C288.99 486.745 289.244 486.787 289.375 486.97C289.505 487.152 289.462 487.407 289.278 487.537C287.288 488.945 287.007 491.565 287.004 491.592C286.983 491.8 286.805 491.958 286.598 491.958Z" fill="#EBEBEB"/>
<path d="M329.892 377.441L334.273 382.073L342.073 374.445V366.432C342.073 366.432 345.393 370.558 345.393 374.726C345.393 378.895 344.269 379.653 343.034 382.072C341.799 384.491 336.884 394.23 333.5 392.102C330.116 389.976 323.488 384.156 323.488 384.156L329.892 377.441Z" fill="#FFA8A7"/>
<path d="M315.739 363.226C315.739 363.226 318.519 363.226 321.974 367.256C325.427 371.285 331.241 377.749 331.241 377.749C331.241 377.749 331.324 384.465 324.584 386.228L316.493 379.298L315.739 363.226Z" fill="#C1E833"/>
<path opacity="0.4" d="M315.739 363.226C315.739 363.226 318.519 363.226 321.974 367.256C325.427 371.285 331.241 377.749 331.241 377.749C331.241 377.749 331.324 384.465 324.584 386.228L316.493 379.298L315.739 363.226Z" fill="white"/>
<path d="M317.434 476.892C317.937 471.344 319.028 462.651 319.482 458.587C320.291 451.327 319.55 445.789 319.042 443.156C318.809 441.95 318.744 440.73 318.865 439.509C319.968 428.46 320.691 410.553 320.08 406.618L304.515 409.9C304.515 409.9 306.42 435.023 307.256 443.38C308.097 451.792 311.226 476.964 311.226 476.964C312.529 477.727 314.892 478.562 317.434 476.892Z" fill="#455A64"/>
<path d="M315.19 482.596C316.538 482.386 317.17 481.001 317.17 481.001C317.17 480.125 317.272 478.667 317.433 476.892C314.891 478.562 312.529 477.727 311.226 476.964L311.777 481.631C312.41 482.344 313.843 482.806 315.19 482.596Z" fill="#FFA8A7"/>
<path d="M299.922 486.64C300.557 478.244 301.783 461.971 301.947 459.415C302.112 456.836 301.825 453.287 301.41 450.971C301.139 449.465 301.163 447.923 301.435 446.417L308.276 408.599L289.467 408.325L288.236 447.945C288.22 448.457 288.239 448.969 288.294 449.478L292.284 486.405C292.284 486.405 296.175 489.656 299.922 486.64Z" fill="#455A64"/>
<path d="M296.786 493.574C298.139 493.448 299.354 492.309 299.543 491.643C299.543 491.643 299.695 489.639 299.922 486.64C296.175 489.656 292.283 486.405 292.283 486.405L292.882 491.942C292.882 491.942 293.766 493.856 296.786 493.574Z" fill="#FFA8A7"/>
<path d="M298.158 365.744L293.72 367.256L288.946 389.753L289.176 409.702C289.176 409.702 292.586 412.409 305.903 412.409C313.378 412.409 318.244 409.604 320.079 406.619L318.882 394.566C318.882 394.566 320.079 382.691 320.079 376.821C320.079 370.951 320.342 366.137 315.737 363.227L311.638 363.563L298.158 365.744Z" fill="#C1E833"/>
<path opacity="0.2" d="M298.158 365.744L293.72 367.256L288.946 389.753L289.176 409.702C289.176 409.702 292.586 412.409 305.903 412.409C313.378 412.409 318.244 409.604 320.079 406.619L318.882 394.566C318.882 394.566 320.079 382.691 320.079 376.821C320.079 370.951 320.342 366.137 315.737 363.227L311.638 363.563L298.158 365.744Z" fill="white"/>
<path d="M293.339 346.411L291.117 350.793C290.979 351.063 291.116 351.392 291.404 351.488L294.041 352.364L293.339 346.411Z" fill="#F28F8F"/>
<path d="M296.417 339.06C296.417 339.06 293.047 340.87 293.047 351.25C293.047 356.959 293.44 360.596 296.417 360.372C299.395 360.148 307.959 359.029 307.959 359.029V339.06H296.417Z" fill="#FFA8A7"/>
<path d="M296.417 360.372C297.463 360.294 299.201 360.104 301.013 359.892V358.833C299.346 359.685 296.372 360.282 295.92 360.37C296.077 360.382 296.242 360.385 296.417 360.372Z" fill="#F28F8F"/>
<path d="M300.503 358.389V364.905H309.447V355.751L300.503 358.389Z" fill="#FFA8A7"/>
<path d="M300.504 362.423C300.504 362.423 303.719 363.562 306.303 363.114C308.887 362.666 309.449 361.1 309.449 361.1C309.449 361.1 310.291 361.036 311.639 363.562C311.639 363.562 310.06 366.706 306.416 366.919C301.642 367.198 298.159 365.743 298.159 365.743C298.159 365.743 299.401 362.1 300.504 362.423Z" fill="#C1E833"/>
<path opacity="0.4" d="M300.504 362.423C300.504 362.423 303.719 363.562 306.303 363.114C308.887 362.666 309.449 361.1 309.449 361.1C309.449 361.1 310.291 361.036 311.639 363.562C311.639 363.562 310.06 366.706 306.416 366.919C301.642 367.198 298.159 365.743 298.159 365.743C298.159 365.743 299.401 362.1 300.504 362.423Z" fill="white"/>
<path d="M256.875 395.763L253.31 393.506C252.964 393.287 252.973 392.78 253.327 392.572L268.97 383.431C269.386 383.188 269.903 383.194 270.314 383.446L289.814 395.675C290.467 396.085 290.438 397.045 289.761 397.415L273.678 406.211C273.175 406.486 272.559 406.456 272.084 406.133L256.875 395.763Z" fill="#37474F"/>
<path d="M256.875 394.924L253.31 392.667C252.964 392.448 252.973 391.94 253.327 391.733L268.97 382.592C269.386 382.349 269.903 382.355 270.314 382.607L289.814 394.836C290.467 395.246 290.438 396.206 289.761 396.576L273.678 405.372C273.175 405.647 272.559 405.617 272.084 405.294L256.875 394.924Z" fill="#E0E0E0"/>
<path d="M253.056 390.74V392.184H255.528L253.056 390.74Z" fill="#E0E0E0"/>
<path d="M256.875 393.552L253.31 391.295C252.964 391.075 252.973 390.569 253.327 390.361L268.97 381.22C269.386 380.977 269.903 380.983 270.314 381.234L289.814 393.463C290.467 393.874 290.438 394.833 289.761 395.203L273.678 404C273.175 404.275 272.559 404.245 272.084 403.922L256.875 393.552Z" fill="white"/>
<path d="M259.514 390.898C259.374 390.898 259.238 390.827 259.162 390.697C259.048 390.502 259.113 390.254 259.307 390.14L269.972 383.907C270.169 383.79 270.417 383.859 270.531 384.052C270.645 384.246 270.58 384.495 270.386 384.608L259.72 390.841C259.655 390.88 259.584 390.898 259.514 390.898Z" fill="#C1E833"/>
<path d="M262.129 392.59C261.989 392.59 261.853 392.519 261.776 392.389C261.662 392.195 261.728 391.946 261.922 391.833L272.587 385.601C272.782 385.484 273.031 385.552 273.146 385.745C273.26 385.94 273.194 386.188 273 386.302L262.335 392.535C262.271 392.572 262.199 392.59 262.129 392.59Z" fill="#C1E833"/>
<path d="M264.745 394.283C264.605 394.283 264.469 394.212 264.393 394.082C264.278 393.887 264.344 393.639 264.538 393.525L275.203 387.293C275.398 387.176 275.649 387.243 275.762 387.438C275.876 387.632 275.811 387.88 275.617 387.994L264.951 394.226C264.887 394.266 264.815 394.283 264.745 394.283Z" fill="#C1E833"/>
<path d="M267.36 395.975C267.22 395.975 267.083 395.903 267.007 395.774C266.893 395.58 266.959 395.331 267.153 395.218L277.818 388.984C278.013 388.867 278.262 388.935 278.377 389.129C278.491 389.323 278.425 389.572 278.231 389.686L267.566 395.918C267.502 395.958 267.43 395.975 267.36 395.975Z" fill="#C1E833"/>
<path d="M269.976 397.67C269.836 397.67 269.699 397.598 269.624 397.469C269.509 397.274 269.575 397.026 269.769 396.912L280.434 390.679C280.629 390.563 280.879 390.629 280.993 390.824C281.107 391.018 281.042 391.266 280.848 391.38L270.182 397.613C270.117 397.652 270.046 397.67 269.976 397.67Z" fill="#C1E833"/>
<path d="M284.735 386.305L282.418 394.279C282.418 394.279 278.754 395.37 274.71 396.714C270.665 398.057 267.038 398.531 267.038 398.531C267.038 398.531 265.658 396.869 265.021 395.763C264.384 394.657 263.842 393.02 263.336 393.523C262.83 394.026 262.072 395.815 263.336 398.531C263.336 398.531 261.759 398.777 260.556 398.164C259.353 397.55 256.876 395.763 256.876 395.763C256.876 395.763 255.892 398.393 256.876 399.903C257.86 401.414 260.724 403.597 267.212 403.597C273.699 403.597 288.61 402.338 289.959 400.072C291.307 397.805 293.75 387.06 293.75 387.06L284.735 386.305Z" fill="#FFA8A7"/>
<path d="M293.721 367.256C293.721 367.256 298.016 368.987 297.611 375.466C297.204 381.945 293.721 390.708 293.721 390.708C293.721 390.708 287.184 390.723 283.379 386.647L287.206 372.596C287.759 370.565 289.242 368.921 291.211 368.162C291.904 367.895 292.734 367.591 293.721 367.256Z" fill="#C1E833"/>
<path opacity="0.4" d="M293.721 367.256C293.721 367.256 298.016 368.987 297.611 375.466C297.204 381.945 293.721 390.708 293.721 390.708C293.721 390.708 287.184 390.723 283.379 386.647L287.206 372.596C287.759 370.565 289.242 368.921 291.211 368.162C291.904 367.895 292.734 367.591 293.721 367.256Z" fill="white"/>
<path d="M295.125 332.95C295.125 332.95 291.59 332.482 290.688 334.908C290.126 336.42 291.923 337.594 291.923 337.594C291.923 337.594 289.643 339.734 293.047 340.393C293.047 340.393 292.766 343.303 295.799 342.911C295.799 342.911 295.406 345.219 298.383 346.023C298.383 346.023 296.878 350.018 299.709 350.074H302.36L301.291 353.152C301.291 353.152 303.27 357.909 309.449 357.909C309.449 357.909 311.021 354.663 311.751 353.712C312.481 352.76 316.3 347.891 316.3 344.03C316.3 340.168 314.809 337.88 312.747 337.374C312.747 337.374 311.864 335.244 309.785 333.844C307.707 332.445 303.326 331.198 300.855 332.912C300.855 332.912 298.664 330.05 297.148 330.05C295.631 330.051 295.125 331.606 295.125 332.95Z" fill="#263238"/>
<path d="M299.708 350.074C299.708 350.074 299.45 346.023 302.876 346.023C306.302 346.023 305.488 353.152 301.29 353.152L299.708 350.074Z" fill="#FFA8A7"/>
</svg>
