<svg width="300" height="313" viewBox="0 0 300 313" fill="none" xmlns="http://www.w3.org/2000/svg">
<path d="M269.941 249.343H250.067V249.5H269.941V249.343Z" fill="#EBEBEB"/>
<path d="M198.732 251.042H193.516V251.198H198.732V251.042Z" fill="#EBEBEB"/>
<path d="M249.467 243.533H237.952V243.689H249.467V243.533Z" fill="#EBEBEB"/>
<path d="M57.3912 244.584H31.4754V244.741H57.3912V244.584Z" fill="#EBEBEB"/>
<path d="M66.5334 244.584H62.7336V244.741H66.5334V244.584Z" fill="#EBEBEB"/>
<path d="M135.088 247.227H78.8826V247.383H135.088V247.227Z" fill="#EBEBEB"/>
<path d="M142.208 211.366H26.349C24.4608 211.366 22.9242 209.764 22.9242 207.795V37.9558C22.9242 35.9867 24.4608 34.3842 26.349 34.3842H142.208C144.096 34.3842 145.633 35.9867 145.633 37.9558V207.795C145.633 209.764 144.096 211.366 142.208 211.366ZM26.349 34.5413C24.543 34.5413 23.0742 36.073 23.0742 37.9564V207.795C23.0742 209.679 24.543 211.21 26.349 211.21H142.208C144.014 211.21 145.483 209.679 145.483 207.795V37.9558C145.483 36.073 144.014 34.5407 142.208 34.5407L26.349 34.5413Z" fill="#EBEBEB"/>
<path d="M271.986 211.366H156.127C154.239 211.366 152.703 209.764 152.703 207.795V37.9558C152.703 35.9867 154.24 34.3842 156.127 34.3842H271.986C273.875 34.3842 275.411 35.9867 275.411 37.9558V207.795C275.411 209.764 273.875 211.366 271.986 211.366ZM156.127 34.5413C154.322 34.5413 152.853 36.073 152.853 37.9564V207.795C152.853 209.679 154.322 211.21 156.127 211.21H271.986C273.792 211.21 275.261 209.679 275.261 207.795V37.9558C275.261 36.073 273.792 34.5407 271.986 34.5407L156.127 34.5413Z" fill="#EBEBEB"/>
<path d="M300 239.272H0V239.428H300V239.272Z" fill="#EBEBEB"/>
<path d="M98.5134 240.001H96.2016C95.8086 240.001 95.49 239.669 95.49 239.259V182.715H99.225V239.259C99.225 239.669 98.9064 240.001 98.5134 240.001Z" fill="#F0F0F0"/>
<path d="M211.112 177.622H178.738V182.715H211.112V177.622Z" fill="#E6E6E6"/>
<path d="M121.654 240.001H119.342C118.949 240.001 118.63 239.669 118.63 239.259V182.715H122.365V239.259C122.365 239.669 122.047 240.001 121.654 240.001Z" fill="#E6E6E6"/>
<path d="M208.241 240.001H205.93C205.537 240.001 205.218 239.669 205.218 239.259V182.715H208.953V239.259C208.953 239.669 208.634 240.001 208.241 240.001Z" fill="#E6E6E6"/>
<path d="M187.972 177.622H93.3312V182.715H187.972V177.622Z" fill="#F5F5F5"/>
<path d="M185.102 240.001H182.79C182.397 240.001 182.078 239.669 182.078 239.259V182.715H185.813V239.259C185.813 239.669 185.495 240.001 185.102 240.001Z" fill="#F0F0F0"/>
<path d="M243.76 239.213H245.342V135.796H243.76V239.213Z" fill="#EBEBEB"/>
<path d="M262.31 125.095C262.31 130.373 258.718 134.977 253.386 137.431H235.716C230.385 134.977 226.792 130.373 226.792 125.095C226.792 119.816 230.384 115.213 235.716 112.758H253.387C258.718 115.212 262.31 119.816 262.31 125.095Z" fill="#F0F0F0"/>
<path d="M235.943 137.026C231.378 134.789 227.242 130.72 227.242 125.094C227.242 119.479 231.382 115.397 235.943 113.162C236.467 112.906 236.011 112.096 235.489 112.352C230.638 114.728 226.342 119.152 226.342 125.094C226.342 131.038 230.637 135.458 235.489 137.836C236.01 138.092 236.468 137.283 235.943 137.026Z" fill="#E0E0E0"/>
<path d="M239.816 112.426C233.555 118.661 233.554 131.527 239.816 137.763C240.235 138.18 240.872 137.518 240.452 137.099C234.545 131.215 234.543 118.974 240.452 113.089C240.872 112.672 240.235 112.008 239.816 112.426Z" fill="#E0E0E0"/>
<path d="M244.101 112.757C244.101 120.982 244.101 129.206 244.101 137.43C244.101 138.034 245.001 138.036 245.001 137.43C245.001 129.206 245.001 120.982 245.001 112.757C245.001 112.153 244.101 112.153 244.101 112.757Z" fill="#E0E0E0"/>
<path d="M248.651 113.09C254.558 118.973 254.56 131.215 248.651 137.1C248.231 137.518 248.868 138.181 249.287 137.763C255.548 131.528 255.549 118.662 249.287 112.426C248.868 112.008 248.231 112.671 248.651 113.09Z" fill="#E0E0E0"/>
<path d="M253.159 113.163C257.725 115.4 261.86 119.468 261.86 125.094C261.86 130.709 257.72 134.791 253.159 137.026C252.635 137.283 253.092 138.092 253.613 137.837C258.464 135.46 262.76 131.036 262.76 125.094C262.76 119.15 258.466 114.73 253.613 112.352C253.093 112.097 252.635 112.906 253.159 113.163Z" fill="#E0E0E0"/>
<path d="M233.422 240.001H255.682C255.682 238.436 254.465 237.167 252.964 237.167H236.139C234.638 237.167 233.422 238.436 233.422 240.001Z" fill="#EBEBEB"/>
<path d="M68.5098 194.033C68.5602 194.108 68.1822 194.536 69.5178 194.499C72.8082 194.411 78.5958 193.774 80.574 190.51C83.3988 185.85 76.2504 186.76 76.7904 184.262C77.3304 181.763 85.1676 183.224 86.4468 179.621C87.7266 176.019 82.164 177.094 82.308 175.276C82.452 173.459 88.4844 175.378 90.1842 171.533C91.884 167.688 86.8734 170.032 87.6072 168.437C88.3404 166.842 94.452 159.988 91.7178 158.746C88.9836 157.505 83.2836 164.613 81.3084 165.469C79.3332 166.325 78.444 159.807 75.9282 162.186C73.4124 164.564 75.7926 174.331 72.7728 175.776C70.5234 176.852 71.5548 173.22 68.715 173.555C64.8576 174.011 64.4778 187.966 68.5098 194.033Z" fill="#EBEBEB"/>
<path d="M80.8836 175.113C79.5996 175.06 78.6294 175.208 78.021 175.35C79.3662 173.758 80.2908 172.972 80.3238 172.946C80.4282 172.859 80.4456 172.701 80.3634 172.592C80.2812 172.483 80.1294 172.465 80.025 172.551C79.9992 172.572 77.8698 174.356 75.3306 178.056C75.0744 171.541 78.3012 166.293 78.3348 166.239C78.3894 166.152 78.3654 166.035 78.282 165.978C78.1992 165.921 78.0864 165.946 78.0318 166.033C77.9964 166.089 74.5518 171.69 74.9958 178.549C74.5872 179.164 74.1708 179.823 73.7526 180.535C72.5436 182.593 71.2176 185.259 70.0314 188.526C69.6084 187.428 68.6856 184.515 69.0306 180.66C69.0402 180.556 68.967 180.465 68.8674 180.455C68.766 180.449 68.6796 180.522 68.6706 180.625C68.2716 185.086 69.543 188.337 69.8448 189.034C68.2494 193.573 66.942 199.244 66.5844 206.078C66.5772 206.217 66.6792 206.335 66.8118 206.343C66.822 206.344 66.8322 206.344 66.8418 206.343C66.9612 206.334 67.059 206.234 67.0656 206.106C67.5396 197.057 69.684 190.012 72.1134 184.782C72.63 184.296 74.1318 183.07 76.2036 183.004C76.2984 182.993 76.3818 182.913 76.3782 182.809C76.3752 182.705 76.2918 182.623 76.1916 182.627C74.553 182.684 73.272 183.401 72.4932 183.981C74.2578 180.358 76.1298 177.671 77.6028 175.857C78.0246 175.721 79.1676 175.42 80.8698 175.491C80.9688 175.49 81.054 175.415 81.0576 175.309C81.0612 175.205 80.9838 175.117 80.8836 175.113Z" fill="#E0E0E0"/>
<path d="M59.5512 196.336C55.8384 196.409 49.4958 192.813 47.0058 189.315C44.4792 185.765 51.5868 187.967 50.8566 185.18C50.127 182.392 41.364 184.452 39.747 180.459C38.13 176.466 44.4522 177.384 44.2014 175.343C43.9506 173.302 37.4004 173.717 35.298 169.473C33.1956 165.229 38.9568 167.606 38.0526 165.847C37.1484 164.088 29.9268 156.684 32.949 155.14C35.9712 153.597 42.7404 161.309 45.009 162.169C47.277 163.03 47.8074 157.703 50.7582 160.251C53.7096 162.799 51.5004 173.934 54.9744 175.403C57.5622 176.497 56.4612 171.399 59.4402 172.685C64.6548 174.937 61.059 196.306 59.5512 196.336Z" fill="#E6E6E6"/>
<g opacity="0.3">
<path d="M59.5512 196.336C55.8384 196.409 49.4958 192.813 47.0058 189.315C44.4792 185.765 51.5868 187.967 50.8566 185.18C50.127 182.392 41.364 184.452 39.747 180.459C38.13 176.466 44.4522 177.384 44.2014 175.343C43.9506 173.302 37.4004 173.717 35.298 169.473C33.1956 165.229 38.9568 167.606 38.0526 165.847C37.1484 164.088 29.9268 156.684 32.949 155.14C35.9712 153.597 42.7404 161.309 45.009 162.169C47.277 163.03 47.8074 157.703 50.7582 160.251C53.7096 162.799 51.5004 173.934 54.9744 175.403C57.5622 176.497 56.4612 171.399 59.4402 172.685C64.6548 174.937 61.059 196.306 59.5512 196.336Z" fill="#E6E6E6"/>
</g>
<path d="M58.3248 191.688C58.3782 191.666 58.4274 191.632 58.4562 191.575C58.5432 191.403 60.5778 187.297 60.1218 181.194C60.111 181.052 59.9958 180.947 59.8548 180.956C59.718 180.967 59.616 181.092 59.6268 181.234C60.012 186.387 58.5372 190.159 58.1238 191.101C56.4612 186.395 54.4692 182.209 52.4694 178.626C53.1264 170.311 49.0404 163.502 48.999 163.434C48.9252 163.313 48.7722 163.278 48.6564 163.355C48.5406 163.432 48.5064 163.591 48.5802 163.712C48.6198 163.776 52.3722 170.037 52.0224 177.824C47.2632 169.511 42.618 164.682 42.525 164.587C42.3948 164.454 42.1848 164.455 42.057 164.592C41.9292 164.728 41.931 164.947 42.0618 165.08C42.1398 165.16 45.4428 168.601 49.3092 174.636C47.0436 173.758 44.586 173.301 42.2892 173.347C42.1518 173.349 42.0432 173.467 42.0456 173.611C42.048 173.752 42.159 173.865 42.294 173.865C42.2958 173.865 42.297 173.865 42.2988 173.865C44.7582 173.819 47.4048 174.355 49.7868 175.385C51.1164 177.511 52.497 179.94 53.8272 182.632C52.551 181.732 50.0712 180.485 46.9002 181.36C46.7676 181.396 46.6884 181.538 46.7232 181.675C46.7586 181.814 46.8942 181.899 47.0268 181.859C51.0492 180.753 53.8848 183.26 54.3486 183.706C57.9894 191.352 61.1304 201.019 61.5462 212.096C61.5528 212.283 61.6998 212.428 61.8768 212.428C61.8816 212.428 61.8858 212.428 61.89 212.428C62.0724 212.421 62.2146 212.26 62.208 212.07C61.9242 204.574 60.402 197.722 58.3248 191.688Z" fill="#F5F5F5"/>
<path d="M70.5918 240.001C73.4688 231.452 75.3594 219.099 75.3594 213.685C75.3594 209.108 74.0016 205.001 71.8464 202.125H57.1122C54.957 205.001 53.5992 209.108 53.5992 213.685C53.5992 219.099 55.4892 231.452 58.3662 240.001H70.5918Z" fill="#E6E6E6"/>
<path d="M63.1704 194.431C63.2172 194.474 63.0234 194.836 63.9432 194.58C66.2088 193.947 70.1172 192.501 70.9668 189.896C72.1806 186.177 67.3728 188.048 67.3482 186.224C67.3236 184.399 72.9864 184.051 73.2984 181.333C73.6098 178.614 69.9276 180.325 69.7374 179.041C69.5472 177.757 74.0328 178.039 74.5968 175.08C75.1608 172.121 72.0636 174.615 72.3174 173.383C72.5712 172.151 75.7116 166.34 73.6188 165.955C71.526 165.57 68.7114 171.484 67.4796 172.42C66.2478 173.356 64.5912 168.994 63.2274 171.078C61.8636 173.163 65.0718 179.517 63.21 181.042C61.8234 182.178 61.9578 179.482 60.0444 180.208C57.444 181.192 59.4078 190.927 63.1704 194.431Z" fill="#F5F5F5"/>
<path d="M68.724 179.174C67.8258 179.36 67.1772 179.631 66.7782 179.835C67.4562 178.499 67.9716 177.794 67.9902 177.769C68.0484 177.691 68.0358 177.579 67.9608 177.518C67.8864 177.456 67.7784 177.47 67.7196 177.548C67.7052 177.567 66.5142 179.173 65.3454 182.177C64.128 177.707 65.526 173.511 65.541 173.467C65.565 173.397 65.5296 173.32 65.463 173.295C65.3964 173.27 65.322 173.307 65.2986 173.377C65.283 173.422 63.7902 177.901 65.1924 182.576C65.0076 183.072 64.8246 183.602 64.6482 184.168C64.1388 185.803 63.6456 187.881 63.345 190.35C62.8764 189.663 61.7724 187.804 61.3962 185.073C61.386 185 61.3206 184.949 61.2504 184.959C61.179 184.973 61.131 185.038 61.1412 185.111C61.5768 188.272 62.9766 190.303 63.297 190.734C62.916 194.155 62.9154 198.312 63.7584 203.109C63.7758 203.207 63.8652 203.271 63.9588 203.253C63.966 203.252 63.9726 203.25 63.9798 203.248C64.0614 203.221 64.113 203.134 64.0968 203.045C62.9814 196.693 63.3426 191.44 64.191 187.394C64.4712 186.967 65.316 185.857 66.741 185.452C66.8052 185.427 66.8502 185.358 66.831 185.286C66.8124 185.215 66.7416 185.173 66.6726 185.193C65.5464 185.517 64.7736 186.236 64.326 186.773C64.9704 183.956 65.8386 181.77 66.57 180.258C66.8406 180.09 67.5846 179.683 68.775 179.437C68.8434 179.42 68.8902 179.352 68.8764 179.279C68.862 179.207 68.7942 179.16 68.724 179.174Z" fill="#E0E0E0"/>
<path d="M142.314 185.994H103.394V240.001H142.314V185.994Z" fill="#F5F5F5"/>
<path d="M149.738 185.994H142.314V240.001H149.738V185.994Z" fill="#E6E6E6"/>
<path d="M139.787 190.001H106.12V203.117H139.787V190.001Z" fill="#FAFAFA"/>
<path d="M118.564 190.001L118.711 191.75C118.76 192.326 119.223 192.769 119.778 192.769H126.131C126.686 192.769 127.149 192.326 127.198 191.75L127.345 190.001H118.564Z" fill="#EBEBEB"/>
<path d="M139.787 204.55H106.12V217.665H139.787V204.55Z" fill="#FAFAFA"/>
<path d="M118.564 204.549L118.711 206.297C118.76 206.874 119.223 207.317 119.778 207.317H126.131C126.686 207.317 127.149 206.874 127.198 206.297L127.345 204.549H118.564Z" fill="#EBEBEB"/>
<path d="M139.787 219.098H106.12V232.213H139.787V219.098Z" fill="#FAFAFA"/>
<path d="M118.564 219.098L118.711 220.846C118.76 221.423 119.223 221.865 119.778 221.865H126.131C126.686 221.865 127.149 221.423 127.198 220.846L127.345 219.098H118.564Z" fill="#EBEBEB"/>
<path d="M147.107 265.124C211.356 265.124 263.44 261.952 263.44 258.039C263.44 254.126 211.356 250.954 147.107 250.954C82.8576 250.954 30.7734 254.126 30.7734 258.039C30.7734 261.952 82.8576 265.124 147.107 265.124Z" fill="#F5F5F5"/>
<path d="M228.404 176.155H74.4606C73.1748 176.155 72.1326 175.068 72.1326 173.727V56.5295C72.1326 55.1886 73.1748 54.1017 74.4606 54.1017H228.404C229.69 54.1017 230.732 55.1886 230.732 56.5295V173.727C230.732 175.068 229.69 176.155 228.404 176.155Z" fill="#A3CD0C"/>
<path opacity="0.6" d="M228.404 176.155H74.4606C73.1748 176.155 72.1326 175.068 72.1326 173.727V56.5295C72.1326 55.1886 73.1748 54.1017 74.4606 54.1017H228.404C229.69 54.1017 230.732 55.1886 230.732 56.5295V173.727C230.732 175.068 229.69 176.155 228.404 176.155Z" fill="white"/>
<path opacity="0.3" d="M103.037 54.1017H75.1002C73.461 54.1017 72.1326 55.4871 72.1326 57.1965V173.06C72.1326 174.769 73.461 176.155 75.1002 176.155H103.037V54.1017Z" fill="white"/>
<path d="M227.764 54.1017H75.1002C73.461 54.1017 72.1326 55.4871 72.1326 57.1965V65.2701H230.732V57.1965C230.732 55.4871 229.403 54.1017 227.764 54.1017Z" fill="#263238"/>
<path d="M77.3142 58.0631C77.028 58.0631 76.7958 57.821 76.7958 57.5225C76.7958 57.2241 77.028 56.9819 77.3142 56.9819H81.402C81.6882 56.9819 81.9204 57.2241 81.9204 57.5225C81.9204 57.821 81.6882 58.0631 81.402 58.0631H77.3142Z" fill="white"/>
<path d="M77.3142 60.2269C77.028 60.2269 76.7958 59.9847 76.7958 59.6862C76.7958 59.3878 77.028 59.1456 77.3142 59.1456H81.402C81.6882 59.1456 81.9204 59.3878 81.9204 59.6862C81.9204 59.9847 81.6882 60.2269 81.402 60.2269H77.3142Z" fill="white"/>
<path d="M77.3142 62.3899C77.028 62.3899 76.7958 62.1478 76.7958 61.8493C76.7958 61.5509 77.028 61.3087 77.3142 61.3087H81.402C81.6882 61.3087 81.9204 61.5509 81.9204 61.8493C81.9204 62.1478 81.6882 62.3899 81.402 62.3899H77.3142Z" fill="white"/>
<path opacity="0.7" d="M108.497 73.8211V109.708C108.497 110.465 109.085 111.079 109.812 111.079H120.55C121.276 111.079 121.865 110.465 121.865 109.708V73.8211C121.865 73.064 121.277 72.4496 120.55 72.4496H109.812C109.086 72.4496 108.497 73.0634 108.497 73.8211Z" fill="white"/>
<path opacity="0.4" d="M125.207 73.8211V109.708C125.207 110.465 125.796 111.079 126.523 111.079H137.261C137.987 111.079 138.576 110.465 138.576 109.708V73.8211C138.576 73.064 137.987 72.4496 137.261 72.4496H126.523C125.797 72.4496 125.207 73.0634 125.207 73.8211Z" fill="white"/>
<path opacity="0.7" d="M141.918 73.8211V109.708C141.918 110.465 142.507 111.079 143.233 111.079H153.971C154.698 111.079 155.287 110.465 155.287 109.708V73.8211C155.287 73.064 154.698 72.4496 153.971 72.4496H143.233C142.507 72.4496 141.918 73.0634 141.918 73.8211Z" fill="white"/>
<path opacity="0.4" d="M158.629 73.8211V109.708C158.629 110.465 159.217 111.079 159.944 111.079H170.682C171.409 111.079 171.997 110.465 171.997 109.708V73.8211C171.997 73.064 171.409 72.4496 170.682 72.4496H159.944C159.218 72.4496 158.629 73.0634 158.629 73.8211Z" fill="white"/>
<path opacity="0.7" d="M175.339 73.8211V109.708C175.339 110.465 175.928 111.079 176.654 111.079H187.393C188.119 111.079 188.708 110.465 188.708 109.708V73.8211C188.708 73.064 188.119 72.4496 187.393 72.4496H176.654C175.928 72.4496 175.339 73.0634 175.339 73.8211Z" fill="white"/>
<path opacity="0.4" d="M192.05 73.8211V109.708C192.05 110.465 192.638 111.079 193.365 111.079H204.103C204.829 111.079 205.418 110.465 205.418 109.708V73.8211C205.418 73.064 204.83 72.4496 204.103 72.4496H193.365C192.639 72.4496 192.05 73.0634 192.05 73.8211Z" fill="white"/>
<path opacity="0.7" d="M208.76 73.8211V109.708C208.76 110.465 209.349 111.079 210.076 111.079H220.814C221.54 111.079 222.129 110.465 222.129 109.708V73.8211C222.129 73.064 221.54 72.4496 220.814 72.4496H210.076C209.349 72.4496 208.76 73.0634 208.76 73.8211Z" fill="white"/>
<path d="M143.363 134.765H142.886V135.405H142.226V134.765H140.651V134.29L142.03 132.356H142.74L141.462 134.19H142.247V133.619H142.887V134.19H143.363L143.363 134.765Z" fill="black"/>
<path d="M145.47 133.758C145.666 133.93 145.765 134.159 145.765 134.447C145.765 134.633 145.72 134.802 145.631 134.954C145.541 135.107 145.406 135.229 145.224 135.32C145.042 135.411 144.817 135.457 144.549 135.457C144.343 135.457 144.14 135.429 143.941 135.372C143.742 135.316 143.573 135.235 143.434 135.13L143.701 134.59C143.812 134.677 143.941 134.744 144.086 134.793C144.23 134.841 144.379 134.865 144.532 134.865C144.702 134.865 144.836 134.83 144.934 134.76C145.031 134.691 145.08 134.593 145.08 134.468C145.08 134.337 145.029 134.238 144.927 134.172C144.826 134.105 144.65 134.071 144.399 134.071H143.651L143.801 132.355H145.585V132.921H144.365L144.319 133.501H144.557C144.97 133.501 145.274 133.587 145.47 133.758Z" fill="black"/>
<path d="M146.151 133.773C146.016 133.621 145.949 133.417 145.949 133.161C145.949 132.906 146.017 132.701 146.151 132.549C146.286 132.397 146.461 132.32 146.675 132.32C146.89 132.32 147.064 132.397 147.197 132.549C147.331 132.701 147.398 132.905 147.398 133.161C147.398 133.417 147.331 133.621 147.197 133.773C147.064 133.926 146.89 134.002 146.675 134.002C146.461 134.002 146.286 133.927 146.151 133.773ZM146.899 133.523C146.953 133.442 146.981 133.321 146.981 133.161C146.981 133.002 146.954 132.881 146.899 132.8C146.845 132.718 146.77 132.678 146.675 132.678C146.584 132.678 146.51 132.72 146.454 132.802C146.398 132.885 146.371 133.005 146.371 133.162C146.371 133.318 146.398 133.439 146.454 133.522C146.51 133.604 146.584 133.646 146.675 133.646C146.77 133.645 146.845 133.604 146.899 133.523ZM148.417 132.355H148.915L146.918 135.405H146.42L148.417 132.355ZM148.286 135.338C148.175 135.27 148.09 135.172 148.029 135.044C147.968 134.917 147.937 134.768 147.937 134.6C147.937 134.431 147.968 134.283 148.029 134.156C148.09 134.028 148.176 133.93 148.286 133.862C148.396 133.793 148.52 133.759 148.66 133.759C148.874 133.759 149.049 133.835 149.184 133.987C149.319 134.14 149.386 134.344 149.386 134.6C149.386 134.855 149.318 135.059 149.184 135.212C149.049 135.365 148.874 135.44 148.66 135.44C148.52 135.44 148.396 135.406 148.286 135.338ZM148.883 134.959C148.938 134.876 148.965 134.756 148.965 134.599C148.965 134.442 148.938 134.323 148.883 134.24C148.829 134.157 148.754 134.115 148.66 134.115C148.568 134.115 148.495 134.156 148.439 134.237C148.383 134.318 148.355 134.439 148.355 134.599C148.355 134.758 148.384 134.879 148.439 134.96C148.495 135.042 148.568 135.082 148.66 135.082C148.754 135.083 148.829 135.042 148.883 134.959Z" fill="black"/>
<path d="M188.704 133.611C188.857 133.689 188.978 133.8 189.067 133.943C189.156 134.087 189.2 134.254 189.2 134.442C189.2 134.646 189.152 134.824 189.055 134.978C188.957 135.132 188.824 135.251 188.655 135.333C188.487 135.416 188.299 135.458 188.093 135.458C187.684 135.458 187.364 135.327 187.133 135.066C186.902 134.804 186.786 134.431 186.786 133.946C186.786 133.601 186.849 133.304 186.974 133.057C187.099 132.81 187.274 132.623 187.498 132.495C187.723 132.367 187.982 132.303 188.278 132.303C188.434 132.303 188.583 132.321 188.728 132.357C188.871 132.394 188.993 132.446 189.093 132.512L188.842 133.031C188.697 132.929 188.515 132.879 188.296 132.879C188.048 132.879 187.851 132.954 187.706 133.105C187.561 133.256 187.484 133.475 187.472 133.763C187.645 133.582 187.886 133.493 188.195 133.493C188.38 133.493 188.551 133.532 188.704 133.611ZM188.41 134.808C188.5 134.727 188.545 134.617 188.545 134.477C188.545 134.338 188.5 134.227 188.41 134.144C188.318 134.06 188.198 134.019 188.048 134.019C187.9 134.019 187.779 134.062 187.684 134.147C187.589 134.233 187.543 134.343 187.543 134.477C187.543 134.61 187.589 134.719 187.681 134.803C187.772 134.888 187.897 134.93 188.056 134.93C188.201 134.93 188.318 134.89 188.41 134.808Z" fill="black"/>
<path d="M191.363 133.758C191.559 133.93 191.658 134.159 191.658 134.447C191.658 134.633 191.613 134.802 191.524 134.954C191.435 135.107 191.299 135.229 191.117 135.32C190.934 135.411 190.709 135.457 190.442 135.457C190.235 135.457 190.033 135.429 189.835 135.372C189.635 135.316 189.466 135.235 189.326 135.13L189.594 134.59C189.706 134.677 189.834 134.744 189.979 134.793C190.123 134.841 190.272 134.865 190.426 134.865C190.595 134.865 190.729 134.83 190.827 134.76C190.924 134.691 190.973 134.593 190.973 134.468C190.973 134.337 190.922 134.238 190.82 134.172C190.719 134.105 190.543 134.071 190.292 134.071H189.545L189.695 132.355H191.479V132.921H190.259L190.213 133.5H190.451C190.862 133.501 191.167 133.587 191.363 133.758Z" fill="black"/>
<path d="M192.044 133.773C191.909 133.621 191.842 133.416 191.842 133.161C191.842 132.906 191.909 132.701 192.044 132.549C192.179 132.396 192.354 132.32 192.568 132.32C192.782 132.32 192.956 132.396 193.09 132.549C193.224 132.701 193.291 132.905 193.291 133.161C193.291 133.416 193.224 133.62 193.09 133.773C192.956 133.926 192.782 134.002 192.568 134.002C192.354 134.002 192.179 133.926 192.044 133.773ZM192.791 133.523C192.846 133.441 192.873 133.321 192.873 133.161C192.873 133.002 192.846 132.881 192.791 132.799C192.737 132.718 192.663 132.677 192.568 132.677C192.476 132.677 192.403 132.719 192.346 132.802C192.291 132.885 192.263 133.005 192.263 133.162C192.263 133.318 192.291 133.438 192.346 133.522C192.402 133.604 192.476 133.645 192.568 133.645C192.663 133.645 192.737 133.604 192.791 133.523ZM194.31 132.355H194.807L192.81 135.405H192.313L194.31 132.355ZM194.179 135.338C194.068 135.27 193.983 135.172 193.922 135.044C193.861 134.916 193.83 134.768 193.83 134.6C193.83 134.431 193.861 134.283 193.922 134.155C193.983 134.028 194.068 133.929 194.179 133.861C194.288 133.793 194.413 133.759 194.552 133.759C194.766 133.759 194.941 133.835 195.076 133.987C195.211 134.14 195.278 134.344 195.278 134.6C195.278 134.855 195.211 135.059 195.076 135.212C194.941 135.364 194.766 135.44 194.552 135.44C194.413 135.44 194.288 135.406 194.179 135.338ZM194.776 134.959C194.83 134.876 194.857 134.756 194.857 134.599C194.857 134.442 194.83 134.322 194.776 134.239C194.722 134.157 194.647 134.115 194.552 134.115C194.461 134.115 194.387 134.155 194.332 134.237C194.276 134.318 194.248 134.439 194.248 134.598C194.248 134.758 194.276 134.879 194.332 134.96C194.387 135.041 194.461 135.082 194.552 135.082C194.647 135.083 194.722 135.041 194.776 134.959Z" fill="black"/>
<path d="M197.621 61.2993C197.453 61.4689 197.213 61.5746 196.898 61.6147V62.1027H196.48V61.6278C196.273 61.6159 196.078 61.5784 195.89 61.5146C195.704 61.4507 195.554 61.3725 195.439 61.2793L195.669 60.7481C195.775 60.8294 195.899 60.8976 196.041 60.9527C196.183 61.0077 196.33 61.0428 196.48 61.0572V60.3295C196.282 60.28 196.115 60.225 195.979 60.1637C195.842 60.1023 195.728 60.0135 195.636 59.8959C195.544 59.7782 195.498 59.6218 195.498 59.4278C195.498 59.1869 195.582 58.9798 195.751 58.8071C195.919 58.6344 196.162 58.5287 196.48 58.4911V58.0074H196.898V58.4824C197.24 58.5111 197.523 58.6 197.746 58.7483L197.537 59.2845C197.328 59.1594 197.115 59.0837 196.898 59.058V59.7982C197.093 59.8452 197.258 59.8977 197.393 59.9578C197.528 60.0172 197.642 60.1055 197.734 60.2231C197.825 60.3407 197.872 60.4953 197.872 60.6868C197.871 60.9252 197.788 61.1291 197.621 61.2993ZM196.25 59.5717C196.303 59.618 196.38 59.6575 196.48 59.6894V59.0705C196.375 59.0968 196.297 59.1381 196.246 59.1944C196.196 59.2514 196.171 59.3171 196.171 59.3928C196.171 59.466 196.197 59.5254 196.25 59.5717ZM197.123 60.9264C197.173 60.8745 197.198 60.8119 197.198 60.7393C197.198 60.6667 197.173 60.6073 197.121 60.561C197.069 60.5147 196.995 60.474 196.898 60.439V61.0403C196.998 61.0165 197.073 60.9783 197.123 60.9264Z" fill="white"/>
<path d="M199.237 58.5305V61.5803H198.56V59.0968H197.975V58.5305H199.237Z" fill="white"/>
<path d="M201.932 61.0053V61.5803H199.722V61.1229L200.85 60.0116C200.97 59.8927 201.05 59.7901 201.092 59.7044C201.134 59.6187 201.155 59.5336 201.155 59.4497C201.155 59.3277 201.115 59.2339 201.036 59.1688C200.956 59.1031 200.84 59.0712 200.687 59.0712C200.559 59.0712 200.444 59.0962 200.341 59.1469C200.238 59.1982 200.151 59.2745 200.082 59.3753L199.589 59.0443C199.703 58.8672 199.861 58.7289 200.061 58.6282C200.261 58.5281 200.491 58.478 200.75 58.478C200.968 58.478 201.158 58.5149 201.32 58.5894C201.484 58.6632 201.61 58.7677 201.701 58.9029C201.791 59.038 201.837 59.1969 201.837 59.3803C201.837 59.5461 201.803 59.7013 201.737 59.8464C201.67 59.9916 201.541 60.1574 201.349 60.3433L200.676 61.0053H201.932Z" fill="white"/>
<path d="M202.349 61.4927C202.271 61.412 202.232 61.31 202.232 61.188C202.232 61.0634 202.271 60.9627 202.349 60.8851C202.427 60.8082 202.523 60.77 202.637 60.77C202.751 60.77 202.847 60.8088 202.926 60.8851C203.004 60.9621 203.043 61.0634 203.043 61.188C203.043 61.31 203.004 61.412 202.926 61.4927C202.848 61.574 202.752 61.6147 202.637 61.6147C202.523 61.6147 202.427 61.574 202.349 61.4927Z" fill="white"/>
<path d="M203.899 61.4451C203.71 61.3206 203.561 61.1398 203.455 60.9026C203.347 60.6655 203.294 60.3833 203.294 60.0548C203.294 59.7269 203.348 59.4441 203.455 59.2076C203.562 58.9704 203.71 58.7902 203.899 58.6651C204.089 58.5406 204.304 58.478 204.547 58.478C204.788 58.478 205.004 58.5406 205.194 58.6651C205.384 58.7902 205.532 58.9711 205.639 59.2076C205.746 59.4441 205.799 59.7269 205.799 60.0548C205.799 60.3833 205.745 60.6655 205.639 60.9026C205.532 61.1398 205.383 61.32 205.194 61.4451C205.004 61.5703 204.788 61.6322 204.547 61.6322C204.305 61.6322 204.089 61.5696 203.899 61.4451ZM204.967 60.7963C205.068 60.6367 205.119 60.3896 205.119 60.0554C205.119 59.7213 205.068 59.4748 204.967 59.3152C204.865 59.1556 204.725 59.0756 204.547 59.0756C204.371 59.0756 204.232 59.1556 204.131 59.3152C204.029 59.4748 203.978 59.7219 203.978 60.0554C203.978 60.3896 204.029 60.6367 204.131 60.7963C204.232 60.9558 204.371 61.0359 204.547 61.0359C204.725 61.0353 204.865 60.9558 204.967 60.7963Z" fill="white"/>
<path d="M208.118 58.8678C208.349 59.1281 208.465 59.5017 208.465 59.9903C208.465 60.3357 208.403 60.6323 208.279 60.8789C208.155 61.126 207.98 61.3131 207.755 61.4408C207.529 61.5684 207.269 61.6322 206.974 61.6322C206.818 61.6322 206.668 61.6141 206.527 61.5778C206.384 61.5415 206.263 61.4902 206.163 61.4232L206.414 60.9045C206.556 61.0065 206.738 61.0572 206.961 61.0572C207.209 61.0572 207.405 60.9809 207.55 60.8282C207.695 60.6755 207.773 60.4553 207.784 60.168C207.609 60.3514 207.367 60.4427 207.058 60.4427C206.871 60.4427 206.701 60.4033 206.548 60.3251C206.395 60.2463 206.273 60.1355 206.185 59.9916C206.095 59.8477 206.051 59.6819 206.051 59.4923C206.051 59.2895 206.099 59.1106 206.197 58.9567C206.294 58.8027 206.427 58.6845 206.596 58.6013C206.764 58.5187 206.951 58.4767 207.158 58.4767C207.567 58.478 207.887 58.6081 208.118 58.8678ZM207.569 59.787C207.662 59.7019 207.709 59.5918 207.709 59.4585C207.709 59.3246 207.664 59.2157 207.573 59.1319C207.482 59.048 207.358 59.0055 207.199 59.0055C207.054 59.0055 206.936 59.0461 206.846 59.1275C206.755 59.2088 206.71 59.319 206.71 59.4585C206.71 59.598 206.755 59.7088 206.846 59.792C206.936 59.8746 207.057 59.9159 207.208 59.9159C207.355 59.9159 207.476 59.8727 207.569 59.787Z" fill="white"/>
<path d="M211.124 60.2732C211.201 60.3952 211.24 60.536 211.24 60.6955C211.24 60.8845 211.188 61.0491 211.085 61.1905C210.982 61.3313 210.837 61.4401 210.65 61.5171C210.463 61.5941 210.247 61.6322 210.002 61.6322C209.758 61.6322 209.542 61.5934 209.357 61.5171C209.171 61.4401 209.028 61.3313 208.927 61.1905C208.825 61.0497 208.774 60.8845 208.774 60.6955C208.774 60.536 208.812 60.3952 208.889 60.2732C208.966 60.1512 209.075 60.0523 209.217 59.9766C209.108 59.9071 209.025 59.8189 208.966 59.7132C208.907 59.6074 208.879 59.486 208.879 59.3496C208.879 59.1725 208.926 59.0186 209.021 58.8878C209.116 58.7571 209.248 58.6563 209.418 58.585C209.588 58.5143 209.783 58.478 210.003 58.478C210.226 58.478 210.423 58.5137 210.594 58.585C210.766 58.6563 210.898 58.7571 210.993 58.8878C211.088 59.0186 211.135 59.1725 211.135 59.3496C211.135 59.486 211.106 59.6074 211.048 59.7132C210.989 59.8195 210.904 59.9071 210.793 59.9766C210.937 60.0523 211.048 60.1512 211.124 60.2732ZM210.406 60.994C210.505 60.9139 210.554 60.8075 210.554 60.6736C210.554 60.5404 210.505 60.434 210.406 60.3551C210.307 60.2769 210.173 60.2375 210.002 60.2375C209.835 60.2375 209.703 60.2769 209.605 60.3551C209.508 60.4334 209.459 60.5397 209.459 60.6736C209.459 60.81 209.508 60.9177 209.605 60.9959C209.703 61.0747 209.835 61.1135 210.002 61.1135C210.173 61.1141 210.307 61.0741 210.406 60.994ZM209.675 59.0987C209.593 59.1669 209.551 59.2608 209.551 59.3797C209.551 59.496 209.591 59.5874 209.672 59.6537C209.753 59.7207 209.863 59.7545 210.002 59.7545C210.142 59.7545 210.253 59.7207 210.337 59.6537C210.42 59.5874 210.461 59.4954 210.461 59.3797C210.461 59.2608 210.419 59.1669 210.337 59.0987C210.253 59.0305 210.142 58.9961 210.002 58.9961C209.866 58.9961 209.757 59.0305 209.675 59.0987Z" fill="white"/>
<path d="M211.686 61.4927C211.609 61.412 211.569 61.31 211.569 61.188C211.569 61.0634 211.608 60.9627 211.686 60.8851C211.764 60.8082 211.86 60.77 211.975 60.77C212.089 60.77 212.185 60.8088 212.263 60.8851C212.341 60.9621 212.38 61.0634 212.38 61.188C212.38 61.31 212.341 61.412 212.263 61.4927C212.185 61.574 212.089 61.6147 211.975 61.6147C211.86 61.6147 211.764 61.574 211.686 61.4927Z" fill="white"/>
<path d="M214.6 59.9334C214.796 60.1048 214.895 60.3345 214.895 60.6217C214.895 60.8081 214.85 60.9771 214.761 61.1291C214.672 61.2818 214.536 61.4038 214.354 61.4952C214.171 61.5865 213.946 61.6322 213.679 61.6322C213.472 61.6322 213.27 61.604 213.071 61.5471C212.872 61.4908 212.702 61.4101 212.563 61.3049L212.831 60.765C212.942 60.8519 213.07 60.9195 213.215 60.9677C213.36 61.0159 213.509 61.0396 213.662 61.0396C213.832 61.0396 213.965 61.0052 214.063 60.9352C214.161 60.8657 214.21 60.7681 214.21 60.6429C214.21 60.5122 214.159 60.4133 214.057 60.347C213.955 60.28 213.779 60.2462 213.529 60.2462H212.78L212.931 58.5299H214.715V59.0962H213.495L213.449 59.6756H213.687C214.099 59.6762 214.404 59.7619 214.6 59.9334Z" fill="white"/>
<path d="M215.776 61.4451C215.587 61.3206 215.438 61.1398 215.332 60.9026C215.224 60.6655 215.171 60.3833 215.171 60.0548C215.171 59.7269 215.225 59.4441 215.332 59.2076C215.439 58.9704 215.587 58.7902 215.776 58.6651C215.966 58.5406 216.181 58.478 216.424 58.478C216.665 58.478 216.881 58.5406 217.071 58.6651C217.261 58.7902 217.409 58.9711 217.516 59.2076C217.624 59.4441 217.677 59.7269 217.677 60.0548C217.677 60.3833 217.623 60.6655 217.516 60.9026C217.409 61.1398 217.261 61.32 217.071 61.4451C216.881 61.5703 216.666 61.6322 216.424 61.6322C216.181 61.6322 215.966 61.5696 215.776 61.4451ZM216.844 60.7963C216.945 60.6367 216.996 60.3896 216.996 60.0554C216.996 59.7213 216.945 59.4748 216.844 59.3152C216.742 59.1556 216.602 59.0756 216.424 59.0756C216.248 59.0756 216.11 59.1556 216.008 59.3152C215.906 59.4748 215.855 59.7219 215.855 60.0554C215.855 60.3896 215.906 60.6367 216.008 60.7963C216.109 60.9558 216.248 61.0359 216.424 61.0359C216.602 61.0353 216.742 60.9558 216.844 60.7963Z" fill="white"/>
<path d="M219.109 58.5305V61.5803H218.432V59.0968H217.847V58.5305H219.109Z" fill="white"/>
<path d="M219.715 61.4927C219.637 61.412 219.598 61.31 219.598 61.188C219.598 61.0634 219.637 60.9627 219.715 60.8851C219.793 60.8082 219.889 60.77 220.003 60.77C220.118 60.77 220.213 60.8088 220.292 60.8851C220.37 60.9621 220.409 61.0634 220.409 61.188C220.409 61.31 220.37 61.412 220.292 61.4927C220.214 61.574 220.118 61.6147 220.003 61.6147C219.889 61.6147 219.793 61.574 219.715 61.4927Z" fill="white"/>
<path d="M221.265 61.4451C221.075 61.3206 220.927 61.1398 220.82 60.9026C220.712 60.6655 220.659 60.3833 220.659 60.0548C220.659 59.7269 220.713 59.4441 220.82 59.2076C220.927 58.9704 221.075 58.7902 221.265 58.6651C221.455 58.5406 221.67 58.478 221.912 58.478C222.154 58.478 222.37 58.5406 222.56 58.6651C222.749 58.7902 222.898 58.9711 223.004 59.2076C223.112 59.4441 223.165 59.7269 223.165 60.0548C223.165 60.3833 223.111 60.6655 223.004 60.9026C222.897 61.1398 222.749 61.32 222.56 61.4451C222.37 61.5703 222.155 61.6322 221.912 61.6322C221.67 61.6322 221.455 61.5696 221.265 61.4451ZM222.332 60.7963C222.434 60.6367 222.485 60.3896 222.485 60.0554C222.485 59.7213 222.434 59.4748 222.332 59.3152C222.23 59.1556 222.091 59.0756 221.912 59.0756C221.737 59.0756 221.599 59.1556 221.497 59.3152C221.395 59.4748 221.344 59.7219 221.344 60.0554C221.344 60.3896 221.395 60.6367 221.497 60.7963C221.598 60.9558 221.737 61.0359 221.912 61.0359C222.091 61.0353 222.23 60.9558 222.332 60.7963Z" fill="white"/>
<path d="M224.101 61.4451C223.912 61.3206 223.763 61.1398 223.657 60.9026C223.549 60.6655 223.496 60.3833 223.496 60.0548C223.496 59.7269 223.55 59.4441 223.657 59.2076C223.764 58.9704 223.912 58.7902 224.101 58.6651C224.291 58.5406 224.507 58.478 224.749 58.478C224.99 58.478 225.206 58.5406 225.396 58.6651C225.586 58.7902 225.734 58.9711 225.841 59.2076C225.948 59.4441 226.001 59.7269 226.001 60.0548C226.001 60.3833 225.947 60.6655 225.841 60.9026C225.733 61.1398 225.585 61.32 225.396 61.4451C225.206 61.5703 224.991 61.6322 224.749 61.6322C224.507 61.6322 224.291 61.5696 224.101 61.4451ZM225.169 60.7963C225.27 60.6367 225.321 60.3896 225.321 60.0554C225.321 59.7213 225.27 59.4748 225.169 59.3152C225.067 59.1556 224.927 59.0756 224.749 59.0756C224.573 59.0756 224.434 59.1556 224.333 59.3152C224.231 59.4748 224.18 59.7219 224.18 60.0554C224.18 60.3896 224.231 60.6367 224.333 60.7963C224.434 60.9558 224.573 61.0359 224.749 61.0359C224.927 61.0353 225.067 60.9558 225.169 60.7963Z" fill="white"/>
<path d="M113.928 115.909V118.959H113.251V116.475H112.666V115.909H113.928Z" fill="black"/>
<path d="M114.621 115.909H115.949C116.267 115.909 116.548 115.972 116.791 116.099C117.035 116.225 117.224 116.403 117.359 116.633C117.494 116.862 117.562 117.129 117.562 117.434C117.562 117.739 117.494 118.006 117.359 118.236C117.224 118.465 117.035 118.643 116.791 118.769C116.548 118.896 116.267 118.959 115.949 118.959H114.621V115.909ZM115.916 118.379C116.209 118.379 116.442 118.294 116.616 118.124C116.79 117.955 116.877 117.724 116.877 117.433C116.877 117.143 116.79 116.913 116.616 116.743C116.442 116.573 116.209 116.488 115.916 116.488H115.298V118.379H115.916Z" fill="black"/>
<path d="M129.935 115.909V118.959H129.258V116.475H128.673V115.909H129.935Z" fill="black"/>
<path d="M135.048 115.909L134.092 118.959H133.364L132.721 116.893L132.057 118.959H131.334L130.373 115.909H131.075L131.735 118.053L132.424 115.909H133.051L133.72 118.07L134.401 115.909H135.048Z" fill="black"/>
<path d="M147.08 115.909V118.959H146.403V116.475H145.818V115.909H147.08Z" fill="black"/>
<path d="M150.434 118.959L150.43 117.129L149.57 118.636H149.264L148.408 117.168V118.959H147.773V115.909H148.333L149.428 117.804L150.506 115.909H151.061L151.07 118.959H150.434Z" fill="black"/>
<path d="M168.344 121.002H162.282C160.957 121.002 159.882 119.881 159.882 118.499V116.534C159.882 115.152 160.957 114.031 162.282 114.031H168.344C169.669 114.031 170.744 115.152 170.744 116.534V118.499C170.744 119.881 169.67 121.002 168.344 121.002Z" fill="#A3CD0C"/>
<path d="M164.2 117.449C164.336 117.604 164.404 117.797 164.404 118.027C164.404 118.204 164.359 118.368 164.27 118.517C164.181 118.667 164.045 118.786 163.863 118.876C163.681 118.966 163.457 119.011 163.193 119.011C162.986 119.011 162.784 118.983 162.585 118.926C162.386 118.87 162.217 118.789 162.077 118.684L162.34 118.144C162.452 118.231 162.581 118.299 162.727 118.347C162.873 118.395 163.022 118.419 163.175 118.419C163.345 118.419 163.479 118.385 163.577 118.316C163.674 118.248 163.723 118.152 163.723 118.027C163.723 117.777 163.541 117.652 163.175 117.652H162.866V117.186L163.468 116.476H162.223V115.91H164.27V116.367L163.61 117.151C163.867 117.194 164.063 117.294 164.2 117.449Z" fill="white"/>
<path d="M167.563 118.959L167.558 117.129L166.698 118.636H166.393L165.536 117.168V118.959H164.902V115.909H165.461L166.556 117.804L167.633 115.909H168.189L168.197 118.959H167.563Z" fill="white"/>
<path d="M180.779 117.164C180.932 117.242 181.053 117.353 181.142 117.497C181.232 117.641 181.276 117.807 181.276 117.995C181.276 118.199 181.227 118.378 181.13 118.532C181.033 118.685 180.899 118.804 180.731 118.886C180.563 118.97 180.376 119.011 180.17 119.011C179.761 119.011 179.44 118.88 179.209 118.619C178.978 118.358 178.862 117.984 178.862 117.499C178.862 117.154 178.925 116.857 179.051 116.61C179.176 116.363 179.351 116.176 179.575 116.048C179.799 115.92 180.059 115.856 180.353 115.856C180.509 115.856 180.659 115.874 180.803 115.91C180.946 115.947 181.068 115.999 181.168 116.065L180.917 116.584C180.773 116.482 180.59 116.432 180.37 116.432C180.122 116.432 179.926 116.507 179.781 116.658C179.636 116.81 179.558 117.029 179.547 117.316C179.72 117.136 179.96 117.046 180.269 117.046C180.455 117.046 180.626 117.086 180.779 117.164ZM180.484 118.362C180.575 118.281 180.62 118.171 180.62 118.031C180.62 117.891 180.575 117.781 180.484 117.697C180.394 117.614 180.273 117.573 180.122 117.573C179.975 117.573 179.854 117.616 179.759 117.701C179.664 117.787 179.617 117.897 179.617 118.03C179.617 118.164 179.663 118.273 179.755 118.357C179.846 118.441 179.972 118.483 180.13 118.483C180.276 118.484 180.394 118.443 180.484 118.362Z" fill="black"/>
<path d="M184.367 118.959L184.363 117.129L183.503 118.636H183.198L182.341 117.168V118.959H181.706V115.909H182.266L183.361 117.804L184.439 115.909H184.994L185.003 118.959H184.367Z" fill="black"/>
<path d="M197.794 115.909V118.959H197.117V116.475H196.532V115.909H197.794Z" fill="black"/>
<path d="M199.891 117.878V118.959H199.215V117.87L198.082 115.909H198.801L199.582 117.264L200.363 115.909H201.028L199.891 117.878Z" fill="black"/>
<path d="M214.935 117.449C215.071 117.604 215.14 117.797 215.14 118.027C215.14 118.204 215.095 118.368 215.006 118.517C214.916 118.667 214.781 118.786 214.598 118.876C214.416 118.966 214.192 119.011 213.928 119.011C213.722 119.011 213.52 118.983 213.32 118.926C213.121 118.87 212.952 118.789 212.813 118.684L213.076 118.144C213.187 118.231 213.316 118.299 213.462 118.347C213.608 118.395 213.758 118.419 213.911 118.419C214.081 118.419 214.214 118.385 214.312 118.316C214.409 118.248 214.458 118.152 214.458 118.027C214.458 117.777 214.276 117.652 213.91 117.652H213.601V117.186L214.202 116.476H212.957V115.91H215.005V116.367L214.345 117.151C214.602 117.194 214.798 117.294 214.935 117.449Z" fill="black"/>
<path d="M216.998 117.878V118.959H216.322V117.87L215.189 115.909H215.908L216.689 117.264L217.471 115.909H218.135L216.998 117.878Z" fill="black"/>
<path d="M106.826 99.752C106.757 99.2764 107.072 98.8328 107.528 98.7609L123.31 96.2918L140.136 89.0128L157.045 86.662L173.635 92.7177L190.205 85.2298H206.953L222.742 79.741C223.18 79.589 223.653 79.8355 223.799 80.2916C223.945 80.7484 223.708 81.2421 223.27 81.3942L207.223 86.9718H190.55L173.699 94.5873L156.868 88.4441L140.465 90.7248L123.659 97.9994L107.774 100.484C107.32 100.555 106.895 100.228 106.826 99.752Z" fill="#A3CD0C"/>
<path d="M123.301 103.58L106.945 89.6505C106.587 89.3464 106.534 88.7976 106.826 88.4247C107.117 88.0518 107.644 87.9967 108.001 88.3008L123.772 101.732L140.033 98.9054L156.67 92.5438L173.453 84.0972L190.324 79.4056L207.002 81.7245L222.736 75.9817C223.171 75.8228 223.648 76.0618 223.8 76.5161C223.952 76.9704 223.723 77.4678 223.288 77.6267L207.177 83.5072L190.433 81.1789L173.96 85.7604L157.321 94.1468L140.384 100.612L123.301 103.58Z" fill="#263238"/>
<path d="M92.0151 76.2314C92.592 73.6835 91.0791 71.1303 88.6359 70.5287C86.1927 69.9271 83.7445 71.5048 83.1676 74.0527C82.5907 76.6006 84.1036 79.1538 86.5468 79.7554C88.99 80.3571 91.4382 78.7793 92.0151 76.2314Z" fill="#A3CD0C"/>
<path opacity="0.5" d="M98.5721 89.9596H76.6097C76.0997 89.9596 75.6863 89.5285 75.6863 88.9972V84.1817C75.6863 83.6499 76.0997 83.2188 76.6097 83.2188H98.5721C99.0821 83.2188 99.4955 83.6499 99.4955 84.1817V88.9972C99.4955 89.5291 99.0821 89.9596 98.5721 89.9596Z" fill="white"/>
<path d="M78.7752 87.5918L77.8266 88.1118L78.0078 87.0099L77.2404 86.2297L78.3006 86.0688L78.7752 85.0671L79.2498 86.0688L80.31 86.2297L79.5426 87.0099L79.7238 88.1118L78.7752 87.5918Z" fill="#A3CD0C"/>
<path d="M83.1827 87.5918L82.2342 88.1118L82.4153 87.0099L81.6479 86.2297L82.7088 86.0688L83.1827 85.0671L83.6573 86.0688L84.7182 86.2297L83.9507 87.0099L84.1319 88.1118L83.1827 87.5918Z" fill="#A3CD0C"/>
<path d="M87.5909 87.5918L86.6423 88.1118L86.8235 87.0099L86.0555 86.2297L87.1163 86.0688L87.5909 85.0671L88.0649 86.0688L89.1257 86.2297L88.3583 87.0099L88.5395 88.1118L87.5909 87.5918Z" fill="#A3CD0C"/>
<path opacity="0.9" d="M91.9985 87.5918L91.0499 88.1118L91.2311 87.0099L90.4637 86.2297L91.5245 86.0688L91.9985 85.0671L92.4731 86.0688L93.5339 86.2297L92.7665 87.0099L92.9477 88.1118L91.9985 87.5918Z" fill="white"/>
<path opacity="0.9" d="M96.4067 87.5918L95.4575 88.1118L95.6387 87.0099L94.8713 86.2297L95.9321 86.0688L96.4067 85.0671L96.8807 86.0688L97.9415 86.2297L97.1741 87.0099L97.3553 88.1118L96.4067 87.5918Z" fill="white"/>
<path d="M92.0143 102.323C92.5912 99.7755 91.0782 97.2223 88.6351 96.6207C86.1919 96.019 83.7436 97.5968 83.1667 100.145C82.5898 102.693 84.1027 105.246 86.5459 105.847C88.9891 106.449 91.4374 104.871 92.0143 102.323Z" fill="#263238"/>
<path opacity="0.7" d="M92.0143 102.323C92.5912 99.7755 91.0782 97.2223 88.6351 96.6207C86.1919 96.019 83.7436 97.5968 83.1667 100.145C82.5898 102.693 84.1027 105.246 86.5459 105.847C88.9891 106.449 91.4374 104.871 92.0143 102.323Z" fill="white"/>
<path opacity="0.5" d="M98.5721 116.051H76.6097C76.0997 116.051 75.6863 115.619 75.6863 115.088V110.273C75.6863 109.741 76.0997 109.31 76.6097 109.31H98.5721C99.0821 109.31 99.4955 109.741 99.4955 110.273V115.088C99.4955 115.619 99.0821 116.051 98.5721 116.051Z" fill="white"/>
<path d="M78.7752 113.682L77.8266 114.202L78.0078 113.101L77.2404 112.321L78.3006 112.16L78.7752 111.157L79.2498 112.16L80.31 112.321L79.5426 113.101L79.7238 114.202L78.7752 113.682Z" fill="#A3CD0C"/>
<path d="M83.1827 113.682L82.2342 114.202L82.4153 113.101L81.6479 112.321L82.7088 112.16L83.1827 111.157L83.6573 112.16L84.7182 112.321L83.9507 113.101L84.1319 114.202L83.1827 113.682Z" fill="#A3CD0C"/>
<path opacity="0.9" d="M87.5909 113.682L86.6423 114.202L86.8235 113.101L86.0555 112.321L87.1163 112.16L87.5909 111.157L88.0649 112.16L89.1257 112.321L88.3583 113.101L88.5395 114.202L87.5909 113.682Z" fill="white"/>
<path opacity="0.9" d="M91.9985 113.682L91.0499 114.202L91.2311 113.101L90.4637 112.321L91.5245 112.16L91.9985 111.157L92.4731 112.16L93.5339 112.321L92.7665 113.101L92.9477 114.202L91.9985 113.682Z" fill="white"/>
<path opacity="0.9" d="M96.4067 113.682L95.4575 114.202L95.6387 113.101L94.8713 112.321L95.9321 112.16L96.4067 111.157L96.8807 112.16L97.9415 112.321L97.1741 113.101L97.3553 114.202L96.4067 113.682Z" fill="white"/>
<path d="M90.8037 130.667C92.5789 128.816 92.5789 125.814 90.8037 123.963C89.0286 122.112 86.1505 122.112 84.3753 123.963C82.6002 125.814 82.6002 128.816 84.3753 130.667C86.1505 132.518 89.0286 132.518 90.8037 130.667Z" fill="#A3CD0C"/>
<path opacity="0.3" d="M90.8037 130.667C92.5789 128.816 92.5789 125.814 90.8037 123.963C89.0286 122.112 86.1505 122.112 84.3753 123.963C82.6002 125.814 82.6002 128.816 84.3753 130.667C86.1505 132.518 89.0286 132.518 90.8037 130.667Z" fill="white"/>
<path opacity="0.5" d="M98.5721 142.141H76.6097C76.0997 142.141 75.6863 141.71 75.6863 141.179V136.363C75.6863 135.831 76.0997 135.4 76.6097 135.4H98.5721C99.0821 135.4 99.4955 135.831 99.4955 136.363V141.179C99.4955 141.71 99.0821 142.141 98.5721 142.141Z" fill="white"/>
<path d="M78.7752 139.773L77.8266 140.293L78.0078 139.191L77.2404 138.411L78.3006 138.25L78.7752 137.248L79.2498 138.25L80.31 138.411L79.5426 139.191L79.7238 140.293L78.7752 139.773Z" fill="#A3CD0C"/>
<path d="M83.1827 139.773L82.2342 140.293L82.4153 139.191L81.6479 138.411L82.7088 138.25L83.1827 137.248L83.6573 138.25L84.7182 138.411L83.9507 139.191L84.1319 140.293L83.1827 139.773Z" fill="#A3CD0C"/>
<path d="M87.5909 139.773L86.6423 140.293L86.8235 139.191L86.0555 138.411L87.1163 138.25L87.5909 137.248L88.0649 138.25L89.1257 138.411L88.3583 139.191L88.5395 140.293L87.5909 139.773Z" fill="#A3CD0C"/>
<path d="M91.9985 139.773L91.0499 140.293L91.2311 139.191L90.4637 138.411L91.5245 138.25L91.9985 137.248L92.4731 138.25L93.5339 138.411L92.7665 139.191L92.9477 140.293L91.9985 139.773Z" fill="#A3CD0C"/>
<path opacity="0.9" d="M96.4067 139.773L95.4575 140.293L95.6387 139.191L94.8713 138.411L95.9321 138.25L96.4067 137.248L96.8807 138.25L97.9415 138.411L97.1741 139.191L97.3553 140.293L96.4067 139.773Z" fill="white"/>
<path d="M90.8034 156.757C92.5786 154.906 92.5786 151.905 90.8034 150.053C89.0283 148.202 86.1502 148.202 84.375 150.053C82.5999 151.905 82.5999 154.906 84.375 156.757C86.1502 158.609 89.0283 158.609 90.8034 156.757Z" fill="#263238"/>
<path opacity="0.5" d="M90.8034 156.757C92.5786 154.906 92.5786 151.905 90.8034 150.053C89.0283 148.202 86.1502 148.202 84.375 150.053C82.5999 151.905 82.5999 154.906 84.375 156.757C86.1502 158.609 89.0283 158.609 90.8034 156.757Z" fill="white"/>
<path opacity="0.5" d="M98.5721 168.231H76.6097C76.0997 168.231 75.6863 167.8 75.6863 167.268V162.453C75.6863 161.921 76.0997 161.49 76.6097 161.49H98.5721C99.0821 161.49 99.4955 161.921 99.4955 162.453V167.268C99.4955 167.8 99.0821 168.231 98.5721 168.231Z" fill="white"/>
<path d="M78.7752 165.864L77.8266 166.384L78.0078 165.282L77.2404 164.502L78.3006 164.341L78.7752 163.338L79.2498 164.341L80.31 164.502L79.5426 165.282L79.7238 166.384L78.7752 165.864Z" fill="#A3CD0C"/>
<path d="M83.1827 165.864L82.2342 166.384L82.4153 165.282L81.6479 164.502L82.7088 164.341L83.1827 163.338L83.6573 164.341L84.7182 164.502L83.9507 165.282L84.1319 166.384L83.1827 165.864Z" fill="#A3CD0C"/>
<path opacity="0.9" d="M87.5909 165.864L86.6423 166.384L86.8235 165.282L86.0555 164.502L87.1163 164.341L87.5909 163.338L88.0649 164.341L89.1257 164.502L88.3583 165.282L88.5395 166.384L87.5909 165.864Z" fill="white"/>
<path d="M87.5909 165.864L86.6423 166.384L86.8235 165.282L86.0555 164.502L87.1163 164.341L87.5909 163.338V165.864Z" fill="#A3CD0C"/>
<path opacity="0.9" d="M91.9985 165.864L91.0499 166.384L91.2311 165.282L90.4637 164.502L91.5245 164.341L91.9985 163.338L92.4731 164.341L93.5339 164.502L92.7665 165.282L92.9477 166.384L91.9985 165.864Z" fill="white"/>
<path opacity="0.9" d="M96.4067 165.864L95.4575 166.384L95.6387 165.282L94.8713 164.502L95.9321 164.341L96.4067 163.338L96.8807 164.341L97.9415 164.502L97.1741 165.282L97.3553 166.384L96.4067 165.864Z" fill="white"/>
<path d="M113.363 157.651H108.497V167.255H113.363V157.651Z" fill="#A3CD0C"/>
<path d="M125.11 153.981H120.244V167.254H125.11V153.981Z" fill="#A3CD0C"/>
<path d="M136.856 147.241H131.99V167.254H136.856V147.241Z" fill="#A3CD0C"/>
<path d="M119.237 152.134H114.37V167.254H119.237V152.134Z" fill="#263238"/>
<path d="M130.983 150.611H126.116V167.254H130.983V150.611Z" fill="#263238"/>
<path d="M142.73 151.005H137.863V167.254H142.73V151.005Z" fill="#263238"/>
<g opacity="0.6">
<path d="M119.237 152.134H114.37V167.254H119.237V152.134Z" fill="white"/>
<path d="M130.983 150.611H126.116V167.254H130.983V150.611Z" fill="white"/>
<path d="M142.73 151.005H137.863V167.254H142.73V151.005Z" fill="white"/>
</g>
<path d="M148.603 145.317H143.736V167.254H148.603V145.317Z" fill="#A3CD0C"/>
<path d="M195.392 167.255H155.287L158.003 157.651L163.593 152.134L169.466 160.618L175.339 150.611L181.213 157.248L187.086 151.005L192.959 145.317H195.392V167.255Z" fill="#A3CD0C"/>
<path opacity="0.8" d="M195.392 167.255H155.287L158.003 160.842L163.593 156.123L169.466 160.618L175.339 155.397L181.213 157.248L187.086 155.792L192.959 153.294L195.392 145.317V167.255Z" fill="white"/>
<path d="M212.073 135.623H221.849C221.849 129.993 217.472 125.428 212.073 125.428C206.674 125.428 202.297 129.993 202.297 135.623H212.073Z" fill="#A3CD0C"/>
<path opacity="0.5" d="M212.073 135.623H221.849C221.849 129.993 217.472 125.428 212.073 125.428C206.674 125.428 202.297 129.993 202.297 135.623H212.073Z" fill="white"/>
<path opacity="0.7" d="M218.986 128.414C217.217 126.569 214.773 125.428 212.074 125.428C206.674 125.428 202.297 129.993 202.297 135.623H212.074L218.986 128.414Z" fill="white"/>
<path opacity="0.2" d="M205.16 128.4L212.073 135.609V125.414C209.374 125.414 206.93 126.555 205.16 128.4Z" fill="black"/>
<path d="M205.16 128.4L212.073 135.609V125.414C209.374 125.414 206.93 126.555 205.16 128.4Z" fill="#A3CD0C"/>
<path opacity="0.5" d="M205.16 128.4L212.073 135.609V125.414C209.374 125.414 206.93 126.555 205.16 128.4Z" fill="white"/>
<path d="M217.465 130.734L216.763 129.999L212.339 134.6C212.252 134.575 212.168 134.544 212.073 134.544C211.509 134.544 211.051 135.02 211.051 135.609C211.051 136.197 211.508 136.675 212.073 136.675C212.637 136.675 213.094 136.198 213.094 135.609C213.094 135.512 213.065 135.424 213.041 135.334L217.465 130.734Z" fill="black"/>
<path d="M212.073 151.645H221.849C221.849 146.015 217.472 141.45 212.073 141.45C206.674 141.45 202.297 146.015 202.297 151.645H212.073Z" fill="#A3CD0C"/>
<path opacity="0.5" d="M212.073 151.645H221.849C221.849 146.015 217.472 141.45 212.073 141.45C206.674 141.45 202.297 146.015 202.297 151.645H212.073Z" fill="white"/>
<path opacity="0.7" d="M218.986 144.437C217.217 142.591 214.773 141.451 212.074 141.451C206.674 141.451 202.297 146.015 202.297 151.646H212.074L218.986 144.437Z" fill="white"/>
<path d="M205.16 144.422L212.073 151.631V141.436C209.374 141.436 206.93 142.577 205.16 144.422Z" fill="#A3CD0C"/>
<path opacity="0.5" d="M205.16 144.422L212.073 151.631V141.436C209.374 141.436 206.93 142.577 205.16 144.422Z" fill="white"/>
<path d="M212.57 150.72V144.793H211.576V150.72C211.268 150.903 211.052 151.235 211.052 151.631C211.052 152.219 211.509 152.697 212.074 152.697C212.638 152.697 213.095 152.22 213.095 151.631C213.095 151.235 212.878 150.904 212.57 150.72Z" fill="black"/>
<path d="M212.073 167.667H221.849C221.849 162.037 217.472 157.472 212.073 157.472C206.674 157.472 202.297 162.037 202.297 167.667H212.073Z" fill="#A3CD0C"/>
<path opacity="0.5" d="M212.073 167.667H221.849C221.849 162.037 217.472 157.472 212.073 157.472C206.674 157.472 202.297 162.037 202.297 167.667H212.073Z" fill="white"/>
<path opacity="0.7" d="M218.986 160.459C217.217 158.613 214.773 157.473 212.074 157.473C206.674 157.473 202.297 162.037 202.297 167.668H212.074L218.986 160.459Z" fill="white"/>
<path d="M205.16 160.444L212.073 167.653V157.458C209.374 157.459 206.93 158.6 205.16 160.444Z" fill="#A3CD0C"/>
<path opacity="0.5" d="M205.16 160.444L212.073 167.653V157.458C209.374 157.459 206.93 158.6 205.16 160.444Z" fill="white"/>
<path d="M217.465 162.778L216.763 162.044L212.339 166.645C212.252 166.62 212.168 166.588 212.073 166.588C211.509 166.588 211.051 167.065 211.051 167.654C211.051 168.242 211.508 168.72 212.073 168.72C212.637 168.72 213.094 168.243 213.094 167.654C213.094 167.556 213.065 167.469 213.041 167.379L217.465 162.778Z" fill="black"/>
<path d="M225.367 64.361L218.797 64.4354C217.894 64.4454 217.17 65.2176 217.18 66.1593L217.24 71.8914C217.249 72.8312 217.986 73.5852 218.887 73.5784L220.788 73.5633L221.609 74.8886C221.887 75.3379 222.521 75.3272 222.785 74.8679L223.567 73.5076L225.457 73.4926C226.362 73.4857 227.089 72.713 227.079 71.7688L227.02 66.0479C227.009 65.1056 226.27 64.3503 225.367 64.361Z" fill="#A3CD0C"/>
<path d="M220.315 69.0006C220.427 69.0576 220.516 69.1395 220.581 69.2446C220.646 69.3498 220.679 69.4718 220.679 69.6101C220.679 69.759 220.643 69.8898 220.572 70.0024C220.5 70.1156 220.403 70.202 220.279 70.2627C220.156 70.3234 220.019 70.3534 219.868 70.3534C219.568 70.3534 219.333 70.2577 219.164 70.0662C218.995 69.8747 218.91 69.6013 218.91 69.2465C218.91 68.9931 218.956 68.7766 219.048 68.5958C219.14 68.4149 219.268 68.2773 219.432 68.1841C219.596 68.0902 219.786 68.0433 220.003 68.0433C220.117 68.0433 220.226 68.0564 220.331 68.0833C220.437 68.1096 220.526 68.1478 220.599 68.1966L220.416 68.5758C220.31 68.5013 220.176 68.4644 220.015 68.4644C219.833 68.4644 219.689 68.5194 219.584 68.6302C219.478 68.7409 219.42 68.9011 219.412 69.112C219.539 68.98 219.715 68.9143 219.942 68.9143C220.079 68.9149 220.202 68.9431 220.315 69.0006ZM220.1 69.8785C220.166 69.8191 220.199 69.7377 220.199 69.6357C220.199 69.5337 220.166 69.4524 220.1 69.3917C220.033 69.3316 219.945 69.301 219.835 69.301C219.727 69.301 219.638 69.3322 219.569 69.3954C219.499 69.458 219.465 69.5387 219.465 69.6363C219.465 69.734 219.499 69.814 219.566 69.876C219.633 69.9373 219.725 69.968 219.841 69.968C219.947 69.9673 220.033 69.9379 220.1 69.8785Z" fill="white"/>
<path d="M221.303 70.2164C221.165 70.125 221.056 69.9924 220.977 69.819C220.898 69.6457 220.859 69.4392 220.859 69.1983C220.859 68.9574 220.898 68.751 220.977 68.5776C221.056 68.4043 221.165 68.2717 221.303 68.1809C221.442 68.0896 221.6 68.0433 221.777 68.0433C221.955 68.0433 222.113 68.0889 222.252 68.1809C222.391 68.2723 222.499 68.4043 222.578 68.5776C222.656 68.7516 222.696 68.9581 222.696 69.1983C222.696 69.4386 222.656 69.6457 222.578 69.819C222.499 69.9924 222.391 70.125 222.252 70.2164C222.113 70.3077 221.956 70.3534 221.777 70.3534C221.6 70.3534 221.442 70.3077 221.303 70.2164ZM222.085 69.7408C222.16 69.6238 222.196 69.443 222.196 69.1983C222.196 68.9537 222.16 68.7729 222.085 68.6558C222.01 68.5388 221.908 68.4806 221.777 68.4806C221.649 68.4806 221.548 68.5388 221.473 68.6558C221.399 68.7729 221.361 68.9537 221.361 69.1983C221.361 69.443 221.398 69.6238 221.473 69.7408C221.547 69.8578 221.649 69.9167 221.777 69.9167C221.908 69.9167 222.01 69.8578 222.085 69.7408Z" fill="white"/>
<path d="M223.049 69.1199C222.95 69.0079 222.9 68.859 222.9 68.6719C222.9 68.4848 222.95 68.3353 223.049 68.2239C223.147 68.1119 223.276 68.0562 223.433 68.0562C223.59 68.0562 223.717 68.1119 223.815 68.2239C223.913 68.3359 223.962 68.4855 223.962 68.6719C223.962 68.859 223.913 69.0086 223.815 69.1199C223.717 69.2319 223.589 69.2876 223.433 69.2876C223.276 69.2876 223.147 69.2319 223.049 69.1199ZM223.597 68.9366C223.636 68.8771 223.657 68.7889 223.657 68.6719C223.657 68.5549 223.636 68.4667 223.597 68.4072C223.557 68.3478 223.502 68.3178 223.433 68.3178C223.366 68.3178 223.312 68.3484 223.271 68.4085C223.229 68.4692 223.21 68.5568 223.21 68.6719C223.21 68.787 223.23 68.8746 223.271 68.9353C223.312 68.996 223.366 69.0261 223.433 69.0261C223.502 69.0261 223.557 68.996 223.597 68.9366ZM224.708 68.0819H225.073L223.61 70.315H223.246L224.708 68.0819ZM224.612 70.2656C224.532 70.2156 224.469 70.1436 224.424 70.0504C224.379 69.9571 224.357 69.8483 224.357 69.725C224.357 69.6017 224.379 69.4935 224.424 69.3996C224.469 69.3064 224.531 69.2338 224.612 69.1844C224.693 69.1343 224.784 69.1093 224.887 69.1093C225.043 69.1093 225.171 69.1656 225.271 69.277C225.369 69.3884 225.418 69.5379 225.418 69.725C225.418 69.9121 225.369 70.0616 225.271 70.173C225.171 70.285 225.043 70.3407 224.887 70.3407C224.784 70.3407 224.693 70.3157 224.612 70.2656ZM225.05 69.9878C225.089 69.9271 225.11 69.8395 225.11 69.7244C225.11 69.6099 225.089 69.5216 225.05 69.4616C225.01 69.4009 224.955 69.3702 224.886 69.3702C224.819 69.3702 224.764 69.4003 224.724 69.4597C224.683 69.5191 224.663 69.6074 224.663 69.7244C224.663 69.8414 224.683 69.9302 224.724 69.989C224.764 70.0485 224.819 70.0785 224.886 70.0785C224.955 70.0791 225.01 70.0485 225.05 69.9878Z" fill="white"/>
<path d="M218.909 94.3383L225.479 94.2638C226.382 94.2538 227.106 93.4817 227.096 92.54L227.036 86.8078C227.027 85.868 226.29 85.114 225.389 85.1209L223.488 85.1359L222.667 83.8106C222.389 83.3614 221.755 83.372 221.491 83.8313L220.709 85.191L218.819 85.206C217.915 85.2129 217.187 85.9856 217.197 86.9298L217.256 92.6507C217.266 93.5931 218.006 94.3483 218.909 94.3383Z" fill="#263238"/>
<path d="M220.378 90.0709C220.522 90.1966 220.594 90.3643 220.594 90.5752C220.594 90.711 220.561 90.8349 220.496 90.9469C220.431 91.0589 220.331 91.1477 220.198 91.2147C220.064 91.2816 219.899 91.3154 219.703 91.3154C219.553 91.3154 219.404 91.2948 219.258 91.2535C219.112 91.2116 218.989 91.1527 218.887 91.0764L219.082 90.6809C219.164 90.7448 219.258 90.7942 219.364 90.8292C219.469 90.8643 219.579 90.8818 219.691 90.8818C219.815 90.8818 219.913 90.8561 219.984 90.8055C220.056 90.7542 220.091 90.6835 220.091 90.5915C220.091 90.4957 220.054 90.4232 219.979 90.3744C219.905 90.3255 219.776 90.3005 219.592 90.3005H219.044L219.154 89.0435H220.46V89.4583H219.567L219.533 89.8825H219.708C220.012 89.8825 220.234 89.9457 220.378 90.0709Z" fill="white"/>
<path d="M221.239 91.1784C221.101 91.0871 220.991 90.9544 220.913 90.7811C220.834 90.6078 220.795 90.4013 220.795 90.1604C220.795 89.9201 220.834 89.713 220.913 89.5397C220.991 89.3663 221.101 89.2337 221.239 89.143C221.378 89.0516 221.536 89.0053 221.713 89.0053C221.891 89.0053 222.049 89.0516 222.188 89.143C222.327 89.2343 222.435 89.3663 222.514 89.5397C222.592 89.7136 222.632 89.9201 222.632 90.1604C222.632 90.4006 222.592 90.6078 222.514 90.7811C222.435 90.9544 222.327 91.0871 222.188 91.1784C222.049 91.2698 221.891 91.3154 221.713 91.3154C221.536 91.3154 221.378 91.2698 221.239 91.1784ZM222.021 90.7029C222.096 90.5859 222.133 90.405 222.133 90.1604C222.133 89.9157 222.096 89.7349 222.021 89.6179C221.947 89.5009 221.844 89.4427 221.713 89.4427C221.585 89.4427 221.483 89.5009 221.409 89.6179C221.334 89.7349 221.297 89.9157 221.297 90.1604C221.297 90.405 221.334 90.5859 221.409 90.7029C221.483 90.8199 221.585 90.8787 221.713 90.8787C221.844 90.8787 221.946 90.8199 222.021 90.7029Z" fill="white"/>
<path d="M222.985 90.082C222.886 89.97 222.836 89.8211 222.836 89.6334C222.836 89.4463 222.886 89.2967 222.985 89.1847C223.083 89.0727 223.212 89.017 223.369 89.017C223.525 89.017 223.653 89.0727 223.751 89.1847C223.849 89.2967 223.898 89.4463 223.898 89.6334C223.898 89.8204 223.849 89.97 223.751 90.082C223.653 90.194 223.525 90.2497 223.369 90.2497C223.211 90.2497 223.083 90.194 222.985 90.082ZM223.532 89.8987C223.571 89.8392 223.592 89.751 223.592 89.634C223.592 89.517 223.571 89.4288 223.532 89.3693C223.492 89.3099 223.438 89.2798 223.368 89.2798C223.301 89.2798 223.247 89.3105 223.206 89.3706C223.165 89.4313 223.145 89.5189 223.145 89.634C223.145 89.7491 223.165 89.8367 223.206 89.8974C223.247 89.9581 223.301 89.9881 223.368 89.9881C223.438 89.9875 223.492 89.9581 223.532 89.8987ZM224.644 89.0433H225.009L223.546 91.2771H223.181L224.644 89.0433ZM224.548 91.2277C224.468 91.1776 224.405 91.1057 224.36 91.0124C224.315 90.9192 224.293 90.8103 224.293 90.6871C224.293 90.5638 224.315 90.4555 224.36 90.3617C224.405 90.2685 224.467 90.1959 224.548 90.1464C224.629 90.0964 224.72 90.0714 224.822 90.0714C224.98 90.0714 225.107 90.1277 225.206 90.2391C225.305 90.3504 225.355 90.5 225.355 90.6871C225.355 90.8742 225.305 91.0237 225.206 91.1357C225.107 91.2477 224.98 91.3034 224.822 91.3034C224.72 91.3028 224.629 91.2777 224.548 91.2277ZM224.986 90.9499C225.025 90.8898 225.046 90.8016 225.046 90.6864C225.046 90.5719 225.025 90.4837 224.986 90.4236C224.946 90.3629 224.891 90.3323 224.822 90.3323C224.755 90.3323 224.7 90.3623 224.66 90.4218C224.618 90.4812 224.599 90.5694 224.599 90.6864C224.599 90.8034 224.619 90.8923 224.66 90.9511C224.7 91.0106 224.755 91.0406 224.822 91.0406C224.891 91.0412 224.946 91.0106 224.986 90.9499Z" fill="white"/>
<path d="M156.452 133.708C156.016 133.708 155.663 133.34 155.663 132.885C155.663 132.431 156.016 132.063 156.452 132.063H180.859C181.294 132.063 181.648 132.431 181.648 132.885C181.648 133.34 181.294 133.708 180.859 133.708H156.452Z" fill="#263238"/>
<path d="M156.452 139.641C156.016 139.641 155.663 139.273 155.663 138.818C155.663 138.364 156.016 137.996 156.452 137.996H176.101C176.537 137.996 176.89 138.364 176.89 138.818C176.89 139.273 176.537 139.641 176.101 139.641H156.452Z" fill="#263238"/>
<path d="M156.452 136.675C156.016 136.675 155.663 136.306 155.663 135.852C155.663 135.398 156.016 135.029 156.452 135.029H174.094C174.529 135.029 174.883 135.398 174.883 135.852C174.883 136.306 174.529 136.675 174.094 136.675H156.452Z" fill="#263238"/>
<g opacity="0.5">
<path d="M156.452 133.708C156.016 133.708 155.663 133.34 155.663 132.885C155.663 132.431 156.016 132.063 156.452 132.063H180.859C181.294 132.063 181.648 132.431 181.648 132.885C181.648 133.34 181.294 133.708 180.859 133.708H156.452Z" fill="white"/>
<path d="M156.452 139.641C156.016 139.641 155.663 139.273 155.663 138.818C155.663 138.364 156.016 137.996 156.452 137.996H176.101C176.537 137.996 176.89 138.364 176.89 138.818C176.89 139.273 176.537 139.641 176.101 139.641H156.452Z" fill="white"/>
<path d="M156.452 136.675C156.016 136.675 155.663 136.306 155.663 135.852C155.663 135.398 156.016 135.029 156.452 135.029H174.094C174.529 135.029 174.883 135.398 174.883 135.852C174.883 136.306 174.529 136.675 174.094 136.675H156.452Z" fill="white"/>
</g>
<path d="M109.286 133.708C108.85 133.708 108.497 133.34 108.497 132.885C108.497 132.431 108.85 132.063 109.286 132.063H133.693C134.128 132.063 134.482 132.431 134.482 132.885C134.482 133.34 134.128 133.708 133.693 133.708H109.286Z" fill="#263238"/>
<path d="M109.286 139.641C108.85 139.641 108.497 139.273 108.497 138.818C108.497 138.364 108.85 137.996 109.286 137.996H123.581C124.016 137.996 124.37 138.364 124.37 138.818C124.37 139.273 124.016 139.641 123.581 139.641H109.286Z" fill="#263238"/>
<path d="M109.286 136.675C108.85 136.675 108.497 136.306 108.497 135.852C108.497 135.398 108.85 135.029 109.286 135.029H129.987C130.423 135.029 130.776 135.398 130.776 135.852C130.776 136.306 130.423 136.675 129.987 136.675H109.286Z" fill="#263238"/>
<g opacity="0.5">
<path d="M109.286 133.708C108.85 133.708 108.497 133.34 108.497 132.885C108.497 132.431 108.85 132.063 109.286 132.063H133.693C134.128 132.063 134.482 132.431 134.482 132.885C134.482 133.34 134.128 133.708 133.693 133.708H109.286Z" fill="white"/>
<path d="M109.286 139.641C108.85 139.641 108.497 139.273 108.497 138.818C108.497 138.364 108.85 137.996 109.286 137.996H123.581C124.016 137.996 124.37 138.364 124.37 138.818C124.37 139.273 124.016 139.641 123.581 139.641H109.286Z" fill="white"/>
<path d="M109.286 136.675C108.85 136.675 108.497 136.306 108.497 135.852C108.497 135.398 108.85 135.029 109.286 135.029H129.987C130.423 135.029 130.776 135.398 130.776 135.852C130.776 136.306 130.423 136.675 129.987 136.675H109.286Z" fill="white"/>
</g>
<path d="M213.193 140.081H202.762C202.246 140.081 201.791 139.645 201.746 139.107L200.387 122.91C200.342 122.372 200.723 121.935 201.239 121.935H211.67C212.186 121.935 212.641 122.372 212.687 122.91L214.046 139.107C214.091 139.645 213.709 140.081 213.193 140.081Z" fill="#A3CD0C"/>
<path d="M213.793 140.081H203.362C202.846 140.081 202.391 139.645 202.346 139.107L200.987 122.91C200.942 122.372 201.323 121.935 201.839 121.935H212.27C212.786 121.935 213.241 122.372 213.287 122.91L214.646 139.107C214.691 139.645 214.309 140.081 213.793 140.081Z" fill="#A3CD0C"/>
<path opacity="0.5" d="M213.793 140.081H203.362C202.846 140.081 202.391 139.645 202.346 139.107L200.987 122.91C200.942 122.372 201.323 121.935 201.839 121.935H212.27C212.786 121.935 213.241 122.372 213.287 122.91L214.646 139.107C214.691 139.645 214.309 140.081 213.793 140.081Z" fill="black"/>
<path opacity="0.6" d="M212.323 122.561H201.892C201.708 122.561 201.571 122.718 201.587 122.91L202.946 139.107C202.963 139.299 203.126 139.455 203.31 139.455H213.741C213.926 139.455 214.063 139.299 214.046 139.107L212.687 122.91C212.671 122.718 212.508 122.561 212.323 122.561Z" fill="white"/>
<path opacity="0.3" d="M214.046 139.107L212.705 123.129L203.077 139.361C203.141 139.419 203.222 139.455 203.309 139.455H213.74C213.925 139.455 214.062 139.299 214.046 139.107Z" fill="white"/>
<path opacity="0.9" d="M210.681 131.008H205.279C204.934 131.008 204.63 130.717 204.6 130.358L204.321 127.032C204.291 126.673 204.546 126.381 204.89 126.381H210.293C210.637 126.381 210.941 126.673 210.971 127.032L211.25 130.358C211.281 130.717 211.026 131.008 210.681 131.008Z" fill="white"/>
<path opacity="0.9" d="M211.167 136.796H205.765C205.42 136.796 205.116 136.505 205.086 136.145L204.807 132.82C204.777 132.461 205.032 132.169 205.376 132.169H210.779C211.123 132.169 211.427 132.461 211.457 132.82L211.736 136.145C211.766 136.505 211.511 136.796 211.167 136.796Z" fill="white"/>
<path d="M205.371 127.718C205.266 127.718 205.174 127.629 205.165 127.52C205.156 127.41 205.233 127.322 205.338 127.322H209.677C209.782 127.322 209.875 127.411 209.884 127.52C209.893 127.629 209.815 127.718 209.71 127.718H205.371Z" fill="#263238"/>
<path d="M205.491 129.146C205.386 129.146 205.294 129.057 205.285 128.948C205.276 128.838 205.353 128.75 205.458 128.75H209.06C209.165 128.75 209.258 128.839 209.267 128.948C209.276 129.057 209.198 129.146 209.093 129.146H205.491Z" fill="#263238"/>
<path d="M205.431 128.432C205.326 128.432 205.234 128.343 205.225 128.234C205.216 128.124 205.293 128.036 205.398 128.036H208.264C208.369 128.036 208.461 128.125 208.47 128.234C208.479 128.343 208.402 128.432 208.297 128.432H205.431Z" fill="#263238"/>
<g opacity="0.5">
<path d="M205.371 127.718C205.266 127.718 205.174 127.629 205.165 127.52C205.156 127.41 205.233 127.322 205.338 127.322H209.677C209.782 127.322 209.875 127.411 209.884 127.52C209.893 127.629 209.815 127.718 209.71 127.718H205.371Z" fill="white"/>
<path d="M205.491 129.146C205.386 129.146 205.294 129.057 205.285 128.948C205.276 128.838 205.353 128.75 205.458 128.75H209.06C209.165 128.75 209.258 128.839 209.267 128.948C209.276 129.057 209.198 129.146 209.093 129.146H205.491Z" fill="white"/>
<path d="M205.431 128.432C205.326 128.432 205.234 128.343 205.225 128.234C205.216 128.124 205.293 128.036 205.398 128.036H208.264C208.369 128.036 208.461 128.125 208.47 128.234C208.479 128.343 208.402 128.432 208.297 128.432H205.431Z" fill="white"/>
</g>
<path d="M205.864 133.589C205.759 133.589 205.666 133.5 205.657 133.391C205.648 133.282 205.726 133.193 205.831 133.193H210.17C210.275 133.193 210.367 133.282 210.376 133.391C210.385 133.501 210.308 133.589 210.203 133.589H205.864Z" fill="#263238"/>
<path d="M205.924 134.303C205.819 134.303 205.726 134.214 205.717 134.105C205.708 133.995 205.786 133.907 205.891 133.907H208.756C208.861 133.907 208.954 133.996 208.963 134.105C208.972 134.214 208.894 134.303 208.789 134.303H205.924Z" fill="#263238"/>
<g opacity="0.5">
<path d="M205.864 133.589C205.759 133.589 205.666 133.5 205.657 133.391C205.648 133.282 205.726 133.193 205.831 133.193H210.17C210.275 133.193 210.367 133.282 210.376 133.391C210.385 133.501 210.308 133.589 210.203 133.589H205.864Z" fill="white"/>
<path d="M205.924 134.303C205.819 134.303 205.726 134.214 205.717 134.105C205.708 133.995 205.786 133.907 205.891 133.907H208.756C208.861 133.907 208.954 133.996 208.963 134.105C208.972 134.214 208.894 134.303 208.789 134.303H205.924Z" fill="white"/>
</g>
<path d="M222.52 112.157C222.619 111.796 222.516 111.447 222.289 111.38C222.062 111.312 221.798 111.55 221.699 111.913C221.6 112.274 221.703 112.623 221.93 112.69C222.157 112.757 222.421 112.519 222.52 112.157Z" fill="#263238"/>
<path d="M222.065 112.706L219.415 114.478C219.415 114.478 219.941 115.479 221.245 115.6L222.065 112.706Z" fill="#DE5753"/>
<path d="M234.388 116.088C232.61 120.464 231.947 122.36 229.003 123.858C224.901 124.976 219.802 122.877 220.292 118.032C220.732 113.672 223.559 107.264 228.373 107.007C231.804 106.824 234.727 109.578 234.902 113.156C234.951 114.162 234.775 115.166 234.388 116.088Z" fill="#E4897B"/>
<path d="M223.362 111.486C223.295 111.464 223.241 111.41 223.218 111.341C223.076 110.8 222.692 110.363 222.188 110.169C222.078 110.134 222.014 110.014 222.046 109.899C222.079 109.783 222.194 109.715 222.307 109.745C222.947 109.981 223.439 110.526 223.624 111.208C223.664 111.32 223.609 111.443 223.503 111.484C223.499 111.485 223.496 111.487 223.493 111.488C223.451 111.504 223.404 111.504 223.362 111.486Z" fill="#263238"/>
<path opacity="0.2" d="M224.609 121.801C224.609 121.801 221.558 122.448 220.352 119.668C220.762 121.899 222.54 123.321 224.681 123.878L225.416 123.343L225.019 122.211L224.609 121.801Z" fill="black"/>
<path d="M230.156 129.061C230.156 129.061 227.519 127.715 229.42 122.472C229.42 122.472 227.315 120.294 225.126 121.218C222.937 122.142 224.774 126.971 222.198 127.716C222.198 127.716 223.543 129.657 230.156 129.061Z" fill="#E4897B"/>
<path d="M222.409 111.455C222.409 111.455 222.029 111.387 221.767 110.943C221.767 110.943 221.806 111.438 222.311 111.627L222.409 111.455Z" fill="#263238"/>
<path d="M220.942 127.931C220.942 127.931 222.517 125.374 226.754 125.882C230.992 126.39 230.157 129.06 230.157 129.06L220.942 127.931Z" fill="#A3CD0C"/>
<path opacity="0.3" d="M220.942 127.931C220.942 127.931 222.517 125.374 226.754 125.882C230.992 126.39 230.157 129.06 230.157 129.06L220.942 127.931Z" fill="white"/>
<path d="M224.355 114.899C224.355 114.899 224.369 113.166 225.582 111.285C226.795 109.405 226.109 108.188 226.177 106.998C226.246 105.807 232.096 104.607 234.346 108.675C234.346 108.675 238.396 112.324 235.546 116.704C232.696 121.084 231.545 124.429 228.095 123.878C224.645 123.327 226.605 117.376 224.355 114.899Z" fill="#263238"/>
<path opacity="0.4" d="M234.346 108.675C233.319 106.819 231.544 106.067 229.91 105.903C229.016 107.982 231.379 110.285 231.379 110.285C231.379 110.285 227.908 111.177 228.461 114.14C229.015 117.104 233.056 115.544 233.056 115.544C233.056 115.544 230.507 118.12 232.375 119.645C232.783 119.978 233.174 120.042 233.539 119.954C234.137 118.982 234.78 117.883 235.546 116.705C238.396 112.325 234.346 108.675 234.346 108.675Z" fill="black"/>
<path d="M234.346 108.675C234.089 108.212 233.782 107.825 233.446 107.491C231.863 108.338 230.779 110.053 230.779 112.035C230.779 116.25 234.359 117.047 235.278 117.124C235.367 116.985 235.453 116.847 235.545 116.705C238.396 112.325 234.346 108.675 234.346 108.675Z" fill="#A3CD0C"/>
<path d="M224.647 113.524C223.889 114.088 223.378 114.943 223.226 115.901C223.034 117.173 224.162 117.671 225.24 117.203C226.216 116.78 227.48 115.607 227.18 114.382C226.879 113.157 225.582 112.846 224.647 113.524Z" fill="#E4897B"/>
<path d="M232.851 110.619C232.851 110.619 229.741 107.012 232.346 104.921C234.446 103.235 236.063 107.502 236.063 107.502C236.063 107.502 235.721 102.731 238.946 103.278C242.2 103.831 240.221 107.971 240.221 107.971C240.221 107.971 243.071 106.094 244.271 108.128C245.471 110.161 241.978 111.5 241.978 111.5C241.978 111.5 245.921 113.924 244.046 115.601C242.171 117.279 240.371 115.275 240.371 115.275C240.371 115.275 241.496 118.53 239.396 119.043C237.494 119.508 236.921 116.497 236.921 116.497C236.921 116.497 235.496 120.095 233.771 118.687C232.046 117.279 233.846 114.899 233.846 114.899C233.846 114.899 230.668 116.34 230.156 113.603C229.646 110.865 232.851 110.619 232.851 110.619Z" fill="#263238"/>
<path d="M238.271 139.388C238.271 139.388 243.977 152.177 241.229 153.335C238.481 154.494 230.098 156.464 230.098 156.464L226.063 157.986L223.724 156.4L224.318 152.299L230.222 153.643L237.305 150.334L233.959 142.563L238.271 139.388Z" fill="#E4897B"/>
<path d="M235.549 132.525C235.738 132.303 236.087 132.367 236.2 132.64C237.509 135.798 243.658 150.97 241.942 153.179C240.665 154.822 234.493 155.682 234.493 155.682L233.18 152.006L236.923 150.207L232.711 140.199C232.711 140.199 232.265 136.37 235.549 132.525Z" fill="#A3CD0C"/>
<path opacity="0.2" d="M232.711 140.198L234.956 145.535C236.816 133.997 235.549 132.525 235.549 132.525C232.265 136.37 232.711 140.198 232.711 140.198Z" fill="black"/>
<path d="M233.584 242.057L236.802 253.464L240.068 253.266L239.376 240.882L233.584 242.057Z" fill="#E4897B"/>
<path d="M216.656 157.601C216.656 157.601 212.687 165.924 216.503 181.227C220.319 196.531 235.589 249.848 235.589 249.848L239.889 249.309C239.889 249.309 240.16 230.177 234.11 214.738C234.11 214.738 231.208 188.491 232.621 182.321C233.609 178.007 234.211 174.402 232.505 167.87C231.541 164.179 230.61 161.529 229.75 159.742C228.626 157.409 228.958 156.512 228.958 156.512L216.656 157.601Z" fill="#263238"/>
<path opacity="0.5" d="M235.589 249.848L239.89 249.309C239.89 249.309 239.899 248.569 239.871 247.277L235.049 247.96C235.396 249.173 235.589 249.848 235.589 249.848Z" fill="black"/>
<path opacity="0.4" d="M221.737 200.731C227.254 184.741 225.735 173.14 225.735 173.14L222.285 172.67L219.585 177.676L217.703 185.878C218.772 189.929 220.179 195.093 221.737 200.731Z" fill="black"/>
<path d="M236.718 253.136L240.599 252.571C240.768 252.549 240.929 252.653 240.986 252.82L242.837 256.52C242.95 256.847 242.788 257.208 242.474 257.326C242.434 257.341 242.392 257.352 242.35 257.358C240.731 257.533 239.284 257.622 237.273 257.878C234.899 258.178 235.536 258.398 232.751 258.792C231.072 259.027 230.533 257.073 231.235 256.885C234.448 256.045 234.667 254.975 235.784 253.598C236.03 253.33 236.363 253.166 236.718 253.136Z" fill="#263238"/>
<path d="M234.644 249.019L240.604 248.238L240.512 250.09L235.255 250.769L234.644 249.019Z" fill="#263238"/>
<path d="M217.105 242.828L218.51 254.195H221.81L222.66 243.037L217.105 242.828Z" fill="#E4897B"/>
<path d="M211.408 156.323C211.408 156.323 211.359 157.311 210.608 159.304C209.267 162.865 207.001 169.631 208.124 179.701C209.875 195.409 217.931 250.414 217.931 250.414H222.268C222.268 250.414 225.238 231.722 221.732 215.256C221.732 215.256 220.49 192.076 222.34 186.033C223.628 181.826 227.272 177.754 226.338 168.865C225.404 159.976 223.142 156.932 223.142 156.932L211.408 156.323Z" fill="#263238"/>
<path opacity="0.5" d="M217.633 248.37C217.824 249.68 217.931 250.415 217.931 250.415H222.268C222.268 250.415 222.385 249.672 222.544 248.37H217.633Z" fill="black"/>
<path d="M218.438 253.84L222.299 253.925C222.467 253.928 222.611 254.053 222.644 254.224L223.384 258.024C223.452 258.361 223.246 258.691 222.923 258.762C222.881 258.77 222.839 258.775 222.797 258.775C221.189 258.715 219.761 258.596 217.759 258.561C215.396 258.516 215.99 258.822 213.212 258.811C211.538 258.802 211.266 256.813 211.978 256.728C215.233 256.364 216.188 255.347 217.462 254.159C217.739 253.932 218.086 253.818 218.438 253.84Z" fill="#263238"/>
<path d="M217.105 249.457H223.117L222.781 251.278H217.478L217.105 249.457Z" fill="#263238"/>
<path d="M232.642 164.207C226.489 155.369 237.217 135.737 235.96 132.065C234.704 128.393 215.167 122.284 212.6 132.691C210.033 143.098 211.396 150.221 211.01 154.744C210.442 161.392 207.817 164.051 207.817 164.051C207.817 164.051 221.392 169.369 232.642 164.207Z" fill="#A3CD0C"/>
<path opacity="0.2" d="M211.24 140.775C210.91 144.347 210.974 147.39 211.037 149.944C218.305 141.158 216.696 132.844 216.696 132.844L216.105 133.235L213.48 135.503C213.48 135.503 212.438 137.835 211.24 140.775Z" fill="black"/>
<path d="M199.908 139.462C199.908 139.462 201.943 150.534 204.265 152.455C206.587 154.376 214.613 140.686 214.613 140.686L210.646 138.212L205.145 145.925L201.898 137.985L202.541 133.75L201.483 131.153C201.134 130.505 200.226 130.545 199.932 131.224L198.732 133.994C198.481 134.574 198.455 135.232 198.661 135.831L199.908 139.462Z" fill="#E4897B"/>
<path d="M205.141 145.221L203.241 140.424L200.707 144.337C200.707 144.337 201.966 153.677 205.191 152.808C208.271 151.977 215.234 141.051 216.741 136.838C218.248 132.625 216.209 128.52 216.209 128.52C216.209 128.52 213.741 127.852 210.568 135.615C207.841 142.286 205.141 145.221 205.141 145.221Z" fill="#A3CD0C"/>
<path d="M74.7606 124.004C74.0778 123.403 73.0338 123.619 72.6 124.434C70.164 129.01 63.1674 142.838 65.3958 146.686C68.079 151.32 80.8212 150.949 80.8212 150.949L81.4362 147.017L73.2588 142.604C73.2588 142.604 75.7788 137.362 76.5456 135.579C77.7264 132.838 79.4832 128.163 74.7606 124.004Z" fill="#263238"/>
<path opacity="0.4" d="M73.2594 142.604C73.2594 142.604 75.7788 137.362 76.5468 135.579C77.3988 133.599 78.5514 130.608 77.3454 127.534L75.258 125.224L73.2594 125.883C73.2594 125.883 69.2082 146.249 73.2726 150.427C74.664 150.654 76.0386 150.787 77.226 150.862C78.654 149.997 79.6956 148.13 80.385 146.45L73.2594 142.604Z" fill="black"/>
<path d="M86.7324 104.735C86.6196 104.322 86.7372 103.926 86.9958 103.848C87.2544 103.771 87.5556 104.043 87.669 104.455C87.7818 104.868 87.6642 105.265 87.405 105.342C87.147 105.42 86.8458 105.148 86.7324 104.735Z" fill="#263238"/>
<path d="M87.2526 105.362L90.2748 107.383C90.2748 107.383 89.6748 108.525 88.1868 108.663L87.2526 105.362Z" fill="#A24E3F"/>
<path d="M73.1946 109.22C75.2226 114.212 75.9792 116.375 79.3368 118.083C84.0162 119.359 89.8338 116.964 89.2746 111.437C88.7736 106.463 85.5486 99.1526 80.0568 98.8585C76.1424 98.6508 72.807 101.792 72.6078 105.874C72.5514 107.022 72.7524 108.167 73.1946 109.22Z" fill="#B97964"/>
<path d="M85.7724 103.969C85.8492 103.944 85.9104 103.883 85.9362 103.804C86.0982 103.186 86.5356 102.688 87.1116 102.466C87.237 102.427 87.309 102.29 87.2742 102.159C87.2358 102.026 87.1044 101.949 86.976 101.984C86.2452 102.253 85.6848 102.875 85.4724 103.653C85.4274 103.779 85.4892 103.921 85.611 103.967C85.6146 103.969 85.6188 103.971 85.6224 103.972C85.671 103.989 85.7244 103.989 85.7724 103.969Z" fill="#263238"/>
<path opacity="0.2" d="M84.3498 115.737C84.3498 115.737 87.831 116.475 89.2068 113.304C88.7394 115.849 86.7102 117.471 84.2676 118.107L83.4288 117.496L83.8824 116.205L84.3498 115.737Z" fill="black"/>
<path d="M77.6064 125.078C77.6064 125.078 80.9652 123.363 78.5442 116.686C78.5442 116.686 81.2256 113.911 84.0138 115.088C86.8014 116.265 84.4614 122.416 87.7428 123.364C87.7428 123.364 86.0292 125.838 77.6064 125.078Z" fill="#B97964"/>
<path d="M78.2418 121.715C78.2418 121.715 77.634 119.442 81.363 118.489C85.0914 117.536 88.1916 118.706 88.6884 120.41C89.1852 122.114 78.2418 121.715 78.2418 121.715Z" fill="#263238"/>
<path opacity="0.2" d="M78.2418 121.715C78.2418 121.715 77.634 119.442 81.363 118.489C85.0914 117.536 88.1916 118.706 88.6884 120.41C89.1852 122.114 78.2418 121.715 78.2418 121.715Z" fill="white"/>
<path d="M85.7736 107.993C85.7736 107.993 86.9976 106.933 85.7736 105.761C84.5496 104.589 82.7598 103.591 83.2866 101.975C83.8134 100.36 81.4164 99.2427 81.4164 99.2427C81.4164 99.2427 83.7624 97.6471 82.3854 96.3707C80.9688 95.0573 80.385 97.4876 77.0808 98.8491C73.2762 100.417 69.0222 104.19 71.6232 109.136C74.2242 114.083 76.5198 118.231 79.6308 117.433C82.7418 116.636 84.2214 110.359 84.2214 110.359L85.7736 107.993Z" fill="#263238"/>
<path d="M84.918 106.294C85.7826 106.937 86.3664 107.913 86.5398 109.006C86.7594 110.457 85.4712 111.025 84.2424 110.491C83.1288 110.008 81.6864 108.67 82.029 107.272C82.3716 105.875 83.8524 105.52 84.918 106.294Z" fill="#B97964"/>
<path d="M92.2386 245.572L93.4188 253.918L98.2338 253.734L98.5956 245.096L92.2386 245.572Z" fill="#B97964"/>
<path d="M97.968 253.139L93.2226 253.243C93.0162 253.247 92.8392 253.4 92.7978 253.611L91.8882 258.282C91.8048 258.695 92.0586 259.101 92.4552 259.188C92.5062 259.2 92.5584 259.205 92.61 259.205C94.5858 259.131 96.3414 258.985 98.802 258.941C101.706 258.887 100.975 259.263 104.39 259.249C106.447 259.238 106.781 256.793 105.907 256.689C101.906 256.241 100.732 254.992 99.1662 253.531C98.8266 253.252 98.4 253.113 97.968 253.139Z" fill="#263238"/>
<path d="M68.7672 245.572L68.4552 252.968L73.4538 253.651L75.1236 245.096L68.7672 245.572Z" fill="#B97964"/>
<path d="M73.1634 252.312L68.4264 252.001C68.22 251.987 68.0322 252.124 67.9734 252.331L66.6918 256.905C66.5754 257.31 66.7956 257.737 67.1838 257.858C67.2336 257.874 67.2852 257.884 67.3368 257.888C69.3114 257.988 71.0724 257.995 73.5282 258.167C76.4262 258.366 75.6678 258.677 79.0716 258.961C81.1224 259.13 81.6516 256.722 80.7888 256.543C76.8378 255.747 75.7686 254.4 74.3256 252.807C74.01 252.5 73.596 252.323 73.1634 252.312Z" fill="#263238"/>
<path d="M80.2272 147.222L83.1696 147.96L88.1508 146.647L88.9554 148.941L89.5746 152.156L85.6128 152.863L82.3578 150.817L78.2052 150.729L80.2272 147.222Z" fill="#B97964"/>
<path d="M73.1874 124.84L75.618 160.464L101.732 160.677C101.732 160.677 104.918 150.838 100.981 136.901L97.1346 123.457C96.8112 122.326 95.9424 121.456 94.8432 121.173C90.9714 120.177 81.558 118.985 74.2122 122.942C73.5384 123.304 73.134 124.05 73.1874 124.84Z" fill="#263238"/>
<path d="M75.0306 160.745C73.5678 167.806 73.1844 172.753 73.2048 176.057C73.212 177.226 73.2696 178.19 73.3476 178.968C73.5828 181.31 73.665 183.668 73.5252 186.019L73.4892 186.624C73.0866 193.405 73.017 200.334 73.0278 204.901C73.0278 204.933 73.0278 204.965 73.0278 204.997C73.0356 207.995 72.5856 210.966 71.6928 213.799C71.5536 214.241 71.4198 214.693 71.2908 215.155C67.6014 228.352 67.917 249.416 67.917 249.416L75.0762 249.836L94.7784 159.455H76.494C75.7914 159.454 75.1872 159.991 75.0306 160.745Z" fill="#A3CD0C"/>
<path opacity="0.2" d="M85.7346 174.438L83.2824 173.849L81.768 171.935C81.768 171.935 81.9216 186.243 85.899 200.184L89.7756 182.401L85.7346 174.438Z" fill="black"/>
<path d="M67.2834 247.963L67.3884 250.162L75.537 250.51L75.8988 248.279L67.2834 247.963Z" fill="#A3CD0C"/>
<path opacity="0.3" d="M67.2834 247.963L67.3884 250.162L75.537 250.51L75.8988 248.279L67.2834 247.963Z" fill="black"/>
<path d="M82.2228 159.453C80.5518 169.9 81.5808 175.856 82.692 178.971C82.8006 179.276 82.9098 179.553 83.0178 179.805C83.826 181.692 84.3984 183.687 84.6564 185.754C84.6684 185.852 84.681 185.949 84.6936 186.047C85.7262 194.152 87.7044 202.655 88.8924 207.364C88.8984 207.387 88.9038 207.41 88.9098 207.433C89.4324 209.502 89.586 211.663 89.3052 213.787C89.2134 214.481 89.1432 215.225 89.0922 216.011C88.3032 228.175 92.1378 250.348 92.1378 250.348L99.1452 249.675L102.208 160.508C102.228 159.932 101.809 159.453 101.285 159.453H82.2228Z" fill="#A3CD0C"/>
<path d="M91.2318 249.229L91.8306 251.375L99.7044 250.662L99.8196 248.399L91.2318 249.229Z" fill="#A3CD0C"/>
<path opacity="0.3" d="M91.2318 249.229L91.8306 251.375L99.7044 250.662L99.8196 248.399L91.2318 249.229Z" fill="black"/>
<g opacity="0.7">
<path d="M95.5932 160.97H82.3644V162.885H95.5932V160.97Z" fill="white"/>
<path d="M80.6154 160.97H75.534L75.2574 162.885H80.6154V160.97Z" fill="white"/>
<path d="M101.41 160.97H97.3788V162.885H101.41V160.97Z" fill="white"/>
</g>
<path opacity="0.4" d="M100.981 136.901L98.904 129.642L97.4832 127.575L95.6472 126.103L94.7784 128.337C94.7784 128.337 95.3142 135.36 101.837 140.378C101.599 139.251 101.317 138.092 100.981 136.901Z" fill="black"/>
<path d="M113.438 124.827L114.702 121.959L114.478 117.499C114.449 116.928 114.633 116.367 114.991 115.935L115.722 115.052C116.573 114.025 118.101 114.03 118.945 115.063L119.364 115.574C119.704 115.991 119.884 116.522 119.871 117.069L119.809 119.587C119.795 120.118 119.6 120.626 119.258 121.019L117.233 123.343L116.345 127.574L113.438 124.827Z" fill="#B97964"/>
<path d="M97.0146 121.846L109.336 132.19L113.642 123.5L117.34 125.114C117.34 125.114 114.707 140.543 111.337 140.79C107.968 141.037 99.5364 136.875 96.0648 131.928C93.5406 128.331 94.6872 124.213 95.5008 122.234C95.7564 121.612 96.5094 121.422 97.0146 121.846Z" fill="#263238"/>
</svg>
