<svg width="301" height="302" viewBox="0 0 301 302" fill="none" xmlns="http://www.w3.org/2000/svg">
<path d="M247.173 184.306C246.283 185.829 245.373 187.313 244.443 188.771C243.861 189.684 243.278 190.583 242.682 191.469C241.687 192.946 240.679 194.385 239.644 195.796C239.611 195.842 239.579 195.882 239.546 195.927C239.081 196.564 238.603 197.195 238.132 197.818C237.706 198.376 237.281 198.921 236.849 199.466C236.665 199.696 236.482 199.926 236.299 200.149C236.227 200.248 236.148 200.339 236.07 200.438C235.716 200.884 235.356 201.324 234.99 201.757C234.505 202.342 234.021 202.913 233.53 203.484C233.085 203.996 232.639 204.508 232.188 205.014C231.952 205.276 231.723 205.533 231.487 205.789C231.028 206.301 230.564 206.8 230.092 207.299C229.555 207.877 229.012 208.441 228.469 209C228.449 209.013 228.436 209.033 228.423 209.045C227.899 209.577 227.369 210.109 226.839 210.627C226.053 211.396 225.267 212.15 224.469 212.892C223.48 213.811 222.478 214.71 221.47 215.584C221.444 215.604 221.418 215.63 221.392 215.656C220.227 216.661 219.055 217.632 217.863 218.578C216.037 220.035 214.184 221.42 212.299 222.74C211.67 223.18 211.042 223.613 210.407 224.04C209.163 224.88 207.906 225.688 206.636 226.469C206.597 226.489 206.557 226.515 206.518 226.541C205.903 226.916 205.288 227.29 204.666 227.658C204.626 227.677 204.58 227.697 204.541 227.723C203.271 228.472 201.988 229.194 200.692 229.883C200.233 230.126 199.782 230.369 199.324 230.605C199.056 230.743 198.787 230.881 198.525 231.012C197.916 231.327 197.308 231.629 196.692 231.925C195.35 232.581 194.002 233.205 192.64 233.803C191.959 234.098 191.272 234.394 190.591 234.676C189.903 234.965 189.223 235.24 188.529 235.517C187.841 235.785 187.154 236.048 186.46 236.311C185.825 236.547 185.183 236.777 184.542 237.007C184.312 237.092 184.077 237.171 183.847 237.25C183.33 237.434 182.806 237.604 182.283 237.782C181.582 238.012 180.882 238.242 180.181 238.458C180.168 238.465 180.148 238.472 180.136 238.472C178.146 239.096 176.149 239.66 174.133 240.172C172.012 240.723 169.878 241.203 167.737 241.629V241.636C137.557 247.709 105.589 242.752 78.9777 230.416C78.2901 230.094 77.6031 229.766 76.9287 229.424C76.5885 229.253 76.2477 229.083 75.9141 228.905C75.0435 228.459 74.1795 227.986 73.3281 227.494C72.9351 227.277 72.5493 227.047 72.1629 226.818C71.8551 226.64 71.5539 226.457 71.2527 226.266C70.9971 226.115 70.7355 225.95 70.4805 225.787C70.1925 225.609 69.9045 225.426 69.6165 225.235C67.7901 224.053 66.0093 222.786 64.2873 221.447C63.9537 221.19 63.6261 220.935 63.3051 220.672C63.0825 220.494 62.8599 220.311 62.6373 220.126C62.3559 219.897 62.0811 219.667 61.7991 219.431C61.2099 218.932 60.6273 218.427 60.0513 217.901C59.8743 217.75 59.7111 217.599 59.5407 217.435C59.2851 217.212 59.0367 216.982 58.7877 216.745C57.7335 215.754 56.7057 214.736 55.7175 213.686C55.5405 213.502 55.3641 213.312 55.1871 213.122C53.8581 211.697 52.5879 210.22 51.3837 208.704C51.0627 208.303 50.7549 207.903 50.4477 207.495C49.4721 206.228 48.5493 204.922 47.6655 203.596C47.4165 203.215 47.1681 202.834 46.9257 202.454C46.0875 201.141 45.3021 199.808 44.5491 198.449C44.3133 198.015 44.0775 197.575 43.8489 197.136C43.6461 196.741 43.4433 196.348 43.2465 195.954C42.5331 194.529 41.8719 193.085 41.2629 191.614C41.1057 191.233 40.9485 190.846 40.7979 190.459C39.9339 188.266 39.1809 186.027 38.5521 183.743C38.4537 183.395 38.3625 183.046 38.2707 182.699C38.2641 182.666 38.2575 182.633 38.2443 182.6C38.1789 182.331 38.1069 182.068 38.0481 181.799C37.9497 181.398 37.8519 180.998 37.7667 180.597C37.6683 180.158 37.5705 179.718 37.4853 179.285C37.3743 178.739 37.2693 178.188 37.1775 177.636C37.0923 177.164 37.0137 176.691 36.9417 176.212C36.8631 175.719 36.7977 175.227 36.7323 174.734C35.0889 162.063 37.6029 147.869 44.4117 136.695C45.3543 135.145 46.3755 133.661 47.4819 132.243C48.8241 130.523 50.2839 128.908 51.8679 127.417C51.9333 127.345 52.0053 127.28 52.0773 127.221C54.6699 124.805 57.5895 122.723 60.8301 121.063C61.5831 120.682 62.3229 120.307 63.0495 119.94C64.4769 119.231 65.8581 118.555 67.2129 117.911C67.6317 117.714 68.0445 117.517 68.4567 117.333C68.5221 117.3 68.5809 117.268 68.6403 117.241C69.5829 116.801 70.5063 116.381 71.4159 115.974C73.1247 115.206 74.7741 114.49 76.3719 113.82C76.7781 113.65 77.1771 113.485 77.5767 113.322C78.7815 112.823 79.9599 112.343 81.1185 111.89C81.9957 111.542 82.8597 111.207 83.7177 110.886C83.8161 110.847 83.9205 110.807 84.0189 110.768C84.7851 110.479 85.544 110.197 86.2905 109.921C89.2496 108.818 92.0775 107.82 94.8273 106.848C109.518 101.648 122.199 97.1252 142.336 81.8477C160.752 67.8831 182.192 56.0396 206.022 58.068C236.13 60.6283 262.08 78.4799 265.053 109.987C267.337 134.121 259.271 163.606 247.173 184.306Z" fill="#A3CD0C"/>
<path opacity="0.7" d="M247.173 184.306C246.283 185.829 245.373 187.313 244.443 188.771C243.861 189.684 243.278 190.583 242.682 191.469C241.687 192.946 240.679 194.385 239.644 195.796C239.611 195.842 239.579 195.882 239.546 195.927C239.081 196.564 238.603 197.195 238.132 197.818C237.706 198.376 237.281 198.921 236.849 199.466C236.665 199.696 236.482 199.926 236.299 200.149C236.227 200.248 236.148 200.339 236.07 200.438C235.716 200.884 235.356 201.324 234.99 201.757C234.505 202.342 234.021 202.913 233.53 203.484C233.085 203.996 232.639 204.508 232.188 205.014C231.952 205.276 231.723 205.533 231.487 205.789C231.028 206.301 230.564 206.8 230.092 207.299C229.555 207.877 229.012 208.441 228.469 209C228.449 209.013 228.436 209.033 228.423 209.045C227.899 209.577 227.369 210.109 226.839 210.627C226.053 211.396 225.267 212.15 224.469 212.892C223.48 213.811 222.478 214.71 221.47 215.584C221.444 215.604 221.418 215.63 221.392 215.656C220.227 216.655 219.048 217.632 217.863 218.578C216.037 220.035 214.184 221.42 212.299 222.74C211.67 223.18 211.042 223.613 210.407 224.04C209.163 224.874 207.906 225.681 206.636 226.469C206.597 226.489 206.557 226.515 206.518 226.541C205.903 226.916 205.288 227.29 204.666 227.658C204.626 227.677 204.58 227.697 204.541 227.723C203.271 228.472 201.982 229.194 200.692 229.883C200.233 230.126 199.782 230.369 199.324 230.605C199.056 230.743 198.787 230.881 198.525 231.012C197.916 231.327 197.308 231.629 196.692 231.925C195.35 232.581 193.995 233.205 192.64 233.803C191.959 234.098 191.272 234.394 190.591 234.676C189.903 234.965 189.223 235.24 188.529 235.517C187.841 235.785 187.154 236.048 186.46 236.311C185.825 236.547 185.183 236.777 184.542 237.007C184.312 237.092 184.077 237.171 183.847 237.25C183.33 237.434 182.806 237.604 182.283 237.782C181.582 238.012 180.882 238.242 180.181 238.458C180.168 238.465 180.148 238.472 180.136 238.472C178.146 239.096 176.149 239.66 174.133 240.172C172.012 240.723 169.878 241.203 167.737 241.629V241.636C137.557 247.709 105.589 242.752 78.9777 230.416C78.2901 230.094 77.6031 229.766 76.9287 229.424C76.5885 229.253 76.2477 229.083 75.9141 228.905C75.0435 228.459 74.1795 227.986 73.3281 227.494C72.9351 227.277 72.5493 227.047 72.1629 226.818C71.8551 226.64 71.5539 226.457 71.2527 226.266C70.9971 226.115 70.7355 225.95 70.4805 225.787C70.1925 225.609 69.9045 225.426 69.6165 225.235C67.7901 224.053 66.0093 222.786 64.2873 221.447C63.9537 221.19 63.6261 220.935 63.3051 220.672C63.0825 220.494 62.8599 220.311 62.6373 220.126C62.3559 219.897 62.0811 219.667 61.7991 219.431C61.2099 218.932 60.6273 218.427 60.0513 217.901C59.8743 217.75 59.7111 217.599 59.5407 217.435C59.2851 217.212 59.0367 216.982 58.7877 216.745C57.7335 215.754 56.7057 214.736 55.7175 213.686C55.5405 213.502 55.3641 213.312 55.1871 213.122C53.8581 211.697 52.5879 210.22 51.3837 208.704C51.0627 208.303 50.7549 207.903 50.4477 207.495C49.4721 206.228 48.5493 204.922 47.6655 203.596C47.4165 203.215 47.1681 202.834 46.9257 202.454C46.0875 201.141 45.3021 199.808 44.5491 198.449C44.3133 198.015 44.0775 197.575 43.8489 197.136C43.6461 196.741 43.4433 196.348 43.2465 195.954C42.5331 194.529 41.8719 193.085 41.2629 191.614C41.1057 191.233 40.9485 190.846 40.7979 190.459C39.9339 188.266 39.1809 186.027 38.5521 183.743C38.4537 183.395 38.3625 183.046 38.2707 182.699C38.2641 182.666 38.2575 182.633 38.2443 182.6C38.1789 182.331 38.1069 182.068 38.0481 181.799C37.9497 181.398 37.8519 180.998 37.7667 180.597C37.6683 180.158 37.5705 179.718 37.4853 179.285C37.3743 178.739 37.2693 178.188 37.1775 177.636C37.0923 177.164 37.0137 176.691 36.9417 176.212C36.8631 175.719 36.7977 175.227 36.7323 174.734C35.0889 162.063 37.6029 147.869 44.4117 136.695C45.3543 135.145 46.3755 133.661 47.4819 132.243C48.8241 130.523 50.2839 128.908 51.8679 127.417C51.9333 127.345 52.0053 127.28 52.0773 127.221C54.6699 124.805 57.5895 122.723 60.8301 121.063C61.5831 120.682 62.3229 120.307 63.0495 119.94C64.4769 119.231 65.8581 118.555 67.2129 117.911C67.6317 117.714 68.0445 117.517 68.4567 117.333C68.5221 117.3 68.5809 117.268 68.6403 117.241C69.5829 116.801 70.5063 116.381 71.4159 115.974C73.1247 115.206 74.7741 114.49 76.3719 113.82C76.7781 113.65 77.1771 113.485 77.5767 113.322C78.7815 112.823 79.9599 112.343 81.1185 111.89C81.9957 111.542 82.8597 111.207 83.7177 110.886C83.8161 110.847 83.9205 110.807 84.0189 110.768C84.7851 110.479 85.544 110.197 86.2905 109.921C89.2496 108.818 92.0775 107.82 94.8273 106.848C109.518 101.648 122.199 97.1252 142.336 81.8477C160.752 67.8831 182.192 56.0396 206.022 58.068C236.13 60.6283 262.08 78.4799 265.053 109.987C267.337 134.121 259.271 163.606 247.173 184.306Z" fill="white"/>
<path d="M239.645 195.793C223.536 217.769 202.663 231.451 180.182 238.457C180.168 238.464 180.149 238.47 180.135 238.47C178.148 239.094 176.148 239.656 174.135 240.171C172.013 240.72 169.878 241.202 167.736 241.628V241.635C137.559 247.706 105.591 242.753 78.9747 230.413C64.0551 223.494 51.4263 211.656 43.8447 197.134C51.5481 191.611 65.9265 186.373 90.5967 193.068C132.909 204.547 165.344 231.66 193.507 211.893C213.44 197.908 228.05 193.042 239.645 195.793Z" fill="#A3CD0C"/>
<path d="M150.234 285.166C194.545 285.166 230.467 280.983 230.467 275.824C230.467 270.665 194.545 266.483 150.234 266.483C105.923 266.483 70.0015 270.665 70.0015 275.824C70.0015 280.983 105.923 285.166 150.234 285.166Z" fill="#A3CD0C"/>
<path opacity="0.5" d="M150.234 285.166C194.545 285.166 230.467 280.983 230.467 275.824C230.467 270.665 194.545 266.483 150.234 266.483C105.923 266.483 70.0015 270.665 70.0015 275.824C70.0015 280.983 105.923 285.166 150.234 285.166Z" fill="white"/>
<path d="M220.94 190.233C220.928 190.221 220.916 190.209 220.903 190.19C220.854 190.128 220.804 190.065 220.767 190.003C220.674 189.892 220.593 189.786 220.513 189.687C220.513 189.687 220.513 189.681 220.507 189.681L217.85 186.979C217.832 186.961 217.807 186.942 217.788 186.923L208.852 177.849C208.821 177.818 208.796 177.787 208.772 177.756C208.313 177.216 204.969 173.229 203.532 170.999C203.514 170.974 203.501 170.949 203.489 170.924C203.347 170.707 203.223 170.502 203.13 170.328C202.956 170.005 202.703 169.645 202.386 169.266C202.362 169.241 202.337 169.216 202.325 169.191C200.913 167.533 198.342 165.484 195.995 164.198C195.958 164.18 195.921 164.161 195.884 164.142C195.376 163.869 194.886 163.633 194.416 163.441C194.385 163.428 194.348 163.409 194.317 163.397C194.317 163.397 195.785 162.696 195.624 160.894C195.618 160.844 195.611 160.795 195.599 160.745C195.599 160.708 195.593 160.67 195.581 160.633C195.575 160.602 195.568 160.571 195.562 160.547C195.184 159.037 193.283 156.988 191.586 155.814C191.444 155.721 191.301 155.628 191.159 155.535C191.029 155.448 190.905 155.374 190.781 155.311C190.725 155.28 190.676 155.249 190.62 155.218H190.614V155.212L190.144 150.678H189.326L189.085 147.883C189.085 147.883 189.104 146.784 189.147 145.026C189.153 144.933 189.153 144.839 189.159 144.746C189.264 140.529 189.512 132.934 189.958 127.506V127.487C190.602 119.581 191.543 110.793 191.897 105.974C191.903 105.924 191.903 105.875 191.909 105.825C191.909 105.794 191.909 105.769 191.915 105.738C191.934 105.464 191.958 105.191 191.977 104.924C192.002 104.682 192.02 104.44 192.039 104.204C192.342 100.751 192.714 97.5771 192.175 96.192C192.07 95.9062 191.921 95.695 191.723 95.571C190.633 94.8881 188.924 99.2848 187.636 103.589V103.595C187.388 104.433 187.153 105.278 186.942 106.073C186.911 106.178 186.881 106.284 186.849 106.396C185.914 109.948 183.672 118.699 182.427 125.636C181.845 128.847 181.486 131.673 181.566 133.412C181.56 133.418 181.56 133.43 181.566 133.443C181.839 139.002 182.223 139.48 183.579 143.684C184.867 147.678 185.133 150.199 185.158 150.441V150.46L184.514 150.578L183.994 150.677L183.579 153.317C183.579 153.317 182.13 153.249 180.848 153.87C180.39 154.081 179.95 154.392 179.61 154.814L179.585 154.808C179.511 154.789 179.3 154.74 178.966 154.671C178.966 154.671 178.96 154.665 178.953 154.671C178.13 154.51 176.582 154.268 174.587 154.212C173.144 154.18 171.472 154.243 169.676 154.516C169.658 154.516 169.639 154.522 169.62 154.522C164.697 155.28 160.387 156.876 158.826 157.826C158.771 157.857 158.721 157.888 158.672 157.919C158.672 157.919 158.666 157.919 158.666 157.925C158.61 157.957 158.554 157.993 158.505 158.043C158.48 158.056 158.449 158.081 158.424 158.105C158.406 158.118 158.387 158.13 158.369 158.149C158.35 158.167 158.325 158.186 158.307 158.211C158.282 158.235 158.264 158.254 158.245 158.279C157.749 158.876 157.341 160.267 157.192 161.707V161.732C157.099 162.651 157.112 163.589 157.285 164.346C157.316 164.502 157.359 164.638 157.403 164.756C157.409 164.775 157.409 164.781 157.409 164.781L163.323 165.129L166.029 165.29L169.676 165.501V165.507L169.137 177.766C169.137 177.766 167.633 178.866 165.837 180.418C164.499 181.585 163.007 182.995 161.855 184.393C161.75 184.517 161.657 184.642 161.558 184.772C161.434 184.94 161.31 185.107 161.186 185.275C161.149 185.319 161.112 185.362 161.087 185.412C159.756 187.3 158.096 190.281 156.635 192.989C155.154 195.734 153.873 198.193 153.334 198.951C153.334 198.951 153.328 198.957 153.328 198.964C152.69 199.858 151.532 202.168 150.356 204.28C149.402 206 148.436 207.59 147.742 208.186C147.736 208.192 147.723 208.199 147.717 208.205C146.175 209.527 145.228 210.956 146.015 211.322C146.807 211.683 148.077 211.471 150.43 209.534C150.455 209.521 150.48 209.497 150.504 209.478C152.833 207.552 158.772 199.634 159.137 199.143C159.564 198.622 159.992 198.094 160.431 197.566C160.605 197.349 160.784 197.125 160.97 196.908C162.029 195.622 163.379 193.983 164.556 192.548C164.853 192.175 165.163 191.809 165.473 191.436C165.646 191.218 165.825 191.001 166.011 190.783C166.401 190.305 166.798 189.827 167.194 189.355C168.408 187.951 168.68 188.175 168.68 188.175L168.587 190.367L168.525 191.783V191.789L166.327 271.666C168.29 271.275 170.247 272.169 172.191 271.666C174.037 271.195 177.67 272.238 179.49 271.666C179.503 271.666 179.522 271.672 179.534 271.666L176.588 178.306V178.163C176.619 178.132 176.644 178.107 176.669 178.076L177.975 176.635L184.695 169.219C184.713 169.194 184.732 169.176 184.757 169.157C184.757 169.157 184.88 169.25 185.066 169.344C185.37 169.499 185.846 169.654 186.237 169.406C186.863 168.996 188.169 166.133 188.169 166.133L189.903 165.686C189.903 165.686 189.915 165.68 189.946 165.673C189.952 165.673 189.959 165.673 189.965 165.667L190.813 165.45L191.538 166.133L196.015 170.3C196.077 170.356 196.139 170.418 196.201 170.474L220.663 193.273C220.676 193.286 220.688 193.292 220.7 193.304C220.849 193.478 222.242 194.993 223.14 194.546C223.875 194.177 221.869 191.426 220.94 190.233ZM177.516 170.894C177.374 171.055 177.249 171.204 177.132 171.335C177.113 171.353 177.095 171.372 177.082 171.391C176.834 171.67 176.661 171.862 176.605 171.931C176.58 171.95 176.574 171.962 176.574 171.962V166.112H176.605L177.131 166.118L180.345 166.136L180.519 166.851L180.543 166.957C180.426 167.136 180.308 167.31 180.191 167.484C179.361 168.695 178.277 170.005 177.516 170.894Z" fill="white"/>
<path d="M192.344 164.692L191.539 166.135L190.81 165.456L189.944 165.677C189.917 165.685 189.902 165.689 189.902 165.689L188.166 166.135C188.166 166.135 186.863 168.998 186.236 169.407C185.845 169.659 185.366 169.502 185.063 169.35L185.469 168.281C185.469 168.281 184.55 165.426 181.409 165.636L181.135 167.365C181.135 167.365 179.908 165.349 179.962 165.067C180.015 164.785 178.268 162.934 177.998 160.219C177.728 157.505 179.062 152.2 185.982 153.638C185.982 153.638 183.746 153.857 182.837 157.564C181.93 161.274 187.406 163.894 192.344 164.692Z" fill="#A3CD0C"/>
<path d="M168.438 191.881L175.027 185.001L174.396 180.749L168.854 187.606L168.438 191.881Z" fill="#A3CD0C"/>
<path d="M173.139 160.593V159.703L176.914 163.441L176.607 165.914V172.14C175.627 173.129 173.959 174.476 173.176 175.091C173.26 166.574 173.264 160.875 173.139 160.593Z" fill="#A3CD0C"/>
<path d="M179.533 271.67C179.52 271.676 179.501 271.67 179.489 271.67C177.669 272.242 174.035 271.198 172.19 271.67C172.388 260.292 172.649 214.02 172.859 199.816C172.921 195.723 172.977 191.718 173.027 187.935C173.033 187.644 173.039 187.358 173.039 187.072C173.064 185.451 173.083 183.873 173.101 182.352V182.309L173.572 181.768L174.407 180.812L176.587 178.309L176.593 178.303L179.533 271.67Z" fill="#A3CD0C"/>
<path d="M223.138 194.55C222.188 195.024 220.684 193.298 220.684 193.298L190.81 165.455L189.944 165.677C190.274 165.585 192.409 164.959 194.419 163.44C197.632 164.738 202.015 168.258 203.132 170.33C204.26 172.43 208.822 177.816 208.822 177.816L220.51 189.683C220.51 189.683 224.087 194.073 223.138 194.55Z" fill="#A3CD0C"/>
<path d="M178.17 158.078C178.17 158.078 160.555 157.036 158.671 157.916C156.787 158.797 156.838 163.211 157.41 164.784L179.941 166.111L179.961 165.065L180.014 164.783C180.014 164.783 177.69 163.153 178.17 158.078Z" fill="#A3CD0C"/>
<path d="M183.58 165.914C183.58 165.914 180.329 172.973 176.041 176.023C171.753 179.074 163.35 184.883 156.117 193.598C156.117 193.598 159.869 185.313 164.012 181.87C168.155 178.428 173.732 175.128 175.431 173.348C177.13 171.568 181.407 165.636 181.407 165.636L183.58 165.914Z" fill="#A3CD0C"/>
<path d="M187.599 103.786C185.073 116.535 184.386 134.312 186.012 140.564C187.638 146.813 187.098 150.676 187.098 150.676H184.515V150.58L185.157 150.462C185.157 150.462 184.937 147.889 183.581 143.686C182.222 139.48 181.842 139.003 181.564 133.441C181.287 127.883 185.643 110.966 186.931 106.106C187.144 105.301 187.383 104.45 187.638 103.595C187.626 103.656 187.611 103.721 187.599 103.786Z" fill="#A3CD0C"/>
<path d="M183.58 153.315C181.51 153.394 179.917 153.876 178.93 155.849C177.48 158.747 177.629 162.615 180.013 164.782" stroke="#263238" stroke-miterlimit="10" stroke-linecap="round" stroke-linejoin="round"/>
<path d="M188.165 166.135C192.035 165.367 195.479 163.228 195.618 161.267C195.753 159.363 193.464 156.756 190.322 155.053" stroke="#263238" stroke-miterlimit="10" stroke-linecap="round" stroke-linejoin="round"/>
<path d="M190.617 155.219L190.145 150.677H183.991L183.58 153.316C183.58 153.316 184.754 153.277 187.098 153.914" stroke="#263238" stroke-miterlimit="10" stroke-linecap="round" stroke-linejoin="round"/>
<path d="M185.135 150.677C185.135 150.677 185.675 147.684 182.758 141.93C179.841 136.176 182.729 122.605 185.174 112.834C187.62 103.062 189.672 96.0054 191.725 95.571C193.778 95.1365 189.996 120.433 189.78 131.399C189.564 142.364 188.791 145.111 189.199 150.677" stroke="#263238" stroke-miterlimit="10" stroke-linecap="round" stroke-linejoin="round"/>
<path d="M185.47 168.279C185.47 168.279 183.873 164.794 181.407 165.636C179.321 168.868 176.845 172.548 173.679 174.787C170.35 177.141 166.858 178.858 164.011 181.869C161.224 184.818 159.018 188.278 157.069 191.825C153.723 197.918 150.956 204.424 146.5 209.752C146.123 210.202 145.714 210.82 146.014 211.325C146.356 211.899 147.226 211.707 147.814 211.393C151.467 209.442 153.703 205.774 156.259 202.659C158.286 200.189 160.302 197.709 162.332 195.241C166.99 189.579 171.67 183.932 176.43 178.354C178.229 176.245 180.038 174.143 181.887 172.078C182.159 171.775 185.556 168.467 185.47 168.279Z" stroke="#263238" stroke-miterlimit="10" stroke-linecap="round" stroke-linejoin="round"/>
<path d="M180.683 166.748C180.683 166.748 179.989 165.599 179.96 165.065C179.931 164.53 181.134 162.817 181.134 162.817" stroke="#263238" stroke-miterlimit="10" stroke-linecap="round" stroke-linejoin="round"/>
<path d="M184.753 169.159C184.753 169.159 185.939 169.713 186.389 169.159C186.839 168.606 188.349 165.796 188.349 165.796C188.349 165.796 186.303 163.154 184.753 162.817" stroke="#263238" stroke-miterlimit="10" stroke-linecap="round" stroke-linejoin="round"/>
<path d="M190.947 165.401C196.925 171.179 220.992 194.55 222.529 194.55C224.29 194.55 221.801 191.337 220.51 189.685C219.219 188.033 206.891 177.061 203.486 170.926C201.315 167.014 196.883 164.493 194.315 163.397" stroke="#263238" stroke-miterlimit="10" stroke-linecap="round" stroke-linejoin="round"/>
<path d="M180.346 166.135L175.205 165.833L172.47 165.669L166.028 165.291L163.323 165.131L157.409 164.784C157.409 164.784 156.399 159.352 158.67 157.916C160.205 156.943 164.854 155.588 168.409 154.786C170.115 154.401 171.57 154.141 172.306 154.118C172.933 154.099 173.791 154.145 174.711 154.225C175.85 154.325 177.077 154.473 178.061 154.603C178.517 154.661 179.295 154.674 179.611 154.72" stroke="#263238" stroke-miterlimit="10" stroke-linecap="round" stroke-linejoin="round"/>
<path d="M169.136 177.77L169.673 165.505" stroke="#263238" stroke-miterlimit="10" stroke-linecap="round" stroke-linejoin="round"/>
<path d="M168.71 187.556L168.592 190.314L168.585 190.37L168.524 191.786V191.792L166.325 271.67" stroke="#263238" stroke-miterlimit="10" stroke-linecap="round" stroke-linejoin="round"/>
<path d="M179.489 271.67C179.254 260.423 177.15 212.908 176.915 199.438C176.841 195.202 176.773 191.122 176.711 187.358C176.661 184.06 176.618 181.005 176.587 178.31C176.587 178.26 176.587 178.216 176.587 178.173V178.167" stroke="#263238" stroke-miterlimit="10" stroke-linecap="round" stroke-linejoin="round"/>
<path d="M176.607 165.914C176.52 165.908 176.534 168.114 176.562 172.207" stroke="#263238" stroke-miterlimit="10" stroke-linecap="round" stroke-linejoin="round"/>
<path d="M174.712 154.226C173.222 154.703 167.43 156.619 166.803 157.676C165.933 159.15 165.971 163.474 166.028 165.292L163.324 165.131C163.27 162.917 163.297 158.706 164.186 157.218C164.911 156.351 166.674 155.481 168.41 154.786C170.115 154.401 171.57 154.141 172.307 154.118C172.934 154.1 173.792 154.145 174.712 154.226Z" fill="#263238"/>
<path d="M179.611 154.817C179.611 154.817 176.132 156.413 175.501 158.107C174.973 159.519 175.133 164.268 175.205 165.833L172.47 165.669C172.478 163.692 172.527 159.004 172.804 157.786C173.154 156.233 178.062 154.603 178.062 154.603L179.232 154.763L179.611 154.817Z" fill="#263238"/>
<path d="M176.714 187.357C175.855 187.554 174.103 187.896 171.876 188.017V199.728C171.876 199.728 174.528 200.118 176.916 199.441" stroke="#263238" stroke-miterlimit="10" stroke-linecap="round" stroke-linejoin="round"/>
<path d="M169.673 165.505C169.673 165.505 172.222 168.676 176.608 169.223L176.573 165.784L169.673 165.505Z" fill="#263238"/>
<path opacity="0.1" d="M176.587 178.309L174.407 180.812L174.406 180.813L174.396 180.748L173.579 181.759L173.571 181.768L173.101 182.309V182.351L168.854 187.606L168.439 191.881L173.039 187.078C173.039 187.362 173.033 187.646 173.026 187.936C172.977 191.718 172.921 195.724 172.859 199.817C172.648 214.02 172.388 260.293 172.19 271.671C174.036 271.199 177.669 272.242 179.489 271.671C179.502 271.671 179.52 271.677 179.532 271.671L176.593 178.304L176.587 178.309Z" fill="black"/>
<path opacity="0.1" d="M220.509 189.683L208.821 177.816C208.821 177.816 204.26 172.43 203.132 170.33C202.015 168.258 197.631 164.738 194.418 163.44C193.706 163.979 192.979 164.403 192.321 164.733L192.344 164.692C187.406 163.894 181.929 161.274 182.837 157.564C183.745 153.857 185.981 153.638 185.981 153.638C180.634 152.526 178.624 155.441 178.11 158.075C177.016 158.012 160.492 157.066 158.67 157.917C156.786 158.797 156.837 163.212 157.409 164.784L173.237 165.716C173.235 168.15 173.214 171.347 173.177 175.09C173.81 174.593 175.018 173.618 175.977 172.738C175.775 172.973 175.591 173.18 175.43 173.348C173.731 175.128 168.153 178.428 164.011 181.87C159.868 185.312 156.116 193.598 156.116 193.598C163.349 184.883 171.752 179.073 176.04 176.023C179.997 173.209 183.068 166.987 183.52 166.04C184.98 166.786 185.468 168.281 185.468 168.281L185.062 169.35C185.366 169.502 185.844 169.659 186.236 169.407C186.863 168.998 188.165 166.135 188.165 166.135L189.901 165.689C189.901 165.689 189.916 165.685 189.943 165.677L190.809 165.456L220.683 193.298C220.683 193.298 222.188 195.024 223.137 194.551C224.087 194.073 220.509 189.683 220.509 189.683ZM179.577 164.354C179.249 163.968 178.807 163.297 178.491 162.252C178.833 163.145 179.268 163.863 179.577 164.354ZM176.607 171.983V165.915L179.94 166.111L179.96 165.065V165.064C179.96 165.064 179.961 165.065 179.961 165.067C179.929 165.234 180.348 166.011 180.694 166.615C179.727 167.936 177.963 170.315 176.607 171.983ZM181.408 165.636V165.635C182.057 165.592 182.605 165.683 183.076 165.849L181.408 165.636Z" fill="black"/>
<path opacity="0.1" d="M183.581 143.686C184.937 147.889 185.157 150.462 185.157 150.462L184.515 150.58V150.676H187.098C187.098 150.676 187.637 146.813 186.011 140.564C184.385 134.312 185.073 116.535 187.599 103.786C187.61 103.721 187.625 103.656 187.637 103.595C187.382 104.45 187.143 105.301 186.93 106.106C185.643 110.966 181.286 127.884 181.563 133.441C181.841 139.003 182.221 139.48 183.581 143.686Z" fill="black"/>
<path d="M191.701 143.532L183.864 137.122C183.864 137.122 172.205 125.347 170.365 121.932C168.544 118.56 165.62 115.845 160.381 113.733C160.325 113.708 160.269 113.683 160.213 113.665C160.213 113.665 162.61 112.522 162.344 109.591C162.084 106.659 157.414 101.983 154.182 100.356L153.414 92.965H152.082L151.686 88.425C151.686 88.425 152.051 68.0919 153.11 55.2357C154.163 42.3734 155.116 35.9146 155.692 28.0767C156.262 20.2328 157.308 21.7864 155.178 20.4572C153.4 19.3518 148.794 32.1353 148.447 33.4458C146.348 41.3517 140.664 57.1341 140.665 66.1881C140.666 73.9147 139.518 76.8571 142.711 81.5932C146.727 87.5471 145.281 92.6172 145.281 92.6172L144.235 92.8097L143.38 92.965L142.996 95.4055L142.711 97.2624C142.711 97.2624 138.37 97.0639 136.24 99.703C136.24 99.703 129.118 97.8401 120.039 99.2126C110.954 100.585 103.133 103.734 101.603 105.125C100.074 106.516 98.9155 112.726 100.042 115.919L120.039 117.093L120.035 117.191L131.286 118.122V118.081L132.196 118.087L137.441 118.118L137.568 118.642L138.723 119.889C137.323 122.075 134.738 124.464 133.314 126.122C132.403 127.172 131.285 127.595 131.285 127.595V127.498C129.483 129.367 126.436 132.366 124.023 133.917C122.158 135.115 119.827 136.684 117.985 137.936C115.611 139.768 111.924 143.935 108.583 149.728C105.092 155.784 98.7703 166.112 95.4097 170.305C93.8863 174.646 102.144 168.785 102.144 168.785C102.144 168.785 113.928 155.011 116.195 152.285C117.18 151.1 130.419 136.46 130.419 136.46L137.071 129.244L143.857 122.426C143.857 122.426 144.823 123.192 145.126 123.347C145.622 123.596 146.402 123.85 147.04 123.441C148.062 122.776 150.186 118.118 150.186 118.118L153.016 117.391C153.016 117.391 153.04 117.385 153.084 117.372L154.923 116.895L155.8 117.913L194.156 149.463L195.622 149.527L194.992 147.618L191.701 143.532Z" fill="white"/>
<path d="M124.543 143.164L123.352 170.43L121.495 212.836L119.544 257.273H139.714L137.072 129.243L124.543 143.164Z" fill="white"/>
<path d="M137.07 127.846V118.47L125.819 117.54L124.944 137.396C124.944 137.396 124.5 137.721 123.77 138.284C125.611 137.032 127.943 135.463 129.808 134.265C132.221 132.715 135.268 129.715 137.07 127.846Z" fill="white"/>
<path d="M156.999 115.77L155.719 116.509L154.497 117.012L153.085 117.372C153.042 117.385 153.017 117.391 153.017 117.391L150.187 118.118C150.187 118.118 148.063 122.776 147.041 123.441C146.403 123.85 144.242 123.127 143.746 122.879L145.62 120.57C145.62 120.57 145.097 117.046 140.453 117.461L138.724 120.118C138.724 120.118 136.723 116.839 136.81 116.379C136.897 115.919 134.049 112.907 133.609 108.492C133.169 104.076 135.343 95.4434 146.626 97.7847C146.626 97.7847 142.98 98.1415 141.5 104.172C140.02 110.208 148.948 114.472 156.999 115.77Z" fill="#A3CD0C"/>
<path d="M124.025 150.373L134.766 139.179L133.825 132.85L124.701 143.416L124.025 150.373Z" fill="#A3CD0C"/>
<path d="M131.688 109.1V107.653L137.844 113.733L137.342 117.757V127.887C135.745 129.495 133.026 131.688 131.75 132.687C131.887 118.831 131.893 109.559 131.688 109.1Z" fill="#A3CD0C"/>
<path d="M139.714 271.67H129.676C129.93 257.796 132.118 175.684 132.626 134.049L137.044 129.802L139.714 271.67Z" fill="#A3CD0C"/>
<path d="M195.224 149.714C193.676 150.485 155.128 116.752 155.128 116.752L154.34 116.358C154.879 116.209 157.268 115.957 160.544 113.485C165.783 115.597 169.723 120.283 171.544 123.656C173.383 127.072 183.58 135.735 183.58 135.735L193.215 145.227C193.215 145.227 196.773 148.938 195.224 149.714Z" fill="#A3CD0C"/>
<path d="M133.89 105.009C133.89 105.009 105.171 103.313 102.1 104.746C99.0285 106.178 99.1107 113.361 100.044 115.919L136.778 118.078L136.809 116.376L136.895 115.916C136.895 115.916 133.109 113.264 133.89 105.009Z" fill="#A3CD0C"/>
<path d="M142.711 117.757C142.711 117.757 138.35 130.957 130.42 134.205C115.928 140.14 109.97 152.652 98.1768 166.832C98.1768 166.832 106.573 152.882 111.247 145.447C118.16 134.45 125.576 131.3 129.012 129.243C136.809 124.575 140.453 117.46 140.453 117.46L142.711 117.757Z" fill="#A3CD0C"/>
<path d="M146.675 76.5129C149.613 86.6 148.447 92.9644 148.447 92.9644H144.236V92.8091L145.282 92.6166C145.282 92.6166 146.535 89.8168 143.277 83.4133C141.72 80.353 141.178 81.2225 140.536 72.204C139.894 63.1729 147.821 31.362 152.842 22.5596C153.514 21.3838 141.212 57.7514 146.675 76.5129Z" fill="#A3CD0C"/>
<path d="M142.712 97.2594C139.337 97.387 136.739 98.1716 135.129 101.382C132.766 106.097 133.008 112.39 136.896 115.917" stroke="#263238" stroke-miterlimit="10" stroke-linecap="round" stroke-linejoin="round"/>
<path d="M150.186 118.117C156.496 116.868 162.11 113.387 162.337 110.198C162.558 107.099 158.825 102.858 153.702 100.087" stroke="#263238" stroke-miterlimit="10" stroke-linecap="round" stroke-linejoin="round"/>
<path d="M154.185 100.356L153.414 92.9668H143.381L142.711 97.2594C142.711 97.2594 144.624 97.1956 148.448 98.2324" stroke="#263238" stroke-miterlimit="10" stroke-linecap="round" stroke-linejoin="round"/>
<path d="M145.549 92.9668C145.549 92.9668 146.338 89.0292 142.076 81.4578C137.815 73.8864 142.034 56.0294 145.607 43.1719C149.18 30.3151 152.179 21.0289 155.178 20.4578C158.177 19.8862 152.653 53.1724 152.337 67.6009C152.021 82.0294 150.892 85.6433 151.487 92.9674" stroke="#263238" stroke-miterlimit="10" stroke-linecap="round" stroke-linejoin="round"/>
<path d="M145.621 120.569C145.621 120.569 143.59 116.47 140.453 117.46C137.801 121.261 134.652 125.59 130.625 128.224C126.393 130.993 121.951 133.013 118.331 136.555C114.787 140.023 111.982 144.093 109.504 148.266C105.247 155.433 101.729 163.086 96.0624 169.353C95.583 169.882 95.0634 170.61 95.445 171.203C95.8794 171.879 96.9864 171.653 97.734 171.283C102.379 168.988 105.223 164.674 108.473 161.009C111.051 158.104 113.614 155.187 116.196 152.284C122.12 145.623 128.071 138.981 134.124 132.421C136.412 129.94 138.713 127.467 141.064 125.038C141.41 124.681 145.73 120.789 145.621 120.569Z" stroke="#263238" stroke-miterlimit="10" stroke-linecap="round" stroke-linejoin="round"/>
<path d="M137.988 119.114C137.988 119.114 136.857 117.245 136.81 116.376C136.763 115.506 138.725 112.719 138.725 112.719" stroke="#263238" stroke-miterlimit="10" stroke-linecap="round" stroke-linejoin="round"/>
<path d="M144.625 123.037C144.625 123.037 146.558 123.938 147.291 123.037C148.024 122.137 150.486 117.564 150.486 117.564C150.486 117.564 147.151 113.267 144.625 112.718" stroke="#263238" stroke-miterlimit="10" stroke-linecap="round" stroke-linejoin="round"/>
<path d="M154.924 116.745C162.521 123.442 192.898 149.763 194.85 149.763C197.088 149.763 193.926 146.04 192.285 144.126C190.644 142.212 174.98 129.496 170.654 122.386C167.896 117.853 163.477 114.934 160.214 113.665" stroke="#263238" stroke-miterlimit="10" stroke-linecap="round" stroke-linejoin="round"/>
<path d="M137.439 118.117L129.057 117.627L124.599 117.36L114.096 116.745L109.686 116.484L100.044 115.919C100.044 115.919 98.3967 107.081 102.1 104.746C104.602 103.162 112.182 100.958 117.978 99.653C120.759 99.026 123.131 98.6036 124.332 98.5663C125.354 98.535 126.754 98.6096 128.252 98.7402C130.11 98.9015 132.11 99.144 133.715 99.3552C134.458 99.4484 135.728 99.4695 136.241 99.5441" stroke="#263238" stroke-miterlimit="10" stroke-linecap="round" stroke-linejoin="round"/>
<path d="M125.457 131.184L126.037 117.935" stroke="#263238" stroke-miterlimit="10" stroke-linecap="round" stroke-linejoin="round"/>
<path d="M137.072 129.243C137.537 169.013 139.712 271.67 139.712 271.67H119.546L124.543 143.164" stroke="#263238" stroke-miterlimit="10" stroke-linecap="round" stroke-linejoin="round"/>
<path d="M128.252 98.7402C125.824 99.5164 116.38 102.634 115.359 104.355C113.94 106.752 114.003 113.788 114.095 116.745L109.686 116.484C109.599 112.882 109.642 106.031 111.091 103.609C112.274 102.199 115.148 100.784 117.978 99.653C120.758 99.026 123.13 98.6036 124.332 98.5663C125.354 98.5356 126.753 98.6102 128.252 98.7402Z" fill="#263238"/>
<path d="M136.241 99.703C136.241 99.703 130.569 102.299 129.54 105.056C128.679 107.354 128.94 115.08 129.057 117.627L124.599 117.36C124.611 114.143 124.692 106.516 125.143 104.535C125.713 102.007 133.714 99.3552 133.714 99.3552L135.622 99.6164L136.241 99.703Z" fill="#263238"/>
<path d="M137.516 159.099C136.116 159.419 133.258 159.976 129.629 160.173V179.226C129.629 179.226 133.953 179.861 137.846 178.759" stroke="#263238" stroke-miterlimit="10" stroke-linecap="round" stroke-linejoin="round"/>
<path d="M137.322 121.85C136.764 122.463 136.152 123.101 135.612 123.661C129.504 122.187 125.874 117.433 125.874 117.433L137.286 118.39L137.322 121.85Z" fill="#263238"/>
<path d="M206.459 275.824C206.867 272.647 207.089 266.798 203.897 263.609C199.367 259.066 192.575 266.443 190.877 266.443C189.179 266.443 188.609 261.907 183.515 257.929C178.421 253.952 172.193 259.066 168.797 257.929C165.401 256.792 171.629 239.198 162.005 238.632C152.381 238.067 148.985 262.472 142.205 262.472C135.425 262.472 134.279 257.929 127.487 261.907C122.165 265.017 119.279 272.653 118.277 275.824H206.459Z" fill="#A3CD0C"/>
<path opacity="0.2" d="M206.459 275.824C206.867 272.647 207.089 266.798 203.897 263.609C199.367 259.066 192.575 266.443 190.877 266.443C189.179 266.443 188.609 261.907 183.515 257.929C178.421 253.952 172.193 259.066 168.797 257.929C165.401 256.792 171.629 239.198 162.005 238.632C152.381 238.067 148.985 262.472 142.205 262.472C135.425 262.472 134.279 257.929 127.487 261.907C122.165 265.017 119.279 272.653 118.277 275.824H206.459Z" fill="black"/>
<path d="M136.727 275.435L130.97 266.058" stroke="#263238" stroke-linecap="round" stroke-linejoin="round"/>
<path d="M158.816 275.192L161.852 246.509" stroke="#263238" stroke-linecap="round" stroke-linejoin="round"/>
<path d="M176.354 275.435L179.318 264.536" stroke="#263238" stroke-linecap="round" stroke-linejoin="round"/>
<path d="M197.903 275.435L200.834 268.339" stroke="#263238" stroke-linecap="round" stroke-linejoin="round"/>
<path d="M137.552 266.311L134.516 271.642L127.43 268.85" stroke="#263238" stroke-linecap="round" stroke-linejoin="round"/>
<path d="M157.298 248.795L160.838 255.143L165.65 249.301" stroke="#263238" stroke-linecap="round" stroke-linejoin="round"/>
<path d="M155.27 258.952L159.83 264.536L164.384 260.98" stroke="#263238" stroke-linecap="round" stroke-linejoin="round"/>
<path d="M178.052 269.356L184.124 265.806" stroke="#263238" stroke-linecap="round" stroke-linejoin="round"/>
<path d="M177.548 271.39L174.506 263.519" stroke="#263238" stroke-linecap="round" stroke-linejoin="round"/>
<path d="M199.316 272.148L197.792 267.069" stroke="#263238" stroke-linecap="round" stroke-linejoin="round"/>
<path d="M198.806 273.165L203.108 271.39" stroke="#263238" stroke-linecap="round" stroke-linejoin="round"/>
<path d="M258.942 87.0863H283.685C283.685 87.0863 284.891 83.4296 280.497 81.0288C276.112 78.6286 274.111 80.6257 272.512 78.6286C270.913 76.6315 276.907 71.4176 264.929 66.214C264.929 66.214 264.125 54.9619 247.754 54.5961C231.382 54.2303 235.777 65.8482 231.382 68.6612C226.988 71.4742 225.772 67.0576 221.396 69.8616C217.021 72.665 219.003 78.3006 215.413 79.0696C211.822 79.8386 206.998 75.469 202.631 78.2724C198.265 81.0757 198.237 83.4766 196.236 83.4766C194.235 83.4766 190.252 81.873 187.821 83.4766C185.39 85.0801 182.623 87.0863 182.623 87.0863H253.883" stroke="#263238" stroke-miterlimit="10"/>
<path d="M38.6879 158.868H95.3123C95.3123 158.868 93.7613 157.744 92.3993 156.845C91.0373 155.947 88.8053 156.845 87.6845 156.845C86.5637 156.845 86.5475 155.501 84.1013 153.93C81.6551 152.358 78.9515 154.807 76.9403 154.376C74.9285 153.945 76.0391 150.788 73.5875 149.217C71.1359 147.646 70.4549 150.121 67.9925 148.545C65.5301 146.969 67.9925 140.46 58.8197 140.664C49.6469 140.869 49.1963 147.173 49.1963 147.173C42.4853 150.089 45.8435 153.01 44.9477 154.129C44.0519 155.248 42.9305 154.129 40.4741 155.474C38.0123 156.819 38.6879 158.868 38.6879 158.868Z" stroke="#263238" stroke-miterlimit="10"/>
<path d="M226.938 119.185C231.865 119.078 236.836 119.69 241.567 120.941C248.269 122.711 254.691 125.639 261.558 126.577C268.425 127.516 276.221 125.993 280.435 120.475" stroke="#263238" stroke-miterlimit="10" stroke-linecap="round" stroke-linejoin="round"/>
<path d="M201.019 128.356C206.931 123.311 214.312 120.481 222.035 119.535" stroke="#263238" stroke-miterlimit="10" stroke-linecap="round" stroke-linejoin="round"/>
<path d="M268.683 135.38C273.297 134.781 277.649 132.879 280.436 129.231" stroke="#263238" stroke-miterlimit="10" stroke-linecap="round" stroke-linejoin="round"/>
<path d="M201.019 137.112C211.9 127.828 227.752 126.045 241.566 129.696C248.268 131.467 254.691 134.395 261.558 135.333C262.829 135.507 264.132 135.596 265.439 135.592" stroke="#263238" stroke-miterlimit="10" stroke-linecap="round" stroke-linejoin="round"/>
<path d="M252.513 141.907C255.482 142.845 258.475 143.667 261.558 144.088C268.425 145.027 276.221 143.504 280.435 137.986" stroke="#263238" stroke-miterlimit="10" stroke-linecap="round" stroke-linejoin="round"/>
<path d="M232.135 136.846C235.328 137.098 238.498 137.64 241.567 138.452C244.643 139.264 247.66 140.321 250.688 141.317" stroke="#263238" stroke-miterlimit="10" stroke-linecap="round" stroke-linejoin="round"/>
<path d="M201.019 145.867C207.725 140.146 216.317 137.274 225.158 136.766" stroke="#263238" stroke-miterlimit="10" stroke-linecap="round" stroke-linejoin="round"/>
</svg>
