<svg width="50" height="43" viewBox="0 0 50 43" fill="none" xmlns="http://www.w3.org/2000/svg">
<path d="M49.7923 30.4305C49.7923 37.3502 44.1828 42.9598 37.263 42.9598L18.4692 42.9598C16.547 42.9598 14.9888 41.4016 14.9888 39.4794L14.9888 15.813C14.9888 11.9688 18.1052 8.85236 21.9495 8.85236L46.312 8.85236C48.2341 8.85236 49.7923 10.4106 49.7923 12.3327L49.7923 30.4305Z" fill="#EFF5E8"/>
<mask id="mask0_302_2541" style="mask-type:alpha" maskUnits="userSpaceOnUse" x="5" y="6" width="30" height="31">
<rect x="5" y="6.54715" width="30" height="30" fill="#D9D9D9"/>
</mask>
<g mask="url(#mask0_302_2541)">
<path d="M7.5 32.7971V30.2971H18.75V16.3284C18.2083 16.1409 17.7396 15.8492 17.3438 15.4534C16.9479 15.0576 16.6562 14.5888 16.4688 14.0471H12.5L16.25 22.7971C16.25 23.8388 15.8229 24.7242 14.9688 25.4534C14.1146 26.1826 13.0833 26.5471 11.875 26.5471C10.6667 26.5471 9.63542 26.1826 8.78125 25.4534C7.92708 24.7242 7.5 23.8388 7.5 22.7971L11.25 14.0471H8.75V11.5471H16.4688C16.7188 10.818 17.1667 10.219 17.8125 9.75027C18.4583 9.28152 19.1875 9.04715 20 9.04715C20.8125 9.04715 21.5417 9.28152 22.1875 9.75027C22.8333 10.219 23.2812 10.818 23.5312 11.5471H31.25V14.0471H28.75L32.5 22.7971C32.5 23.8388 32.0729 24.7242 31.2188 25.4534C30.3646 26.1826 29.3333 26.5471 28.125 26.5471C26.9167 26.5471 25.8854 26.1826 25.0312 25.4534C24.1771 24.7242 23.75 23.8388 23.75 22.7971L27.5 14.0471H23.5312C23.3438 14.5888 23.0521 15.0576 22.6562 15.4534C22.2604 15.8492 21.7917 16.1409 21.25 16.3284V30.2971H32.5V32.7971H7.5ZM25.7812 22.7971H30.4688L28.125 17.3596L25.7812 22.7971ZM9.53125 22.7971H14.2188L11.875 17.3596L9.53125 22.7971ZM20 14.0471C20.3542 14.0471 20.651 13.9274 20.8906 13.6878C21.1302 13.4482 21.25 13.1513 21.25 12.7971C21.25 12.443 21.1302 12.1461 20.8906 11.9065C20.651 11.6669 20.3542 11.5471 20 11.5471C19.6458 11.5471 19.349 11.6669 19.1094 11.9065C18.8698 12.1461 18.75 12.443 18.75 12.7971C18.75 13.1513 18.8698 13.4482 19.1094 13.6878C19.349 13.9274 19.6458 14.0471 20 14.0471Z" fill="#103E13"/>
</g>
</svg>
