<svg width="46" height="40" viewBox="0 0 46 40" fill="none" xmlns="http://www.w3.org/2000/svg">
<path d="M45.9188 27.4305C45.9188 34.3502 40.3092 39.9598 33.3895 39.9598L14.5956 39.9598C12.6735 39.9598 11.1153 38.4016 11.1153 36.4794L11.1153 12.813C11.1153 8.96876 14.2317 5.85236 18.076 5.85236L42.4384 5.85236C44.3606 5.85236 45.9188 7.41056 45.9188 9.33271L45.9188 27.4305Z" fill="#EFF5E8"/>
<mask id="mask0_302_2532" style="mask-type:alpha" maskUnits="userSpaceOnUse" x="3" y="2" width="31" height="31">
<rect x="3.00012" y="2.54715" width="30" height="30" fill="#D9D9D9"/>
</mask>
<g mask="url(#mask0_302_2532)">
<path d="M14.2501 29.9846V26.8596C12.0418 26.0888 10.2397 24.7399 8.84387 22.8128C7.44804 20.8857 6.75012 18.693 6.75012 16.2346C6.75012 14.6721 7.047 13.2086 7.64075 11.844C8.2345 10.4794 9.03658 9.29194 10.047 8.28152C11.0574 7.27111 12.2449 6.46902 13.6095 5.87527C14.9741 5.28152 16.4272 4.98465 17.9689 4.98465C19.5105 4.98465 20.9689 5.28152 22.3439 5.87527C23.7189 6.46902 24.9168 7.27111 25.9376 8.28152C26.9585 9.29194 27.7657 10.4794 28.3595 11.844C28.9532 13.2086 29.2501 14.6721 29.2501 16.2346C29.2501 18.693 28.547 20.8753 27.1407 22.7815C25.7345 24.6878 23.9376 26.0367 21.7501 26.8284V29.9846H19.2501V27.4221C19.0418 27.4638 18.8335 27.4846 18.6251 27.4846H17.9689C17.7605 27.4846 17.5574 27.4794 17.3595 27.469C17.1616 27.4586 16.9585 27.443 16.7501 27.4221V29.9846H14.2501ZM18.0001 25.0472C20.4168 25.0472 22.4793 24.193 24.1876 22.4846C25.896 20.7763 26.7501 18.7138 26.7501 16.2971C26.7501 13.8805 25.896 11.818 24.1876 10.1096C22.4793 8.40132 20.4168 7.54715 18.0001 7.54715C15.5835 7.54715 13.521 8.40132 11.8126 10.1096C10.1043 11.818 9.25012 13.8805 9.25012 16.2971C9.25012 18.7138 10.1043 20.7763 11.8126 22.4846C13.521 24.193 15.5835 25.0472 18.0001 25.0472ZM13.0001 13.7971H23.0001V11.2971H13.0001V13.7971ZM17.0626 23.7971L20.8126 20.0471L19.2501 18.4846L20.8126 16.9221L18.9376 15.0471L15.1876 18.7971L16.7501 20.3596L15.1876 21.9221L17.0626 23.7971Z" fill="#103E13"/>
</g>
</svg>
