<svg width="46" height="40" viewBox="0 0 46 40" fill="none" xmlns="http://www.w3.org/2000/svg">
<path d="M45.6659 27.4305C45.6659 34.3502 40.0564 39.9597 33.1366 39.9597L14.3428 39.9597C12.4206 39.9597 10.8624 38.4015 10.8624 36.4794L10.8624 12.813C10.8624 8.96873 13.9788 5.85233 17.8231 5.85233L42.1856 5.85233C44.1077 5.85233 45.6659 7.41053 45.6659 9.33268L45.6659 27.4305Z" fill="#EFF5E8"/>
<mask id="mask0_302_2566" style="mask-type:alpha" maskUnits="userSpaceOnUse" x="3" y="2" width="30" height="31">
<rect x="3" y="2.54712" width="30" height="30" fill="#D9D9D9"/>
</mask>
<g mask="url(#mask0_302_2566)">
<path d="M15.0938 19.6721L16.1875 16.1096L13.3125 13.7971H16.875L18 10.2971L19.125 13.7971H22.6875L19.7812 16.1096L20.875 19.6721L18 17.4534L15.0938 19.6721ZM10.5 31.2971V21.6409C9.70833 20.7659 9.09375 19.7659 8.65625 18.6409C8.21875 17.5159 8 16.318 8 15.0471C8 12.2555 8.96875 9.89087 10.9062 7.95337C12.8438 6.01587 15.2083 5.04712 18 5.04712C20.7917 5.04712 23.1562 6.01587 25.0938 7.95337C27.0312 9.89087 28 12.2555 28 15.0471C28 16.318 27.7812 17.5159 27.3438 18.6409C26.9062 19.7659 26.2917 20.7659 25.5 21.6409V31.2971L18 28.7971L10.5 31.2971ZM18 22.5471C20.0833 22.5471 21.8542 21.818 23.3125 20.3596C24.7708 18.9013 25.5 17.1305 25.5 15.0471C25.5 12.9638 24.7708 11.193 23.3125 9.73462C21.8542 8.27629 20.0833 7.54712 18 7.54712C15.9167 7.54712 14.1458 8.27629 12.6875 9.73462C11.2292 11.193 10.5 12.9638 10.5 15.0471C10.5 17.1305 11.2292 18.9013 12.6875 20.3596C14.1458 21.818 15.9167 22.5471 18 22.5471ZM13 27.5784L18 26.2971L23 27.5784V23.7034C22.2708 24.12 21.4844 24.4482 20.6406 24.6877C19.7969 24.9273 18.9167 25.0471 18 25.0471C17.0833 25.0471 16.2031 24.9273 15.3594 24.6877C14.5156 24.4482 13.7292 24.12 13 23.7034V27.5784Z" fill="#103E13"/>
</g>
</svg>
